ISO-10303-21;
HEADER;
/* Generated by software containing ST-Developer
 * from STEP Tools, Inc. (www.steptools.com) 
 */

FILE_DESCRIPTION(
/* description */ (''),
/* implementation_level */ '2;1');

FILE_NAME(
/* name */ 'acc_gyro.step',
/* time_stamp */ '2024-11-18T08:28:29+01:00',
/* author */ (''),
/* organization */ (''),
/* preprocessor_version */ 'ST-DEVELOPER v20',
/* originating_system */ 'Autodesk Translation Framework v13.20.0.188',

/* authorisation */ '');

FILE_SCHEMA (('AUTOMOTIVE_DESIGN { 1 0 10303 214 3 1 1 }'));
ENDSEC;

DATA;
#10=MECHANICAL_DESIGN_GEOMETRIC_PRESENTATION_REPRESENTATION('',(#13),#1433);
#11=SHAPE_REPRESENTATION_RELATIONSHIP('SRR','None',#1440,#12);
#12=ADVANCED_BREP_SHAPE_REPRESENTATION('',(#14),#1432);
#13=STYLED_ITEM('',(#1449),#14);
#14=MANIFOLD_SOLID_BREP('Body1',#663);
#15=(
BOUNDED_CURVE()
B_SPLINE_CURVE(5,(#1255,#1256,#1257,#1258,#1259,#1260,#1261,#1262,#1263,
#1264),.UNSPECIFIED.,.F.,.F.)
B_SPLINE_CURVE_WITH_KNOTS((6,1,1,1,1,6),(0.,0.2,0.4,0.6,0.8,1.),
 .UNSPECIFIED.)
CURVE()
GEOMETRIC_REPRESENTATION_ITEM()
RATIONAL_B_SPLINE_CURVE((1.,1.,1.,1.,1.,1.,1.,1.,1.,1.))
REPRESENTATION_ITEM('')
);
#16=(
BOUNDED_CURVE()
B_SPLINE_CURVE(5,(#1291,#1292,#1293,#1294,#1295,#1296,#1297,#1298,#1299,
#1300),.UNSPECIFIED.,.F.,.F.)
B_SPLINE_CURVE_WITH_KNOTS((6,1,1,1,1,6),(0.,0.2,0.4,0.6,0.8,1.),
 .UNSPECIFIED.)
CURVE()
GEOMETRIC_REPRESENTATION_ITEM()
RATIONAL_B_SPLINE_CURVE((1.,1.,1.,1.,1.,1.,1.,1.,1.,1.))
REPRESENTATION_ITEM('')
);
#17=(
BOUNDED_CURVE()
B_SPLINE_CURVE(5,(#1377,#1378,#1379,#1380,#1381,#1382,#1383,#1384,#1385,
#1386),.UNSPECIFIED.,.F.,.F.)
B_SPLINE_CURVE_WITH_KNOTS((6,1,1,1,1,6),(0.,0.2,0.4,0.6,0.8,1.),
 .UNSPECIFIED.)
CURVE()
GEOMETRIC_REPRESENTATION_ITEM()
RATIONAL_B_SPLINE_CURVE((1.,1.,1.,1.,1.,1.,1.,1.,1.,1.))
REPRESENTATION_ITEM('')
);
#18=(
BOUNDED_CURVE()
B_SPLINE_CURVE(5,(#1419,#1420,#1421,#1422,#1423,#1424,#1425,#1426,#1427,
#1428),.UNSPECIFIED.,.F.,.F.)
B_SPLINE_CURVE_WITH_KNOTS((6,1,1,1,1,6),(0.,0.2,0.4,0.6,0.8,1.),
 .UNSPECIFIED.)
CURVE()
GEOMETRIC_REPRESENTATION_ITEM()
RATIONAL_B_SPLINE_CURVE((1.,1.,1.,1.,1.,1.,1.,1.,1.,1.))
REPRESENTATION_ITEM('')
);
#19=(
BOUNDED_SURFACE()
B_SPLINE_SURFACE(5,1,((#1233,#1234),(#1235,#1236),(#1237,#1238),(#1239,
#1240),(#1241,#1242),(#1243,#1244),(#1245,#1246),(#1247,#1248),(#1249,#1250),
(#1251,#1252)),.UNSPECIFIED.,.F.,.F.,.F.)
B_SPLINE_SURFACE_WITH_KNOTS((6,1,1,1,1,6),(2,2),(-1.,-0.8,-0.6,-0.4,-0.2,
0.),(0.,0.8),.UNSPECIFIED.)
GEOMETRIC_REPRESENTATION_ITEM()
RATIONAL_B_SPLINE_SURFACE(((1.,1.),(1.,1.),(1.,1.),(1.,1.),(1.,1.),(1.,
1.),(1.,1.),(1.,1.),(1.,1.),(1.,1.)))
REPRESENTATION_ITEM('')
SURFACE()
);
#20=(
BOUNDED_SURFACE()
B_SPLINE_SURFACE(5,1,((#1269,#1270),(#1271,#1272),(#1273,#1274),(#1275,
#1276),(#1277,#1278),(#1279,#1280),(#1281,#1282),(#1283,#1284),(#1285,#1286),
(#1287,#1288)),.UNSPECIFIED.,.F.,.F.,.F.)
B_SPLINE_SURFACE_WITH_KNOTS((6,1,1,1,1,6),(2,2),(-1.,-0.8,-0.6,-0.4,-0.2,
0.),(0.,0.8),.UNSPECIFIED.)
GEOMETRIC_REPRESENTATION_ITEM()
RATIONAL_B_SPLINE_SURFACE(((1.,1.),(1.,1.),(1.,1.),(1.,1.),(1.,1.),(1.,
1.),(1.,1.),(1.,1.),(1.,1.),(1.,1.)))
REPRESENTATION_ITEM('')
SURFACE()
);
#21=(
BOUNDED_SURFACE()
B_SPLINE_SURFACE(5,1,((#1355,#1356),(#1357,#1358),(#1359,#1360),(#1361,
#1362),(#1363,#1364),(#1365,#1366),(#1367,#1368),(#1369,#1370),(#1371,#1372),
(#1373,#1374)),.UNSPECIFIED.,.F.,.F.,.F.)
B_SPLINE_SURFACE_WITH_KNOTS((6,1,1,1,1,6),(2,2),(-1.,-0.8,-0.6,-0.4,-0.2,
0.),(0.,0.8),.UNSPECIFIED.)
GEOMETRIC_REPRESENTATION_ITEM()
RATIONAL_B_SPLINE_SURFACE(((1.,1.),(1.,1.),(1.,1.),(1.,1.),(1.,1.),(1.,
1.),(1.,1.),(1.,1.),(1.,1.),(1.,1.)))
REPRESENTATION_ITEM('')
SURFACE()
);
#22=(
BOUNDED_SURFACE()
B_SPLINE_SURFACE(5,1,((#1399,#1400),(#1401,#1402),(#1403,#1404),(#1405,
#1406),(#1407,#1408),(#1409,#1410),(#1411,#1412),(#1413,#1414),(#1415,#1416),
(#1417,#1418)),.UNSPECIFIED.,.F.,.F.,.F.)
B_SPLINE_SURFACE_WITH_KNOTS((6,1,1,1,1,6),(2,2),(0.,0.2,0.4,0.6,0.8,1.),
(0.,0.8),.UNSPECIFIED.)
GEOMETRIC_REPRESENTATION_ITEM()
RATIONAL_B_SPLINE_SURFACE(((1.,1.),(1.,1.),(1.,1.),(1.,1.),(1.,1.),(1.,
1.),(1.,1.),(1.,1.),(1.,1.),(1.,1.)))
REPRESENTATION_ITEM('')
SURFACE()
);
#23=B_SPLINE_SURFACE_WITH_KNOTS('',3,3,((#1049,#1050,#1051,#1052,#1053,
#1054),(#1055,#1056,#1057,#1058,#1059,#1060),(#1061,#1062,#1063,#1064,#1065,
#1066),(#1067,#1068,#1069,#1070,#1071,#1072),(#1073,#1074,#1075,#1076,#1077,
#1078)),.UNSPECIFIED.,.F.,.F.,.F.,(4,1,4),(4,1,1,4),(0.,0.5,1.),(0.,0.408176495607841,
0.680294159346402,0.952411823084963),.UNSPECIFIED.);
#24=B_SPLINE_SURFACE_WITH_KNOTS('',3,3,((#1091,#1092,#1093,#1094,#1095,
#1096,#1097),(#1098,#1099,#1100,#1101,#1102,#1103,#1104),(#1105,#1106,#1107,
#1108,#1109,#1110,#1111),(#1112,#1113,#1114,#1115,#1116,#1117,#1118),(#1119,
#1120,#1121,#1122,#1123,#1124,#1125)),.UNSPECIFIED.,.F.,.F.,.F.,(4,1,4),
(4,1,1,1,4),(0.,0.5,1.),(0.,0.271797056968607,0.407695585452911,0.679492642421518,
0.951289699390125),.UNSPECIFIED.);
#25=B_SPLINE_SURFACE_WITH_KNOTS('',3,3,((#1139,#1140,#1141,#1142,#1143,
#1144),(#1145,#1146,#1147,#1148,#1149,#1150),(#1151,#1152,#1153,#1154,#1155,
#1156),(#1157,#1158,#1159,#1160,#1161,#1162),(#1163,#1164,#1165,#1166,#1167,
#1168)),.UNSPECIFIED.,.F.,.F.,.F.,(4,1,4),(4,1,1,4),(0.,0.5,1.),(0.,0.256484446827855,
0.427474078046424,0.598463709264994),.UNSPECIFIED.);
#26=B_SPLINE_SURFACE_WITH_KNOTS('',3,3,((#1191,#1192,#1193,#1194,#1195,
#1196),(#1197,#1198,#1199,#1200,#1201,#1202),(#1203,#1204,#1205,#1206,#1207,
#1208),(#1209,#1210,#1211,#1212,#1213,#1214),(#1215,#1216,#1217,#1218,#1219,
#1220)),.UNSPECIFIED.,.F.,.F.,.F.,(4,1,4),(4,1,1,4),(0.,0.5,1.),(4.35992137213459E-16,
0.256630510195596,0.42771751699266,0.598804523789724),.UNSPECIFIED.);
#27=FACE_BOUND('',#108,.T.);
#28=FACE_BOUND('',#110,.T.);
#29=FACE_BOUND('',#130,.T.);
#30=FACE_BOUND('',#132,.T.);
#31=FACE_BOUND('',#136,.T.);
#32=FACE_BOUND('',#138,.T.);
#33=FACE_BOUND('',#142,.T.);
#34=FACE_BOUND('',#144,.T.);
#35=FACE_BOUND('',#154,.T.);
#36=FACE_BOUND('',#155,.T.);
#37=FACE_BOUND('',#156,.T.);
#38=FACE_BOUND('',#157,.T.);
#39=FACE_BOUND('',#158,.T.);
#40=B_SPLINE_CURVE_WITH_KNOTS('',3,(#986,#987,#988,#989,#990,#991,#992),
 .UNSPECIFIED.,.F.,.F.,(4,1,1,1,4),(-0.951289699390125,-0.679492642421518,
-0.407695585452911,-0.271797056968607,0.),.UNSPECIFIED.);
#41=B_SPLINE_CURVE_WITH_KNOTS('',3,(#996,#997,#998,#999,#1000,#1001),
 .UNSPECIFIED.,.F.,.F.,(4,1,1,4),(-0.598463709264994,-0.427474078046424,
-0.256484446827855,0.),.UNSPECIFIED.);
#42=B_SPLINE_CURVE_WITH_KNOTS('',3,(#1012,#1013,#1014,#1015,#1016,#1017),
 .UNSPECIFIED.,.F.,.F.,(4,1,1,4),(-0.598804523789724,-0.42771751699266,
-0.256630510195596,-4.35992137213459E-16),.UNSPECIFIED.);
#43=B_SPLINE_CURVE_WITH_KNOTS('',3,(#1021,#1022,#1023,#1024,#1025,#1026),
 .UNSPECIFIED.,.F.,.F.,(4,1,1,4),(-0.952411823084963,-0.680294159346402,
-0.408176495607841,0.),.UNSPECIFIED.);
#44=B_SPLINE_CURVE_WITH_KNOTS('',3,(#1081,#1082,#1083,#1084,#1085,#1086),
 .UNSPECIFIED.,.F.,.F.,(4,1,1,4),(0.,0.408176495607841,0.680294159346402,
0.952411823084963),.UNSPECIFIED.);
#45=B_SPLINE_CURVE_WITH_KNOTS('',3,(#1128,#1129,#1130,#1131,#1132,#1133,
#1134),.UNSPECIFIED.,.F.,.F.,(4,1,1,1,4),(0.,0.271797056968607,0.407695585452911,
0.679492642421518,0.951289699390125),.UNSPECIFIED.);
#46=B_SPLINE_CURVE_WITH_KNOTS('',3,(#1171,#1172,#1173,#1174,#1175,#1176),
 .UNSPECIFIED.,.F.,.F.,(4,1,1,4),(0.,0.256484446827855,0.427474078046424,
0.598463709264994),.UNSPECIFIED.);
#47=B_SPLINE_CURVE_WITH_KNOTS('',3,(#1221,#1222,#1223,#1224,#1225,#1226),
 .UNSPECIFIED.,.F.,.F.,(4,1,1,4),(4.35992137213459E-16,0.256630510195596,
0.42771751699266,0.598804523789724),.UNSPECIFIED.);
#48=PLANE('',#687);
#49=PLANE('',#691);
#50=PLANE('',#725);
#51=PLANE('',#731);
#52=PLANE('',#732);
#53=PLANE('',#739);
#54=PLANE('',#740);
#55=PLANE('',#747);
#56=PLANE('',#748);
#57=PLANE('',#758);
#58=PLANE('',#761);
#59=TOROIDAL_SURFACE('',#680,3.5,0.5);
#60=TOROIDAL_SURFACE('',#701,2.5,0.5);
#61=TOROIDAL_SURFACE('',#709,2.5,0.5);
#62=TOROIDAL_SURFACE('',#713,3.5,0.5);
#63=TOROIDAL_SURFACE('',#719,3.5,0.5);
#64=FACE_OUTER_BOUND('',#105,.T.);
#65=FACE_OUTER_BOUND('',#106,.T.);
#66=FACE_OUTER_BOUND('',#107,.T.);
#67=FACE_OUTER_BOUND('',#109,.T.);
#68=FACE_OUTER_BOUND('',#111,.T.);
#69=FACE_OUTER_BOUND('',#112,.T.);
#70=FACE_OUTER_BOUND('',#113,.T.);
#71=FACE_OUTER_BOUND('',#114,.T.);
#72=FACE_OUTER_BOUND('',#115,.T.);
#73=FACE_OUTER_BOUND('',#116,.T.);
#74=FACE_OUTER_BOUND('',#117,.T.);
#75=FACE_OUTER_BOUND('',#118,.T.);
#76=FACE_OUTER_BOUND('',#119,.T.);
#77=FACE_OUTER_BOUND('',#120,.T.);
#78=FACE_OUTER_BOUND('',#121,.T.);
#79=FACE_OUTER_BOUND('',#122,.T.);
#80=FACE_OUTER_BOUND('',#123,.T.);
#81=FACE_OUTER_BOUND('',#124,.T.);
#82=FACE_OUTER_BOUND('',#125,.T.);
#83=FACE_OUTER_BOUND('',#126,.T.);
#84=FACE_OUTER_BOUND('',#127,.T.);
#85=FACE_OUTER_BOUND('',#128,.T.);
#86=FACE_OUTER_BOUND('',#129,.T.);
#87=FACE_OUTER_BOUND('',#131,.T.);
#88=FACE_OUTER_BOUND('',#133,.T.);
#89=FACE_OUTER_BOUND('',#134,.T.);
#90=FACE_OUTER_BOUND('',#135,.T.);
#91=FACE_OUTER_BOUND('',#137,.T.);
#92=FACE_OUTER_BOUND('',#139,.T.);
#93=FACE_OUTER_BOUND('',#140,.T.);
#94=FACE_OUTER_BOUND('',#141,.T.);
#95=FACE_OUTER_BOUND('',#143,.T.);
#96=FACE_OUTER_BOUND('',#145,.T.);
#97=FACE_OUTER_BOUND('',#146,.T.);
#98=FACE_OUTER_BOUND('',#147,.T.);
#99=FACE_OUTER_BOUND('',#148,.T.);
#100=FACE_OUTER_BOUND('',#149,.T.);
#101=FACE_OUTER_BOUND('',#150,.T.);
#102=FACE_OUTER_BOUND('',#151,.T.);
#103=FACE_OUTER_BOUND('',#152,.T.);
#104=FACE_OUTER_BOUND('',#153,.T.);
#105=EDGE_LOOP('',(#419,#420,#421,#422));
#106=EDGE_LOOP('',(#423,#424,#425,#426,#427,#428,#429));
#107=EDGE_LOOP('',(#430,#431,#432,#433,#434,#435,#436));
#108=EDGE_LOOP('',(#437));
#109=EDGE_LOOP('',(#438,#439,#440,#441,#442,#443,#444,#445,#446));
#110=EDGE_LOOP('',(#447));
#111=EDGE_LOOP('',(#448,#449,#450,#451,#452));
#112=EDGE_LOOP('',(#453,#454,#455,#456));
#113=EDGE_LOOP('',(#457,#458,#459,#460));
#114=EDGE_LOOP('',(#461,#462,#463,#464));
#115=EDGE_LOOP('',(#465,#466,#467,#468,#469));
#116=EDGE_LOOP('',(#470,#471,#472,#473));
#117=EDGE_LOOP('',(#474,#475,#476,#477));
#118=EDGE_LOOP('',(#478,#479,#480,#481));
#119=EDGE_LOOP('',(#482,#483,#484,#485,#486,#487,#488));
#120=EDGE_LOOP('',(#489,#490,#491,#492,#493));
#121=EDGE_LOOP('',(#494,#495,#496,#497,#498,#499,#500,#501));
#122=EDGE_LOOP('',(#502,#503,#504,#505));
#123=EDGE_LOOP('',(#506,#507,#508,#509));
#124=EDGE_LOOP('',(#510,#511,#512,#513));
#125=EDGE_LOOP('',(#514,#515,#516,#517));
#126=EDGE_LOOP('',(#518,#519,#520,#521));
#127=EDGE_LOOP('',(#522,#523,#524,#525));
#128=EDGE_LOOP('',(#526,#527,#528,#529));
#129=EDGE_LOOP('',(#530));
#130=EDGE_LOOP('',(#531));
#131=EDGE_LOOP('',(#532));
#132=EDGE_LOOP('',(#533));
#133=EDGE_LOOP('',(#534,#535,#536,#537));
#134=EDGE_LOOP('',(#538,#539,#540,#541));
#135=EDGE_LOOP('',(#542));
#136=EDGE_LOOP('',(#543));
#137=EDGE_LOOP('',(#544));
#138=EDGE_LOOP('',(#545));
#139=EDGE_LOOP('',(#546,#547,#548,#549));
#140=EDGE_LOOP('',(#550,#551,#552,#553));
#141=EDGE_LOOP('',(#554));
#142=EDGE_LOOP('',(#555));
#143=EDGE_LOOP('',(#556));
#144=EDGE_LOOP('',(#557));
#145=EDGE_LOOP('',(#558,#559,#560,#561));
#146=EDGE_LOOP('',(#562,#563,#564,#565));
#147=EDGE_LOOP('',(#566,#567,#568,#569));
#148=EDGE_LOOP('',(#570,#571,#572,#573));
#149=EDGE_LOOP('',(#574,#575,#576,#577));
#150=EDGE_LOOP('',(#578,#579,#580,#581));
#151=EDGE_LOOP('',(#582,#583,#584,#585));
#152=EDGE_LOOP('',(#586,#587,#588,#589));
#153=EDGE_LOOP('',(#590,#591,#592,#593,#594,#595,#596,#597,#598,#599));
#154=EDGE_LOOP('',(#600));
#155=EDGE_LOOP('',(#601));
#156=EDGE_LOOP('',(#602));
#157=EDGE_LOOP('',(#603));
#158=EDGE_LOOP('',(#604));
#159=LINE('',#968,#188);
#160=LINE('',#984,#189);
#161=LINE('',#1004,#190);
#162=LINE('',#1027,#191);
#163=LINE('',#1029,#192);
#164=LINE('',#1035,#193);
#165=LINE('',#1041,#194);
#166=LINE('',#1090,#195);
#167=LINE('',#1185,#196);
#168=LINE('',#1229,#197);
#169=LINE('',#1232,#198);
#170=LINE('',#1254,#199);
#171=LINE('',#1267,#200);
#172=LINE('',#1268,#201);
#173=LINE('',#1290,#202);
#174=LINE('',#1303,#203);
#175=LINE('',#1309,#204);
#176=LINE('',#1317,#205);
#177=LINE('',#1323,#206);
#178=LINE('',#1331,#207);
#179=LINE('',#1337,#208);
#180=LINE('',#1345,#209);
#181=LINE('',#1349,#210);
#182=LINE('',#1353,#211);
#183=LINE('',#1376,#212);
#184=LINE('',#1389,#213);
#185=LINE('',#1393,#214);
#186=LINE('',#1394,#215);
#187=LINE('',#1397,#216);
#188=VECTOR('',#768,3.);
#189=VECTOR('',#787,10.);
#190=VECTOR('',#792,10.);
#191=VECTOR('',#801,10.);
#192=VECTOR('',#802,10.);
#193=VECTOR('',#809,3.);
#194=VECTOR('',#816,3.);
#195=VECTOR('',#833,10.);
#196=VECTOR('',#856,10.);
#197=VECTOR('',#867,10.);
#198=VECTOR('',#870,10.);
#199=VECTOR('',#871,10.);
#200=VECTOR('',#874,10.);
#201=VECTOR('',#875,10.);
#202=VECTOR('',#876,10.);
#203=VECTOR('',#879,10.);
#204=VECTOR('',#886,2.5);
#205=VECTOR('',#897,3.);
#206=VECTOR('',#904,2.5);
#207=VECTOR('',#915,3.);
#208=VECTOR('',#922,2.5);
#209=VECTOR('',#933,3.);
#210=VECTOR('',#938,1.95);
#211=VECTOR('',#943,1.95);
#212=VECTOR('',#946,10.);
#213=VECTOR('',#949,10.);
#214=VECTOR('',#954,10.);
#215=VECTOR('',#955,10.);
#216=VECTOR('',#958,10.);
#217=CIRCLE('',#678,3.);
#218=CIRCLE('',#679,3.);
#219=CIRCLE('',#681,3.5);
#220=CIRCLE('',#682,3.5);
#221=CIRCLE('',#683,0.5);
#222=CIRCLE('',#684,3.);
#223=CIRCLE('',#685,3.);
#224=CIRCLE('',#686,3.5);
#225=CIRCLE('',#688,2.5);
#226=CIRCLE('',#689,3.5);
#227=CIRCLE('',#690,1.95);
#228=CIRCLE('',#692,3.5);
#229=CIRCLE('',#693,2.5);
#230=CIRCLE('',#694,3.5);
#231=CIRCLE('',#695,1.95);
#232=CIRCLE('',#697,3.);
#233=CIRCLE('',#699,3.);
#234=CIRCLE('',#700,3.);
#235=CIRCLE('',#702,0.5);
#236=CIRCLE('',#703,3.);
#237=CIRCLE('',#704,0.499999999999998);
#238=CIRCLE('',#705,0.499999999999998);
#239=CIRCLE('',#707,0.5);
#240=CIRCLE('',#708,0.5);
#241=CIRCLE('',#710,0.5);
#242=CIRCLE('',#711,3.);
#243=CIRCLE('',#712,0.5);
#244=CIRCLE('',#714,0.5);
#245=CIRCLE('',#715,4.);
#246=CIRCLE('',#716,0.5);
#247=CIRCLE('',#718,0.5);
#248=CIRCLE('',#720,0.5);
#249=CIRCLE('',#721,4.);
#250=CIRCLE('',#722,0.500000000000003);
#251=CIRCLE('',#724,3.);
#252=CIRCLE('',#727,3.);
#253=CIRCLE('',#729,2.5);
#254=CIRCLE('',#730,2.5);
#255=CIRCLE('',#733,3.);
#256=CIRCLE('',#735,3.);
#257=CIRCLE('',#737,2.5);
#258=CIRCLE('',#738,2.5);
#259=CIRCLE('',#741,3.);
#260=CIRCLE('',#743,3.);
#261=CIRCLE('',#745,2.5);
#262=CIRCLE('',#746,2.5);
#263=CIRCLE('',#749,3.);
#264=CIRCLE('',#751,3.);
#265=CIRCLE('',#753,1.95);
#266=CIRCLE('',#755,1.95);
#267=CIRCLE('',#757,4.);
#268=CIRCLE('',#760,4.);
#269=VERTEX_POINT('',#965);
#270=VERTEX_POINT('',#967);
#271=VERTEX_POINT('',#971);
#272=VERTEX_POINT('',#972);
#273=VERTEX_POINT('',#974);
#274=VERTEX_POINT('',#976);
#275=VERTEX_POINT('',#978);
#276=VERTEX_POINT('',#983);
#277=VERTEX_POINT('',#985);
#278=VERTEX_POINT('',#993);
#279=VERTEX_POINT('',#995);
#280=VERTEX_POINT('',#1002);
#281=VERTEX_POINT('',#1005);
#282=VERTEX_POINT('',#1008);
#283=VERTEX_POINT('',#1009);
#284=VERTEX_POINT('',#1011);
#285=VERTEX_POINT('',#1018);
#286=VERTEX_POINT('',#1020);
#287=VERTEX_POINT('',#1028);
#288=VERTEX_POINT('',#1031);
#289=VERTEX_POINT('',#1034);
#290=VERTEX_POINT('',#1038);
#291=VERTEX_POINT('',#1040);
#292=VERTEX_POINT('',#1044);
#293=VERTEX_POINT('',#1046);
#294=VERTEX_POINT('',#1079);
#295=VERTEX_POINT('',#1088);
#296=VERTEX_POINT('',#1126);
#297=VERTEX_POINT('',#1136);
#298=VERTEX_POINT('',#1169);
#299=VERTEX_POINT('',#1179);
#300=VERTEX_POINT('',#1183);
#301=VERTEX_POINT('',#1188);
#302=VERTEX_POINT('',#1228);
#303=VERTEX_POINT('',#1230);
#304=VERTEX_POINT('',#1253);
#305=VERTEX_POINT('',#1266);
#306=VERTEX_POINT('',#1289);
#307=VERTEX_POINT('',#1302);
#308=VERTEX_POINT('',#1306);
#309=VERTEX_POINT('',#1308);
#310=VERTEX_POINT('',#1313);
#311=VERTEX_POINT('',#1316);
#312=VERTEX_POINT('',#1320);
#313=VERTEX_POINT('',#1322);
#314=VERTEX_POINT('',#1327);
#315=VERTEX_POINT('',#1330);
#316=VERTEX_POINT('',#1334);
#317=VERTEX_POINT('',#1336);
#318=VERTEX_POINT('',#1341);
#319=VERTEX_POINT('',#1344);
#320=VERTEX_POINT('',#1348);
#321=VERTEX_POINT('',#1352);
#322=VERTEX_POINT('',#1375);
#323=VERTEX_POINT('',#1388);
#324=VERTEX_POINT('',#1392);
#325=VERTEX_POINT('',#1396);
#326=EDGE_CURVE('',#269,#269,#217,.T.);
#327=EDGE_CURVE('',#269,#270,#159,.T.);
#328=EDGE_CURVE('',#270,#270,#218,.T.);
#329=EDGE_CURVE('',#271,#272,#219,.T.);
#330=EDGE_CURVE('',#272,#273,#220,.T.);
#331=EDGE_CURVE('',#273,#274,#221,.T.);
#332=EDGE_CURVE('',#274,#275,#222,.T.);
#333=EDGE_CURVE('',#275,#274,#223,.T.);
#334=EDGE_CURVE('',#273,#271,#224,.T.);
#335=EDGE_CURVE('',#276,#271,#160,.T.);
#336=EDGE_CURVE('',#277,#276,#40,.T.);
#337=EDGE_CURVE('',#278,#277,#225,.T.);
#338=EDGE_CURVE('',#279,#278,#41,.T.);
#339=EDGE_CURVE('',#280,#279,#226,.T.);
#340=EDGE_CURVE('',#272,#280,#161,.T.);
#341=EDGE_CURVE('',#281,#281,#227,.T.);
#342=EDGE_CURVE('',#282,#283,#228,.T.);
#343=EDGE_CURVE('',#284,#282,#42,.T.);
#344=EDGE_CURVE('',#285,#284,#229,.T.);
#345=EDGE_CURVE('',#286,#285,#43,.T.);
#346=EDGE_CURVE('',#271,#286,#162,.T.);
#347=EDGE_CURVE('',#287,#272,#163,.T.);
#348=EDGE_CURVE('',#283,#287,#230,.T.);
#349=EDGE_CURVE('',#288,#288,#231,.T.);
#350=EDGE_CURVE('',#275,#289,#164,.T.);
#351=EDGE_CURVE('',#289,#289,#232,.T.);
#352=EDGE_CURVE('',#290,#290,#233,.T.);
#353=EDGE_CURVE('',#290,#291,#165,.T.);
#354=EDGE_CURVE('',#291,#291,#234,.T.);
#355=EDGE_CURVE('',#284,#292,#235,.T.);
#356=EDGE_CURVE('',#292,#293,#236,.T.);
#357=EDGE_CURVE('',#293,#285,#237,.T.);
#358=EDGE_CURVE('',#294,#286,#238,.T.);
#359=EDGE_CURVE('',#293,#294,#44,.T.);
#360=EDGE_CURVE('',#295,#276,#239,.T.);
#361=EDGE_CURVE('',#294,#295,#166,.T.);
#362=EDGE_CURVE('',#296,#277,#240,.T.);
#363=EDGE_CURVE('',#295,#296,#45,.T.);
#364=EDGE_CURVE('',#297,#278,#241,.T.);
#365=EDGE_CURVE('',#296,#297,#242,.T.);
#366=EDGE_CURVE('',#298,#279,#243,.T.);
#367=EDGE_CURVE('',#297,#298,#46,.T.);
#368=EDGE_CURVE('',#290,#279,#244,.T.);
#369=EDGE_CURVE('',#298,#299,#245,.T.);
#370=EDGE_CURVE('',#299,#280,#246,.T.);
#371=EDGE_CURVE('',#300,#287,#247,.T.);
#372=EDGE_CURVE('',#299,#300,#167,.T.);
#373=EDGE_CURVE('',#269,#283,#248,.T.);
#374=EDGE_CURVE('',#300,#301,#249,.T.);
#375=EDGE_CURVE('',#301,#282,#250,.T.);
#376=EDGE_CURVE('',#301,#292,#47,.T.);
#377=EDGE_CURVE('',#302,#296,#168,.T.);
#378=EDGE_CURVE('',#302,#303,#251,.T.);
#379=EDGE_CURVE('',#303,#297,#169,.T.);
#380=EDGE_CURVE('',#304,#295,#170,.T.);
#381=EDGE_CURVE('',#302,#304,#15,.T.);
#382=EDGE_CURVE('',#305,#294,#171,.T.);
#383=EDGE_CURVE('',#304,#305,#172,.T.);
#384=EDGE_CURVE('',#306,#293,#173,.T.);
#385=EDGE_CURVE('',#305,#306,#16,.T.);
#386=EDGE_CURVE('',#307,#292,#174,.T.);
#387=EDGE_CURVE('',#307,#306,#252,.T.);
#388=EDGE_CURVE('',#308,#308,#253,.T.);
#389=EDGE_CURVE('',#308,#309,#175,.T.);
#390=EDGE_CURVE('',#309,#309,#254,.T.);
#391=EDGE_CURVE('',#310,#310,#255,.T.);
#392=EDGE_CURVE('',#310,#311,#176,.T.);
#393=EDGE_CURVE('',#311,#311,#256,.T.);
#394=EDGE_CURVE('',#312,#312,#257,.T.);
#395=EDGE_CURVE('',#312,#313,#177,.T.);
#396=EDGE_CURVE('',#313,#313,#258,.T.);
#397=EDGE_CURVE('',#314,#314,#259,.T.);
#398=EDGE_CURVE('',#314,#315,#178,.T.);
#399=EDGE_CURVE('',#315,#315,#260,.T.);
#400=EDGE_CURVE('',#316,#316,#261,.T.);
#401=EDGE_CURVE('',#316,#317,#179,.T.);
#402=EDGE_CURVE('',#317,#317,#262,.T.);
#403=EDGE_CURVE('',#318,#318,#263,.T.);
#404=EDGE_CURVE('',#318,#319,#180,.T.);
#405=EDGE_CURVE('',#319,#319,#264,.T.);
#406=EDGE_CURVE('',#288,#320,#181,.T.);
#407=EDGE_CURVE('',#320,#320,#265,.T.);
#408=EDGE_CURVE('',#281,#321,#182,.T.);
#409=EDGE_CURVE('',#321,#321,#266,.T.);
#410=EDGE_CURVE('',#322,#301,#183,.T.);
#411=EDGE_CURVE('',#307,#322,#17,.T.);
#412=EDGE_CURVE('',#323,#300,#184,.T.);
#413=EDGE_CURVE('',#323,#322,#267,.T.);
#414=EDGE_CURVE('',#324,#299,#185,.T.);
#415=EDGE_CURVE('',#323,#324,#186,.T.);
#416=EDGE_CURVE('',#325,#298,#187,.T.);
#417=EDGE_CURVE('',#325,#324,#268,.T.);
#418=EDGE_CURVE('',#303,#325,#18,.T.);
#419=ORIENTED_EDGE('',*,*,#326,.F.);
#420=ORIENTED_EDGE('',*,*,#327,.T.);
#421=ORIENTED_EDGE('',*,*,#328,.T.);
#422=ORIENTED_EDGE('',*,*,#327,.F.);
#423=ORIENTED_EDGE('',*,*,#329,.T.);
#424=ORIENTED_EDGE('',*,*,#330,.T.);
#425=ORIENTED_EDGE('',*,*,#331,.T.);
#426=ORIENTED_EDGE('',*,*,#332,.T.);
#427=ORIENTED_EDGE('',*,*,#333,.T.);
#428=ORIENTED_EDGE('',*,*,#331,.F.);
#429=ORIENTED_EDGE('',*,*,#334,.T.);
#430=ORIENTED_EDGE('',*,*,#329,.F.);
#431=ORIENTED_EDGE('',*,*,#335,.F.);
#432=ORIENTED_EDGE('',*,*,#336,.F.);
#433=ORIENTED_EDGE('',*,*,#337,.F.);
#434=ORIENTED_EDGE('',*,*,#338,.F.);
#435=ORIENTED_EDGE('',*,*,#339,.F.);
#436=ORIENTED_EDGE('',*,*,#340,.F.);
#437=ORIENTED_EDGE('',*,*,#341,.T.);
#438=ORIENTED_EDGE('',*,*,#342,.F.);
#439=ORIENTED_EDGE('',*,*,#343,.F.);
#440=ORIENTED_EDGE('',*,*,#344,.F.);
#441=ORIENTED_EDGE('',*,*,#345,.F.);
#442=ORIENTED_EDGE('',*,*,#346,.F.);
#443=ORIENTED_EDGE('',*,*,#334,.F.);
#444=ORIENTED_EDGE('',*,*,#330,.F.);
#445=ORIENTED_EDGE('',*,*,#347,.F.);
#446=ORIENTED_EDGE('',*,*,#348,.F.);
#447=ORIENTED_EDGE('',*,*,#349,.T.);
#448=ORIENTED_EDGE('',*,*,#333,.F.);
#449=ORIENTED_EDGE('',*,*,#350,.T.);
#450=ORIENTED_EDGE('',*,*,#351,.T.);
#451=ORIENTED_EDGE('',*,*,#350,.F.);
#452=ORIENTED_EDGE('',*,*,#332,.F.);
#453=ORIENTED_EDGE('',*,*,#352,.F.);
#454=ORIENTED_EDGE('',*,*,#353,.T.);
#455=ORIENTED_EDGE('',*,*,#354,.T.);
#456=ORIENTED_EDGE('',*,*,#353,.F.);
#457=ORIENTED_EDGE('',*,*,#355,.T.);
#458=ORIENTED_EDGE('',*,*,#356,.T.);
#459=ORIENTED_EDGE('',*,*,#357,.T.);
#460=ORIENTED_EDGE('',*,*,#344,.T.);
#461=ORIENTED_EDGE('',*,*,#358,.T.);
#462=ORIENTED_EDGE('',*,*,#345,.T.);
#463=ORIENTED_EDGE('',*,*,#357,.F.);
#464=ORIENTED_EDGE('',*,*,#359,.T.);
#465=ORIENTED_EDGE('',*,*,#360,.T.);
#466=ORIENTED_EDGE('',*,*,#335,.T.);
#467=ORIENTED_EDGE('',*,*,#346,.T.);
#468=ORIENTED_EDGE('',*,*,#358,.F.);
#469=ORIENTED_EDGE('',*,*,#361,.T.);
#470=ORIENTED_EDGE('',*,*,#362,.T.);
#471=ORIENTED_EDGE('',*,*,#336,.T.);
#472=ORIENTED_EDGE('',*,*,#360,.F.);
#473=ORIENTED_EDGE('',*,*,#363,.T.);
#474=ORIENTED_EDGE('',*,*,#364,.T.);
#475=ORIENTED_EDGE('',*,*,#337,.T.);
#476=ORIENTED_EDGE('',*,*,#362,.F.);
#477=ORIENTED_EDGE('',*,*,#365,.T.);
#478=ORIENTED_EDGE('',*,*,#366,.T.);
#479=ORIENTED_EDGE('',*,*,#338,.T.);
#480=ORIENTED_EDGE('',*,*,#364,.F.);
#481=ORIENTED_EDGE('',*,*,#367,.T.);
#482=ORIENTED_EDGE('',*,*,#352,.T.);
#483=ORIENTED_EDGE('',*,*,#368,.T.);
#484=ORIENTED_EDGE('',*,*,#366,.F.);
#485=ORIENTED_EDGE('',*,*,#369,.T.);
#486=ORIENTED_EDGE('',*,*,#370,.T.);
#487=ORIENTED_EDGE('',*,*,#339,.T.);
#488=ORIENTED_EDGE('',*,*,#368,.F.);
#489=ORIENTED_EDGE('',*,*,#371,.T.);
#490=ORIENTED_EDGE('',*,*,#347,.T.);
#491=ORIENTED_EDGE('',*,*,#340,.T.);
#492=ORIENTED_EDGE('',*,*,#370,.F.);
#493=ORIENTED_EDGE('',*,*,#372,.T.);
#494=ORIENTED_EDGE('',*,*,#326,.T.);
#495=ORIENTED_EDGE('',*,*,#373,.T.);
#496=ORIENTED_EDGE('',*,*,#348,.T.);
#497=ORIENTED_EDGE('',*,*,#371,.F.);
#498=ORIENTED_EDGE('',*,*,#374,.T.);
#499=ORIENTED_EDGE('',*,*,#375,.T.);
#500=ORIENTED_EDGE('',*,*,#342,.T.);
#501=ORIENTED_EDGE('',*,*,#373,.F.);
#502=ORIENTED_EDGE('',*,*,#355,.F.);
#503=ORIENTED_EDGE('',*,*,#343,.T.);
#504=ORIENTED_EDGE('',*,*,#375,.F.);
#505=ORIENTED_EDGE('',*,*,#376,.T.);
#506=ORIENTED_EDGE('',*,*,#365,.F.);
#507=ORIENTED_EDGE('',*,*,#377,.F.);
#508=ORIENTED_EDGE('',*,*,#378,.T.);
#509=ORIENTED_EDGE('',*,*,#379,.T.);
#510=ORIENTED_EDGE('',*,*,#363,.F.);
#511=ORIENTED_EDGE('',*,*,#380,.F.);
#512=ORIENTED_EDGE('',*,*,#381,.F.);
#513=ORIENTED_EDGE('',*,*,#377,.T.);
#514=ORIENTED_EDGE('',*,*,#361,.F.);
#515=ORIENTED_EDGE('',*,*,#382,.F.);
#516=ORIENTED_EDGE('',*,*,#383,.F.);
#517=ORIENTED_EDGE('',*,*,#380,.T.);
#518=ORIENTED_EDGE('',*,*,#359,.F.);
#519=ORIENTED_EDGE('',*,*,#384,.F.);
#520=ORIENTED_EDGE('',*,*,#385,.F.);
#521=ORIENTED_EDGE('',*,*,#382,.T.);
#522=ORIENTED_EDGE('',*,*,#356,.F.);
#523=ORIENTED_EDGE('',*,*,#386,.F.);
#524=ORIENTED_EDGE('',*,*,#387,.T.);
#525=ORIENTED_EDGE('',*,*,#384,.T.);
#526=ORIENTED_EDGE('',*,*,#388,.F.);
#527=ORIENTED_EDGE('',*,*,#389,.T.);
#528=ORIENTED_EDGE('',*,*,#390,.T.);
#529=ORIENTED_EDGE('',*,*,#389,.F.);
#530=ORIENTED_EDGE('',*,*,#328,.F.);
#531=ORIENTED_EDGE('',*,*,#388,.T.);
#532=ORIENTED_EDGE('',*,*,#391,.F.);
#533=ORIENTED_EDGE('',*,*,#390,.F.);
#534=ORIENTED_EDGE('',*,*,#391,.T.);
#535=ORIENTED_EDGE('',*,*,#392,.T.);
#536=ORIENTED_EDGE('',*,*,#393,.T.);
#537=ORIENTED_EDGE('',*,*,#392,.F.);
#538=ORIENTED_EDGE('',*,*,#394,.F.);
#539=ORIENTED_EDGE('',*,*,#395,.T.);
#540=ORIENTED_EDGE('',*,*,#396,.T.);
#541=ORIENTED_EDGE('',*,*,#395,.F.);
#542=ORIENTED_EDGE('',*,*,#351,.F.);
#543=ORIENTED_EDGE('',*,*,#394,.T.);
#544=ORIENTED_EDGE('',*,*,#397,.F.);
#545=ORIENTED_EDGE('',*,*,#396,.F.);
#546=ORIENTED_EDGE('',*,*,#397,.T.);
#547=ORIENTED_EDGE('',*,*,#398,.T.);
#548=ORIENTED_EDGE('',*,*,#399,.T.);
#549=ORIENTED_EDGE('',*,*,#398,.F.);
#550=ORIENTED_EDGE('',*,*,#400,.F.);
#551=ORIENTED_EDGE('',*,*,#401,.T.);
#552=ORIENTED_EDGE('',*,*,#402,.T.);
#553=ORIENTED_EDGE('',*,*,#401,.F.);
#554=ORIENTED_EDGE('',*,*,#354,.F.);
#555=ORIENTED_EDGE('',*,*,#400,.T.);
#556=ORIENTED_EDGE('',*,*,#403,.F.);
#557=ORIENTED_EDGE('',*,*,#402,.F.);
#558=ORIENTED_EDGE('',*,*,#403,.T.);
#559=ORIENTED_EDGE('',*,*,#404,.T.);
#560=ORIENTED_EDGE('',*,*,#405,.T.);
#561=ORIENTED_EDGE('',*,*,#404,.F.);
#562=ORIENTED_EDGE('',*,*,#349,.F.);
#563=ORIENTED_EDGE('',*,*,#406,.T.);
#564=ORIENTED_EDGE('',*,*,#407,.T.);
#565=ORIENTED_EDGE('',*,*,#406,.F.);
#566=ORIENTED_EDGE('',*,*,#341,.F.);
#567=ORIENTED_EDGE('',*,*,#408,.T.);
#568=ORIENTED_EDGE('',*,*,#409,.T.);
#569=ORIENTED_EDGE('',*,*,#408,.F.);
#570=ORIENTED_EDGE('',*,*,#376,.F.);
#571=ORIENTED_EDGE('',*,*,#410,.F.);
#572=ORIENTED_EDGE('',*,*,#411,.F.);
#573=ORIENTED_EDGE('',*,*,#386,.T.);
#574=ORIENTED_EDGE('',*,*,#374,.F.);
#575=ORIENTED_EDGE('',*,*,#412,.F.);
#576=ORIENTED_EDGE('',*,*,#413,.T.);
#577=ORIENTED_EDGE('',*,*,#410,.T.);
#578=ORIENTED_EDGE('',*,*,#372,.F.);
#579=ORIENTED_EDGE('',*,*,#414,.F.);
#580=ORIENTED_EDGE('',*,*,#415,.F.);
#581=ORIENTED_EDGE('',*,*,#412,.T.);
#582=ORIENTED_EDGE('',*,*,#369,.F.);
#583=ORIENTED_EDGE('',*,*,#416,.F.);
#584=ORIENTED_EDGE('',*,*,#417,.T.);
#585=ORIENTED_EDGE('',*,*,#414,.T.);
#586=ORIENTED_EDGE('',*,*,#367,.F.);
#587=ORIENTED_EDGE('',*,*,#379,.F.);
#588=ORIENTED_EDGE('',*,*,#418,.T.);
#589=ORIENTED_EDGE('',*,*,#416,.T.);
#590=ORIENTED_EDGE('',*,*,#378,.F.);
#591=ORIENTED_EDGE('',*,*,#381,.T.);
#592=ORIENTED_EDGE('',*,*,#383,.T.);
#593=ORIENTED_EDGE('',*,*,#385,.T.);
#594=ORIENTED_EDGE('',*,*,#387,.F.);
#595=ORIENTED_EDGE('',*,*,#411,.T.);
#596=ORIENTED_EDGE('',*,*,#413,.F.);
#597=ORIENTED_EDGE('',*,*,#415,.T.);
#598=ORIENTED_EDGE('',*,*,#417,.F.);
#599=ORIENTED_EDGE('',*,*,#418,.F.);
#600=ORIENTED_EDGE('',*,*,#409,.F.);
#601=ORIENTED_EDGE('',*,*,#393,.F.);
#602=ORIENTED_EDGE('',*,*,#405,.F.);
#603=ORIENTED_EDGE('',*,*,#399,.F.);
#604=ORIENTED_EDGE('',*,*,#407,.F.);
#605=CYLINDRICAL_SURFACE('',#677,3.);
#606=CYLINDRICAL_SURFACE('',#696,3.);
#607=CYLINDRICAL_SURFACE('',#698,3.);
#608=CYLINDRICAL_SURFACE('',#706,0.5);
#609=CYLINDRICAL_SURFACE('',#717,0.5);
#610=CYLINDRICAL_SURFACE('',#723,3.);
#611=CYLINDRICAL_SURFACE('',#726,3.);
#612=CYLINDRICAL_SURFACE('',#728,2.5);
#613=CYLINDRICAL_SURFACE('',#734,3.);
#614=CYLINDRICAL_SURFACE('',#736,2.5);
#615=CYLINDRICAL_SURFACE('',#742,3.);
#616=CYLINDRICAL_SURFACE('',#744,2.5);
#617=CYLINDRICAL_SURFACE('',#750,3.);
#618=CYLINDRICAL_SURFACE('',#752,1.95);
#619=CYLINDRICAL_SURFACE('',#754,1.95);
#620=CYLINDRICAL_SURFACE('',#756,4.);
#621=CYLINDRICAL_SURFACE('',#759,4.);
#622=ADVANCED_FACE('',(#64),#605,.F.);
#623=ADVANCED_FACE('',(#65),#59,.T.);
#624=ADVANCED_FACE('',(#66,#27),#48,.T.);
#625=ADVANCED_FACE('',(#67,#28),#49,.T.);
#626=ADVANCED_FACE('',(#68),#606,.F.);
#627=ADVANCED_FACE('',(#69),#607,.F.);
#628=ADVANCED_FACE('',(#70),#60,.T.);
#629=ADVANCED_FACE('',(#71),#23,.F.);
#630=ADVANCED_FACE('',(#72),#608,.T.);
#631=ADVANCED_FACE('',(#73),#24,.F.);
#632=ADVANCED_FACE('',(#74),#61,.T.);
#633=ADVANCED_FACE('',(#75),#25,.F.);
#634=ADVANCED_FACE('',(#76),#62,.T.);
#635=ADVANCED_FACE('',(#77),#609,.T.);
#636=ADVANCED_FACE('',(#78),#63,.T.);
#637=ADVANCED_FACE('',(#79),#26,.F.);
#638=ADVANCED_FACE('',(#80),#610,.T.);
#639=ADVANCED_FACE('',(#81),#19,.T.);
#640=ADVANCED_FACE('',(#82),#50,.T.);
#641=ADVANCED_FACE('',(#83),#20,.T.);
#642=ADVANCED_FACE('',(#84),#611,.T.);
#643=ADVANCED_FACE('',(#85),#612,.F.);
#644=ADVANCED_FACE('',(#86,#29),#51,.T.);
#645=ADVANCED_FACE('',(#87,#30),#52,.F.);
#646=ADVANCED_FACE('',(#88),#613,.F.);
#647=ADVANCED_FACE('',(#89),#614,.F.);
#648=ADVANCED_FACE('',(#90,#31),#53,.T.);
#649=ADVANCED_FACE('',(#91,#32),#54,.F.);
#650=ADVANCED_FACE('',(#92),#615,.F.);
#651=ADVANCED_FACE('',(#93),#616,.F.);
#652=ADVANCED_FACE('',(#94,#33),#55,.T.);
#653=ADVANCED_FACE('',(#95,#34),#56,.F.);
#654=ADVANCED_FACE('',(#96),#617,.F.);
#655=ADVANCED_FACE('',(#97),#618,.F.);
#656=ADVANCED_FACE('',(#98),#619,.F.);
#657=ADVANCED_FACE('',(#99),#21,.T.);
#658=ADVANCED_FACE('',(#100),#620,.T.);
#659=ADVANCED_FACE('',(#101),#57,.T.);
#660=ADVANCED_FACE('',(#102),#621,.T.);
#661=ADVANCED_FACE('',(#103),#22,.T.);
#662=ADVANCED_FACE('',(#104,#35,#36,#37,#38,#39),#58,.F.);
#663=CLOSED_SHELL('',(#622,#623,#624,#625,#626,#627,#628,#629,#630,#631,
#632,#633,#634,#635,#636,#637,#638,#639,#640,#641,#642,#643,#644,#645,#646,
#647,#648,#649,#650,#651,#652,#653,#654,#655,#656,#657,#658,#659,#660,#661,
#662));
#664=DERIVED_UNIT_ELEMENT(#666,1.);
#665=DERIVED_UNIT_ELEMENT(#1435,-3.);
#666=(
MASS_UNIT()
NAMED_UNIT(*)
SI_UNIT(.KILO.,.GRAM.)
);
#667=DERIVED_UNIT((#664,#665));
#668=MEASURE_REPRESENTATION_ITEM('density measure',
POSITIVE_RATIO_MEASURE(7850.),#667);
#669=PROPERTY_DEFINITION_REPRESENTATION(#674,#671);
#670=PROPERTY_DEFINITION_REPRESENTATION(#675,#672);
#671=REPRESENTATION('material name',(#673),#1432);
#672=REPRESENTATION('density',(#668),#1432);
#673=DESCRIPTIVE_REPRESENTATION_ITEM('Steel','Steel');
#674=PROPERTY_DEFINITION('material property','material name',#1442);
#675=PROPERTY_DEFINITION('material property','density of part',#1442);
#676=AXIS2_PLACEMENT_3D('',#963,#762,#763);
#677=AXIS2_PLACEMENT_3D('',#964,#764,#765);
#678=AXIS2_PLACEMENT_3D('',#966,#766,#767);
#679=AXIS2_PLACEMENT_3D('',#969,#769,#770);
#680=AXIS2_PLACEMENT_3D('',#970,#771,#772);
#681=AXIS2_PLACEMENT_3D('',#973,#773,#774);
#682=AXIS2_PLACEMENT_3D('',#975,#775,#776);
#683=AXIS2_PLACEMENT_3D('',#977,#777,#778);
#684=AXIS2_PLACEMENT_3D('',#979,#779,#780);
#685=AXIS2_PLACEMENT_3D('',#980,#781,#782);
#686=AXIS2_PLACEMENT_3D('',#981,#783,#784);
#687=AXIS2_PLACEMENT_3D('',#982,#785,#786);
#688=AXIS2_PLACEMENT_3D('',#994,#788,#789);
#689=AXIS2_PLACEMENT_3D('',#1003,#790,#791);
#690=AXIS2_PLACEMENT_3D('',#1006,#793,#794);
#691=AXIS2_PLACEMENT_3D('',#1007,#795,#796);
#692=AXIS2_PLACEMENT_3D('',#1010,#797,#798);
#693=AXIS2_PLACEMENT_3D('',#1019,#799,#800);
#694=AXIS2_PLACEMENT_3D('',#1030,#803,#804);
#695=AXIS2_PLACEMENT_3D('',#1032,#805,#806);
#696=AXIS2_PLACEMENT_3D('',#1033,#807,#808);
#697=AXIS2_PLACEMENT_3D('',#1036,#810,#811);
#698=AXIS2_PLACEMENT_3D('',#1037,#812,#813);
#699=AXIS2_PLACEMENT_3D('',#1039,#814,#815);
#700=AXIS2_PLACEMENT_3D('',#1042,#817,#818);
#701=AXIS2_PLACEMENT_3D('',#1043,#819,#820);
#702=AXIS2_PLACEMENT_3D('',#1045,#821,#822);
#703=AXIS2_PLACEMENT_3D('',#1047,#823,#824);
#704=AXIS2_PLACEMENT_3D('',#1048,#825,#826);
#705=AXIS2_PLACEMENT_3D('',#1080,#827,#828);
#706=AXIS2_PLACEMENT_3D('',#1087,#829,#830);
#707=AXIS2_PLACEMENT_3D('',#1089,#831,#832);
#708=AXIS2_PLACEMENT_3D('',#1127,#834,#835);
#709=AXIS2_PLACEMENT_3D('',#1135,#836,#837);
#710=AXIS2_PLACEMENT_3D('',#1137,#838,#839);
#711=AXIS2_PLACEMENT_3D('',#1138,#840,#841);
#712=AXIS2_PLACEMENT_3D('',#1170,#842,#843);
#713=AXIS2_PLACEMENT_3D('',#1177,#844,#845);
#714=AXIS2_PLACEMENT_3D('',#1178,#846,#847);
#715=AXIS2_PLACEMENT_3D('',#1180,#848,#849);
#716=AXIS2_PLACEMENT_3D('',#1181,#850,#851);
#717=AXIS2_PLACEMENT_3D('',#1182,#852,#853);
#718=AXIS2_PLACEMENT_3D('',#1184,#854,#855);
#719=AXIS2_PLACEMENT_3D('',#1186,#857,#858);
#720=AXIS2_PLACEMENT_3D('',#1187,#859,#860);
#721=AXIS2_PLACEMENT_3D('',#1189,#861,#862);
#722=AXIS2_PLACEMENT_3D('',#1190,#863,#864);
#723=AXIS2_PLACEMENT_3D('',#1227,#865,#866);
#724=AXIS2_PLACEMENT_3D('',#1231,#868,#869);
#725=AXIS2_PLACEMENT_3D('',#1265,#872,#873);
#726=AXIS2_PLACEMENT_3D('',#1301,#877,#878);
#727=AXIS2_PLACEMENT_3D('',#1304,#880,#881);
#728=AXIS2_PLACEMENT_3D('',#1305,#882,#883);
#729=AXIS2_PLACEMENT_3D('',#1307,#884,#885);
#730=AXIS2_PLACEMENT_3D('',#1310,#887,#888);
#731=AXIS2_PLACEMENT_3D('',#1311,#889,#890);
#732=AXIS2_PLACEMENT_3D('',#1312,#891,#892);
#733=AXIS2_PLACEMENT_3D('',#1314,#893,#894);
#734=AXIS2_PLACEMENT_3D('',#1315,#895,#896);
#735=AXIS2_PLACEMENT_3D('',#1318,#898,#899);
#736=AXIS2_PLACEMENT_3D('',#1319,#900,#901);
#737=AXIS2_PLACEMENT_3D('',#1321,#902,#903);
#738=AXIS2_PLACEMENT_3D('',#1324,#905,#906);
#739=AXIS2_PLACEMENT_3D('',#1325,#907,#908);
#740=AXIS2_PLACEMENT_3D('',#1326,#909,#910);
#741=AXIS2_PLACEMENT_3D('',#1328,#911,#912);
#742=AXIS2_PLACEMENT_3D('',#1329,#913,#914);
#743=AXIS2_PLACEMENT_3D('',#1332,#916,#917);
#744=AXIS2_PLACEMENT_3D('',#1333,#918,#919);
#745=AXIS2_PLACEMENT_3D('',#1335,#920,#921);
#746=AXIS2_PLACEMENT_3D('',#1338,#923,#924);
#747=AXIS2_PLACEMENT_3D('',#1339,#925,#926);
#748=AXIS2_PLACEMENT_3D('',#1340,#927,#928);
#749=AXIS2_PLACEMENT_3D('',#1342,#929,#930);
#750=AXIS2_PLACEMENT_3D('',#1343,#931,#932);
#751=AXIS2_PLACEMENT_3D('',#1346,#934,#935);
#752=AXIS2_PLACEMENT_3D('',#1347,#936,#937);
#753=AXIS2_PLACEMENT_3D('',#1350,#939,#940);
#754=AXIS2_PLACEMENT_3D('',#1351,#941,#942);
#755=AXIS2_PLACEMENT_3D('',#1354,#944,#945);
#756=AXIS2_PLACEMENT_3D('',#1387,#947,#948);
#757=AXIS2_PLACEMENT_3D('',#1390,#950,#951);
#758=AXIS2_PLACEMENT_3D('',#1391,#952,#953);
#759=AXIS2_PLACEMENT_3D('',#1395,#956,#957);
#760=AXIS2_PLACEMENT_3D('',#1398,#959,#960);
#761=AXIS2_PLACEMENT_3D('',#1429,#961,#962);
#762=DIRECTION('axis',(0.,0.,1.));
#763=DIRECTION('refdir',(1.,0.,0.));
#764=DIRECTION('center_axis',(0.,0.,1.));
#765=DIRECTION('ref_axis',(1.,0.,0.));
#766=DIRECTION('center_axis',(0.,0.,-1.));
#767=DIRECTION('ref_axis',(1.,0.,0.));
#768=DIRECTION('',(0.,0.,-1.));
#769=DIRECTION('center_axis',(0.,0.,-1.));
#770=DIRECTION('ref_axis',(1.,0.,0.));
#771=DIRECTION('center_axis',(0.,0.,-1.));
#772=DIRECTION('ref_axis',(-1.,0.,0.));
#773=DIRECTION('center_axis',(0.,0.,1.));
#774=DIRECTION('ref_axis',(1.,0.,0.));
#775=DIRECTION('center_axis',(0.,0.,1.));
#776=DIRECTION('ref_axis',(1.,0.,0.));
#777=DIRECTION('center_axis',(0.,-1.,0.));
#778=DIRECTION('ref_axis',(1.,0.,0.));
#779=DIRECTION('center_axis',(0.,0.,-1.));
#780=DIRECTION('ref_axis',(1.,0.,0.));
#781=DIRECTION('center_axis',(0.,0.,-1.));
#782=DIRECTION('ref_axis',(1.,0.,0.));
#783=DIRECTION('center_axis',(0.,0.,1.));
#784=DIRECTION('ref_axis',(1.,0.,0.));
#785=DIRECTION('center_axis',(0.,0.,1.));
#786=DIRECTION('ref_axis',(1.,0.,0.));
#787=DIRECTION('',(1.,0.,0.));
#788=DIRECTION('center_axis',(0.,0.,-1.));
#789=DIRECTION('ref_axis',(-0.514002904833241,0.857788443512146,0.));
#790=DIRECTION('center_axis',(0.,0.,1.));
#791=DIRECTION('ref_axis',(1.,0.,0.));
#792=DIRECTION('',(-1.,3.46944695195361E-17,0.));
#793=DIRECTION('center_axis',(0.,0.,-1.));
#794=DIRECTION('ref_axis',(1.,0.,0.));
#795=DIRECTION('center_axis',(0.,0.,1.));
#796=DIRECTION('ref_axis',(1.,0.,0.));
#797=DIRECTION('center_axis',(0.,0.,1.));
#798=DIRECTION('ref_axis',(1.,0.,0.));
#799=DIRECTION('center_axis',(0.,0.,-1.));
#800=DIRECTION('ref_axis',(0.514002904833242,0.857788443512146,0.));
#801=DIRECTION('',(1.,0.,0.));
#802=DIRECTION('',(-1.,3.46944695195361E-17,0.));
#803=DIRECTION('center_axis',(0.,0.,1.));
#804=DIRECTION('ref_axis',(1.,0.,0.));
#805=DIRECTION('center_axis',(0.,0.,-1.));
#806=DIRECTION('ref_axis',(1.,0.,0.));
#807=DIRECTION('center_axis',(0.,0.,1.));
#808=DIRECTION('ref_axis',(1.,0.,0.));
#809=DIRECTION('',(0.,0.,-1.));
#810=DIRECTION('center_axis',(0.,0.,-1.));
#811=DIRECTION('ref_axis',(1.,0.,0.));
#812=DIRECTION('center_axis',(0.,0.,1.));
#813=DIRECTION('ref_axis',(1.,0.,0.));
#814=DIRECTION('center_axis',(0.,0.,-1.));
#815=DIRECTION('ref_axis',(1.,0.,0.));
#816=DIRECTION('',(0.,0.,-1.));
#817=DIRECTION('center_axis',(0.,0.,-1.));
#818=DIRECTION('ref_axis',(1.,0.,0.));
#819=DIRECTION('center_axis',(0.,0.,1.));
#820=DIRECTION('ref_axis',(1.,0.,0.));
#821=DIRECTION('center_axis',(0.0944379590585647,0.995530748841467,0.));
#822=DIRECTION('ref_axis',(0.,0.,1.));
#823=DIRECTION('center_axis',(0.,0.,1.));
#824=DIRECTION('ref_axis',(0.514002904833241,0.857788443512146,0.));
#825=DIRECTION('center_axis',(0.833333333333334,0.552770798392566,0.));
#826=DIRECTION('ref_axis',(-0.552770798392566,0.833333333333334,0.));
#827=DIRECTION('center_axis',(1.,-1.33226762955019E-14,0.));
#828=DIRECTION('ref_axis',(1.33226762955019E-14,1.,0.));
#829=DIRECTION('center_axis',(-1.,0.,0.));
#830=DIRECTION('ref_axis',(0.,0.707106781186549,0.707106781186546));
#831=DIRECTION('center_axis',(1.,0.,0.));
#832=DIRECTION('ref_axis',(0.,1.,0.));
#833=DIRECTION('',(-1.,0.,0.));
#834=DIRECTION('center_axis',(0.833333333333334,-0.552770798392565,0.));
#835=DIRECTION('ref_axis',(0.552770798392565,0.833333333333334,0.));
#836=DIRECTION('center_axis',(0.,0.,1.));
#837=DIRECTION('ref_axis',(-0.514002904833242,0.857788443512146,0.));
#838=DIRECTION('center_axis',(-0.0944379590585598,0.995530748841468,0.));
#839=DIRECTION('ref_axis',(-0.995530748841468,-0.0944379590585598,0.));
#840=DIRECTION('center_axis',(0.,0.,1.));
#841=DIRECTION('ref_axis',(-0.514002904833241,0.857788443512146,0.));
#842=DIRECTION('center_axis',(0.,1.,0.));
#843=DIRECTION('ref_axis',(-1.,0.,0.));
#844=DIRECTION('center_axis',(0.,0.,1.));
#845=DIRECTION('ref_axis',(1.,0.,0.));
#846=DIRECTION('center_axis',(0.,-1.,0.));
#847=DIRECTION('ref_axis',(-1.,0.,0.));
#848=DIRECTION('center_axis',(0.,0.,1.));
#849=DIRECTION('ref_axis',(-0.707106781186548,-0.707106781186548,0.));
#850=DIRECTION('center_axis',(-1.,0.,0.));
#851=DIRECTION('ref_axis',(0.,-1.,0.));
#852=DIRECTION('center_axis',(1.,-3.46944695195361E-17,0.));
#853=DIRECTION('ref_axis',(0.,-0.707106781186548,0.707106781186548));
#854=DIRECTION('center_axis',(-1.,0.,0.));
#855=DIRECTION('ref_axis',(0.,-1.,0.));
#856=DIRECTION('',(1.,-3.46944695195361E-17,0.));
#857=DIRECTION('center_axis',(0.,0.,1.));
#858=DIRECTION('ref_axis',(1.,0.,0.));
#859=DIRECTION('center_axis',(0.,-1.,0.));
#860=DIRECTION('ref_axis',(-1.,0.,0.));
#861=DIRECTION('center_axis',(0.,0.,1.));
#862=DIRECTION('ref_axis',(0.707106781186547,-0.707106781186548,0.));
#863=DIRECTION('center_axis',(0.,-1.,0.));
#864=DIRECTION('ref_axis',(1.,0.,0.));
#865=DIRECTION('center_axis',(0.,0.,1.));
#866=DIRECTION('ref_axis',(0.552770798392567,0.833333333333333,0.));
#867=DIRECTION('',(0.,0.,1.));
#868=DIRECTION('center_axis',(0.,0.,1.));
#869=DIRECTION('ref_axis',(0.552770798392567,0.833333333333333,0.));
#870=DIRECTION('',(0.,0.,1.));
#871=DIRECTION('',(0.,0.,1.));
#872=DIRECTION('center_axis',(0.,1.,0.));
#873=DIRECTION('ref_axis',(-1.,0.,0.));
#874=DIRECTION('',(0.,0.,1.));
#875=DIRECTION('',(1.,0.,0.));
#876=DIRECTION('',(0.,0.,1.));
#877=DIRECTION('center_axis',(0.,0.,1.));
#878=DIRECTION('ref_axis',(0.995530748841468,-0.0944379590585619,0.));
#879=DIRECTION('',(0.,0.,1.));
#880=DIRECTION('center_axis',(0.,0.,1.));
#881=DIRECTION('ref_axis',(0.995530748841468,-0.0944379590585619,0.));
#882=DIRECTION('center_axis',(0.,0.,1.));
#883=DIRECTION('ref_axis',(1.,0.,0.));
#884=DIRECTION('center_axis',(0.,0.,-1.));
#885=DIRECTION('ref_axis',(1.,0.,0.));
#886=DIRECTION('',(0.,0.,-1.));
#887=DIRECTION('center_axis',(0.,0.,-1.));
#888=DIRECTION('ref_axis',(1.,0.,0.));
#889=DIRECTION('center_axis',(0.,0.,1.));
#890=DIRECTION('ref_axis',(1.,0.,0.));
#891=DIRECTION('center_axis',(0.,0.,1.));
#892=DIRECTION('ref_axis',(1.,0.,0.));
#893=DIRECTION('center_axis',(0.,0.,1.));
#894=DIRECTION('ref_axis',(1.,0.,0.));
#895=DIRECTION('center_axis',(0.,0.,1.));
#896=DIRECTION('ref_axis',(1.,0.,0.));
#897=DIRECTION('',(0.,0.,-1.));
#898=DIRECTION('center_axis',(0.,0.,-1.));
#899=DIRECTION('ref_axis',(1.,0.,0.));
#900=DIRECTION('center_axis',(0.,0.,1.));
#901=DIRECTION('ref_axis',(1.,0.,0.));
#902=DIRECTION('center_axis',(0.,0.,-1.));
#903=DIRECTION('ref_axis',(1.,0.,0.));
#904=DIRECTION('',(0.,0.,-1.));
#905=DIRECTION('center_axis',(0.,0.,-1.));
#906=DIRECTION('ref_axis',(1.,0.,0.));
#907=DIRECTION('center_axis',(0.,0.,1.));
#908=DIRECTION('ref_axis',(1.,0.,0.));
#909=DIRECTION('center_axis',(0.,0.,1.));
#910=DIRECTION('ref_axis',(1.,0.,0.));
#911=DIRECTION('center_axis',(0.,0.,1.));
#912=DIRECTION('ref_axis',(1.,0.,0.));
#913=DIRECTION('center_axis',(0.,0.,1.));
#914=DIRECTION('ref_axis',(1.,0.,0.));
#915=DIRECTION('',(0.,0.,-1.));
#916=DIRECTION('center_axis',(0.,0.,-1.));
#917=DIRECTION('ref_axis',(1.,0.,0.));
#918=DIRECTION('center_axis',(0.,0.,1.));
#919=DIRECTION('ref_axis',(1.,0.,0.));
#920=DIRECTION('center_axis',(0.,0.,-1.));
#921=DIRECTION('ref_axis',(1.,0.,0.));
#922=DIRECTION('',(0.,0.,-1.));
#923=DIRECTION('center_axis',(0.,0.,-1.));
#924=DIRECTION('ref_axis',(1.,0.,0.));
#925=DIRECTION('center_axis',(0.,0.,1.));
#926=DIRECTION('ref_axis',(1.,0.,0.));
#927=DIRECTION('center_axis',(0.,0.,1.));
#928=DIRECTION('ref_axis',(1.,0.,0.));
#929=DIRECTION('center_axis',(0.,0.,1.));
#930=DIRECTION('ref_axis',(1.,0.,0.));
#931=DIRECTION('center_axis',(0.,0.,1.));
#932=DIRECTION('ref_axis',(1.,0.,0.));
#933=DIRECTION('',(0.,0.,-1.));
#934=DIRECTION('center_axis',(0.,0.,-1.));
#935=DIRECTION('ref_axis',(1.,0.,0.));
#936=DIRECTION('center_axis',(0.,0.,1.));
#937=DIRECTION('ref_axis',(1.,0.,0.));
#938=DIRECTION('',(0.,0.,-1.));
#939=DIRECTION('center_axis',(0.,0.,-1.));
#940=DIRECTION('ref_axis',(1.,0.,0.));
#941=DIRECTION('center_axis',(0.,0.,1.));
#942=DIRECTION('ref_axis',(1.,0.,0.));
#943=DIRECTION('',(0.,0.,-1.));
#944=DIRECTION('center_axis',(0.,0.,-1.));
#945=DIRECTION('ref_axis',(1.,0.,0.));
#946=DIRECTION('',(0.,0.,1.));
#947=DIRECTION('center_axis',(0.,0.,1.));
#948=DIRECTION('ref_axis',(-1.11022302462516E-15,-1.,0.));
#949=DIRECTION('',(0.,0.,1.));
#950=DIRECTION('center_axis',(0.,0.,1.));
#951=DIRECTION('ref_axis',(-1.11022302462516E-15,-1.,0.));
#952=DIRECTION('center_axis',(-3.46944695195361E-17,-1.,0.));
#953=DIRECTION('ref_axis',(1.,-3.46944695195361E-17,0.));
#954=DIRECTION('',(0.,0.,1.));
#955=DIRECTION('',(-1.,3.46944695195361E-17,0.));
#956=DIRECTION('center_axis',(0.,0.,1.));
#957=DIRECTION('ref_axis',(-1.,5.55111512312579E-16,0.));
#958=DIRECTION('',(0.,0.,1.));
#959=DIRECTION('center_axis',(0.,0.,1.));
#960=DIRECTION('ref_axis',(-1.,5.55111512312579E-16,0.));
#961=DIRECTION('center_axis',(0.,0.,1.));
#962=DIRECTION('ref_axis',(1.,0.,0.));
#963=CARTESIAN_POINT('',(0.,0.,0.));
#964=CARTESIAN_POINT('Origin',(21.,7.,0.));
#965=CARTESIAN_POINT('',(18.,7.,7.5));
#966=CARTESIAN_POINT('Origin',(21.,7.,7.5));
#967=CARTESIAN_POINT('',(18.,7.,6.5));
#968=CARTESIAN_POINT('',(18.,7.,0.));
#969=CARTESIAN_POINT('Origin',(21.,7.,6.5));
#970=CARTESIAN_POINT('Origin',(13.,7.,7.5));
#971=CARTESIAN_POINT('',(13.,10.5000001639128,8.));
#972=CARTESIAN_POINT('',(13.,3.5,8.));
#973=CARTESIAN_POINT('Origin',(13.,7.,8.));
#974=CARTESIAN_POINT('',(16.5,7.,8.));
#975=CARTESIAN_POINT('Origin',(13.,7.,8.));
#976=CARTESIAN_POINT('',(16.,7.,7.5));
#977=CARTESIAN_POINT('Origin',(16.5,7.,7.5));
#978=CARTESIAN_POINT('',(10.,7.,7.5));
#979=CARTESIAN_POINT('Origin',(13.,7.,7.5));
#980=CARTESIAN_POINT('Origin',(13.,7.,7.5));
#981=CARTESIAN_POINT('Origin',(13.,7.,8.));
#982=CARTESIAN_POINT('Origin',(13.,9.5,8.));
#983=CARTESIAN_POINT('',(12.0000001788139,10.5000001639128,8.));
#984=CARTESIAN_POINT('',(13.5000001043081,10.5000001639128,8.));
#985=CARTESIAN_POINT('',(3.88192699598142,15.0833333333333,8.));
#986=CARTESIAN_POINT('Ctrl Pts',(3.88192699598142,15.0833333333333,8.));
#987=CARTESIAN_POINT('Ctrl Pts',(4.63691882089422,14.582528412729,8.));
#988=CARTESIAN_POINT('Ctrl Pts',(6.05477237945892,13.4550450583148,8.));
#989=CARTESIAN_POINT('Ctrl Pts',(7.79266381717055,11.999124748573,8.));
#990=CARTESIAN_POINT('Ctrl Pts',(9.74400125842422,10.8329414441255,8.));
#991=CARTESIAN_POINT('Ctrl Pts',(11.0940099889186,10.5000001639128,8.));
#992=CARTESIAN_POINT('Ctrl Pts',(12.0000001788139,10.5000001639128,8.));
#993=CARTESIAN_POINT('',(0.0111731278963306,12.7639051023536,8.));
#994=CARTESIAN_POINT('Origin',(2.5,13.,8.));
#995=CARTESIAN_POINT('',(1.5,7.,8.));
#996=CARTESIAN_POINT('Ctrl Pts',(1.5,7.,8.));
#997=CARTESIAN_POINT('Ctrl Pts',(1.5,7.56996543739523,8.));
#998=CARTESIAN_POINT('Ctrl Pts',(1.31730453119789,8.70966734045012,8.));
#999=CARTESIAN_POINT('Ctrl Pts',(0.581747364048324,10.5610429264013,8.));
#1000=CARTESIAN_POINT('Ctrl Pts',(0.0919126868586202,11.9127779242979,8.));
#1001=CARTESIAN_POINT('Ctrl Pts',(0.0111731278963311,12.7639051023536,8.));
#1002=CARTESIAN_POINT('',(5.,3.5,8.));
#1003=CARTESIAN_POINT('Origin',(5.,7.,8.));
#1004=CARTESIAN_POINT('',(9.,3.5,8.));
#1005=CARTESIAN_POINT('',(0.549999999999999,13.,8.));
#1006=CARTESIAN_POINT('Origin',(2.5,13.,8.));
#1007=CARTESIAN_POINT('Origin',(13.,9.5,8.));
#1008=CARTESIAN_POINT('',(24.5,7.,8.));
#1009=CARTESIAN_POINT('',(17.5,7.,8.));
#1010=CARTESIAN_POINT('Origin',(21.,7.,8.));
#1011=CARTESIAN_POINT('',(25.9888268721037,12.7639051023536,8.));
#1012=CARTESIAN_POINT('Ctrl Pts',(25.9888268721037,12.7639051023536,8.));
#1013=CARTESIAN_POINT('Ctrl Pts',(25.9349698462925,12.1961638490412,8.));
#1014=CARTESIAN_POINT('Ctrl Pts',(25.6446624517395,11.085104482212,8.));
#1015=CARTESIAN_POINT('Ctrl Pts',(24.8629483890224,9.25555407443052,8.));
#1016=CARTESIAN_POINT('Ctrl Pts',(24.5,7.85543503398531,8.00000000000001));
#1017=CARTESIAN_POINT('Ctrl Pts',(24.5,7.,8.00000000000001));
#1018=CARTESIAN_POINT('',(22.1180730040186,15.0833333333333,8.));
#1019=CARTESIAN_POINT('Origin',(23.5,13.,8.));
#1020=CARTESIAN_POINT('',(14.0000002086162,10.5000001639128,8.));
#1021=CARTESIAN_POINT('Ctrl Pts',(14.0000002086162,10.5000001639128,8.));
#1022=CARTESIAN_POINT('Ctrl Pts',(14.9070590877448,10.5000001639128,8.));
#1023=CARTESIAN_POINT('Ctrl Pts',(16.7264325590533,10.9187063874773,8.));
#1024=CARTESIAN_POINT('Ctrl Pts',(19.2995187693241,12.8226241697568,8.));
#1025=CARTESIAN_POINT('Ctrl Pts',(20.9842494051079,14.3312398421259,8.));
#1026=CARTESIAN_POINT('Ctrl Pts',(22.1180730040186,15.0833333333333,8.));
#1027=CARTESIAN_POINT('',(13.5000001043081,10.5000001639128,8.));
#1028=CARTESIAN_POINT('',(21.,3.5,8.));
#1029=CARTESIAN_POINT('',(9.,3.5,8.));
#1030=CARTESIAN_POINT('Origin',(21.,7.,8.));
#1031=CARTESIAN_POINT('',(21.55,13.,8.));
#1032=CARTESIAN_POINT('Origin',(23.5,13.,8.));
#1033=CARTESIAN_POINT('Origin',(13.,7.,0.));
#1034=CARTESIAN_POINT('',(10.,7.,6.5));
#1035=CARTESIAN_POINT('',(10.,7.,0.));
#1036=CARTESIAN_POINT('Origin',(13.,7.,6.5));
#1037=CARTESIAN_POINT('Origin',(5.,7.,0.));
#1038=CARTESIAN_POINT('',(1.99999999999999,7.,7.5));
#1039=CARTESIAN_POINT('Origin',(5.,7.,7.5));
#1040=CARTESIAN_POINT('',(1.99999999999999,7.,6.5));
#1041=CARTESIAN_POINT('',(1.99999999999999,7.,0.));
#1042=CARTESIAN_POINT('Origin',(5.,7.,6.5));
#1043=CARTESIAN_POINT('Origin',(23.5,13.,7.5));
#1044=CARTESIAN_POINT('',(26.4865922465244,12.7166861228243,7.5));
#1045=CARTESIAN_POINT('Origin',(25.9888268721037,12.7639051023536,7.5));
#1046=CARTESIAN_POINT('',(21.8416876048223,15.5,7.5));
#1047=CARTESIAN_POINT('Origin',(23.5,13.,7.5));
#1048=CARTESIAN_POINT('Origin',(22.1180730040186,15.0833333333333,7.5));
#1049=CARTESIAN_POINT('Ctrl Pts',(21.8416876048223,15.5,7.5));
#1050=CARTESIAN_POINT('Ctrl Pts',(20.67619382961,14.7268988904252,7.5));
#1051=CARTESIAN_POINT('Ctrl Pts',(18.9513806659555,13.179594814175,7.5));
#1052=CARTESIAN_POINT('Ctrl Pts',(16.4888134286812,11.3728557489725,7.5));
#1053=CARTESIAN_POINT('Ctrl Pts',(14.8411651819369,11.0000001639128,7.5));
#1054=CARTESIAN_POINT('Ctrl Pts',(14.0000002086163,11.0000001639128,7.5));
#1055=CARTESIAN_POINT('Ctrl Pts',(21.8416876048223,15.5,7.63089969389957));
#1056=CARTESIAN_POINT('Ctrl Pts',(20.6761272133588,14.7268547022032,7.63089969389957));
#1057=CARTESIAN_POINT('Ctrl Pts',(18.9510146056904,13.1794136356353,7.63089969389958));
#1058=CARTESIAN_POINT('Ctrl Pts',(16.4886138364602,11.3728448751739,7.63089969389957));
#1059=CARTESIAN_POINT('Ctrl Pts',(14.8410265781937,11.0000001639128,7.63089969389957));
#1060=CARTESIAN_POINT('Ctrl Pts',(14.0000002086163,11.0000001639128,7.63089969389957));
#1061=CARTESIAN_POINT('Ctrl Pts',(21.9016102738795,15.4096631774093,7.89159581289118));
#1062=CARTESIAN_POINT('Ctrl Pts',(20.743012785264,14.6411365468522,7.89159581289118));
#1063=CARTESIAN_POINT('Ctrl Pts',(19.027024373684,13.1022819830594,7.89159581289118));
#1064=CARTESIAN_POINT('Ctrl Pts',(16.5404209122583,11.2743972492779,7.89159581289118));
#1065=CARTESIAN_POINT('Ctrl Pts',(14.8555137998638,10.891595976804,7.89159581289118));
#1066=CARTESIAN_POINT('Ctrl Pts',(14.0000002086162,10.891595976804,7.89159581289118));
#1067=CARTESIAN_POINT('Ctrl Pts',(22.0457154757124,15.192416411583,8.));
#1068=CARTESIAN_POINT('Ctrl Pts',(20.9035853557418,14.4348129976418,8.));
#1069=CARTESIAN_POINT('Ctrl Pts',(19.2082924169148,12.9160372858256,8.));
#1070=CARTESIAN_POINT('Ctrl Pts',(16.6641782101883,11.0375999167717,8.));
#1071=CARTESIAN_POINT('Ctrl Pts',(14.8897762942706,10.6308998578124,8.));
#1072=CARTESIAN_POINT('Ctrl Pts',(14.0000002086163,10.6308998578124,8.));
#1073=CARTESIAN_POINT('Ctrl Pts',(22.1180730040186,15.0833333333333,8.));
#1074=CARTESIAN_POINT('Ctrl Pts',(20.9842494051079,14.3312398421259,8.));
#1075=CARTESIAN_POINT('Ctrl Pts',(19.2995187693241,12.8226241697568,8.));
#1076=CARTESIAN_POINT('Ctrl Pts',(16.7264325590533,10.9187063874773,8.));
#1077=CARTESIAN_POINT('Ctrl Pts',(14.9070590877448,10.5000001639128,8.));
#1078=CARTESIAN_POINT('Ctrl Pts',(14.0000002086162,10.5000001639128,8.));
#1079=CARTESIAN_POINT('',(14.0000002086163,11.0000001639128,7.5));
#1080=CARTESIAN_POINT('Origin',(14.0000002086162,10.5000001639128,7.5));
#1081=CARTESIAN_POINT('Ctrl Pts',(21.8416876048223,15.5,7.5));
#1082=CARTESIAN_POINT('Ctrl Pts',(20.67619382961,14.7268988904252,7.5));
#1083=CARTESIAN_POINT('Ctrl Pts',(18.9513806659555,13.179594814175,7.5));
#1084=CARTESIAN_POINT('Ctrl Pts',(16.4888134286812,11.3728557489725,7.5));
#1085=CARTESIAN_POINT('Ctrl Pts',(14.8411651819369,11.0000001639128,7.5));
#1086=CARTESIAN_POINT('Ctrl Pts',(14.0000002086163,11.0000001639128,7.5));
#1087=CARTESIAN_POINT('Origin',(13.5000001043081,10.5000001639128,7.5));
#1088=CARTESIAN_POINT('',(12.0000001788139,11.0000001639128,7.5));
#1089=CARTESIAN_POINT('Origin',(12.0000001788139,10.5000001639128,7.5));
#1090=CARTESIAN_POINT('',(13.5000001043081,11.0000001639128,7.5));
#1091=CARTESIAN_POINT('Ctrl Pts',(12.0000001788139,11.0000001639128,7.5));
#1092=CARTESIAN_POINT('Ctrl Pts',(11.1655412929386,11.0000001639128,7.5));
#1093=CARTESIAN_POINT('Ctrl Pts',(9.94426727436039,11.2985431826036,7.5));
#1094=CARTESIAN_POINT('Ctrl Pts',(8.09658275092994,12.3971742369305,7.5));
#1095=CARTESIAN_POINT('Ctrl Pts',(6.38372704638152,13.8307333861148,7.5));
#1096=CARTESIAN_POINT('Ctrl Pts',(4.93467971744836,14.9850161785071,7.5));
#1097=CARTESIAN_POINT('Ctrl Pts',(4.1583123951777,15.5,7.5));
#1098=CARTESIAN_POINT('Ctrl Pts',(12.0000001788139,11.0000001639128,7.63089969389957));
#1099=CARTESIAN_POINT('Ctrl Pts',(11.1656917545992,11.0000001639128,7.63089969389957));
#1100=CARTESIAN_POINT('Ctrl Pts',(9.94436096188486,11.2985622613872,7.63089969389958));
#1101=CARTESIAN_POINT('Ctrl Pts',(8.09685475643857,12.3970714401167,7.63089969389958));
#1102=CARTESIAN_POINT('Ctrl Pts',(6.38387808071384,13.8306457020857,7.63089969389958));
#1103=CARTESIAN_POINT('Ctrl Pts',(4.93472467948105,14.9849863540686,7.63089969389957));
#1104=CARTESIAN_POINT('Ctrl Pts',(4.1583123951777,15.5,7.63089969389957));
#1105=CARTESIAN_POINT('Ctrl Pts',(12.0000001788139,10.8916421416116,7.8916419776988));
#1106=CARTESIAN_POINT('Ctrl Pts',(11.1499651127348,10.8916421416116,7.8916419776988));
#1107=CARTESIAN_POINT('Ctrl Pts',(9.90082021428574,11.1976304069353,7.8916419776988));
#1108=CARTESIAN_POINT('Ctrl Pts',(8.03058450444486,12.3109612196615,7.8916419776988));
#1109=CARTESIAN_POINT('Ctrl Pts',(6.31236281077293,13.749358938369,7.8916419776988));
#1110=CARTESIAN_POINT('Ctrl Pts',(4.87012798105301,14.8978053295835,7.8916419776988));
#1111=CARTESIAN_POINT('Ctrl Pts',(4.09841524467803,15.4097016480823,7.8916419776988));
#1112=CARTESIAN_POINT('Ctrl Pts',(12.0000001788139,10.6308998578123,8.));
#1113=CARTESIAN_POINT('Ctrl Pts',(11.1127713711611,10.6308998578123,8.));
#1114=CARTESIAN_POINT('Ctrl Pts',(9.79645227988743,10.9548400727589,8.));
#1115=CARTESIAN_POINT('Ctrl Pts',(7.87229203267406,12.1033102692814,8.));
#1116=CARTESIAN_POINT('Ctrl Pts',(6.14092717194152,13.5533799092318,8.));
#1117=CARTESIAN_POINT('Ctrl Pts',(4.71488276001663,14.6878926187591,8.));
#1118=CARTESIAN_POINT('Ctrl Pts',(3.95428452428763,15.192416411583,8.));
#1119=CARTESIAN_POINT('Ctrl Pts',(12.0000001788139,10.5000001639128,8.));
#1120=CARTESIAN_POINT('Ctrl Pts',(11.0940099889186,10.5000001639128,8.));
#1121=CARTESIAN_POINT('Ctrl Pts',(9.74400125842422,10.8329414441255,8.));
#1122=CARTESIAN_POINT('Ctrl Pts',(7.79266381717055,11.999124748573,8.));
#1123=CARTESIAN_POINT('Ctrl Pts',(6.05477237945892,13.4550450583148,8.));
#1124=CARTESIAN_POINT('Ctrl Pts',(4.63691882089422,14.582528412729,8.));
#1125=CARTESIAN_POINT('Ctrl Pts',(3.88192699598142,15.0833333333333,8.));
#1126=CARTESIAN_POINT('',(4.1583123951777,15.5,7.5));
#1127=CARTESIAN_POINT('Origin',(3.88192699598142,15.0833333333333,7.5));
#1128=CARTESIAN_POINT('Ctrl Pts',(12.0000001788139,11.0000001639128,7.5));
#1129=CARTESIAN_POINT('Ctrl Pts',(11.1655412929386,11.0000001639128,7.5));
#1130=CARTESIAN_POINT('Ctrl Pts',(9.94426727436039,11.2985431826036,7.5));
#1131=CARTESIAN_POINT('Ctrl Pts',(8.09658275092994,12.3971742369305,7.5));
#1132=CARTESIAN_POINT('Ctrl Pts',(6.38372704638152,13.8307333861148,7.5));
#1133=CARTESIAN_POINT('Ctrl Pts',(4.93467971744836,14.9850161785071,7.5));
#1134=CARTESIAN_POINT('Ctrl Pts',(4.1583123951777,15.5,7.5));
#1135=CARTESIAN_POINT('Origin',(2.5,13.,7.5));
#1136=CARTESIAN_POINT('',(-0.486592246524403,12.7166861228243,7.5));
#1137=CARTESIAN_POINT('Origin',(0.0111731278963306,12.7639051023536,7.5));
#1138=CARTESIAN_POINT('Origin',(2.5,13.,7.5));
#1139=CARTESIAN_POINT('Ctrl Pts',(-0.486592246524403,12.7166861228243,7.5));
#1140=CARTESIAN_POINT('Ctrl Pts',(-0.39893910342936,11.7926784456825,7.5));
#1141=CARTESIAN_POINT('Ctrl Pts',(0.128778857615922,10.3524536394936,7.5));
#1142=CARTESIAN_POINT('Ctrl Pts',(0.835987446748005,8.56296867888781,7.5));
#1143=CARTESIAN_POINT('Ctrl Pts',(1.,7.5210131185969,7.5));
#1144=CARTESIAN_POINT('Ctrl Pts',(1.,7.,7.5));
#1145=CARTESIAN_POINT('Ctrl Pts',(-0.486592246524403,12.7166861228243,7.63089969389957));
#1146=CARTESIAN_POINT('Ctrl Pts',(-0.398924561134013,11.7925251460737,7.63089969389957));
#1147=CARTESIAN_POINT('Ctrl Pts',(0.128856754481579,10.3521527362145,7.63089969389958));
#1148=CARTESIAN_POINT('Ctrl Pts',(0.836014351602422,8.56276067947289,7.63089969389958));
#1149=CARTESIAN_POINT('Ctrl Pts',(1.,7.52091015043101,7.63089969389957));
#1150=CARTESIAN_POINT('Ctrl Pts',(1.,7.,7.63089969389957));
#1151=CARTESIAN_POINT('Ctrl Pts',(-0.378769481213187,12.7269143974486,7.89169318432736));
#1152=CARTESIAN_POINT('Ctrl Pts',(-0.292621794138847,11.8187766922394,7.89169318432736));
#1153=CARTESIAN_POINT('Ctrl Pts',(0.226855803798025,10.3977999609012,7.89169318432736));
#1154=CARTESIAN_POINT('Ctrl Pts',(0.940232710374158,8.59485830906551,7.89169318432736));
#1155=CARTESIAN_POINT('Ctrl Pts',(1.10830681567264,7.5316726494057,7.89169318432736));
#1156=CARTESIAN_POINT('Ctrl Pts',(1.10830681567264,7.,7.89169318432736));
#1157=CARTESIAN_POINT('Ctrl Pts',(-0.119141542394632,12.7515432024203,8.));
#1158=CARTESIAN_POINT('Ctrl Pts',(-0.0365886739120203,11.8813007723765,
8.));
#1159=CARTESIAN_POINT('Ctrl Pts',(0.463178363542464,10.5063653221038,8.));
#1160=CARTESIAN_POINT('Ctrl Pts',(1.19130218776038,8.67121398522427,8.));
#1161=CARTESIAN_POINT('Ctrl Pts',(1.36910030610043,7.55712611932021,8.));
#1162=CARTESIAN_POINT('Ctrl Pts',(1.36910030610043,7.,8.));
#1163=CARTESIAN_POINT('Ctrl Pts',(0.0111731278963311,12.7639051023536,8.));
#1164=CARTESIAN_POINT('Ctrl Pts',(0.0919126868586202,11.9127779242979,8.));
#1165=CARTESIAN_POINT('Ctrl Pts',(0.581747364048324,10.5610429264013,8.));
#1166=CARTESIAN_POINT('Ctrl Pts',(1.31730453119789,8.70966734045012,8.));
#1167=CARTESIAN_POINT('Ctrl Pts',(1.5,7.56996543739523,8.));
#1168=CARTESIAN_POINT('Ctrl Pts',(1.5,7.,8.));
#1169=CARTESIAN_POINT('',(1.,7.,7.5));
#1170=CARTESIAN_POINT('Origin',(1.5,7.,7.5));
#1171=CARTESIAN_POINT('Ctrl Pts',(-0.486592246524403,12.7166861228243,7.5));
#1172=CARTESIAN_POINT('Ctrl Pts',(-0.39893910342936,11.7926784456825,7.5));
#1173=CARTESIAN_POINT('Ctrl Pts',(0.128778857615922,10.3524536394936,7.5));
#1174=CARTESIAN_POINT('Ctrl Pts',(0.835987446748005,8.56296867888781,7.5));
#1175=CARTESIAN_POINT('Ctrl Pts',(1.,7.5210131185969,7.5));
#1176=CARTESIAN_POINT('Ctrl Pts',(1.,7.,7.5));
#1177=CARTESIAN_POINT('Origin',(5.,7.,7.5));
#1178=CARTESIAN_POINT('Origin',(1.5,7.,7.5));
#1179=CARTESIAN_POINT('',(5.,3.,7.5));
#1180=CARTESIAN_POINT('Origin',(5.,7.,7.5));
#1181=CARTESIAN_POINT('Origin',(5.,3.5,7.5));
#1182=CARTESIAN_POINT('Origin',(9.,3.5,7.5));
#1183=CARTESIAN_POINT('',(21.,3.,7.5));
#1184=CARTESIAN_POINT('Origin',(21.,3.5,7.5));
#1185=CARTESIAN_POINT('',(9.,3.,7.5));
#1186=CARTESIAN_POINT('Origin',(21.,7.,7.5));
#1187=CARTESIAN_POINT('Origin',(17.5,7.,7.5));
#1188=CARTESIAN_POINT('',(25.,7.,7.5));
#1189=CARTESIAN_POINT('Origin',(21.,7.,7.5));
#1190=CARTESIAN_POINT('Origin',(24.5,7.,7.5));
#1191=CARTESIAN_POINT('Ctrl Pts',(25.,7.00000000000001,7.5));
#1192=CARTESIAN_POINT('Ctrl Pts',(25.,7.78196473956483,7.5));
#1193=CARTESIAN_POINT('Ctrl Pts',(25.3262267218861,9.06730902729415,7.5));
#1194=CARTESIAN_POINT('Ctrl Pts',(26.110478243708,10.9051414770603,7.5));
#1195=CARTESIAN_POINT('Ctrl Pts',(26.4281235398486,12.1003302006822,7.5));
#1196=CARTESIAN_POINT('Ctrl Pts',(26.4865922465244,12.7166861228243,7.5));
#1197=CARTESIAN_POINT('Ctrl Pts',(25.,7.00000000000001,7.63089969389958));
#1198=CARTESIAN_POINT('Ctrl Pts',(25.,7.78181019935817,7.63089969389957));
#1199=CARTESIAN_POINT('Ctrl Pts',(25.3261610418974,9.06701816817876,7.63089969389958));
#1200=CARTESIAN_POINT('Ctrl Pts',(26.1104159112931,10.9048588406168,7.63089969389957));
#1201=CARTESIAN_POINT('Ctrl Pts',(26.428113839464,12.100227942742,7.63089969389958));
#1202=CARTESIAN_POINT('Ctrl Pts',(26.4865922465244,12.7166861228243,7.63089969389958));
#1203=CARTESIAN_POINT('Ctrl Pts',(24.8915917703907,7.00000000000001,7.89159177039064));
#1204=CARTESIAN_POINT('Ctrl Pts',(24.8915917703907,7.79796314140017,7.89159177039064));
#1205=CARTESIAN_POINT('Ctrl Pts',(25.2258096082154,9.10825320153341,7.89159177039064));
#1206=CARTESIAN_POINT('Ctrl Pts',(26.0095094761179,10.9442863058749,7.89159177039064));
#1207=CARTESIAN_POINT('Ctrl Pts',(26.3212040227459,12.1211540590328,7.89159177039064));
#1208=CARTESIAN_POINT('Ctrl Pts',(26.3786685205208,12.7269239747738,7.89159177039064));
#1209=CARTESIAN_POINT('Ctrl Pts',(24.6308996938996,7.,8.00000000000001));
#1210=CARTESIAN_POINT('Ctrl Pts',(24.6308996938996,7.83616508922506,8.));
#1211=CARTESIAN_POINT('Ctrl Pts',(24.9842192995244,9.2062048847653,8.));
#1212=CARTESIAN_POINT('Ctrl Pts',(25.766598435743,11.0379254131544,8.));
#1213=CARTESIAN_POINT('Ctrl Pts',(26.064074955138,12.1710511905833,8.));
#1214=CARTESIAN_POINT('Ctrl Pts',(26.1191415423946,12.7515432024203,8.));
#1215=CARTESIAN_POINT('Ctrl Pts',(24.5,7.,8.00000000000001));
#1216=CARTESIAN_POINT('Ctrl Pts',(24.5,7.85543503398531,8.00000000000001));
#1217=CARTESIAN_POINT('Ctrl Pts',(24.8629483890224,9.25555407443052,8.));
#1218=CARTESIAN_POINT('Ctrl Pts',(25.6446624517395,11.085104482212,8.));
#1219=CARTESIAN_POINT('Ctrl Pts',(25.9349698462925,12.1961638490412,8.));
#1220=CARTESIAN_POINT('Ctrl Pts',(25.9888268721037,12.7639051023536,8.));
#1221=CARTESIAN_POINT('Ctrl Pts',(25.,7.00000000000001,7.5));
#1222=CARTESIAN_POINT('Ctrl Pts',(25.,7.78196473956483,7.5));
#1223=CARTESIAN_POINT('Ctrl Pts',(25.3262267218861,9.06730902729415,7.5));
#1224=CARTESIAN_POINT('Ctrl Pts',(26.110478243708,10.9051414770603,7.5));
#1225=CARTESIAN_POINT('Ctrl Pts',(26.4281235398486,12.1003302006822,7.5));
#1226=CARTESIAN_POINT('Ctrl Pts',(26.4865922465244,12.7166861228243,7.5));
#1227=CARTESIAN_POINT('Origin',(2.5,13.,0.));
#1228=CARTESIAN_POINT('',(4.1583123951777,15.5,0.));
#1229=CARTESIAN_POINT('',(4.1583123951777,15.5,0.));
#1230=CARTESIAN_POINT('',(-0.486592246524403,12.7166861228243,0.));
#1231=CARTESIAN_POINT('Origin',(2.5,13.,0.));
#1232=CARTESIAN_POINT('',(-0.486592246524403,12.7166861228243,0.));
#1233=CARTESIAN_POINT('Ctrl Pts',(12.0000001788139,11.0000001639128,0.));
#1234=CARTESIAN_POINT('Ctrl Pts',(12.0000001788139,11.0000001639128,8.));
#1235=CARTESIAN_POINT('Ctrl Pts',(11.6143524583519,11.0000001639128,0.));
#1236=CARTESIAN_POINT('Ctrl Pts',(11.6143524583519,11.0000001639128,8.));
#1237=CARTESIAN_POINT('Ctrl Pts',(10.8679959983778,11.0637446670367,0.));
#1238=CARTESIAN_POINT('Ctrl Pts',(10.8679959983778,11.0637446670367,8.));
#1239=CARTESIAN_POINT('Ctrl Pts',(9.82320720601474,11.3504122319054,0.));
#1240=CARTESIAN_POINT('Ctrl Pts',(9.82320720601474,11.3504122319054,8.));
#1241=CARTESIAN_POINT('Ctrl Pts',(8.55578738698814,12.0527938363463,0.));
#1242=CARTESIAN_POINT('Ctrl Pts',(8.55578738698814,12.0527938363463,8.));
#1243=CARTESIAN_POINT('Ctrl Pts',(7.08797757310573,13.2206177727827,0.));
#1244=CARTESIAN_POINT('Ctrl Pts',(7.08797757310573,13.2206177727827,8.));
#1245=CARTESIAN_POINT('Ctrl Pts',(5.93718850822978,14.2010260249292,0.));
#1246=CARTESIAN_POINT('Ctrl Pts',(5.93718850822978,14.2010260249292,8.));
#1247=CARTESIAN_POINT('Ctrl Pts',(5.05770715663874,14.8817566646134,0.));
#1248=CARTESIAN_POINT('Ctrl Pts',(5.05770715663874,14.8817566646134,8.));
#1249=CARTESIAN_POINT('Ctrl Pts',(4.46000946127288,15.2998768062823,0.));
#1250=CARTESIAN_POINT('Ctrl Pts',(4.46000946127288,15.2998768062823,8.));
#1251=CARTESIAN_POINT('Ctrl Pts',(4.1583123951777,15.5,0.));
#1252=CARTESIAN_POINT('Ctrl Pts',(4.1583123951777,15.5,8.));
#1253=CARTESIAN_POINT('',(12.0000001788139,11.0000001639128,0.));
#1254=CARTESIAN_POINT('',(12.0000001788139,11.0000001639128,0.));
#1255=CARTESIAN_POINT('Ctrl Pts',(4.1583123951777,15.5,0.));
#1256=CARTESIAN_POINT('Ctrl Pts',(4.46000946127288,15.2998768062823,0.));
#1257=CARTESIAN_POINT('Ctrl Pts',(5.05770715663874,14.8817566646134,0.));
#1258=CARTESIAN_POINT('Ctrl Pts',(5.93718850822978,14.2010260249292,0.));
#1259=CARTESIAN_POINT('Ctrl Pts',(7.08797757310573,13.2206177727827,0.));
#1260=CARTESIAN_POINT('Ctrl Pts',(8.55578738698814,12.0527938363463,0.));
#1261=CARTESIAN_POINT('Ctrl Pts',(9.82320720601474,11.3504122319054,0.));
#1262=CARTESIAN_POINT('Ctrl Pts',(10.8679959983778,11.0637446670367,0.));
#1263=CARTESIAN_POINT('Ctrl Pts',(11.6143524583519,11.0000001639128,0.));
#1264=CARTESIAN_POINT('Ctrl Pts',(12.0000001788139,11.0000001639128,0.));
#1265=CARTESIAN_POINT('Origin',(14.0000002086163,11.0000001639128,0.));
#1266=CARTESIAN_POINT('',(14.0000002086163,11.0000001639128,0.));
#1267=CARTESIAN_POINT('',(14.0000002086163,11.0000001639128,0.));
#1268=CARTESIAN_POINT('',(12.0000001788139,11.0000001639128,0.));
#1269=CARTESIAN_POINT('Ctrl Pts',(21.8416876048223,15.5,0.));
#1270=CARTESIAN_POINT('Ctrl Pts',(21.8416876048223,15.5,8.));
#1271=CARTESIAN_POINT('Ctrl Pts',(21.5287062719152,15.2923916704724,0.));
#1272=CARTESIAN_POINT('Ctrl Pts',(21.5287062719152,15.2923916704724,8.));
#1273=CARTESIAN_POINT('Ctrl Pts',(20.9146423801092,14.8620697086819,0.));
#1274=CARTESIAN_POINT('Ctrl Pts',(20.9146423801092,14.8620697086819,8.));
#1275=CARTESIAN_POINT('Ctrl Pts',(20.0291992385202,14.171333666298,0.));
#1276=CARTESIAN_POINT('Ctrl Pts',(20.0291992385202,14.171333666298,8.));
#1277=CARTESIAN_POINT('Ctrl Pts',(18.9001119642584,13.1914094361022,0.));
#1278=CARTESIAN_POINT('Ctrl Pts',(18.9001119642584,13.1914094361022,8.));
#1279=CARTESIAN_POINT('Ctrl Pts',(17.4753689162408,12.0361245226411,0.));
#1280=CARTESIAN_POINT('Ctrl Pts',(17.4753689162408,12.0361245226411,8.));
#1281=CARTESIAN_POINT('Ctrl Pts',(16.2252885865451,11.3446258708206,0.));
#1282=CARTESIAN_POINT('Ctrl Pts',(16.2252885865451,11.3446258708206,8.));
#1283=CARTESIAN_POINT('Ctrl Pts',(15.1683550649905,11.0626919026549,0.));
#1284=CARTESIAN_POINT('Ctrl Pts',(15.1683550649905,11.0626919026549,8.));
#1285=CARTESIAN_POINT('Ctrl Pts',(14.4000721742769,11.0000001639128,0.));
#1286=CARTESIAN_POINT('Ctrl Pts',(14.4000721742769,11.0000001639128,8.));
#1287=CARTESIAN_POINT('Ctrl Pts',(14.0000002086163,11.0000001639128,0.));
#1288=CARTESIAN_POINT('Ctrl Pts',(14.0000002086163,11.0000001639128,8.));
#1289=CARTESIAN_POINT('',(21.8416876048223,15.5,0.));
#1290=CARTESIAN_POINT('',(21.8416876048223,15.5,0.));
#1291=CARTESIAN_POINT('Ctrl Pts',(14.0000002086163,11.0000001639128,0.));
#1292=CARTESIAN_POINT('Ctrl Pts',(14.4000721742769,11.0000001639128,0.));
#1293=CARTESIAN_POINT('Ctrl Pts',(15.1683550649905,11.0626919026549,0.));
#1294=CARTESIAN_POINT('Ctrl Pts',(16.2252885865451,11.3446258708206,0.));
#1295=CARTESIAN_POINT('Ctrl Pts',(17.4753689162408,12.0361245226411,0.));
#1296=CARTESIAN_POINT('Ctrl Pts',(18.9001119642584,13.1914094361022,0.));
#1297=CARTESIAN_POINT('Ctrl Pts',(20.0291992385202,14.171333666298,0.));
#1298=CARTESIAN_POINT('Ctrl Pts',(20.9146423801092,14.8620697086819,0.));
#1299=CARTESIAN_POINT('Ctrl Pts',(21.5287062719152,15.2923916704724,0.));
#1300=CARTESIAN_POINT('Ctrl Pts',(21.8416876048223,15.5,0.));
#1301=CARTESIAN_POINT('Origin',(23.5,13.,0.));
#1302=CARTESIAN_POINT('',(26.4865922465244,12.7166861228243,0.));
#1303=CARTESIAN_POINT('',(26.4865922465244,12.7166861228243,0.));
#1304=CARTESIAN_POINT('Origin',(23.5,13.,0.));
#1305=CARTESIAN_POINT('Origin',(21.,7.,1.5));
#1306=CARTESIAN_POINT('',(18.5,7.,6.5));
#1307=CARTESIAN_POINT('Origin',(21.,7.,6.5));
#1308=CARTESIAN_POINT('',(18.5,7.,1.5));
#1309=CARTESIAN_POINT('',(18.5,7.,1.5));
#1310=CARTESIAN_POINT('Origin',(21.,7.,1.5));
#1311=CARTESIAN_POINT('Origin',(21.,7.,6.5));
#1312=CARTESIAN_POINT('Origin',(21.,7.,1.5));
#1313=CARTESIAN_POINT('',(18.,7.,1.5));
#1314=CARTESIAN_POINT('Origin',(21.,7.,1.5));
#1315=CARTESIAN_POINT('Origin',(21.,7.,0.));
#1316=CARTESIAN_POINT('',(18.,7.,0.));
#1317=CARTESIAN_POINT('',(18.,7.,0.));
#1318=CARTESIAN_POINT('Origin',(21.,7.,0.));
#1319=CARTESIAN_POINT('Origin',(13.,7.,1.5));
#1320=CARTESIAN_POINT('',(10.5,7.,6.5));
#1321=CARTESIAN_POINT('Origin',(13.,7.,6.5));
#1322=CARTESIAN_POINT('',(10.5,7.,1.5));
#1323=CARTESIAN_POINT('',(10.5,7.,1.5));
#1324=CARTESIAN_POINT('Origin',(13.,7.,1.5));
#1325=CARTESIAN_POINT('Origin',(13.,7.,6.5));
#1326=CARTESIAN_POINT('Origin',(13.,7.,1.5));
#1327=CARTESIAN_POINT('',(10.,7.,1.5));
#1328=CARTESIAN_POINT('Origin',(13.,7.,1.5));
#1329=CARTESIAN_POINT('Origin',(13.,7.,0.));
#1330=CARTESIAN_POINT('',(10.,7.,0.));
#1331=CARTESIAN_POINT('',(10.,7.,0.));
#1332=CARTESIAN_POINT('Origin',(13.,7.,0.));
#1333=CARTESIAN_POINT('Origin',(5.,7.,1.5));
#1334=CARTESIAN_POINT('',(2.5,7.,6.5));
#1335=CARTESIAN_POINT('Origin',(5.,7.,6.5));
#1336=CARTESIAN_POINT('',(2.5,7.,1.5));
#1337=CARTESIAN_POINT('',(2.5,7.,1.5));
#1338=CARTESIAN_POINT('Origin',(5.,7.,1.5));
#1339=CARTESIAN_POINT('Origin',(5.,7.,6.5));
#1340=CARTESIAN_POINT('Origin',(5.,7.,1.5));
#1341=CARTESIAN_POINT('',(1.99999999999999,7.,1.5));
#1342=CARTESIAN_POINT('Origin',(5.,7.,1.5));
#1343=CARTESIAN_POINT('Origin',(5.,7.,0.));
#1344=CARTESIAN_POINT('',(1.99999999999999,7.,0.));
#1345=CARTESIAN_POINT('',(1.99999999999999,7.,0.));
#1346=CARTESIAN_POINT('Origin',(5.,7.,0.));
#1347=CARTESIAN_POINT('Origin',(23.5,13.,0.));
#1348=CARTESIAN_POINT('',(21.55,13.,0.));
#1349=CARTESIAN_POINT('',(21.55,13.,0.));
#1350=CARTESIAN_POINT('Origin',(23.5,13.,0.));
#1351=CARTESIAN_POINT('Origin',(2.5,13.,0.));
#1352=CARTESIAN_POINT('',(0.549999999999999,13.,0.));
#1353=CARTESIAN_POINT('',(0.549999999999999,13.,0.));
#1354=CARTESIAN_POINT('Origin',(2.5,13.,0.));
#1355=CARTESIAN_POINT('Ctrl Pts',(25.,7.,0.));
#1356=CARTESIAN_POINT('Ctrl Pts',(25.,7.,8.));
#1357=CARTESIAN_POINT('Ctrl Pts',(25.,7.24058604164886,0.));
#1358=CARTESIAN_POINT('Ctrl Pts',(25.,7.24058604164886,8.));
#1359=CARTESIAN_POINT('Ctrl Pts',(25.0271916441346,7.71614710825714,0.));
#1360=CARTESIAN_POINT('Ctrl Pts',(25.0271916441346,7.71614710825714,8.));
#1361=CARTESIAN_POINT('Ctrl Pts',(25.1494712979669,8.41267283025422,0.));
#1362=CARTESIAN_POINT('Ctrl Pts',(25.1494712979669,8.41267283025422,8.));
#1363=CARTESIAN_POINT('Ctrl Pts',(25.4449098140524,9.31413789461456,0.));
#1364=CARTESIAN_POINT('Ctrl Pts',(25.4449098140524,9.31413789461456,8.));
#1365=CARTESIAN_POINT('Ctrl Pts',(25.9037572553819,10.4231831058153,0.));
#1366=CARTESIAN_POINT('Ctrl Pts',(25.9037572553819,10.4231831058153,8.));
#1367=CARTESIAN_POINT('Ctrl Pts',(26.2304588013326,11.319970932789,0.));
#1368=CARTESIAN_POINT('Ctrl Pts',(26.2304588013326,11.319970932789,8.));
#1369=CARTESIAN_POINT('Ctrl Pts',(26.3970493360764,12.0098673386343,0.));
#1370=CARTESIAN_POINT('Ctrl Pts',(26.3970493360764,12.0098673386343,8.));
#1371=CARTESIAN_POINT('Ctrl Pts',(26.4640891611778,12.4794667501308,0.));
#1372=CARTESIAN_POINT('Ctrl Pts',(26.4640891611778,12.4794667501308,8.));
#1373=CARTESIAN_POINT('Ctrl Pts',(26.4865922465244,12.7166861228243,0.));
#1374=CARTESIAN_POINT('Ctrl Pts',(26.4865922465244,12.7166861228243,8.));
#1375=CARTESIAN_POINT('',(25.,7.,0.));
#1376=CARTESIAN_POINT('',(25.,7.,0.));
#1377=CARTESIAN_POINT('Ctrl Pts',(26.4865922465244,12.7166861228243,0.));
#1378=CARTESIAN_POINT('Ctrl Pts',(26.4640891611778,12.4794667501308,0.));
#1379=CARTESIAN_POINT('Ctrl Pts',(26.3970493360764,12.0098673386343,0.));
#1380=CARTESIAN_POINT('Ctrl Pts',(26.2304588013326,11.319970932789,0.));
#1381=CARTESIAN_POINT('Ctrl Pts',(25.9037572553819,10.4231831058153,0.));
#1382=CARTESIAN_POINT('Ctrl Pts',(25.4449098140524,9.31413789461456,0.));
#1383=CARTESIAN_POINT('Ctrl Pts',(25.1494712979669,8.41267283025422,0.));
#1384=CARTESIAN_POINT('Ctrl Pts',(25.0271916441346,7.71614710825714,0.));
#1385=CARTESIAN_POINT('Ctrl Pts',(25.,7.24058604164886,0.));
#1386=CARTESIAN_POINT('Ctrl Pts',(25.,7.,0.));
#1387=CARTESIAN_POINT('Origin',(21.,7.,0.));
#1388=CARTESIAN_POINT('',(21.,3.,0.));
#1389=CARTESIAN_POINT('',(21.,3.,0.));
#1390=CARTESIAN_POINT('Origin',(21.,7.,0.));
#1391=CARTESIAN_POINT('Origin',(5.,3.,0.));
#1392=CARTESIAN_POINT('',(5.,3.,0.));
#1393=CARTESIAN_POINT('',(5.,3.,0.));
#1394=CARTESIAN_POINT('',(21.,3.,0.));
#1395=CARTESIAN_POINT('Origin',(5.,7.,0.));
#1396=CARTESIAN_POINT('',(1.,7.,0.));
#1397=CARTESIAN_POINT('',(1.,7.,0.));
#1398=CARTESIAN_POINT('Origin',(5.,7.,0.));
#1399=CARTESIAN_POINT('Ctrl Pts',(-0.486592246524403,12.7166861228243,0.));
#1400=CARTESIAN_POINT('Ctrl Pts',(-0.486592246524403,12.7166861228243,8.));
#1401=CARTESIAN_POINT('Ctrl Pts',(-0.464089161177813,12.4794667501307,0.));
#1402=CARTESIAN_POINT('Ctrl Pts',(-0.464089161177813,12.4794667501307,8.));
#1403=CARTESIAN_POINT('Ctrl Pts',(-0.397049336076391,12.0098673386341,0.));
#1404=CARTESIAN_POINT('Ctrl Pts',(-0.397049336076391,12.0098673386341,8.));
#1405=CARTESIAN_POINT('Ctrl Pts',(-0.230458801332328,11.3199709327887,0.));
#1406=CARTESIAN_POINT('Ctrl Pts',(-0.230458801332328,11.3199709327887,8.));
#1407=CARTESIAN_POINT('Ctrl Pts',(0.0962427446184174,10.4231831058152,0.));
#1408=CARTESIAN_POINT('Ctrl Pts',(0.0962427446184174,10.4231831058152,8.));
#1409=CARTESIAN_POINT('Ctrl Pts',(0.555090185947821,9.31413789461474,0.));
#1410=CARTESIAN_POINT('Ctrl Pts',(0.555090185947821,9.31413789461474,8.));
#1411=CARTESIAN_POINT('Ctrl Pts',(0.850528702033191,8.41267283025453,0.));
#1412=CARTESIAN_POINT('Ctrl Pts',(0.850528702033191,8.41267283025453,8.));
#1413=CARTESIAN_POINT('Ctrl Pts',(0.972808355865436,7.71614710825737,0.));
#1414=CARTESIAN_POINT('Ctrl Pts',(0.972808355865436,7.71614710825737,8.));
#1415=CARTESIAN_POINT('Ctrl Pts',(1.,7.24058604164895,0.));
#1416=CARTESIAN_POINT('Ctrl Pts',(1.,7.24058604164895,8.));
#1417=CARTESIAN_POINT('Ctrl Pts',(1.,7.,0.));
#1418=CARTESIAN_POINT('Ctrl Pts',(1.,7.,8.));
#1419=CARTESIAN_POINT('Ctrl Pts',(-0.486592246524403,12.7166861228243,0.));
#1420=CARTESIAN_POINT('Ctrl Pts',(-0.464089161177813,12.4794667501307,0.));
#1421=CARTESIAN_POINT('Ctrl Pts',(-0.397049336076391,12.0098673386341,0.));
#1422=CARTESIAN_POINT('Ctrl Pts',(-0.230458801332328,11.3199709327887,0.));
#1423=CARTESIAN_POINT('Ctrl Pts',(0.0962427446184174,10.4231831058152,0.));
#1424=CARTESIAN_POINT('Ctrl Pts',(0.555090185947821,9.31413789461474,0.));
#1425=CARTESIAN_POINT('Ctrl Pts',(0.850528702033191,8.41267283025453,0.));
#1426=CARTESIAN_POINT('Ctrl Pts',(0.972808355865436,7.71614710825737,0.));
#1427=CARTESIAN_POINT('Ctrl Pts',(1.,7.24058604164895,0.));
#1428=CARTESIAN_POINT('Ctrl Pts',(1.,7.,0.));
#1429=CARTESIAN_POINT('Origin',(13.,9.5,0.));
#1430=UNCERTAINTY_MEASURE_WITH_UNIT(LENGTH_MEASURE(0.01),#1434,
'DISTANCE_ACCURACY_VALUE',
'Maximum model space distance between geometric entities at asserted c
onnectivities');
#1431=UNCERTAINTY_MEASURE_WITH_UNIT(LENGTH_MEASURE(0.01),#1434,
'DISTANCE_ACCURACY_VALUE',
'Maximum model space distance between geometric entities at asserted c
onnectivities');
#1432=(
GEOMETRIC_REPRESENTATION_CONTEXT(3)
GLOBAL_UNCERTAINTY_ASSIGNED_CONTEXT((#1430))
GLOBAL_UNIT_ASSIGNED_CONTEXT((#1434,#1436,#1437))
REPRESENTATION_CONTEXT('','3D')
);
#1433=(
GEOMETRIC_REPRESENTATION_CONTEXT(3)
GLOBAL_UNCERTAINTY_ASSIGNED_CONTEXT((#1431))
GLOBAL_UNIT_ASSIGNED_CONTEXT((#1434,#1436,#1437))
REPRESENTATION_CONTEXT('','3D')
);
#1434=(
LENGTH_UNIT()
NAMED_UNIT(*)
SI_UNIT(.MILLI.,.METRE.)
);
#1435=(
LENGTH_UNIT()
NAMED_UNIT(*)
SI_UNIT($,.METRE.)
);
#1436=(
NAMED_UNIT(*)
PLANE_ANGLE_UNIT()
SI_UNIT($,.RADIAN.)
);
#1437=(
NAMED_UNIT(*)
SI_UNIT($,.STERADIAN.)
SOLID_ANGLE_UNIT()
);
#1438=SHAPE_DEFINITION_REPRESENTATION(#1439,#1440);
#1439=PRODUCT_DEFINITION_SHAPE('',$,#1442);
#1440=SHAPE_REPRESENTATION('',(#676),#1432);
#1441=PRODUCT_DEFINITION_CONTEXT('part definition',#1446,'design');
#1442=PRODUCT_DEFINITION('acc_gyro','acc_gyro v4',#1443,#1441);
#1443=PRODUCT_DEFINITION_FORMATION('',$,#1448);
#1444=PRODUCT_RELATED_PRODUCT_CATEGORY('acc_gyro v4','acc_gyro v4',(#1448));
#1445=APPLICATION_PROTOCOL_DEFINITION('international standard',
'automotive_design',2009,#1446);
#1446=APPLICATION_CONTEXT(
'Core Data for Automotive Mechanical Design Process');
#1447=PRODUCT_CONTEXT('part definition',#1446,'mechanical');
#1448=PRODUCT('acc_gyro','acc_gyro v4',$,(#1447));
#1449=PRESENTATION_STYLE_ASSIGNMENT((#1450));
#1450=SURFACE_STYLE_USAGE(.BOTH.,#1451);
#1451=SURFACE_SIDE_STYLE('',(#1452));
#1452=SURFACE_STYLE_FILL_AREA(#1453);
#1453=FILL_AREA_STYLE('Steel - Satin',(#1454));
#1454=FILL_AREA_STYLE_COLOUR('Steel - Satin',#1455);
#1455=COLOUR_RGB('Steel - Satin',0.627450980392157,0.627450980392157,0.627450980392157);
ENDSEC;
END-ISO-10303-21;
