ISO-10303-21;
HEADER;
/* Generated by software containing ST-Developer
 * from STEP Tools, Inc. (www.steptools.com) 
 */

FILE_DESCRIPTION(
/* description */ (''),
/* implementation_level */ '2;1');

FILE_NAME(
/* name */ 'lidar.step',
/* time_stamp */ '2024-11-18T08:30:46+01:00',
/* author */ (''),
/* organization */ (''),
/* preprocessor_version */ 'ST-DEVELOPER v20',
/* originating_system */ 'Autodesk Translation Framework v13.20.0.188',

/* authorisation */ '');

FILE_SCHEMA (('AUTOMOTIVE_DESIGN { 1 0 10303 214 3 1 1 }'));
ENDSEC;

DATA;
#10=MECHANICAL_DESIGN_GEOMETRIC_PRESENTATION_REPRESENTATION('',(#13),#1821);
#11=SHAPE_REPRESENTATION_RELATIONSHIP('SRR','None',#1828,#12);
#12=ADVANCED_BREP_SHAPE_REPRESENTATION('',(#14),#1820);
#13=STYLED_ITEM('',(#1837),#14);
#14=MANIFOLD_SOLID_BREP('Body1',#1019);
#15=B_SPLINE_CURVE_WITH_KNOTS('',3,(#1638,#1639,#1640,#1641,#1642,#1643,
#1644,#1645),.UNSPECIFIED.,.F.,.F.,(4,2,2,4),(0.878255400635701,0.997933330154214,
1.12535739106003,1.22536126133295),.UNSPECIFIED.);
#16=B_SPLINE_CURVE_WITH_KNOTS('',3,(#1648,#1649,#1650,#1651,#1652,#1653),
 .UNSPECIFIED.,.F.,.F.,(4,2,4),(1.12535739106003,1.25278145196584,1.37245938148436),
 .UNSPECIFIED.);
#17=B_SPLINE_CURVE_WITH_KNOTS('',3,(#1658,#1659,#1660,#1661),
 .UNSPECIFIED.,.F.,.F.,(4,4),(1.02535352078711,1.12535739106003),
 .UNSPECIFIED.);
#18=FACE_BOUND('',#301,.T.);
#19=FACE_BOUND('',#302,.T.);
#20=FACE_BOUND('',#304,.T.);
#21=FACE_BOUND('',#305,.T.);
#22=FACE_BOUND('',#306,.T.);
#23=FACE_BOUND('',#307,.T.);
#24=FACE_BOUND('',#311,.T.);
#25=FACE_BOUND('',#314,.T.);
#26=FACE_BOUND('',#317,.T.);
#27=FACE_BOUND('',#319,.T.);
#28=FACE_BOUND('',#321,.T.);
#29=FACE_BOUND('',#323,.T.);
#30=FACE_BOUND('',#325,.T.);
#31=FACE_BOUND('',#328,.T.);
#32=FACE_BOUND('',#344,.T.);
#33=FACE_BOUND('',#345,.T.);
#34=FACE_BOUND('',#350,.T.);
#35=FACE_BOUND('',#353,.T.);
#36=PLANE('',#1063);
#37=PLANE('',#1067);
#38=PLANE('',#1068);
#39=PLANE('',#1072);
#40=PLANE('',#1077);
#41=PLANE('',#1085);
#42=PLANE('',#1094);
#43=PLANE('',#1103);
#44=PLANE('',#1108);
#45=PLANE('',#1113);
#46=PLANE('',#1118);
#47=PLANE('',#1123);
#48=PLANE('',#1131);
#49=PLANE('',#1159);
#50=PLANE('',#1160);
#51=PLANE('',#1163);
#52=PLANE('',#1166);
#53=PLANE('',#1169);
#54=TOROIDAL_SURFACE('',#1054,2.,0.5);
#55=TOROIDAL_SURFACE('',#1059,2.,0.5);
#56=ELLIPSE('',#1047,0.707106781186547,0.5);
#57=ELLIPSE('',#1050,0.707106781186548,0.5);
#58=ELLIPSE('',#1092,4.24264068711929,3.);
#59=ELLIPSE('',#1093,4.24264068711929,3.);
#60=ELLIPSE('',#1101,4.24264068711928,3.);
#61=ELLIPSE('',#1102,4.24264068711928,3.);
#62=ELLIPSE('',#1129,4.24264068711929,3.);
#63=ELLIPSE('',#1130,4.24264068711929,3.);
#64=ELLIPSE('',#1137,4.24264068711928,3.);
#65=ELLIPSE('',#1138,4.24264068711928,3.);
#66=ELLIPSE('',#1140,3.53553390593274,2.5);
#67=ELLIPSE('',#1141,3.53553390593274,2.5);
#68=ELLIPSE('',#1143,3.53553390593274,2.5);
#69=ELLIPSE('',#1144,3.53553390593274,2.5);
#70=ELLIPSE('',#1146,3.53553390593273,2.5);
#71=ELLIPSE('',#1147,3.53553390593273,2.5);
#72=ELLIPSE('',#1149,3.53553390593273,2.5);
#73=ELLIPSE('',#1150,3.53553390593273,2.5);
#74=LINE('',#1522,#138);
#75=LINE('',#1523,#139);
#76=LINE('',#1535,#140);
#77=LINE('',#1536,#141);
#78=LINE('',#1538,#142);
#79=LINE('',#1539,#143);
#80=LINE('',#1542,#144);
#81=LINE('',#1544,#145);
#82=LINE('',#1549,#146);
#83=LINE('',#1553,#147);
#84=LINE('',#1560,#148);
#85=LINE('',#1563,#149);
#86=LINE('',#1571,#150);
#87=LINE('',#1572,#151);
#88=LINE('',#1577,#152);
#89=LINE('',#1578,#153);
#90=LINE('',#1581,#154);
#91=LINE('',#1583,#155);
#92=LINE('',#1589,#156);
#93=LINE('',#1591,#157);
#94=LINE('',#1593,#158);
#95=LINE('',#1597,#159);
#96=LINE('',#1598,#160);
#97=LINE('',#1599,#161);
#98=LINE('',#1601,#162);
#99=LINE('',#1604,#163);
#100=LINE('',#1606,#164);
#101=LINE('',#1609,#165);
#102=LINE('',#1612,#166);
#103=LINE('',#1616,#167);
#104=LINE('',#1618,#168);
#105=LINE('',#1622,#169);
#106=LINE('',#1637,#170);
#107=LINE('',#1655,#171);
#108=LINE('',#1665,#172);
#109=LINE('',#1671,#173);
#110=LINE('',#1678,#174);
#111=LINE('',#1684,#175);
#112=LINE('',#1690,#176);
#113=LINE('',#1697,#177);
#114=LINE('',#1704,#178);
#115=LINE('',#1716,#179);
#116=LINE('',#1724,#180);
#117=LINE('',#1736,#181);
#118=LINE('',#1748,#182);
#119=LINE('',#1759,#183);
#120=LINE('',#1767,#184);
#121=LINE('',#1769,#185);
#122=LINE('',#1777,#186);
#123=LINE('',#1779,#187);
#124=LINE('',#1783,#188);
#125=LINE('',#1785,#189);
#126=LINE('',#1787,#190);
#127=LINE('',#1789,#191);
#128=LINE('',#1791,#192);
#129=LINE('',#1793,#193);
#130=LINE('',#1794,#194);
#131=LINE('',#1796,#195);
#132=LINE('',#1798,#196);
#133=LINE('',#1800,#197);
#134=LINE('',#1804,#198);
#135=LINE('',#1808,#199);
#136=LINE('',#1809,#200);
#137=LINE('',#1815,#201);
#138=VECTOR('',#1184,10.);
#139=VECTOR('',#1185,10.);
#140=VECTOR('',#1198,10.);
#141=VECTOR('',#1199,10.);
#142=VECTOR('',#1202,10.);
#143=VECTOR('',#1203,10.);
#144=VECTOR('',#1206,10.);
#145=VECTOR('',#1207,10.);
#146=VECTOR('',#1212,10.);
#147=VECTOR('',#1215,10.);
#148=VECTOR('',#1222,10.);
#149=VECTOR('',#1225,10.);
#150=VECTOR('',#1236,10.);
#151=VECTOR('',#1237,10.);
#152=VECTOR('',#1246,10.);
#153=VECTOR('',#1247,10.);
#154=VECTOR('',#1250,10.);
#155=VECTOR('',#1251,10.);
#156=VECTOR('',#1256,10.);
#157=VECTOR('',#1257,10.);
#158=VECTOR('',#1258,10.);
#159=VECTOR('',#1261,10.);
#160=VECTOR('',#1262,10.);
#161=VECTOR('',#1263,10.);
#162=VECTOR('',#1266,10.);
#163=VECTOR('',#1269,10.);
#164=VECTOR('',#1270,10.);
#165=VECTOR('',#1273,10.);
#166=VECTOR('',#1276,10.);
#167=VECTOR('',#1281,10.);
#168=VECTOR('',#1282,10.);
#169=VECTOR('',#1287,10.);
#170=VECTOR('',#1304,10.);
#171=VECTOR('',#1307,10.);
#172=VECTOR('',#1312,10.);
#173=VECTOR('',#1317,10.);
#174=VECTOR('',#1326,3.);
#175=VECTOR('',#1333,10.);
#176=VECTOR('',#1338,10.);
#177=VECTOR('',#1347,3.);
#178=VECTOR('',#1356,10.);
#179=VECTOR('',#1369,10.);
#180=VECTOR('',#1378,10.);
#181=VECTOR('',#1391,10.);
#182=VECTOR('',#1408,3.);
#183=VECTOR('',#1425,3.);
#184=VECTOR('',#1436,2.5);
#185=VECTOR('',#1439,2.5);
#186=VECTOR('',#1450,2.5);
#187=VECTOR('',#1453,2.5);
#188=VECTOR('',#1460,2.5);
#189=VECTOR('',#1463,2.5);
#190=VECTOR('',#1466,2.5);
#191=VECTOR('',#1469,3.);
#192=VECTOR('',#1472,2.5);
#193=VECTOR('',#1475,3.);
#194=VECTOR('',#1476,10.);
#195=VECTOR('',#1479,3.);
#196=VECTOR('',#1482,3.);
#197=VECTOR('',#1485,10.);
#198=VECTOR('',#1490,1.5);
#199=VECTOR('',#1495,10.);
#200=VECTOR('',#1496,10.);
#201=VECTOR('',#1505,1.5);
#202=CYLINDRICAL_SURFACE('',#1037,0.5);
#203=CYLINDRICAL_SURFACE('',#1043,0.5);
#204=CYLINDRICAL_SURFACE('',#1045,0.5);
#205=CYLINDRICAL_SURFACE('',#1046,0.5);
#206=CYLINDRICAL_SURFACE('',#1048,0.5);
#207=CYLINDRICAL_SURFACE('',#1051,0.5);
#208=CYLINDRICAL_SURFACE('',#1058,0.5);
#209=CYLINDRICAL_SURFACE('',#1062,0.5);
#210=CYLINDRICAL_SURFACE('',#1070,2.5);
#211=CYLINDRICAL_SURFACE('',#1082,2.);
#212=CYLINDRICAL_SURFACE('',#1083,2.);
#213=CYLINDRICAL_SURFACE('',#1090,3.);
#214=CYLINDRICAL_SURFACE('',#1099,3.);
#215=CYLINDRICAL_SURFACE('',#1128,3.);
#216=CYLINDRICAL_SURFACE('',#1136,3.);
#217=CYLINDRICAL_SURFACE('',#1139,2.5);
#218=CYLINDRICAL_SURFACE('',#1142,2.5);
#219=CYLINDRICAL_SURFACE('',#1145,2.5);
#220=CYLINDRICAL_SURFACE('',#1148,2.5);
#221=CYLINDRICAL_SURFACE('',#1151,2.5);
#222=CYLINDRICAL_SURFACE('',#1152,2.5);
#223=CYLINDRICAL_SURFACE('',#1153,2.5);
#224=CYLINDRICAL_SURFACE('',#1154,3.);
#225=CYLINDRICAL_SURFACE('',#1155,2.5);
#226=CYLINDRICAL_SURFACE('',#1156,3.);
#227=CYLINDRICAL_SURFACE('',#1157,3.);
#228=CYLINDRICAL_SURFACE('',#1158,3.);
#229=CYLINDRICAL_SURFACE('',#1161,1.5);
#230=CYLINDRICAL_SURFACE('',#1164,2.5);
#231=CYLINDRICAL_SURFACE('',#1167,1.5);
#232=FACE_OUTER_BOUND('',#284,.T.);
#233=FACE_OUTER_BOUND('',#285,.T.);
#234=FACE_OUTER_BOUND('',#286,.T.);
#235=FACE_OUTER_BOUND('',#287,.T.);
#236=FACE_OUTER_BOUND('',#288,.T.);
#237=FACE_OUTER_BOUND('',#289,.T.);
#238=FACE_OUTER_BOUND('',#290,.T.);
#239=FACE_OUTER_BOUND('',#291,.T.);
#240=FACE_OUTER_BOUND('',#292,.T.);
#241=FACE_OUTER_BOUND('',#293,.T.);
#242=FACE_OUTER_BOUND('',#294,.T.);
#243=FACE_OUTER_BOUND('',#295,.T.);
#244=FACE_OUTER_BOUND('',#296,.T.);
#245=FACE_OUTER_BOUND('',#297,.T.);
#246=FACE_OUTER_BOUND('',#298,.T.);
#247=FACE_OUTER_BOUND('',#299,.T.);
#248=FACE_OUTER_BOUND('',#300,.T.);
#249=FACE_OUTER_BOUND('',#303,.T.);
#250=FACE_OUTER_BOUND('',#308,.T.);
#251=FACE_OUTER_BOUND('',#309,.T.);
#252=FACE_OUTER_BOUND('',#310,.T.);
#253=FACE_OUTER_BOUND('',#312,.T.);
#254=FACE_OUTER_BOUND('',#313,.T.);
#255=FACE_OUTER_BOUND('',#315,.T.);
#256=FACE_OUTER_BOUND('',#316,.T.);
#257=FACE_OUTER_BOUND('',#318,.T.);
#258=FACE_OUTER_BOUND('',#320,.T.);
#259=FACE_OUTER_BOUND('',#322,.T.);
#260=FACE_OUTER_BOUND('',#324,.T.);
#261=FACE_OUTER_BOUND('',#326,.T.);
#262=FACE_OUTER_BOUND('',#327,.T.);
#263=FACE_OUTER_BOUND('',#329,.T.);
#264=FACE_OUTER_BOUND('',#330,.T.);
#265=FACE_OUTER_BOUND('',#331,.T.);
#266=FACE_OUTER_BOUND('',#332,.T.);
#267=FACE_OUTER_BOUND('',#333,.T.);
#268=FACE_OUTER_BOUND('',#334,.T.);
#269=FACE_OUTER_BOUND('',#335,.T.);
#270=FACE_OUTER_BOUND('',#336,.T.);
#271=FACE_OUTER_BOUND('',#337,.T.);
#272=FACE_OUTER_BOUND('',#338,.T.);
#273=FACE_OUTER_BOUND('',#339,.T.);
#274=FACE_OUTER_BOUND('',#340,.T.);
#275=FACE_OUTER_BOUND('',#341,.T.);
#276=FACE_OUTER_BOUND('',#342,.T.);
#277=FACE_OUTER_BOUND('',#343,.T.);
#278=FACE_OUTER_BOUND('',#346,.T.);
#279=FACE_OUTER_BOUND('',#347,.T.);
#280=FACE_OUTER_BOUND('',#348,.T.);
#281=FACE_OUTER_BOUND('',#349,.T.);
#282=FACE_OUTER_BOUND('',#351,.T.);
#283=FACE_OUTER_BOUND('',#352,.T.);
#284=EDGE_LOOP('',(#661,#662,#663));
#285=EDGE_LOOP('',(#664,#665,#666,#667));
#286=EDGE_LOOP('',(#668,#669,#670));
#287=EDGE_LOOP('',(#671,#672,#673,#674));
#288=EDGE_LOOP('',(#675,#676,#677,#678));
#289=EDGE_LOOP('',(#679,#680,#681,#682));
#290=EDGE_LOOP('',(#683,#684,#685,#686));
#291=EDGE_LOOP('',(#687,#688,#689,#690));
#292=EDGE_LOOP('',(#691,#692,#693,#694));
#293=EDGE_LOOP('',(#695,#696,#697,#698));
#294=EDGE_LOOP('',(#699,#700,#701,#702));
#295=EDGE_LOOP('',(#703,#704,#705,#706));
#296=EDGE_LOOP('',(#707,#708,#709,#710,#711,#712,#713,#714,#715,#716,#717,
#718,#719));
#297=EDGE_LOOP('',(#720,#721,#722,#723));
#298=EDGE_LOOP('',(#724,#725,#726,#727,#728,#729,#730));
#299=EDGE_LOOP('',(#731,#732,#733,#734));
#300=EDGE_LOOP('',(#735,#736,#737,#738,#739,#740,#741,#742));
#301=EDGE_LOOP('',(#743));
#302=EDGE_LOOP('',(#744));
#303=EDGE_LOOP('',(#745,#746,#747,#748,#749,#750,#751,#752));
#304=EDGE_LOOP('',(#753));
#305=EDGE_LOOP('',(#754));
#306=EDGE_LOOP('',(#755));
#307=EDGE_LOOP('',(#756));
#308=EDGE_LOOP('',(#757,#758,#759,#760,#761));
#309=EDGE_LOOP('',(#762,#763,#764,#765,#766,#767));
#310=EDGE_LOOP('',(#768,#769,#770,#771,#772));
#311=EDGE_LOOP('',(#773));
#312=EDGE_LOOP('',(#774,#775,#776,#777,#778,#779,#780,#781));
#313=EDGE_LOOP('',(#782,#783,#784,#785,#786));
#314=EDGE_LOOP('',(#787));
#315=EDGE_LOOP('',(#788,#789,#790,#791,#792,#793,#794,#795));
#316=EDGE_LOOP('',(#796,#797,#798,#799,#800));
#317=EDGE_LOOP('',(#801));
#318=EDGE_LOOP('',(#802,#803,#804,#805,#806));
#319=EDGE_LOOP('',(#807));
#320=EDGE_LOOP('',(#808,#809,#810,#811,#812));
#321=EDGE_LOOP('',(#813));
#322=EDGE_LOOP('',(#814,#815,#816,#817,#818));
#323=EDGE_LOOP('',(#819));
#324=EDGE_LOOP('',(#820,#821,#822,#823,#824));
#325=EDGE_LOOP('',(#825));
#326=EDGE_LOOP('',(#826,#827,#828,#829,#830,#831,#832,#833));
#327=EDGE_LOOP('',(#834,#835,#836,#837,#838));
#328=EDGE_LOOP('',(#839));
#329=EDGE_LOOP('',(#840,#841,#842,#843,#844,#845,#846,#847));
#330=EDGE_LOOP('',(#848,#849,#850,#851,#852));
#331=EDGE_LOOP('',(#853,#854,#855,#856,#857));
#332=EDGE_LOOP('',(#858,#859,#860,#861,#862));
#333=EDGE_LOOP('',(#863,#864,#865,#866,#867));
#334=EDGE_LOOP('',(#868,#869,#870,#871,#872));
#335=EDGE_LOOP('',(#873,#874,#875,#876,#877));
#336=EDGE_LOOP('',(#878,#879,#880,#881,#882));
#337=EDGE_LOOP('',(#883,#884,#885,#886,#887,#888,#889,#890,#891,#892,#893));
#338=EDGE_LOOP('',(#894,#895,#896,#897,#898));
#339=EDGE_LOOP('',(#899,#900,#901,#902,#903,#904,#905,#906,#907,#908,#909));
#340=EDGE_LOOP('',(#910,#911,#912,#913,#914,#915,#916,#917));
#341=EDGE_LOOP('',(#918,#919,#920,#921,#922,#923,#924,#925));
#342=EDGE_LOOP('',(#926,#927,#928,#929));
#343=EDGE_LOOP('',(#930,#931,#932,#933));
#344=EDGE_LOOP('',(#934));
#345=EDGE_LOOP('',(#935));
#346=EDGE_LOOP('',(#936,#937,#938,#939));
#347=EDGE_LOOP('',(#940,#941,#942,#943,#944,#945,#946));
#348=EDGE_LOOP('',(#947,#948,#949,#950));
#349=EDGE_LOOP('',(#951,#952,#953,#954));
#350=EDGE_LOOP('',(#955));
#351=EDGE_LOOP('',(#956,#957,#958,#959));
#352=EDGE_LOOP('',(#960,#961,#962,#963));
#353=EDGE_LOOP('',(#964));
#354=CIRCLE('',#1034,0.5);
#355=CIRCLE('',#1035,0.5);
#356=CIRCLE('',#1036,0.5);
#357=CIRCLE('',#1038,0.5);
#358=CIRCLE('',#1040,0.5);
#359=CIRCLE('',#1041,0.5);
#360=CIRCLE('',#1042,0.5);
#361=CIRCLE('',#1044,0.5);
#362=CIRCLE('',#1049,0.5);
#363=CIRCLE('',#1052,0.5);
#364=CIRCLE('',#1053,0.5);
#365=CIRCLE('',#1055,0.5);
#366=CIRCLE('',#1056,2.);
#367=CIRCLE('',#1057,2.5);
#368=CIRCLE('',#1060,2.);
#369=CIRCLE('',#1061,2.5);
#370=CIRCLE('',#1064,3.);
#371=CIRCLE('',#1065,3.);
#372=CIRCLE('',#1066,3.);
#373=CIRCLE('',#1069,2.);
#374=CIRCLE('',#1071,2.5);
#375=CIRCLE('',#1073,2.);
#376=CIRCLE('',#1074,2.);
#377=CIRCLE('',#1075,3.);
#378=CIRCLE('',#1076,3.);
#379=CIRCLE('',#1078,1.5);
#380=CIRCLE('',#1079,1.5);
#381=CIRCLE('',#1080,3.);
#382=CIRCLE('',#1081,3.);
#383=CIRCLE('',#1084,2.);
#384=CIRCLE('',#1086,3.);
#385=CIRCLE('',#1087,3.);
#386=CIRCLE('',#1088,3.);
#387=CIRCLE('',#1089,2.5);
#388=CIRCLE('',#1091,3.);
#389=CIRCLE('',#1095,3.);
#390=CIRCLE('',#1096,3.);
#391=CIRCLE('',#1097,3.);
#392=CIRCLE('',#1098,2.5);
#393=CIRCLE('',#1100,3.);
#394=CIRCLE('',#1104,3.);
#395=CIRCLE('',#1105,3.);
#396=CIRCLE('',#1106,3.);
#397=CIRCLE('',#1107,2.5);
#398=CIRCLE('',#1109,3.);
#399=CIRCLE('',#1110,3.);
#400=CIRCLE('',#1111,3.);
#401=CIRCLE('',#1112,2.5);
#402=CIRCLE('',#1114,3.);
#403=CIRCLE('',#1115,3.);
#404=CIRCLE('',#1116,3.);
#405=CIRCLE('',#1117,2.5);
#406=CIRCLE('',#1119,3.);
#407=CIRCLE('',#1120,3.);
#408=CIRCLE('',#1121,3.);
#409=CIRCLE('',#1122,2.5);
#410=CIRCLE('',#1124,3.);
#411=CIRCLE('',#1125,3.);
#412=CIRCLE('',#1126,3.);
#413=CIRCLE('',#1127,2.5);
#414=CIRCLE('',#1132,3.);
#415=CIRCLE('',#1133,3.);
#416=CIRCLE('',#1134,3.);
#417=CIRCLE('',#1135,2.5);
#418=CIRCLE('',#1162,1.5);
#419=CIRCLE('',#1165,2.5);
#420=CIRCLE('',#1168,1.5);
#421=VERTEX_POINT('',#1512);
#422=VERTEX_POINT('',#1513);
#423=VERTEX_POINT('',#1515);
#424=VERTEX_POINT('',#1519);
#425=VERTEX_POINT('',#1520);
#426=VERTEX_POINT('',#1525);
#427=VERTEX_POINT('',#1526);
#428=VERTEX_POINT('',#1528);
#429=VERTEX_POINT('',#1532);
#430=VERTEX_POINT('',#1533);
#431=VERTEX_POINT('',#1541);
#432=VERTEX_POINT('',#1543);
#433=VERTEX_POINT('',#1547);
#434=VERTEX_POINT('',#1548);
#435=VERTEX_POINT('',#1550);
#436=VERTEX_POINT('',#1552);
#437=VERTEX_POINT('',#1556);
#438=VERTEX_POINT('',#1557);
#439=VERTEX_POINT('',#1559);
#440=VERTEX_POINT('',#1561);
#441=VERTEX_POINT('',#1565);
#442=VERTEX_POINT('',#1566);
#443=VERTEX_POINT('',#1580);
#444=VERTEX_POINT('',#1582);
#445=VERTEX_POINT('',#1584);
#446=VERTEX_POINT('',#1586);
#447=VERTEX_POINT('',#1588);
#448=VERTEX_POINT('',#1590);
#449=VERTEX_POINT('',#1592);
#450=VERTEX_POINT('',#1594);
#451=VERTEX_POINT('',#1596);
#452=VERTEX_POINT('',#1603);
#453=VERTEX_POINT('',#1605);
#454=VERTEX_POINT('',#1607);
#455=VERTEX_POINT('',#1611);
#456=VERTEX_POINT('',#1615);
#457=VERTEX_POINT('',#1617);
#458=VERTEX_POINT('',#1620);
#459=VERTEX_POINT('',#1623);
#460=VERTEX_POINT('',#1625);
#461=VERTEX_POINT('',#1628);
#462=VERTEX_POINT('',#1630);
#463=VERTEX_POINT('',#1632);
#464=VERTEX_POINT('',#1634);
#465=VERTEX_POINT('',#1647);
#466=VERTEX_POINT('',#1654);
#467=VERTEX_POINT('',#1656);
#468=VERTEX_POINT('',#1663);
#469=VERTEX_POINT('',#1664);
#470=VERTEX_POINT('',#1666);
#471=VERTEX_POINT('',#1668);
#472=VERTEX_POINT('',#1670);
#473=VERTEX_POINT('',#1673);
#474=VERTEX_POINT('',#1676);
#475=VERTEX_POINT('',#1682);
#476=VERTEX_POINT('',#1683);
#477=VERTEX_POINT('',#1685);
#478=VERTEX_POINT('',#1687);
#479=VERTEX_POINT('',#1689);
#480=VERTEX_POINT('',#1692);
#481=VERTEX_POINT('',#1695);
#482=VERTEX_POINT('',#1701);
#483=VERTEX_POINT('',#1703);
#484=VERTEX_POINT('',#1705);
#485=VERTEX_POINT('',#1708);
#486=VERTEX_POINT('',#1711);
#487=VERTEX_POINT('',#1713);
#488=VERTEX_POINT('',#1715);
#489=VERTEX_POINT('',#1718);
#490=VERTEX_POINT('',#1721);
#491=VERTEX_POINT('',#1723);
#492=VERTEX_POINT('',#1725);
#493=VERTEX_POINT('',#1728);
#494=VERTEX_POINT('',#1731);
#495=VERTEX_POINT('',#1733);
#496=VERTEX_POINT('',#1735);
#497=VERTEX_POINT('',#1738);
#498=VERTEX_POINT('',#1742);
#499=VERTEX_POINT('',#1745);
#500=VERTEX_POINT('',#1753);
#501=VERTEX_POINT('',#1756);
#502=VERTEX_POINT('',#1763);
#503=VERTEX_POINT('',#1764);
#504=VERTEX_POINT('',#1773);
#505=VERTEX_POINT('',#1774);
#506=VERTEX_POINT('',#1803);
#507=VERTEX_POINT('',#1807);
#508=VERTEX_POINT('',#1814);
#509=EDGE_CURVE('',#421,#422,#354,.F.);
#510=EDGE_CURVE('',#423,#421,#355,.F.);
#511=EDGE_CURVE('',#422,#423,#356,.F.);
#512=EDGE_CURVE('',#424,#425,#357,.T.);
#513=EDGE_CURVE('',#425,#423,#74,.T.);
#514=EDGE_CURVE('',#421,#424,#75,.T.);
#515=EDGE_CURVE('',#426,#427,#358,.F.);
#516=EDGE_CURVE('',#428,#426,#359,.F.);
#517=EDGE_CURVE('',#427,#428,#360,.F.);
#518=EDGE_CURVE('',#429,#430,#361,.T.);
#519=EDGE_CURVE('',#430,#428,#76,.T.);
#520=EDGE_CURVE('',#426,#429,#77,.T.);
#521=EDGE_CURVE('',#422,#427,#78,.T.);
#522=EDGE_CURVE('',#428,#421,#79,.T.);
#523=EDGE_CURVE('',#431,#426,#80,.T.);
#524=EDGE_CURVE('',#427,#432,#81,.T.);
#525=EDGE_CURVE('',#432,#431,#56,.T.);
#526=EDGE_CURVE('',#433,#434,#82,.T.);
#527=EDGE_CURVE('',#434,#435,#362,.T.);
#528=EDGE_CURVE('',#435,#436,#83,.T.);
#529=EDGE_CURVE('',#436,#433,#57,.T.);
#530=EDGE_CURVE('',#437,#438,#363,.T.);
#531=EDGE_CURVE('',#438,#439,#84,.T.);
#532=EDGE_CURVE('',#439,#440,#364,.T.);
#533=EDGE_CURVE('',#440,#437,#85,.T.);
#534=EDGE_CURVE('',#441,#442,#365,.T.);
#535=EDGE_CURVE('',#442,#440,#366,.T.);
#536=EDGE_CURVE('',#439,#441,#367,.T.);
#537=EDGE_CURVE('',#432,#442,#86,.T.);
#538=EDGE_CURVE('',#441,#431,#87,.T.);
#539=EDGE_CURVE('',#437,#435,#368,.T.);
#540=EDGE_CURVE('',#434,#438,#369,.T.);
#541=EDGE_CURVE('',#436,#422,#88,.T.);
#542=EDGE_CURVE('',#423,#433,#89,.T.);
#543=EDGE_CURVE('',#429,#443,#90,.T.);
#544=EDGE_CURVE('',#443,#444,#91,.T.);
#545=EDGE_CURVE('',#444,#445,#370,.T.);
#546=EDGE_CURVE('',#445,#446,#371,.T.);
#547=EDGE_CURVE('',#447,#446,#92,.T.);
#548=EDGE_CURVE('',#448,#447,#93,.T.);
#549=EDGE_CURVE('',#449,#448,#94,.T.);
#550=EDGE_CURVE('',#449,#450,#372,.T.);
#551=EDGE_CURVE('',#450,#451,#95,.T.);
#552=EDGE_CURVE('',#425,#451,#96,.T.);
#553=EDGE_CURVE('',#430,#424,#97,.T.);
#554=EDGE_CURVE('',#443,#431,#98,.T.);
#555=EDGE_CURVE('',#452,#441,#99,.T.);
#556=EDGE_CURVE('',#452,#453,#100,.T.);
#557=EDGE_CURVE('',#453,#454,#373,.F.);
#558=EDGE_CURVE('',#454,#444,#101,.T.);
#559=EDGE_CURVE('',#455,#439,#102,.T.);
#560=EDGE_CURVE('',#455,#452,#374,.T.);
#561=EDGE_CURVE('',#456,#438,#103,.T.);
#562=EDGE_CURVE('',#457,#456,#104,.T.);
#563=EDGE_CURVE('',#448,#457,#375,.T.);
#564=EDGE_CURVE('',#458,#447,#376,.T.);
#565=EDGE_CURVE('',#458,#455,#105,.T.);
#566=EDGE_CURVE('',#459,#459,#377,.T.);
#567=EDGE_CURVE('',#460,#460,#378,.T.);
#568=EDGE_CURVE('',#461,#461,#379,.T.);
#569=EDGE_CURVE('',#462,#462,#380,.T.);
#570=EDGE_CURVE('',#463,#463,#381,.T.);
#571=EDGE_CURVE('',#464,#464,#382,.T.);
#572=EDGE_CURVE('',#453,#458,#106,.T.);
#573=EDGE_CURVE('',#446,#454,#15,.T.);
#574=EDGE_CURVE('',#449,#465,#16,.F.);
#575=EDGE_CURVE('',#466,#457,#107,.T.);
#576=EDGE_CURVE('',#466,#467,#383,.T.);
#577=EDGE_CURVE('',#465,#467,#17,.F.);
#578=EDGE_CURVE('',#468,#469,#108,.T.);
#579=EDGE_CURVE('',#470,#468,#384,.T.);
#580=EDGE_CURVE('',#471,#470,#385,.T.);
#581=EDGE_CURVE('',#472,#471,#109,.T.);
#582=EDGE_CURVE('',#469,#472,#386,.T.);
#583=EDGE_CURVE('',#473,#473,#387,.T.);
#584=EDGE_CURVE('',#474,#474,#388,.T.);
#585=EDGE_CURVE('',#474,#470,#110,.T.);
#586=EDGE_CURVE('',#469,#468,#58,.T.);
#587=EDGE_CURVE('',#471,#472,#59,.T.);
#588=EDGE_CURVE('',#475,#476,#111,.T.);
#589=EDGE_CURVE('',#477,#475,#389,.T.);
#590=EDGE_CURVE('',#478,#477,#390,.T.);
#591=EDGE_CURVE('',#479,#478,#112,.T.);
#592=EDGE_CURVE('',#476,#479,#391,.T.);
#593=EDGE_CURVE('',#480,#480,#392,.T.);
#594=EDGE_CURVE('',#481,#481,#393,.T.);
#595=EDGE_CURVE('',#481,#477,#113,.T.);
#596=EDGE_CURVE('',#476,#475,#60,.T.);
#597=EDGE_CURVE('',#478,#479,#61,.T.);
#598=EDGE_CURVE('',#482,#469,#394,.T.);
#599=EDGE_CURVE('',#482,#483,#114,.T.);
#600=EDGE_CURVE('',#484,#483,#395,.T.);
#601=EDGE_CURVE('',#468,#484,#396,.T.);
#602=EDGE_CURVE('',#485,#485,#397,.T.);
#603=EDGE_CURVE('',#486,#471,#398,.T.);
#604=EDGE_CURVE('',#487,#486,#399,.T.);
#605=EDGE_CURVE('',#487,#488,#115,.T.);
#606=EDGE_CURVE('',#472,#488,#400,.T.);
#607=EDGE_CURVE('',#489,#489,#401,.T.);
#608=EDGE_CURVE('',#490,#476,#402,.T.);
#609=EDGE_CURVE('',#490,#491,#116,.T.);
#610=EDGE_CURVE('',#492,#491,#403,.T.);
#611=EDGE_CURVE('',#475,#492,#404,.T.);
#612=EDGE_CURVE('',#493,#493,#405,.T.);
#613=EDGE_CURVE('',#494,#478,#406,.T.);
#614=EDGE_CURVE('',#495,#494,#407,.T.);
#615=EDGE_CURVE('',#495,#496,#117,.T.);
#616=EDGE_CURVE('',#479,#496,#408,.T.);
#617=EDGE_CURVE('',#497,#497,#409,.T.);
#618=EDGE_CURVE('',#488,#482,#410,.T.);
#619=EDGE_CURVE('',#498,#487,#411,.T.);
#620=EDGE_CURVE('',#483,#498,#412,.T.);
#621=EDGE_CURVE('',#499,#499,#413,.T.);
#622=EDGE_CURVE('',#460,#498,#118,.T.);
#623=EDGE_CURVE('',#488,#487,#62,.T.);
#624=EDGE_CURVE('',#483,#482,#63,.T.);
#625=EDGE_CURVE('',#496,#490,#414,.T.);
#626=EDGE_CURVE('',#500,#495,#415,.T.);
#627=EDGE_CURVE('',#491,#500,#416,.T.);
#628=EDGE_CURVE('',#501,#501,#417,.T.);
#629=EDGE_CURVE('',#459,#500,#119,.T.);
#630=EDGE_CURVE('',#496,#495,#64,.T.);
#631=EDGE_CURVE('',#491,#490,#65,.T.);
#632=EDGE_CURVE('',#502,#503,#66,.T.);
#633=EDGE_CURVE('',#503,#502,#67,.T.);
#634=EDGE_CURVE('',#503,#473,#120,.T.);
#635=EDGE_CURVE('',#499,#503,#121,.T.);
#636=EDGE_CURVE('',#502,#503,#68,.T.);
#637=EDGE_CURVE('',#503,#502,#69,.T.);
#638=EDGE_CURVE('',#504,#505,#70,.T.);
#639=EDGE_CURVE('',#505,#504,#71,.T.);
#640=EDGE_CURVE('',#505,#480,#122,.T.);
#641=EDGE_CURVE('',#501,#505,#123,.T.);
#642=EDGE_CURVE('',#504,#505,#72,.T.);
#643=EDGE_CURVE('',#505,#504,#73,.T.);
#644=EDGE_CURVE('',#489,#503,#124,.T.);
#645=EDGE_CURVE('',#497,#505,#125,.T.);
#646=EDGE_CURVE('',#505,#493,#126,.T.);
#647=EDGE_CURVE('',#445,#492,#127,.T.);
#648=EDGE_CURVE('',#503,#485,#128,.T.);
#649=EDGE_CURVE('',#465,#484,#129,.T.);
#650=EDGE_CURVE('',#467,#450,#130,.F.);
#651=EDGE_CURVE('',#486,#464,#131,.T.);
#652=EDGE_CURVE('',#494,#463,#132,.T.);
#653=EDGE_CURVE('',#451,#433,#133,.T.);
#654=EDGE_CURVE('',#462,#506,#134,.T.);
#655=EDGE_CURVE('',#506,#506,#418,.T.);
#656=EDGE_CURVE('',#507,#466,#135,.T.);
#657=EDGE_CURVE('',#507,#434,#136,.T.);
#658=EDGE_CURVE('',#507,#456,#419,.T.);
#659=EDGE_CURVE('',#461,#508,#137,.T.);
#660=EDGE_CURVE('',#508,#508,#420,.T.);
#661=ORIENTED_EDGE('',*,*,#509,.F.);
#662=ORIENTED_EDGE('',*,*,#510,.F.);
#663=ORIENTED_EDGE('',*,*,#511,.F.);
#664=ORIENTED_EDGE('',*,*,#512,.T.);
#665=ORIENTED_EDGE('',*,*,#513,.T.);
#666=ORIENTED_EDGE('',*,*,#510,.T.);
#667=ORIENTED_EDGE('',*,*,#514,.T.);
#668=ORIENTED_EDGE('',*,*,#515,.F.);
#669=ORIENTED_EDGE('',*,*,#516,.F.);
#670=ORIENTED_EDGE('',*,*,#517,.F.);
#671=ORIENTED_EDGE('',*,*,#518,.T.);
#672=ORIENTED_EDGE('',*,*,#519,.T.);
#673=ORIENTED_EDGE('',*,*,#516,.T.);
#674=ORIENTED_EDGE('',*,*,#520,.T.);
#675=ORIENTED_EDGE('',*,*,#509,.T.);
#676=ORIENTED_EDGE('',*,*,#521,.T.);
#677=ORIENTED_EDGE('',*,*,#517,.T.);
#678=ORIENTED_EDGE('',*,*,#522,.T.);
#679=ORIENTED_EDGE('',*,*,#523,.T.);
#680=ORIENTED_EDGE('',*,*,#515,.T.);
#681=ORIENTED_EDGE('',*,*,#524,.T.);
#682=ORIENTED_EDGE('',*,*,#525,.T.);
#683=ORIENTED_EDGE('',*,*,#526,.T.);
#684=ORIENTED_EDGE('',*,*,#527,.T.);
#685=ORIENTED_EDGE('',*,*,#528,.T.);
#686=ORIENTED_EDGE('',*,*,#529,.T.);
#687=ORIENTED_EDGE('',*,*,#530,.T.);
#688=ORIENTED_EDGE('',*,*,#531,.T.);
#689=ORIENTED_EDGE('',*,*,#532,.T.);
#690=ORIENTED_EDGE('',*,*,#533,.T.);
#691=ORIENTED_EDGE('',*,*,#534,.T.);
#692=ORIENTED_EDGE('',*,*,#535,.T.);
#693=ORIENTED_EDGE('',*,*,#532,.F.);
#694=ORIENTED_EDGE('',*,*,#536,.T.);
#695=ORIENTED_EDGE('',*,*,#537,.T.);
#696=ORIENTED_EDGE('',*,*,#534,.F.);
#697=ORIENTED_EDGE('',*,*,#538,.T.);
#698=ORIENTED_EDGE('',*,*,#525,.F.);
#699=ORIENTED_EDGE('',*,*,#530,.F.);
#700=ORIENTED_EDGE('',*,*,#539,.T.);
#701=ORIENTED_EDGE('',*,*,#527,.F.);
#702=ORIENTED_EDGE('',*,*,#540,.T.);
#703=ORIENTED_EDGE('',*,*,#541,.T.);
#704=ORIENTED_EDGE('',*,*,#511,.T.);
#705=ORIENTED_EDGE('',*,*,#542,.T.);
#706=ORIENTED_EDGE('',*,*,#529,.F.);
#707=ORIENTED_EDGE('',*,*,#518,.F.);
#708=ORIENTED_EDGE('',*,*,#543,.T.);
#709=ORIENTED_EDGE('',*,*,#544,.T.);
#710=ORIENTED_EDGE('',*,*,#545,.T.);
#711=ORIENTED_EDGE('',*,*,#546,.T.);
#712=ORIENTED_EDGE('',*,*,#547,.F.);
#713=ORIENTED_EDGE('',*,*,#548,.F.);
#714=ORIENTED_EDGE('',*,*,#549,.F.);
#715=ORIENTED_EDGE('',*,*,#550,.T.);
#716=ORIENTED_EDGE('',*,*,#551,.T.);
#717=ORIENTED_EDGE('',*,*,#552,.F.);
#718=ORIENTED_EDGE('',*,*,#512,.F.);
#719=ORIENTED_EDGE('',*,*,#553,.F.);
#720=ORIENTED_EDGE('',*,*,#520,.F.);
#721=ORIENTED_EDGE('',*,*,#523,.F.);
#722=ORIENTED_EDGE('',*,*,#554,.F.);
#723=ORIENTED_EDGE('',*,*,#543,.F.);
#724=ORIENTED_EDGE('',*,*,#538,.F.);
#725=ORIENTED_EDGE('',*,*,#555,.F.);
#726=ORIENTED_EDGE('',*,*,#556,.T.);
#727=ORIENTED_EDGE('',*,*,#557,.T.);
#728=ORIENTED_EDGE('',*,*,#558,.T.);
#729=ORIENTED_EDGE('',*,*,#544,.F.);
#730=ORIENTED_EDGE('',*,*,#554,.T.);
#731=ORIENTED_EDGE('',*,*,#536,.F.);
#732=ORIENTED_EDGE('',*,*,#559,.F.);
#733=ORIENTED_EDGE('',*,*,#560,.T.);
#734=ORIENTED_EDGE('',*,*,#555,.T.);
#735=ORIENTED_EDGE('',*,*,#531,.F.);
#736=ORIENTED_EDGE('',*,*,#561,.F.);
#737=ORIENTED_EDGE('',*,*,#562,.F.);
#738=ORIENTED_EDGE('',*,*,#563,.F.);
#739=ORIENTED_EDGE('',*,*,#548,.T.);
#740=ORIENTED_EDGE('',*,*,#564,.F.);
#741=ORIENTED_EDGE('',*,*,#565,.T.);
#742=ORIENTED_EDGE('',*,*,#559,.T.);
#743=ORIENTED_EDGE('',*,*,#566,.T.);
#744=ORIENTED_EDGE('',*,*,#567,.T.);
#745=ORIENTED_EDGE('',*,*,#533,.F.);
#746=ORIENTED_EDGE('',*,*,#535,.F.);
#747=ORIENTED_EDGE('',*,*,#537,.F.);
#748=ORIENTED_EDGE('',*,*,#524,.F.);
#749=ORIENTED_EDGE('',*,*,#521,.F.);
#750=ORIENTED_EDGE('',*,*,#541,.F.);
#751=ORIENTED_EDGE('',*,*,#528,.F.);
#752=ORIENTED_EDGE('',*,*,#539,.F.);
#753=ORIENTED_EDGE('',*,*,#568,.T.);
#754=ORIENTED_EDGE('',*,*,#569,.T.);
#755=ORIENTED_EDGE('',*,*,#570,.T.);
#756=ORIENTED_EDGE('',*,*,#571,.T.);
#757=ORIENTED_EDGE('',*,*,#557,.F.);
#758=ORIENTED_EDGE('',*,*,#572,.T.);
#759=ORIENTED_EDGE('',*,*,#564,.T.);
#760=ORIENTED_EDGE('',*,*,#547,.T.);
#761=ORIENTED_EDGE('',*,*,#573,.T.);
#762=ORIENTED_EDGE('',*,*,#574,.F.);
#763=ORIENTED_EDGE('',*,*,#549,.T.);
#764=ORIENTED_EDGE('',*,*,#563,.T.);
#765=ORIENTED_EDGE('',*,*,#575,.F.);
#766=ORIENTED_EDGE('',*,*,#576,.T.);
#767=ORIENTED_EDGE('',*,*,#577,.F.);
#768=ORIENTED_EDGE('',*,*,#578,.F.);
#769=ORIENTED_EDGE('',*,*,#579,.F.);
#770=ORIENTED_EDGE('',*,*,#580,.F.);
#771=ORIENTED_EDGE('',*,*,#581,.F.);
#772=ORIENTED_EDGE('',*,*,#582,.F.);
#773=ORIENTED_EDGE('',*,*,#583,.F.);
#774=ORIENTED_EDGE('',*,*,#584,.F.);
#775=ORIENTED_EDGE('',*,*,#585,.T.);
#776=ORIENTED_EDGE('',*,*,#579,.T.);
#777=ORIENTED_EDGE('',*,*,#586,.F.);
#778=ORIENTED_EDGE('',*,*,#582,.T.);
#779=ORIENTED_EDGE('',*,*,#587,.F.);
#780=ORIENTED_EDGE('',*,*,#580,.T.);
#781=ORIENTED_EDGE('',*,*,#585,.F.);
#782=ORIENTED_EDGE('',*,*,#588,.F.);
#783=ORIENTED_EDGE('',*,*,#589,.F.);
#784=ORIENTED_EDGE('',*,*,#590,.F.);
#785=ORIENTED_EDGE('',*,*,#591,.F.);
#786=ORIENTED_EDGE('',*,*,#592,.F.);
#787=ORIENTED_EDGE('',*,*,#593,.F.);
#788=ORIENTED_EDGE('',*,*,#594,.F.);
#789=ORIENTED_EDGE('',*,*,#595,.T.);
#790=ORIENTED_EDGE('',*,*,#589,.T.);
#791=ORIENTED_EDGE('',*,*,#596,.F.);
#792=ORIENTED_EDGE('',*,*,#592,.T.);
#793=ORIENTED_EDGE('',*,*,#597,.F.);
#794=ORIENTED_EDGE('',*,*,#590,.T.);
#795=ORIENTED_EDGE('',*,*,#595,.F.);
#796=ORIENTED_EDGE('',*,*,#578,.T.);
#797=ORIENTED_EDGE('',*,*,#598,.F.);
#798=ORIENTED_EDGE('',*,*,#599,.T.);
#799=ORIENTED_EDGE('',*,*,#600,.F.);
#800=ORIENTED_EDGE('',*,*,#601,.F.);
#801=ORIENTED_EDGE('',*,*,#602,.F.);
#802=ORIENTED_EDGE('',*,*,#581,.T.);
#803=ORIENTED_EDGE('',*,*,#603,.F.);
#804=ORIENTED_EDGE('',*,*,#604,.F.);
#805=ORIENTED_EDGE('',*,*,#605,.T.);
#806=ORIENTED_EDGE('',*,*,#606,.F.);
#807=ORIENTED_EDGE('',*,*,#607,.T.);
#808=ORIENTED_EDGE('',*,*,#588,.T.);
#809=ORIENTED_EDGE('',*,*,#608,.F.);
#810=ORIENTED_EDGE('',*,*,#609,.T.);
#811=ORIENTED_EDGE('',*,*,#610,.F.);
#812=ORIENTED_EDGE('',*,*,#611,.F.);
#813=ORIENTED_EDGE('',*,*,#612,.F.);
#814=ORIENTED_EDGE('',*,*,#591,.T.);
#815=ORIENTED_EDGE('',*,*,#613,.F.);
#816=ORIENTED_EDGE('',*,*,#614,.F.);
#817=ORIENTED_EDGE('',*,*,#615,.T.);
#818=ORIENTED_EDGE('',*,*,#616,.F.);
#819=ORIENTED_EDGE('',*,*,#617,.T.);
#820=ORIENTED_EDGE('',*,*,#599,.F.);
#821=ORIENTED_EDGE('',*,*,#618,.F.);
#822=ORIENTED_EDGE('',*,*,#605,.F.);
#823=ORIENTED_EDGE('',*,*,#619,.F.);
#824=ORIENTED_EDGE('',*,*,#620,.F.);
#825=ORIENTED_EDGE('',*,*,#621,.F.);
#826=ORIENTED_EDGE('',*,*,#567,.F.);
#827=ORIENTED_EDGE('',*,*,#622,.T.);
#828=ORIENTED_EDGE('',*,*,#619,.T.);
#829=ORIENTED_EDGE('',*,*,#623,.F.);
#830=ORIENTED_EDGE('',*,*,#618,.T.);
#831=ORIENTED_EDGE('',*,*,#624,.F.);
#832=ORIENTED_EDGE('',*,*,#620,.T.);
#833=ORIENTED_EDGE('',*,*,#622,.F.);
#834=ORIENTED_EDGE('',*,*,#609,.F.);
#835=ORIENTED_EDGE('',*,*,#625,.F.);
#836=ORIENTED_EDGE('',*,*,#615,.F.);
#837=ORIENTED_EDGE('',*,*,#626,.F.);
#838=ORIENTED_EDGE('',*,*,#627,.F.);
#839=ORIENTED_EDGE('',*,*,#628,.F.);
#840=ORIENTED_EDGE('',*,*,#566,.F.);
#841=ORIENTED_EDGE('',*,*,#629,.T.);
#842=ORIENTED_EDGE('',*,*,#626,.T.);
#843=ORIENTED_EDGE('',*,*,#630,.F.);
#844=ORIENTED_EDGE('',*,*,#625,.T.);
#845=ORIENTED_EDGE('',*,*,#631,.F.);
#846=ORIENTED_EDGE('',*,*,#627,.T.);
#847=ORIENTED_EDGE('',*,*,#629,.F.);
#848=ORIENTED_EDGE('',*,*,#632,.F.);
#849=ORIENTED_EDGE('',*,*,#633,.F.);
#850=ORIENTED_EDGE('',*,*,#634,.T.);
#851=ORIENTED_EDGE('',*,*,#583,.T.);
#852=ORIENTED_EDGE('',*,*,#634,.F.);
#853=ORIENTED_EDGE('',*,*,#621,.T.);
#854=ORIENTED_EDGE('',*,*,#635,.T.);
#855=ORIENTED_EDGE('',*,*,#636,.F.);
#856=ORIENTED_EDGE('',*,*,#637,.F.);
#857=ORIENTED_EDGE('',*,*,#635,.F.);
#858=ORIENTED_EDGE('',*,*,#638,.F.);
#859=ORIENTED_EDGE('',*,*,#639,.F.);
#860=ORIENTED_EDGE('',*,*,#640,.T.);
#861=ORIENTED_EDGE('',*,*,#593,.T.);
#862=ORIENTED_EDGE('',*,*,#640,.F.);
#863=ORIENTED_EDGE('',*,*,#628,.T.);
#864=ORIENTED_EDGE('',*,*,#641,.T.);
#865=ORIENTED_EDGE('',*,*,#642,.F.);
#866=ORIENTED_EDGE('',*,*,#643,.F.);
#867=ORIENTED_EDGE('',*,*,#641,.F.);
#868=ORIENTED_EDGE('',*,*,#607,.F.);
#869=ORIENTED_EDGE('',*,*,#644,.T.);
#870=ORIENTED_EDGE('',*,*,#633,.T.);
#871=ORIENTED_EDGE('',*,*,#636,.T.);
#872=ORIENTED_EDGE('',*,*,#644,.F.);
#873=ORIENTED_EDGE('',*,*,#617,.F.);
#874=ORIENTED_EDGE('',*,*,#645,.T.);
#875=ORIENTED_EDGE('',*,*,#639,.T.);
#876=ORIENTED_EDGE('',*,*,#642,.T.);
#877=ORIENTED_EDGE('',*,*,#645,.F.);
#878=ORIENTED_EDGE('',*,*,#643,.T.);
#879=ORIENTED_EDGE('',*,*,#638,.T.);
#880=ORIENTED_EDGE('',*,*,#646,.T.);
#881=ORIENTED_EDGE('',*,*,#612,.T.);
#882=ORIENTED_EDGE('',*,*,#646,.F.);
#883=ORIENTED_EDGE('',*,*,#545,.F.);
#884=ORIENTED_EDGE('',*,*,#558,.F.);
#885=ORIENTED_EDGE('',*,*,#573,.F.);
#886=ORIENTED_EDGE('',*,*,#546,.F.);
#887=ORIENTED_EDGE('',*,*,#647,.T.);
#888=ORIENTED_EDGE('',*,*,#610,.T.);
#889=ORIENTED_EDGE('',*,*,#631,.T.);
#890=ORIENTED_EDGE('',*,*,#608,.T.);
#891=ORIENTED_EDGE('',*,*,#596,.T.);
#892=ORIENTED_EDGE('',*,*,#611,.T.);
#893=ORIENTED_EDGE('',*,*,#647,.F.);
#894=ORIENTED_EDGE('',*,*,#637,.T.);
#895=ORIENTED_EDGE('',*,*,#632,.T.);
#896=ORIENTED_EDGE('',*,*,#648,.T.);
#897=ORIENTED_EDGE('',*,*,#602,.T.);
#898=ORIENTED_EDGE('',*,*,#648,.F.);
#899=ORIENTED_EDGE('',*,*,#550,.F.);
#900=ORIENTED_EDGE('',*,*,#574,.T.);
#901=ORIENTED_EDGE('',*,*,#649,.T.);
#902=ORIENTED_EDGE('',*,*,#600,.T.);
#903=ORIENTED_EDGE('',*,*,#624,.T.);
#904=ORIENTED_EDGE('',*,*,#598,.T.);
#905=ORIENTED_EDGE('',*,*,#586,.T.);
#906=ORIENTED_EDGE('',*,*,#601,.T.);
#907=ORIENTED_EDGE('',*,*,#649,.F.);
#908=ORIENTED_EDGE('',*,*,#577,.T.);
#909=ORIENTED_EDGE('',*,*,#650,.T.);
#910=ORIENTED_EDGE('',*,*,#587,.T.);
#911=ORIENTED_EDGE('',*,*,#606,.T.);
#912=ORIENTED_EDGE('',*,*,#623,.T.);
#913=ORIENTED_EDGE('',*,*,#604,.T.);
#914=ORIENTED_EDGE('',*,*,#651,.T.);
#915=ORIENTED_EDGE('',*,*,#571,.F.);
#916=ORIENTED_EDGE('',*,*,#651,.F.);
#917=ORIENTED_EDGE('',*,*,#603,.T.);
#918=ORIENTED_EDGE('',*,*,#597,.T.);
#919=ORIENTED_EDGE('',*,*,#616,.T.);
#920=ORIENTED_EDGE('',*,*,#630,.T.);
#921=ORIENTED_EDGE('',*,*,#614,.T.);
#922=ORIENTED_EDGE('',*,*,#652,.T.);
#923=ORIENTED_EDGE('',*,*,#570,.F.);
#924=ORIENTED_EDGE('',*,*,#652,.F.);
#925=ORIENTED_EDGE('',*,*,#613,.T.);
#926=ORIENTED_EDGE('',*,*,#513,.F.);
#927=ORIENTED_EDGE('',*,*,#552,.T.);
#928=ORIENTED_EDGE('',*,*,#653,.T.);
#929=ORIENTED_EDGE('',*,*,#542,.F.);
#930=ORIENTED_EDGE('',*,*,#519,.F.);
#931=ORIENTED_EDGE('',*,*,#553,.T.);
#932=ORIENTED_EDGE('',*,*,#514,.F.);
#933=ORIENTED_EDGE('',*,*,#522,.F.);
#934=ORIENTED_EDGE('',*,*,#584,.T.);
#935=ORIENTED_EDGE('',*,*,#594,.T.);
#936=ORIENTED_EDGE('',*,*,#569,.F.);
#937=ORIENTED_EDGE('',*,*,#654,.T.);
#938=ORIENTED_EDGE('',*,*,#655,.T.);
#939=ORIENTED_EDGE('',*,*,#654,.F.);
#940=ORIENTED_EDGE('',*,*,#526,.F.);
#941=ORIENTED_EDGE('',*,*,#653,.F.);
#942=ORIENTED_EDGE('',*,*,#551,.F.);
#943=ORIENTED_EDGE('',*,*,#650,.F.);
#944=ORIENTED_EDGE('',*,*,#576,.F.);
#945=ORIENTED_EDGE('',*,*,#656,.F.);
#946=ORIENTED_EDGE('',*,*,#657,.T.);
#947=ORIENTED_EDGE('',*,*,#540,.F.);
#948=ORIENTED_EDGE('',*,*,#657,.F.);
#949=ORIENTED_EDGE('',*,*,#658,.T.);
#950=ORIENTED_EDGE('',*,*,#561,.T.);
#951=ORIENTED_EDGE('',*,*,#658,.F.);
#952=ORIENTED_EDGE('',*,*,#656,.T.);
#953=ORIENTED_EDGE('',*,*,#575,.T.);
#954=ORIENTED_EDGE('',*,*,#562,.T.);
#955=ORIENTED_EDGE('',*,*,#655,.F.);
#956=ORIENTED_EDGE('',*,*,#568,.F.);
#957=ORIENTED_EDGE('',*,*,#659,.T.);
#958=ORIENTED_EDGE('',*,*,#660,.T.);
#959=ORIENTED_EDGE('',*,*,#659,.F.);
#960=ORIENTED_EDGE('',*,*,#572,.F.);
#961=ORIENTED_EDGE('',*,*,#556,.F.);
#962=ORIENTED_EDGE('',*,*,#560,.F.);
#963=ORIENTED_EDGE('',*,*,#565,.F.);
#964=ORIENTED_EDGE('',*,*,#660,.F.);
#965=SPHERICAL_SURFACE('',#1033,0.5);
#966=SPHERICAL_SURFACE('',#1039,0.5);
#967=ADVANCED_FACE('',(#232),#965,.T.);
#968=ADVANCED_FACE('',(#233),#202,.T.);
#969=ADVANCED_FACE('',(#234),#966,.T.);
#970=ADVANCED_FACE('',(#235),#203,.T.);
#971=ADVANCED_FACE('',(#236),#204,.T.);
#972=ADVANCED_FACE('',(#237),#205,.T.);
#973=ADVANCED_FACE('',(#238),#206,.T.);
#974=ADVANCED_FACE('',(#239),#207,.T.);
#975=ADVANCED_FACE('',(#240),#54,.T.);
#976=ADVANCED_FACE('',(#241),#208,.T.);
#977=ADVANCED_FACE('',(#242),#55,.T.);
#978=ADVANCED_FACE('',(#243),#209,.T.);
#979=ADVANCED_FACE('',(#244),#36,.F.);
#980=ADVANCED_FACE('',(#245),#37,.T.);
#981=ADVANCED_FACE('',(#246),#38,.T.);
#982=ADVANCED_FACE('',(#247),#210,.T.);
#983=ADVANCED_FACE('',(#248,#18,#19),#39,.T.);
#984=ADVANCED_FACE('',(#249,#20,#21,#22,#23),#40,.T.);
#985=ADVANCED_FACE('',(#250),#211,.F.);
#986=ADVANCED_FACE('',(#251),#212,.F.);
#987=ADVANCED_FACE('',(#252,#24),#41,.T.);
#988=ADVANCED_FACE('',(#253),#213,.F.);
#989=ADVANCED_FACE('',(#254,#25),#42,.T.);
#990=ADVANCED_FACE('',(#255),#214,.F.);
#991=ADVANCED_FACE('',(#256,#26),#43,.F.);
#992=ADVANCED_FACE('',(#257,#27),#44,.T.);
#993=ADVANCED_FACE('',(#258,#28),#45,.F.);
#994=ADVANCED_FACE('',(#259,#29),#46,.T.);
#995=ADVANCED_FACE('',(#260,#30),#47,.F.);
#996=ADVANCED_FACE('',(#261),#215,.F.);
#997=ADVANCED_FACE('',(#262,#31),#48,.F.);
#998=ADVANCED_FACE('',(#263),#216,.F.);
#999=ADVANCED_FACE('',(#264),#217,.F.);
#1000=ADVANCED_FACE('',(#265),#218,.F.);
#1001=ADVANCED_FACE('',(#266),#219,.F.);
#1002=ADVANCED_FACE('',(#267),#220,.F.);
#1003=ADVANCED_FACE('',(#268),#221,.F.);
#1004=ADVANCED_FACE('',(#269),#222,.F.);
#1005=ADVANCED_FACE('',(#270),#223,.F.);
#1006=ADVANCED_FACE('',(#271),#224,.F.);
#1007=ADVANCED_FACE('',(#272),#225,.F.);
#1008=ADVANCED_FACE('',(#273),#226,.F.);
#1009=ADVANCED_FACE('',(#274),#227,.F.);
#1010=ADVANCED_FACE('',(#275),#228,.F.);
#1011=ADVANCED_FACE('',(#276),#49,.T.);
#1012=ADVANCED_FACE('',(#277,#32,#33),#50,.T.);
#1013=ADVANCED_FACE('',(#278),#229,.F.);
#1014=ADVANCED_FACE('',(#279),#51,.T.);
#1015=ADVANCED_FACE('',(#280),#230,.T.);
#1016=ADVANCED_FACE('',(#281,#34),#52,.F.);
#1017=ADVANCED_FACE('',(#282),#231,.F.);
#1018=ADVANCED_FACE('',(#283,#35),#53,.F.);
#1019=CLOSED_SHELL('',(#967,#968,#969,#970,#971,#972,#973,#974,#975,#976,
#977,#978,#979,#980,#981,#982,#983,#984,#985,#986,#987,#988,#989,#990,#991,
#992,#993,#994,#995,#996,#997,#998,#999,#1000,#1001,#1002,#1003,#1004,#1005,
#1006,#1007,#1008,#1009,#1010,#1011,#1012,#1013,#1014,#1015,#1016,#1017,
#1018));
#1020=DERIVED_UNIT_ELEMENT(#1022,1.);
#1021=DERIVED_UNIT_ELEMENT(#1823,-3.);
#1022=(
MASS_UNIT()
NAMED_UNIT(*)
SI_UNIT(.KILO.,.GRAM.)
);
#1023=DERIVED_UNIT((#1020,#1021));
#1024=MEASURE_REPRESENTATION_ITEM('density measure',
POSITIVE_RATIO_MEASURE(7850.),#1023);
#1025=PROPERTY_DEFINITION_REPRESENTATION(#1030,#1027);
#1026=PROPERTY_DEFINITION_REPRESENTATION(#1031,#1028);
#1027=REPRESENTATION('material name',(#1029),#1820);
#1028=REPRESENTATION('density',(#1024),#1820);
#1029=DESCRIPTIVE_REPRESENTATION_ITEM('Steel','Steel');
#1030=PROPERTY_DEFINITION('material property','material name',#1830);
#1031=PROPERTY_DEFINITION('material property','density of part',#1830);
#1032=AXIS2_PLACEMENT_3D('',#1510,#1170,#1171);
#1033=AXIS2_PLACEMENT_3D('',#1511,#1172,#1173);
#1034=AXIS2_PLACEMENT_3D('',#1514,#1174,#1175);
#1035=AXIS2_PLACEMENT_3D('',#1516,#1176,#1177);
#1036=AXIS2_PLACEMENT_3D('',#1517,#1178,#1179);
#1037=AXIS2_PLACEMENT_3D('',#1518,#1180,#1181);
#1038=AXIS2_PLACEMENT_3D('',#1521,#1182,#1183);
#1039=AXIS2_PLACEMENT_3D('',#1524,#1186,#1187);
#1040=AXIS2_PLACEMENT_3D('',#1527,#1188,#1189);
#1041=AXIS2_PLACEMENT_3D('',#1529,#1190,#1191);
#1042=AXIS2_PLACEMENT_3D('',#1530,#1192,#1193);
#1043=AXIS2_PLACEMENT_3D('',#1531,#1194,#1195);
#1044=AXIS2_PLACEMENT_3D('',#1534,#1196,#1197);
#1045=AXIS2_PLACEMENT_3D('',#1537,#1200,#1201);
#1046=AXIS2_PLACEMENT_3D('',#1540,#1204,#1205);
#1047=AXIS2_PLACEMENT_3D('',#1545,#1208,#1209);
#1048=AXIS2_PLACEMENT_3D('',#1546,#1210,#1211);
#1049=AXIS2_PLACEMENT_3D('',#1551,#1213,#1214);
#1050=AXIS2_PLACEMENT_3D('',#1554,#1216,#1217);
#1051=AXIS2_PLACEMENT_3D('',#1555,#1218,#1219);
#1052=AXIS2_PLACEMENT_3D('',#1558,#1220,#1221);
#1053=AXIS2_PLACEMENT_3D('',#1562,#1223,#1224);
#1054=AXIS2_PLACEMENT_3D('',#1564,#1226,#1227);
#1055=AXIS2_PLACEMENT_3D('',#1567,#1228,#1229);
#1056=AXIS2_PLACEMENT_3D('',#1568,#1230,#1231);
#1057=AXIS2_PLACEMENT_3D('',#1569,#1232,#1233);
#1058=AXIS2_PLACEMENT_3D('',#1570,#1234,#1235);
#1059=AXIS2_PLACEMENT_3D('',#1573,#1238,#1239);
#1060=AXIS2_PLACEMENT_3D('',#1574,#1240,#1241);
#1061=AXIS2_PLACEMENT_3D('',#1575,#1242,#1243);
#1062=AXIS2_PLACEMENT_3D('',#1576,#1244,#1245);
#1063=AXIS2_PLACEMENT_3D('',#1579,#1248,#1249);
#1064=AXIS2_PLACEMENT_3D('',#1585,#1252,#1253);
#1065=AXIS2_PLACEMENT_3D('',#1587,#1254,#1255);
#1066=AXIS2_PLACEMENT_3D('',#1595,#1259,#1260);
#1067=AXIS2_PLACEMENT_3D('',#1600,#1264,#1265);
#1068=AXIS2_PLACEMENT_3D('',#1602,#1267,#1268);
#1069=AXIS2_PLACEMENT_3D('',#1608,#1271,#1272);
#1070=AXIS2_PLACEMENT_3D('',#1610,#1274,#1275);
#1071=AXIS2_PLACEMENT_3D('',#1613,#1277,#1278);
#1072=AXIS2_PLACEMENT_3D('',#1614,#1279,#1280);
#1073=AXIS2_PLACEMENT_3D('',#1619,#1283,#1284);
#1074=AXIS2_PLACEMENT_3D('',#1621,#1285,#1286);
#1075=AXIS2_PLACEMENT_3D('',#1624,#1288,#1289);
#1076=AXIS2_PLACEMENT_3D('',#1626,#1290,#1291);
#1077=AXIS2_PLACEMENT_3D('',#1627,#1292,#1293);
#1078=AXIS2_PLACEMENT_3D('',#1629,#1294,#1295);
#1079=AXIS2_PLACEMENT_3D('',#1631,#1296,#1297);
#1080=AXIS2_PLACEMENT_3D('',#1633,#1298,#1299);
#1081=AXIS2_PLACEMENT_3D('',#1635,#1300,#1301);
#1082=AXIS2_PLACEMENT_3D('',#1636,#1302,#1303);
#1083=AXIS2_PLACEMENT_3D('',#1646,#1305,#1306);
#1084=AXIS2_PLACEMENT_3D('',#1657,#1308,#1309);
#1085=AXIS2_PLACEMENT_3D('',#1662,#1310,#1311);
#1086=AXIS2_PLACEMENT_3D('',#1667,#1313,#1314);
#1087=AXIS2_PLACEMENT_3D('',#1669,#1315,#1316);
#1088=AXIS2_PLACEMENT_3D('',#1672,#1318,#1319);
#1089=AXIS2_PLACEMENT_3D('',#1674,#1320,#1321);
#1090=AXIS2_PLACEMENT_3D('',#1675,#1322,#1323);
#1091=AXIS2_PLACEMENT_3D('',#1677,#1324,#1325);
#1092=AXIS2_PLACEMENT_3D('',#1679,#1327,#1328);
#1093=AXIS2_PLACEMENT_3D('',#1680,#1329,#1330);
#1094=AXIS2_PLACEMENT_3D('',#1681,#1331,#1332);
#1095=AXIS2_PLACEMENT_3D('',#1686,#1334,#1335);
#1096=AXIS2_PLACEMENT_3D('',#1688,#1336,#1337);
#1097=AXIS2_PLACEMENT_3D('',#1691,#1339,#1340);
#1098=AXIS2_PLACEMENT_3D('',#1693,#1341,#1342);
#1099=AXIS2_PLACEMENT_3D('',#1694,#1343,#1344);
#1100=AXIS2_PLACEMENT_3D('',#1696,#1345,#1346);
#1101=AXIS2_PLACEMENT_3D('',#1698,#1348,#1349);
#1102=AXIS2_PLACEMENT_3D('',#1699,#1350,#1351);
#1103=AXIS2_PLACEMENT_3D('',#1700,#1352,#1353);
#1104=AXIS2_PLACEMENT_3D('',#1702,#1354,#1355);
#1105=AXIS2_PLACEMENT_3D('',#1706,#1357,#1358);
#1106=AXIS2_PLACEMENT_3D('',#1707,#1359,#1360);
#1107=AXIS2_PLACEMENT_3D('',#1709,#1361,#1362);
#1108=AXIS2_PLACEMENT_3D('',#1710,#1363,#1364);
#1109=AXIS2_PLACEMENT_3D('',#1712,#1365,#1366);
#1110=AXIS2_PLACEMENT_3D('',#1714,#1367,#1368);
#1111=AXIS2_PLACEMENT_3D('',#1717,#1370,#1371);
#1112=AXIS2_PLACEMENT_3D('',#1719,#1372,#1373);
#1113=AXIS2_PLACEMENT_3D('',#1720,#1374,#1375);
#1114=AXIS2_PLACEMENT_3D('',#1722,#1376,#1377);
#1115=AXIS2_PLACEMENT_3D('',#1726,#1379,#1380);
#1116=AXIS2_PLACEMENT_3D('',#1727,#1381,#1382);
#1117=AXIS2_PLACEMENT_3D('',#1729,#1383,#1384);
#1118=AXIS2_PLACEMENT_3D('',#1730,#1385,#1386);
#1119=AXIS2_PLACEMENT_3D('',#1732,#1387,#1388);
#1120=AXIS2_PLACEMENT_3D('',#1734,#1389,#1390);
#1121=AXIS2_PLACEMENT_3D('',#1737,#1392,#1393);
#1122=AXIS2_PLACEMENT_3D('',#1739,#1394,#1395);
#1123=AXIS2_PLACEMENT_3D('',#1740,#1396,#1397);
#1124=AXIS2_PLACEMENT_3D('',#1741,#1398,#1399);
#1125=AXIS2_PLACEMENT_3D('',#1743,#1400,#1401);
#1126=AXIS2_PLACEMENT_3D('',#1744,#1402,#1403);
#1127=AXIS2_PLACEMENT_3D('',#1746,#1404,#1405);
#1128=AXIS2_PLACEMENT_3D('',#1747,#1406,#1407);
#1129=AXIS2_PLACEMENT_3D('',#1749,#1409,#1410);
#1130=AXIS2_PLACEMENT_3D('',#1750,#1411,#1412);
#1131=AXIS2_PLACEMENT_3D('',#1751,#1413,#1414);
#1132=AXIS2_PLACEMENT_3D('',#1752,#1415,#1416);
#1133=AXIS2_PLACEMENT_3D('',#1754,#1417,#1418);
#1134=AXIS2_PLACEMENT_3D('',#1755,#1419,#1420);
#1135=AXIS2_PLACEMENT_3D('',#1757,#1421,#1422);
#1136=AXIS2_PLACEMENT_3D('',#1758,#1423,#1424);
#1137=AXIS2_PLACEMENT_3D('',#1760,#1426,#1427);
#1138=AXIS2_PLACEMENT_3D('',#1761,#1428,#1429);
#1139=AXIS2_PLACEMENT_3D('',#1762,#1430,#1431);
#1140=AXIS2_PLACEMENT_3D('',#1765,#1432,#1433);
#1141=AXIS2_PLACEMENT_3D('',#1766,#1434,#1435);
#1142=AXIS2_PLACEMENT_3D('',#1768,#1437,#1438);
#1143=AXIS2_PLACEMENT_3D('',#1770,#1440,#1441);
#1144=AXIS2_PLACEMENT_3D('',#1771,#1442,#1443);
#1145=AXIS2_PLACEMENT_3D('',#1772,#1444,#1445);
#1146=AXIS2_PLACEMENT_3D('',#1775,#1446,#1447);
#1147=AXIS2_PLACEMENT_3D('',#1776,#1448,#1449);
#1148=AXIS2_PLACEMENT_3D('',#1778,#1451,#1452);
#1149=AXIS2_PLACEMENT_3D('',#1780,#1454,#1455);
#1150=AXIS2_PLACEMENT_3D('',#1781,#1456,#1457);
#1151=AXIS2_PLACEMENT_3D('',#1782,#1458,#1459);
#1152=AXIS2_PLACEMENT_3D('',#1784,#1461,#1462);
#1153=AXIS2_PLACEMENT_3D('',#1786,#1464,#1465);
#1154=AXIS2_PLACEMENT_3D('',#1788,#1467,#1468);
#1155=AXIS2_PLACEMENT_3D('',#1790,#1470,#1471);
#1156=AXIS2_PLACEMENT_3D('',#1792,#1473,#1474);
#1157=AXIS2_PLACEMENT_3D('',#1795,#1477,#1478);
#1158=AXIS2_PLACEMENT_3D('',#1797,#1480,#1481);
#1159=AXIS2_PLACEMENT_3D('',#1799,#1483,#1484);
#1160=AXIS2_PLACEMENT_3D('',#1801,#1486,#1487);
#1161=AXIS2_PLACEMENT_3D('',#1802,#1488,#1489);
#1162=AXIS2_PLACEMENT_3D('',#1805,#1491,#1492);
#1163=AXIS2_PLACEMENT_3D('',#1806,#1493,#1494);
#1164=AXIS2_PLACEMENT_3D('',#1810,#1497,#1498);
#1165=AXIS2_PLACEMENT_3D('',#1811,#1499,#1500);
#1166=AXIS2_PLACEMENT_3D('',#1812,#1501,#1502);
#1167=AXIS2_PLACEMENT_3D('',#1813,#1503,#1504);
#1168=AXIS2_PLACEMENT_3D('',#1816,#1506,#1507);
#1169=AXIS2_PLACEMENT_3D('',#1817,#1508,#1509);
#1170=DIRECTION('axis',(0.,0.,1.));
#1171=DIRECTION('refdir',(1.,0.,0.));
#1172=DIRECTION('center_axis',(-0.408248290463863,-0.816496580927726,0.408248290463863));
#1173=DIRECTION('ref_axis',(-0.577350269189626,0.577350269189626,0.577350269189626));
#1174=DIRECTION('center_axis',(-1.,0.,0.));
#1175=DIRECTION('ref_axis',(0.,1.,0.));
#1176=DIRECTION('center_axis',(0.,0.,1.));
#1177=DIRECTION('ref_axis',(-1.,0.,0.));
#1178=DIRECTION('center_axis',(0.,1.,0.));
#1179=DIRECTION('ref_axis',(0.,0.,1.));
#1180=DIRECTION('center_axis',(0.,0.,1.));
#1181=DIRECTION('ref_axis',(-0.707106781186548,0.707106781186548,0.));
#1182=DIRECTION('center_axis',(0.,0.,1.));
#1183=DIRECTION('ref_axis',(-0.707106781186548,0.707106781186548,0.));
#1184=DIRECTION('',(0.,0.,1.));
#1185=DIRECTION('',(0.,0.,-1.));
#1186=DIRECTION('center_axis',(0.408248290463862,-0.816496580927725,0.408248290463866));
#1187=DIRECTION('ref_axis',(0.577350269189622,0.577350269189627,0.577350269189629));
#1188=DIRECTION('center_axis',(0.,1.,0.));
#1189=DIRECTION('ref_axis',(1.,0.,0.));
#1190=DIRECTION('center_axis',(0.,0.,1.));
#1191=DIRECTION('ref_axis',(0.,1.,0.));
#1192=DIRECTION('center_axis',(1.,-4.44089209850062E-15,0.));
#1193=DIRECTION('ref_axis',(0.,0.,1.));
#1194=DIRECTION('center_axis',(0.,0.,1.));
#1195=DIRECTION('ref_axis',(0.707106781186546,0.707106781186549,0.));
#1196=DIRECTION('center_axis',(0.,0.,1.));
#1197=DIRECTION('ref_axis',(0.707106781186546,0.707106781186549,0.));
#1198=DIRECTION('',(0.,0.,1.));
#1199=DIRECTION('',(0.,0.,-1.));
#1200=DIRECTION('center_axis',(-1.,0.,0.));
#1201=DIRECTION('ref_axis',(0.,0.707106781186548,0.707106781186548));
#1202=DIRECTION('',(1.,0.,0.));
#1203=DIRECTION('',(-1.,0.,0.));
#1204=DIRECTION('center_axis',(0.,1.,0.));
#1205=DIRECTION('ref_axis',(0.707106781186549,0.,0.707106781186546));
#1206=DIRECTION('',(0.,1.,0.));
#1207=DIRECTION('',(0.,-1.,0.));
#1208=DIRECTION('center_axis',(-0.707106781186547,0.707106781186548,0.));
#1209=DIRECTION('ref_axis',(-0.707106781186548,-0.707106781186547,0.));
#1210=DIRECTION('center_axis',(-1.,0.,0.));
#1211=DIRECTION('ref_axis',(0.,0.707106781186547,0.707106781186548));
#1212=DIRECTION('',(-1.,0.,0.));
#1213=DIRECTION('center_axis',(1.,2.22044604925031E-15,0.));
#1214=DIRECTION('ref_axis',(-2.22044604925031E-15,1.,0.));
#1215=DIRECTION('',(1.,0.,0.));
#1216=DIRECTION('center_axis',(-0.707106781186547,-0.707106781186548,0.));
#1217=DIRECTION('ref_axis',(0.707106781186548,-0.707106781186547,0.));
#1218=DIRECTION('center_axis',(1.,0.,0.));
#1219=DIRECTION('ref_axis',(0.,-0.707106781186547,0.707106781186548));
#1220=DIRECTION('center_axis',(1.,-5.55111512312578E-16,0.));
#1221=DIRECTION('ref_axis',(0.,0.,1.));
#1222=DIRECTION('',(1.,0.,0.));
#1223=DIRECTION('center_axis',(-1.,0.,0.));
#1224=DIRECTION('ref_axis',(0.,-1.,0.));
#1225=DIRECTION('',(-1.,0.,0.));
#1226=DIRECTION('center_axis',(0.,0.,1.));
#1227=DIRECTION('ref_axis',(1.,0.,0.));
#1228=DIRECTION('center_axis',(1.,0.,0.));
#1229=DIRECTION('ref_axis',(0.,1.,0.));
#1230=DIRECTION('center_axis',(0.,0.,-1.));
#1231=DIRECTION('ref_axis',(1.,-1.11022302462516E-16,0.));
#1232=DIRECTION('center_axis',(0.,0.,1.));
#1233=DIRECTION('ref_axis',(1.,-1.11022302462516E-16,0.));
#1234=DIRECTION('center_axis',(-1.,0.,0.));
#1235=DIRECTION('ref_axis',(0.,0.707106781186547,0.707106781186548));
#1236=DIRECTION('',(1.,0.,0.));
#1237=DIRECTION('',(-1.,0.,0.));
#1238=DIRECTION('center_axis',(0.,0.,1.));
#1239=DIRECTION('ref_axis',(-1.,-1.77635683940025E-16,0.));
#1240=DIRECTION('center_axis',(0.,0.,-1.));
#1241=DIRECTION('ref_axis',(-1.,0.,0.));
#1242=DIRECTION('center_axis',(0.,0.,1.));
#1243=DIRECTION('ref_axis',(-1.,0.,0.));
#1244=DIRECTION('center_axis',(0.,-1.,0.));
#1245=DIRECTION('ref_axis',(-0.707106781186548,0.,0.707106781186548));
#1246=DIRECTION('',(0.,1.,0.));
#1247=DIRECTION('',(0.,-1.,0.));
#1248=DIRECTION('center_axis',(0.,0.,1.));
#1249=DIRECTION('ref_axis',(1.,0.,0.));
#1250=DIRECTION('',(0.,-1.,0.));
#1251=DIRECTION('',(-1.,0.,0.));
#1252=DIRECTION('center_axis',(0.,0.,1.));
#1253=DIRECTION('ref_axis',(1.,0.,0.));
#1254=DIRECTION('center_axis',(0.,0.,1.));
#1255=DIRECTION('ref_axis',(1.,0.,0.));
#1256=DIRECTION('',(0.,1.,0.));
#1257=DIRECTION('',(1.,0.,0.));
#1258=DIRECTION('',(0.,-1.,0.));
#1259=DIRECTION('center_axis',(0.,0.,1.));
#1260=DIRECTION('ref_axis',(1.,0.,0.));
#1261=DIRECTION('',(-1.,0.,0.));
#1262=DIRECTION('',(0.,-1.,0.));
#1263=DIRECTION('',(-1.,0.,0.));
#1264=DIRECTION('center_axis',(1.,0.,0.));
#1265=DIRECTION('ref_axis',(0.,1.,0.));
#1266=DIRECTION('',(0.,0.,1.));
#1267=DIRECTION('center_axis',(0.,1.,0.));
#1268=DIRECTION('ref_axis',(-1.,0.,0.));
#1269=DIRECTION('',(0.,0.,1.));
#1270=DIRECTION('',(-1.,0.,0.));
#1271=DIRECTION('center_axis',(0.,1.,0.));
#1272=DIRECTION('ref_axis',(0.707106781186547,0.,0.707106781186548));
#1273=DIRECTION('',(0.,0.,1.));
#1274=DIRECTION('center_axis',(0.,0.,1.));
#1275=DIRECTION('ref_axis',(0.,-1.,0.));
#1276=DIRECTION('',(0.,0.,1.));
#1277=DIRECTION('center_axis',(0.,0.,1.));
#1278=DIRECTION('ref_axis',(0.,-1.,0.));
#1279=DIRECTION('center_axis',(0.,-1.,0.));
#1280=DIRECTION('ref_axis',(1.,0.,0.));
#1281=DIRECTION('',(0.,0.,1.));
#1282=DIRECTION('',(-1.,0.,0.));
#1283=DIRECTION('center_axis',(0.,-1.,0.));
#1284=DIRECTION('ref_axis',(-0.707106781186547,0.,0.707106781186548));
#1285=DIRECTION('center_axis',(0.,-1.,0.));
#1286=DIRECTION('ref_axis',(0.707106781186547,0.,0.707106781186548));
#1287=DIRECTION('',(1.,0.,0.));
#1288=DIRECTION('center_axis',(0.,1.,0.));
#1289=DIRECTION('ref_axis',(1.,0.,0.));
#1290=DIRECTION('center_axis',(0.,1.,0.));
#1291=DIRECTION('ref_axis',(1.,0.,0.));
#1292=DIRECTION('center_axis',(0.,0.,1.));
#1293=DIRECTION('ref_axis',(1.,0.,0.));
#1294=DIRECTION('center_axis',(0.,0.,-1.));
#1295=DIRECTION('ref_axis',(1.,0.,0.));
#1296=DIRECTION('center_axis',(0.,0.,-1.));
#1297=DIRECTION('ref_axis',(1.,0.,0.));
#1298=DIRECTION('center_axis',(0.,0.,-1.));
#1299=DIRECTION('ref_axis',(1.,0.,0.));
#1300=DIRECTION('center_axis',(0.,0.,-1.));
#1301=DIRECTION('ref_axis',(1.,0.,0.));
#1302=DIRECTION('center_axis',(0.,1.,0.));
#1303=DIRECTION('ref_axis',(0.707106781186547,0.,0.707106781186548));
#1304=DIRECTION('',(0.,-1.,0.));
#1305=DIRECTION('center_axis',(0.,-1.,0.));
#1306=DIRECTION('ref_axis',(-0.707106781186547,0.,0.707106781186548));
#1307=DIRECTION('',(0.,-1.,0.));
#1308=DIRECTION('center_axis',(0.,1.,0.));
#1309=DIRECTION('ref_axis',(-0.707106781186547,0.,0.707106781186548));
#1310=DIRECTION('center_axis',(0.,1.,0.));
#1311=DIRECTION('ref_axis',(1.,0.,0.));
#1312=DIRECTION('',(1.,0.,0.));
#1313=DIRECTION('center_axis',(0.,-1.,0.));
#1314=DIRECTION('ref_axis',(1.,0.,0.));
#1315=DIRECTION('center_axis',(0.,-1.,0.));
#1316=DIRECTION('ref_axis',(1.,0.,0.));
#1317=DIRECTION('',(-1.,0.,0.));
#1318=DIRECTION('center_axis',(0.,-1.,0.));
#1319=DIRECTION('ref_axis',(1.,0.,0.));
#1320=DIRECTION('center_axis',(0.,1.,0.));
#1321=DIRECTION('ref_axis',(1.,0.,0.));
#1322=DIRECTION('center_axis',(0.,-1.,0.));
#1323=DIRECTION('ref_axis',(1.,0.,0.));
#1324=DIRECTION('center_axis',(0.,-1.,0.));
#1325=DIRECTION('ref_axis',(1.,0.,0.));
#1326=DIRECTION('',(0.,-1.,0.));
#1327=DIRECTION('center_axis',(0.,0.707106781186548,0.707106781186547));
#1328=DIRECTION('ref_axis',(0.,-0.707106781186547,0.707106781186548));
#1329=DIRECTION('center_axis',(0.,0.707106781186548,-0.707106781186548));
#1330=DIRECTION('ref_axis',(0.,0.707106781186548,0.707106781186548));
#1331=DIRECTION('center_axis',(0.,1.,0.));
#1332=DIRECTION('ref_axis',(1.,0.,0.));
#1333=DIRECTION('',(1.,0.,0.));
#1334=DIRECTION('center_axis',(0.,-1.,0.));
#1335=DIRECTION('ref_axis',(1.,0.,0.));
#1336=DIRECTION('center_axis',(0.,-1.,0.));
#1337=DIRECTION('ref_axis',(1.,0.,0.));
#1338=DIRECTION('',(-1.,0.,0.));
#1339=DIRECTION('center_axis',(0.,-1.,0.));
#1340=DIRECTION('ref_axis',(1.,0.,0.));
#1341=DIRECTION('center_axis',(0.,1.,0.));
#1342=DIRECTION('ref_axis',(1.,0.,0.));
#1343=DIRECTION('center_axis',(0.,-1.,0.));
#1344=DIRECTION('ref_axis',(1.,0.,0.));
#1345=DIRECTION('center_axis',(0.,-1.,0.));
#1346=DIRECTION('ref_axis',(1.,0.,0.));
#1347=DIRECTION('',(0.,-1.,0.));
#1348=DIRECTION('center_axis',(0.,0.707106781186548,0.707106781186547));
#1349=DIRECTION('ref_axis',(0.,-0.707106781186547,0.707106781186548));
#1350=DIRECTION('center_axis',(0.,0.707106781186548,-0.707106781186547));
#1351=DIRECTION('ref_axis',(0.,0.707106781186547,0.707106781186548));
#1352=DIRECTION('center_axis',(0.,0.,1.));
#1353=DIRECTION('ref_axis',(1.,0.,0.));
#1354=DIRECTION('center_axis',(0.,0.,1.));
#1355=DIRECTION('ref_axis',(1.,0.,0.));
#1356=DIRECTION('',(-1.,0.,0.));
#1357=DIRECTION('center_axis',(0.,0.,1.));
#1358=DIRECTION('ref_axis',(1.,0.,0.));
#1359=DIRECTION('center_axis',(0.,0.,1.));
#1360=DIRECTION('ref_axis',(1.,0.,0.));
#1361=DIRECTION('center_axis',(0.,0.,-1.));
#1362=DIRECTION('ref_axis',(1.,0.,0.));
#1363=DIRECTION('center_axis',(0.,0.,1.));
#1364=DIRECTION('ref_axis',(1.,0.,0.));
#1365=DIRECTION('center_axis',(0.,0.,-1.));
#1366=DIRECTION('ref_axis',(1.,0.,0.));
#1367=DIRECTION('center_axis',(0.,0.,-1.));
#1368=DIRECTION('ref_axis',(1.,0.,0.));
#1369=DIRECTION('',(1.,0.,0.));
#1370=DIRECTION('center_axis',(0.,0.,-1.));
#1371=DIRECTION('ref_axis',(1.,0.,0.));
#1372=DIRECTION('center_axis',(0.,0.,-1.));
#1373=DIRECTION('ref_axis',(1.,0.,0.));
#1374=DIRECTION('center_axis',(0.,0.,1.));
#1375=DIRECTION('ref_axis',(1.,0.,0.));
#1376=DIRECTION('center_axis',(0.,0.,1.));
#1377=DIRECTION('ref_axis',(1.,0.,0.));
#1378=DIRECTION('',(-1.,0.,0.));
#1379=DIRECTION('center_axis',(0.,0.,1.));
#1380=DIRECTION('ref_axis',(1.,0.,0.));
#1381=DIRECTION('center_axis',(0.,0.,1.));
#1382=DIRECTION('ref_axis',(1.,0.,0.));
#1383=DIRECTION('center_axis',(0.,0.,-1.));
#1384=DIRECTION('ref_axis',(1.,0.,0.));
#1385=DIRECTION('center_axis',(0.,0.,1.));
#1386=DIRECTION('ref_axis',(1.,0.,0.));
#1387=DIRECTION('center_axis',(0.,0.,-1.));
#1388=DIRECTION('ref_axis',(1.,0.,0.));
#1389=DIRECTION('center_axis',(0.,0.,-1.));
#1390=DIRECTION('ref_axis',(1.,0.,0.));
#1391=DIRECTION('',(1.,0.,0.));
#1392=DIRECTION('center_axis',(0.,0.,-1.));
#1393=DIRECTION('ref_axis',(1.,0.,0.));
#1394=DIRECTION('center_axis',(0.,0.,-1.));
#1395=DIRECTION('ref_axis',(1.,0.,0.));
#1396=DIRECTION('center_axis',(0.,1.,0.));
#1397=DIRECTION('ref_axis',(1.,0.,0.));
#1398=DIRECTION('center_axis',(0.,1.,0.));
#1399=DIRECTION('ref_axis',(1.,0.,0.));
#1400=DIRECTION('center_axis',(0.,1.,0.));
#1401=DIRECTION('ref_axis',(1.,0.,0.));
#1402=DIRECTION('center_axis',(0.,1.,0.));
#1403=DIRECTION('ref_axis',(1.,0.,0.));
#1404=DIRECTION('center_axis',(0.,-1.,0.));
#1405=DIRECTION('ref_axis',(1.,0.,0.));
#1406=DIRECTION('center_axis',(0.,1.,0.));
#1407=DIRECTION('ref_axis',(1.,0.,0.));
#1408=DIRECTION('',(0.,1.,0.));
#1409=DIRECTION('center_axis',(0.,-0.707106781186548,-0.707106781186547));
#1410=DIRECTION('ref_axis',(0.,0.707106781186547,-0.707106781186548));
#1411=DIRECTION('center_axis',(0.,-0.707106781186548,0.707106781186548));
#1412=DIRECTION('ref_axis',(0.,-0.707106781186548,-0.707106781186548));
#1413=DIRECTION('center_axis',(0.,1.,0.));
#1414=DIRECTION('ref_axis',(1.,0.,0.));
#1415=DIRECTION('center_axis',(0.,1.,0.));
#1416=DIRECTION('ref_axis',(1.,0.,0.));
#1417=DIRECTION('center_axis',(0.,1.,0.));
#1418=DIRECTION('ref_axis',(1.,0.,0.));
#1419=DIRECTION('center_axis',(0.,1.,0.));
#1420=DIRECTION('ref_axis',(1.,0.,0.));
#1421=DIRECTION('center_axis',(0.,-1.,0.));
#1422=DIRECTION('ref_axis',(1.,0.,0.));
#1423=DIRECTION('center_axis',(0.,1.,0.));
#1424=DIRECTION('ref_axis',(1.,0.,0.));
#1425=DIRECTION('',(0.,1.,0.));
#1426=DIRECTION('center_axis',(0.,-0.707106781186548,-0.707106781186547));
#1427=DIRECTION('ref_axis',(0.,0.707106781186547,-0.707106781186548));
#1428=DIRECTION('center_axis',(0.,-0.707106781186548,0.707106781186547));
#1429=DIRECTION('ref_axis',(0.,-0.707106781186547,-0.707106781186548));
#1430=DIRECTION('center_axis',(0.,1.,0.));
#1431=DIRECTION('ref_axis',(1.,0.,0.));
#1432=DIRECTION('center_axis',(0.,0.707106781186548,0.707106781186548));
#1433=DIRECTION('ref_axis',(0.,0.707106781186547,-0.707106781186547));
#1434=DIRECTION('center_axis',(0.,0.707106781186548,-0.707106781186548));
#1435=DIRECTION('ref_axis',(0.,-0.707106781186547,-0.707106781186547));
#1436=DIRECTION('',(0.,1.,0.));
#1437=DIRECTION('center_axis',(0.,1.,0.));
#1438=DIRECTION('ref_axis',(1.,0.,0.));
#1439=DIRECTION('',(0.,1.,0.));
#1440=DIRECTION('center_axis',(0.,-0.707106781186548,-0.707106781186548));
#1441=DIRECTION('ref_axis',(0.,0.707106781186547,-0.707106781186547));
#1442=DIRECTION('center_axis',(0.,-0.707106781186548,0.707106781186548));
#1443=DIRECTION('ref_axis',(0.,-0.707106781186547,-0.707106781186547));
#1444=DIRECTION('center_axis',(0.,1.,0.));
#1445=DIRECTION('ref_axis',(1.,0.,0.));
#1446=DIRECTION('center_axis',(0.,0.707106781186548,0.707106781186547));
#1447=DIRECTION('ref_axis',(0.,0.707106781186547,-0.707106781186548));
#1448=DIRECTION('center_axis',(0.,0.707106781186548,-0.707106781186547));
#1449=DIRECTION('ref_axis',(0.,-0.707106781186546,-0.707106781186548));
#1450=DIRECTION('',(0.,1.,0.));
#1451=DIRECTION('center_axis',(0.,1.,0.));
#1452=DIRECTION('ref_axis',(1.,0.,0.));
#1453=DIRECTION('',(0.,1.,0.));
#1454=DIRECTION('center_axis',(0.,-0.707106781186548,-0.707106781186547));
#1455=DIRECTION('ref_axis',(0.,0.707106781186547,-0.707106781186548));
#1456=DIRECTION('center_axis',(0.,-0.707106781186548,0.707106781186547));
#1457=DIRECTION('ref_axis',(0.,-0.707106781186546,-0.707106781186548));
#1458=DIRECTION('center_axis',(0.,0.,1.));
#1459=DIRECTION('ref_axis',(1.,0.,0.));
#1460=DIRECTION('',(0.,0.,-1.));
#1461=DIRECTION('center_axis',(0.,0.,1.));
#1462=DIRECTION('ref_axis',(1.,0.,0.));
#1463=DIRECTION('',(0.,0.,-1.));
#1464=DIRECTION('center_axis',(0.,0.,1.));
#1465=DIRECTION('ref_axis',(1.,0.,0.));
#1466=DIRECTION('',(0.,0.,-1.));
#1467=DIRECTION('center_axis',(0.,0.,1.));
#1468=DIRECTION('ref_axis',(1.,0.,0.));
#1469=DIRECTION('',(0.,0.,1.));
#1470=DIRECTION('center_axis',(0.,0.,1.));
#1471=DIRECTION('ref_axis',(1.,0.,0.));
#1472=DIRECTION('',(0.,0.,-1.));
#1473=DIRECTION('center_axis',(0.,0.,1.));
#1474=DIRECTION('ref_axis',(1.,0.,0.));
#1475=DIRECTION('',(0.,0.,1.));
#1476=DIRECTION('',(0.,0.,-1.));
#1477=DIRECTION('center_axis',(0.,0.,1.));
#1478=DIRECTION('ref_axis',(1.,0.,0.));
#1479=DIRECTION('',(0.,0.,1.));
#1480=DIRECTION('center_axis',(0.,0.,1.));
#1481=DIRECTION('ref_axis',(1.,0.,0.));
#1482=DIRECTION('',(0.,0.,1.));
#1483=DIRECTION('center_axis',(-1.,0.,0.));
#1484=DIRECTION('ref_axis',(0.,-1.,0.));
#1485=DIRECTION('',(0.,0.,1.));
#1486=DIRECTION('center_axis',(0.,1.,0.));
#1487=DIRECTION('ref_axis',(-1.,0.,0.));
#1488=DIRECTION('center_axis',(0.,0.,1.));
#1489=DIRECTION('ref_axis',(1.,0.,0.));
#1490=DIRECTION('',(0.,0.,-1.));
#1491=DIRECTION('center_axis',(0.,0.,-1.));
#1492=DIRECTION('ref_axis',(1.,0.,0.));
#1493=DIRECTION('center_axis',(0.,1.,0.));
#1494=DIRECTION('ref_axis',(-1.,0.,0.));
#1495=DIRECTION('',(1.,0.,0.));
#1496=DIRECTION('',(0.,0.,1.));
#1497=DIRECTION('center_axis',(0.,0.,1.));
#1498=DIRECTION('ref_axis',(0.,1.,0.));
#1499=DIRECTION('center_axis',(0.,0.,1.));
#1500=DIRECTION('ref_axis',(0.,1.,0.));
#1501=DIRECTION('center_axis',(0.,0.,1.));
#1502=DIRECTION('ref_axis',(1.,0.,0.));
#1503=DIRECTION('center_axis',(0.,0.,1.));
#1504=DIRECTION('ref_axis',(1.,0.,0.));
#1505=DIRECTION('',(0.,0.,-1.));
#1506=DIRECTION('center_axis',(0.,0.,-1.));
#1507=DIRECTION('ref_axis',(1.,0.,0.));
#1508=DIRECTION('center_axis',(0.,0.,1.));
#1509=DIRECTION('ref_axis',(1.,0.,0.));
#1510=CARTESIAN_POINT('',(0.,0.,0.));
#1511=CARTESIAN_POINT('Origin',(0.5,7.5,9.5));
#1512=CARTESIAN_POINT('',(0.5,8.,9.5));
#1513=CARTESIAN_POINT('',(0.5,7.5,10.));
#1514=CARTESIAN_POINT('Origin',(0.5,7.5,9.5));
#1515=CARTESIAN_POINT('',(0.,7.5,9.5));
#1516=CARTESIAN_POINT('Origin',(0.5,7.5,9.5));
#1517=CARTESIAN_POINT('Origin',(0.5,7.5,9.5));
#1518=CARTESIAN_POINT('Origin',(0.5,7.5,2.));
#1519=CARTESIAN_POINT('',(0.5,8.,2.));
#1520=CARTESIAN_POINT('',(0.,7.5,2.));
#1521=CARTESIAN_POINT('Origin',(0.5,7.5,2.));
#1522=CARTESIAN_POINT('',(0.,7.5,2.));
#1523=CARTESIAN_POINT('',(0.5,8.,2.));
#1524=CARTESIAN_POINT('Origin',(15.5,7.5,9.5));
#1525=CARTESIAN_POINT('',(16.,7.5,9.5));
#1526=CARTESIAN_POINT('',(15.5,7.5,10.));
#1527=CARTESIAN_POINT('Origin',(15.5,7.5,9.5));
#1528=CARTESIAN_POINT('',(15.5,8.,9.5));
#1529=CARTESIAN_POINT('Origin',(15.5,7.5,9.5));
#1530=CARTESIAN_POINT('Origin',(15.5,7.5,9.5));
#1531=CARTESIAN_POINT('Origin',(15.5,7.5,2.));
#1532=CARTESIAN_POINT('',(16.,7.5,2.));
#1533=CARTESIAN_POINT('',(15.5,8.,2.));
#1534=CARTESIAN_POINT('Origin',(15.5,7.5,2.));
#1535=CARTESIAN_POINT('',(15.5,8.,2.));
#1536=CARTESIAN_POINT('',(16.,7.5,2.));
#1537=CARTESIAN_POINT('Origin',(17.1250000670552,7.5,9.5));
#1538=CARTESIAN_POINT('',(17.1250000670552,7.5,10.));
#1539=CARTESIAN_POINT('',(17.1250000670552,8.,9.5));
#1540=CARTESIAN_POINT('Origin',(15.5,1.25,9.5));
#1541=CARTESIAN_POINT('',(16.,5.,9.5));
#1542=CARTESIAN_POINT('',(16.,1.25,9.5));
#1543=CARTESIAN_POINT('',(15.5,4.5,10.));
#1544=CARTESIAN_POINT('',(15.5,1.25,10.));
#1545=CARTESIAN_POINT('Origin',(15.5,4.5,9.5));
#1546=CARTESIAN_POINT('Origin',(9.12500006705523,4.5,9.5));
#1547=CARTESIAN_POINT('',(0.,5.,9.5));
#1548=CARTESIAN_POINT('',(-2.00000002980232,5.,9.5));
#1549=CARTESIAN_POINT('',(9.12500006705523,5.,9.5));
#1550=CARTESIAN_POINT('',(-2.00000002980232,4.5,10.));
#1551=CARTESIAN_POINT('Origin',(-2.00000002980232,4.5,9.5));
#1552=CARTESIAN_POINT('',(0.5,4.5,10.));
#1553=CARTESIAN_POINT('',(9.12500006705523,4.5,10.));
#1554=CARTESIAN_POINT('Origin',(0.5,4.5,9.5));
#1555=CARTESIAN_POINT('Origin',(17.1250000670552,0.5,9.5));
#1556=CARTESIAN_POINT('',(-2.00000002980232,0.5,10.));
#1557=CARTESIAN_POINT('',(-2.00000002980232,0.,9.5));
#1558=CARTESIAN_POINT('Origin',(-2.00000002980232,0.5,9.5));
#1559=CARTESIAN_POINT('',(18.0000002682209,0.,9.5));
#1560=CARTESIAN_POINT('',(17.1250000670552,0.,9.5));
#1561=CARTESIAN_POINT('',(18.0000002682209,0.5,10.));
#1562=CARTESIAN_POINT('Origin',(18.0000002682209,0.5,9.5));
#1563=CARTESIAN_POINT('',(17.1250000670552,0.5,10.));
#1564=CARTESIAN_POINT('Origin',(18.0000002682209,2.5,9.5));
#1565=CARTESIAN_POINT('',(18.0000002682209,5.,9.5));
#1566=CARTESIAN_POINT('',(18.0000002682209,4.5,10.));
#1567=CARTESIAN_POINT('Origin',(18.0000002682209,4.5,9.5));
#1568=CARTESIAN_POINT('Origin',(18.0000002682209,2.5,10.));
#1569=CARTESIAN_POINT('Origin',(18.0000002682209,2.5,9.5));
#1570=CARTESIAN_POINT('Origin',(18.1250002011657,4.5,9.5));
#1571=CARTESIAN_POINT('',(18.1250002011657,4.5,10.));
#1572=CARTESIAN_POINT('',(18.1250002011657,5.,9.5));
#1573=CARTESIAN_POINT('Origin',(-2.00000002980232,2.5,9.5));
#1574=CARTESIAN_POINT('Origin',(-2.00000002980232,2.5,10.));
#1575=CARTESIAN_POINT('Origin',(-2.00000002980232,2.5,9.5));
#1576=CARTESIAN_POINT('Origin',(0.5,5.25,9.5));
#1577=CARTESIAN_POINT('',(0.5,5.25,10.));
#1578=CARTESIAN_POINT('',(0.,5.25,9.5));
#1579=CARTESIAN_POINT('Origin',(8.,4.,2.));
#1580=CARTESIAN_POINT('',(16.,5.,2.));
#1581=CARTESIAN_POINT('',(16.,5.,2.));
#1582=CARTESIAN_POINT('',(14.8284271458196,5.,2.));
#1583=CARTESIAN_POINT('',(13.0000001341105,5.,2.));
#1584=CARTESIAN_POINT('',(9.,4.00000005960464,2.));
#1585=CARTESIAN_POINT('Origin',(12.,4.00000005960464,2.));
#1586=CARTESIAN_POINT('',(14.,1.76393208210485,2.));
#1587=CARTESIAN_POINT('Origin',(12.,4.00000005960464,2.));
#1588=CARTESIAN_POINT('',(14.,0.,2.));
#1589=CARTESIAN_POINT('',(14.,4.5,2.));
#1590=CARTESIAN_POINT('',(2.,0.,2.));
#1591=CARTESIAN_POINT('',(0.,0.,2.));
#1592=CARTESIAN_POINT('',(2.,1.76393208210486,2.));
#1593=CARTESIAN_POINT('',(2.,2.,2.));
#1594=CARTESIAN_POINT('',(1.17157285418039,5.,2.));
#1595=CARTESIAN_POINT('Origin',(4.,4.00000005960464,2.));
#1596=CARTESIAN_POINT('',(0.,5.,2.));
#1597=CARTESIAN_POINT('',(4.,5.,2.));
#1598=CARTESIAN_POINT('',(0.,8.,2.));
#1599=CARTESIAN_POINT('',(16.,8.,2.));
#1600=CARTESIAN_POINT('Origin',(16.,0.,2.));
#1601=CARTESIAN_POINT('',(16.,5.,0.));
#1602=CARTESIAN_POINT('Origin',(18.0000002682209,5.,0.));
#1603=CARTESIAN_POINT('',(18.0000002682209,5.,0.));
#1604=CARTESIAN_POINT('',(18.0000002682209,5.,0.));
#1605=CARTESIAN_POINT('',(16.,5.,0.));
#1606=CARTESIAN_POINT('',(18.0000002682209,5.,0.));
#1607=CARTESIAN_POINT('',(14.8284271458196,5.,1.82035943265861));
#1608=CARTESIAN_POINT('Origin',(14.,5.,0.));
#1609=CARTESIAN_POINT('',(14.8284271458196,5.,0.));
#1610=CARTESIAN_POINT('Origin',(18.0000002682209,2.5,0.));
#1611=CARTESIAN_POINT('',(18.0000002682209,0.,0.));
#1612=CARTESIAN_POINT('',(18.0000002682209,0.,0.));
#1613=CARTESIAN_POINT('Origin',(18.0000002682209,2.5,0.));
#1614=CARTESIAN_POINT('Origin',(16.,0.,0.));
#1615=CARTESIAN_POINT('',(-2.00000002980232,0.,0.));
#1616=CARTESIAN_POINT('',(-2.00000002980232,0.,0.));
#1617=CARTESIAN_POINT('',(0.,0.,0.));
#1618=CARTESIAN_POINT('',(0.,0.,0.));
#1619=CARTESIAN_POINT('Origin',(2.,0.,0.));
#1620=CARTESIAN_POINT('',(16.,0.,0.));
#1621=CARTESIAN_POINT('Origin',(14.,0.,0.));
#1622=CARTESIAN_POINT('',(16.,0.,0.));
#1623=CARTESIAN_POINT('',(9.00000017881393,0.,6.00000008940697));
#1624=CARTESIAN_POINT('Origin',(12.0000001788139,0.,6.00000008940697));
#1625=CARTESIAN_POINT('',(1.00000005960464,0.,6.00000008940697));
#1626=CARTESIAN_POINT('Origin',(4.00000005960464,0.,6.00000008940697));
#1627=CARTESIAN_POINT('Origin',(18.2500001341105,2.5,10.));
#1628=CARTESIAN_POINT('',(16.5000002682209,2.5,10.));
#1629=CARTESIAN_POINT('Origin',(18.0000002682209,2.5,10.));
#1630=CARTESIAN_POINT('',(-3.50000002980232,2.5,10.));
#1631=CARTESIAN_POINT('Origin',(-2.00000002980232,2.5,10.));
#1632=CARTESIAN_POINT('',(9.,4.00000005960465,10.));
#1633=CARTESIAN_POINT('Origin',(12.,4.00000005960464,10.));
#1634=CARTESIAN_POINT('',(1.,4.00000005960465,10.));
#1635=CARTESIAN_POINT('Origin',(4.,4.00000005960464,10.));
#1636=CARTESIAN_POINT('Origin',(14.,4.5,0.));
#1637=CARTESIAN_POINT('',(16.,5.,0.));
#1638=CARTESIAN_POINT('Ctrl Pts',(14.,1.76393208210485,2.));
#1639=CARTESIAN_POINT('Ctrl Pts',(14.2983364013441,2.03077227153208,2.));
#1640=CARTESIAN_POINT('Ctrl Pts',(14.5494589761614,2.36637820173428,1.93192298063282));
#1641=CARTESIAN_POINT('Ctrl Pts',(14.9057254553604,3.13528886679019,1.79401074076883));
#1642=CARTESIAN_POINT('Ctrl Pts',(15.,3.57525318991859,1.73205080756888));
#1643=CARTESIAN_POINT('Ctrl Pts',(15.,4.3333462938477,1.73205080756888));
#1644=CARTESIAN_POINT('Ctrl Pts',(14.9427486174169,4.67665002711089,1.76833288849257));
#1645=CARTESIAN_POINT('Ctrl Pts',(14.8284271458196,4.99999999999999,1.82035943265861));
#1646=CARTESIAN_POINT('Origin',(2.,2.,0.));
#1647=CARTESIAN_POINT('',(1.,4.00000005960464,1.73205080756888));
#1648=CARTESIAN_POINT('Ctrl Pts',(1.,4.00000005960465,1.73205080756888));
#1649=CARTESIAN_POINT('Ctrl Pts',(1.,3.57525318991859,1.73205080756888));
#1650=CARTESIAN_POINT('Ctrl Pts',(1.09427454463957,3.13528886679018,1.79401074076883));
#1651=CARTESIAN_POINT('Ctrl Pts',(1.45054102383857,2.36637820173428,1.93192298063282));
#1652=CARTESIAN_POINT('Ctrl Pts',(1.7016635986559,2.03077227153208,2.));
#1653=CARTESIAN_POINT('Ctrl Pts',(2.,1.76393208210485,2.));
#1654=CARTESIAN_POINT('',(0.,5.,0.));
#1655=CARTESIAN_POINT('',(0.,5.,0.));
#1656=CARTESIAN_POINT('',(1.17157285418039,5.,1.82035943265861));
#1657=CARTESIAN_POINT('Origin',(2.,5.,0.));
#1658=CARTESIAN_POINT('Ctrl Pts',(1.17157285418038,4.99999999999999,1.82035943265861));
#1659=CARTESIAN_POINT('Ctrl Pts',(1.05725138258305,4.67665002711089,1.76833288849257));
#1660=CARTESIAN_POINT('Ctrl Pts',(1.,4.3333462938477,1.73205080756888));
#1661=CARTESIAN_POINT('Ctrl Pts',(1.,4.00000005960464,1.73205080756888));
#1662=CARTESIAN_POINT('Origin',(4.00000005960464,6.8,6.00000008940697));
#1663=CARTESIAN_POINT('',(2.92296733061217,6.8,3.2));
#1664=CARTESIAN_POINT('',(5.07703278859712,6.8,3.2));
#1665=CARTESIAN_POINT('',(4.00000002980232,6.8,3.2));
#1666=CARTESIAN_POINT('',(1.00000005960464,6.79999997211827,6.00000008940697));
#1667=CARTESIAN_POINT('Origin',(4.00000005960464,6.8,6.00000008940697));
#1668=CARTESIAN_POINT('',(2.92296686574337,6.8,8.8));
#1669=CARTESIAN_POINT('Origin',(4.00000005960464,6.8,6.00000008940697));
#1670=CARTESIAN_POINT('',(5.07703325346592,6.8,8.8));
#1671=CARTESIAN_POINT('',(4.00000002980232,6.8,8.8));
#1672=CARTESIAN_POINT('Origin',(4.00000005960464,6.8,6.00000008940697));
#1673=CARTESIAN_POINT('',(1.50000005960464,6.8,6.00000008940697));
#1674=CARTESIAN_POINT('Origin',(4.00000005960464,6.8,6.00000008940697));
#1675=CARTESIAN_POINT('Origin',(4.00000005960464,8.,6.00000008940697));
#1676=CARTESIAN_POINT('',(1.00000005960464,8.,6.00000008940697));
#1677=CARTESIAN_POINT('Origin',(4.00000005960464,8.,6.00000008940697));
#1678=CARTESIAN_POINT('',(1.00000005960464,8.,6.00000008940697));
#1679=CARTESIAN_POINT('Origin',(4.00000005960464,4.00000005960465,6.00000008940697));
#1680=CARTESIAN_POINT('Origin',(4.00000005960464,4.00000005960464,6.00000008940697));
#1681=CARTESIAN_POINT('Origin',(12.0000001788139,6.8,6.00000008940697));
#1682=CARTESIAN_POINT('',(10.9229674498215,6.8,3.2));
#1683=CARTESIAN_POINT('',(13.0770329078064,6.8,3.2));
#1684=CARTESIAN_POINT('',(12.000000089407,6.8,3.2));
#1685=CARTESIAN_POINT('',(9.00000017881393,6.79999997211827,6.00000008940697));
#1686=CARTESIAN_POINT('Origin',(12.0000001788139,6.8,6.00000008940697));
#1687=CARTESIAN_POINT('',(10.9229669849527,6.8,8.8));
#1688=CARTESIAN_POINT('Origin',(12.0000001788139,6.8,6.00000008940697));
#1689=CARTESIAN_POINT('',(13.0770333726752,6.8,8.8));
#1690=CARTESIAN_POINT('',(12.000000089407,6.8,8.8));
#1691=CARTESIAN_POINT('Origin',(12.0000001788139,6.8,6.00000008940697));
#1692=CARTESIAN_POINT('',(9.50000017881393,6.8,6.00000008940697));
#1693=CARTESIAN_POINT('Origin',(12.0000001788139,6.8,6.00000008940697));
#1694=CARTESIAN_POINT('Origin',(12.0000001788139,8.,6.00000008940697));
#1695=CARTESIAN_POINT('',(9.00000017881393,8.,6.00000008940697));
#1696=CARTESIAN_POINT('Origin',(12.0000001788139,8.,6.00000008940697));
#1697=CARTESIAN_POINT('',(9.00000017881393,8.,6.00000008940697));
#1698=CARTESIAN_POINT('Origin',(12.0000001788139,4.00000005960464,6.00000008940697));
#1699=CARTESIAN_POINT('Origin',(12.0000001788139,4.00000005960464,6.00000008940697));
#1700=CARTESIAN_POINT('Origin',(4.,4.00000005960464,3.2));
#1701=CARTESIAN_POINT('',(5.07703278859712,1.2,3.2));
#1702=CARTESIAN_POINT('Origin',(4.,4.00000005960464,3.2));
#1703=CARTESIAN_POINT('',(2.92296733061217,1.2,3.2));
#1704=CARTESIAN_POINT('',(4.00000002980232,1.2,3.2));
#1705=CARTESIAN_POINT('',(1.,4.00000005960464,3.20000001701313));
#1706=CARTESIAN_POINT('Origin',(4.,4.00000005960464,3.2));
#1707=CARTESIAN_POINT('Origin',(4.,4.00000005960464,3.2));
#1708=CARTESIAN_POINT('',(1.5,4.00000005960464,3.2));
#1709=CARTESIAN_POINT('Origin',(4.,4.00000005960464,3.2));
#1710=CARTESIAN_POINT('Origin',(4.,4.00000005960464,8.8));
#1711=CARTESIAN_POINT('',(1.,4.00000005960464,8.8));
#1712=CARTESIAN_POINT('Origin',(4.,4.00000005960464,8.8));
#1713=CARTESIAN_POINT('',(2.92296686574337,1.2,8.8));
#1714=CARTESIAN_POINT('Origin',(4.,4.00000005960464,8.8));
#1715=CARTESIAN_POINT('',(5.07703325346592,1.2,8.8));
#1716=CARTESIAN_POINT('',(4.00000002980232,1.2,8.8));
#1717=CARTESIAN_POINT('Origin',(4.,4.00000005960464,8.8));
#1718=CARTESIAN_POINT('',(1.5,4.00000005960464,8.8));
#1719=CARTESIAN_POINT('Origin',(4.,4.00000005960464,8.8));
#1720=CARTESIAN_POINT('Origin',(12.,4.00000005960464,3.2));
#1721=CARTESIAN_POINT('',(13.0770329078064,1.2,3.2));
#1722=CARTESIAN_POINT('Origin',(12.,4.00000005960464,3.2));
#1723=CARTESIAN_POINT('',(10.9229674498215,1.2,3.2));
#1724=CARTESIAN_POINT('',(12.000000089407,1.2,3.2));
#1725=CARTESIAN_POINT('',(9.,4.00000005960464,3.20000001701313));
#1726=CARTESIAN_POINT('Origin',(12.,4.00000005960464,3.2));
#1727=CARTESIAN_POINT('Origin',(12.,4.00000005960464,3.2));
#1728=CARTESIAN_POINT('',(9.5,4.00000005960464,3.2));
#1729=CARTESIAN_POINT('Origin',(12.,4.00000005960464,3.2));
#1730=CARTESIAN_POINT('Origin',(12.,4.00000005960464,8.8));
#1731=CARTESIAN_POINT('',(9.,4.00000005960464,8.8));
#1732=CARTESIAN_POINT('Origin',(12.,4.00000005960464,8.8));
#1733=CARTESIAN_POINT('',(10.9229669849527,1.2,8.8));
#1734=CARTESIAN_POINT('Origin',(12.,4.00000005960464,8.8));
#1735=CARTESIAN_POINT('',(13.0770333726752,1.2,8.8));
#1736=CARTESIAN_POINT('',(12.000000089407,1.2,8.8));
#1737=CARTESIAN_POINT('Origin',(12.,4.00000005960464,8.8));
#1738=CARTESIAN_POINT('',(9.5,4.00000005960464,8.8));
#1739=CARTESIAN_POINT('Origin',(12.,4.00000005960464,8.8));
#1740=CARTESIAN_POINT('Origin',(4.00000005960464,1.2,6.00000008940697));
#1741=CARTESIAN_POINT('Origin',(4.00000005960464,1.2,6.00000008940697));
#1742=CARTESIAN_POINT('',(1.00000005960464,1.20000013199847,6.00000008940697));
#1743=CARTESIAN_POINT('Origin',(4.00000005960464,1.2,6.00000008940697));
#1744=CARTESIAN_POINT('Origin',(4.00000005960464,1.2,6.00000008940697));
#1745=CARTESIAN_POINT('',(1.50000005960464,1.2,6.00000008940697));
#1746=CARTESIAN_POINT('Origin',(4.00000005960464,1.2,6.00000008940697));
#1747=CARTESIAN_POINT('Origin',(4.00000005960464,0.,6.00000008940697));
#1748=CARTESIAN_POINT('',(1.00000005960464,0.,6.00000008940697));
#1749=CARTESIAN_POINT('Origin',(4.00000005960464,4.00000005960464,6.00000008940697));
#1750=CARTESIAN_POINT('Origin',(4.00000005960464,4.00000005960464,6.00000008940697));
#1751=CARTESIAN_POINT('Origin',(12.0000001788139,1.2,6.00000008940697));
#1752=CARTESIAN_POINT('Origin',(12.0000001788139,1.2,6.00000008940697));
#1753=CARTESIAN_POINT('',(9.00000017881393,1.20000013199847,6.00000008940697));
#1754=CARTESIAN_POINT('Origin',(12.0000001788139,1.2,6.00000008940697));
#1755=CARTESIAN_POINT('Origin',(12.0000001788139,1.2,6.00000008940697));
#1756=CARTESIAN_POINT('',(9.50000017881393,1.2,6.00000008940697));
#1757=CARTESIAN_POINT('Origin',(12.0000001788139,1.2,6.00000008940697));
#1758=CARTESIAN_POINT('Origin',(12.0000001788139,0.,6.00000008940697));
#1759=CARTESIAN_POINT('',(9.00000017881393,0.,6.00000008940697));
#1760=CARTESIAN_POINT('Origin',(12.0000001788139,4.00000005960464,6.00000008940697));
#1761=CARTESIAN_POINT('Origin',(12.0000001788139,4.00000005960464,6.00000008940697));
#1762=CARTESIAN_POINT('Origin',(4.00000005960464,0.,6.00000008940697));
#1763=CARTESIAN_POINT('',(6.50000005960464,4.00000005960464,6.00000008940697));
#1764=CARTESIAN_POINT('',(1.50000005960464,4.00000005960464,6.00000008940697));
#1765=CARTESIAN_POINT('Origin',(4.00000005960464,4.00000005960464,6.00000008940697));
#1766=CARTESIAN_POINT('Origin',(4.00000005960464,4.00000005960464,6.00000008940697));
#1767=CARTESIAN_POINT('',(1.50000005960464,0.,6.00000008940697));
#1768=CARTESIAN_POINT('Origin',(4.00000005960464,0.,6.00000008940697));
#1769=CARTESIAN_POINT('',(1.50000005960464,0.,6.00000008940697));
#1770=CARTESIAN_POINT('Origin',(4.00000005960464,4.00000005960464,6.00000008940697));
#1771=CARTESIAN_POINT('Origin',(4.00000005960464,4.00000005960464,6.00000008940697));
#1772=CARTESIAN_POINT('Origin',(12.0000001788139,0.,6.00000008940697));
#1773=CARTESIAN_POINT('',(14.5000001788139,4.00000005960464,6.00000008940697));
#1774=CARTESIAN_POINT('',(9.50000017881393,4.00000005960464,6.00000008940697));
#1775=CARTESIAN_POINT('Origin',(12.0000001788139,4.00000005960464,6.00000008940697));
#1776=CARTESIAN_POINT('Origin',(12.0000001788139,4.00000005960464,6.00000008940697));
#1777=CARTESIAN_POINT('',(9.50000017881393,0.,6.00000008940697));
#1778=CARTESIAN_POINT('Origin',(12.0000001788139,0.,6.00000008940697));
#1779=CARTESIAN_POINT('',(9.50000017881393,0.,6.00000008940697));
#1780=CARTESIAN_POINT('Origin',(12.0000001788139,4.00000005960464,6.00000008940697));
#1781=CARTESIAN_POINT('Origin',(12.0000001788139,4.00000005960464,6.00000008940697));
#1782=CARTESIAN_POINT('Origin',(4.,4.00000005960464,3.2));
#1783=CARTESIAN_POINT('',(1.5,4.00000005960464,3.2));
#1784=CARTESIAN_POINT('Origin',(12.,4.00000005960464,3.2));
#1785=CARTESIAN_POINT('',(9.5,4.00000005960464,3.2));
#1786=CARTESIAN_POINT('Origin',(12.,4.00000005960464,3.2));
#1787=CARTESIAN_POINT('',(9.5,4.00000005960464,3.2));
#1788=CARTESIAN_POINT('Origin',(12.,4.00000005960464,0.));
#1789=CARTESIAN_POINT('',(9.,4.00000005960464,0.));
#1790=CARTESIAN_POINT('Origin',(4.,4.00000005960464,3.2));
#1791=CARTESIAN_POINT('',(1.5,4.00000005960464,3.2));
#1792=CARTESIAN_POINT('Origin',(4.,4.00000005960464,0.));
#1793=CARTESIAN_POINT('',(1.,4.00000005960464,0.));
#1794=CARTESIAN_POINT('',(1.17157285418039,5.,0.));
#1795=CARTESIAN_POINT('Origin',(4.,4.00000005960464,0.));
#1796=CARTESIAN_POINT('',(1.,4.00000005960464,0.));
#1797=CARTESIAN_POINT('Origin',(12.,4.00000005960464,0.));
#1798=CARTESIAN_POINT('',(9.,4.00000005960464,0.));
#1799=CARTESIAN_POINT('Origin',(0.,8.,2.));
#1800=CARTESIAN_POINT('',(0.,5.,0.));
#1801=CARTESIAN_POINT('Origin',(16.,8.,2.));
#1802=CARTESIAN_POINT('Origin',(-2.00000002980232,2.5,0.));
#1803=CARTESIAN_POINT('',(-3.50000002980232,2.5,0.));
#1804=CARTESIAN_POINT('',(-3.50000002980232,2.5,0.));
#1805=CARTESIAN_POINT('Origin',(-2.00000002980232,2.5,0.));
#1806=CARTESIAN_POINT('Origin',(0.,5.,0.));
#1807=CARTESIAN_POINT('',(-2.00000002980232,5.,0.));
#1808=CARTESIAN_POINT('',(-2.00000002980232,5.,0.));
#1809=CARTESIAN_POINT('',(-2.00000002980232,5.,0.));
#1810=CARTESIAN_POINT('Origin',(-2.00000002980232,2.5,0.));
#1811=CARTESIAN_POINT('Origin',(-2.00000002980232,2.5,0.));
#1812=CARTESIAN_POINT('Origin',(-2.25000001490116,2.5,0.));
#1813=CARTESIAN_POINT('Origin',(18.0000002682209,2.5,0.));
#1814=CARTESIAN_POINT('',(16.5000002682209,2.5,0.));
#1815=CARTESIAN_POINT('',(16.5000002682209,2.5,0.));
#1816=CARTESIAN_POINT('Origin',(18.0000002682209,2.5,0.));
#1817=CARTESIAN_POINT('Origin',(18.2500001341105,2.5,0.));
#1818=UNCERTAINTY_MEASURE_WITH_UNIT(LENGTH_MEASURE(0.01),#1822,
'DISTANCE_ACCURACY_VALUE',
'Maximum model space distance between geometric entities at asserted c
onnectivities');
#1819=UNCERTAINTY_MEASURE_WITH_UNIT(LENGTH_MEASURE(0.01),#1822,
'DISTANCE_ACCURACY_VALUE',
'Maximum model space distance between geometric entities at asserted c
onnectivities');
#1820=(
GEOMETRIC_REPRESENTATION_CONTEXT(3)
GLOBAL_UNCERTAINTY_ASSIGNED_CONTEXT((#1818))
GLOBAL_UNIT_ASSIGNED_CONTEXT((#1822,#1824,#1825))
REPRESENTATION_CONTEXT('','3D')
);
#1821=(
GEOMETRIC_REPRESENTATION_CONTEXT(3)
GLOBAL_UNCERTAINTY_ASSIGNED_CONTEXT((#1819))
GLOBAL_UNIT_ASSIGNED_CONTEXT((#1822,#1824,#1825))
REPRESENTATION_CONTEXT('','3D')
);
#1822=(
LENGTH_UNIT()
NAMED_UNIT(*)
SI_UNIT(.MILLI.,.METRE.)
);
#1823=(
LENGTH_UNIT()
NAMED_UNIT(*)
SI_UNIT($,.METRE.)
);
#1824=(
NAMED_UNIT(*)
PLANE_ANGLE_UNIT()
SI_UNIT($,.RADIAN.)
);
#1825=(
NAMED_UNIT(*)
SI_UNIT($,.STERADIAN.)
SOLID_ANGLE_UNIT()
);
#1826=SHAPE_DEFINITION_REPRESENTATION(#1827,#1828);
#1827=PRODUCT_DEFINITION_SHAPE('',$,#1830);
#1828=SHAPE_REPRESENTATION('',(#1032),#1820);
#1829=PRODUCT_DEFINITION_CONTEXT('part definition',#1834,'design');
#1830=PRODUCT_DEFINITION('lidar','lidar v1',#1831,#1829);
#1831=PRODUCT_DEFINITION_FORMATION('',$,#1836);
#1832=PRODUCT_RELATED_PRODUCT_CATEGORY('lidar v1','lidar v1',(#1836));
#1833=APPLICATION_PROTOCOL_DEFINITION('international standard',
'automotive_design',2009,#1834);
#1834=APPLICATION_CONTEXT(
'Core Data for Automotive Mechanical Design Process');
#1835=PRODUCT_CONTEXT('part definition',#1834,'mechanical');
#1836=PRODUCT('lidar','lidar v1',$,(#1835));
#1837=PRESENTATION_STYLE_ASSIGNMENT((#1838));
#1838=SURFACE_STYLE_USAGE(.BOTH.,#1839);
#1839=SURFACE_SIDE_STYLE('',(#1840));
#1840=SURFACE_STYLE_FILL_AREA(#1841);
#1841=FILL_AREA_STYLE('Steel - Satin',(#1842));
#1842=FILL_AREA_STYLE_COLOUR('Steel - Satin',#1843);
#1843=COLOUR_RGB('Steel - Satin',0.627450980392157,0.627450980392157,0.627450980392157);
ENDSEC;
END-ISO-10303-21;
