ISO-10303-21;
HEADER;
/* Generated by software containing ST-Developer
 * from STEP Tools, Inc. (www.steptools.com) 
 */

FILE_DESCRIPTION(
/* description */ (''),
/* implementation_level */ '2;1');

FILE_NAME(
/* name */ 'main_board.step',
/* time_stamp */ '2024-11-18T08:31:19+01:00',
/* author */ (''),
/* organization */ (''),
/* preprocessor_version */ 'ST-DEVELOPER v20',
/* originating_system */ 'Autodesk Translation Framework v13.20.0.188',

/* authorisation */ '');

FILE_SCHEMA (('CONFIG_CONTROL_DESIGN','AUTOMOTIVE_DESIGN { 1 0 10303 214 3 1 1 }'));
ENDSEC;

DATA;
#10=MECHANICAL_DESIGN_GEOMETRIC_PRESENTATION_REPRESENTATION('',(#13),#2171);
#11=SHAPE_REPRESENTATION_RELATIONSHIP('SRR','None',#2178,#12);
#12=ADVANCED_BREP_SHAPE_REPRESENTATION('',(#14),#2170);
#13=STYLED_ITEM('',(#2187),#14);
#14=MANIFOLD_SOLID_BREP('Body1',#1291);
#15=CONICAL_SURFACE('',#1316,0.625,0.785398163397448);
#16=CONICAL_SURFACE('',#1320,0.625000000000001,0.785398163397447);
#17=FACE_BOUND('',#142,.T.);
#18=FACE_BOUND('',#157,.T.);
#19=FACE_BOUND('',#158,.T.);
#20=FACE_BOUND('',#172,.T.);
#21=FACE_BOUND('',#173,.T.);
#22=FACE_BOUND('',#174,.T.);
#23=FACE_BOUND('',#175,.T.);
#24=FACE_BOUND('',#181,.T.);
#25=FACE_BOUND('',#187,.T.);
#26=FACE_BOUND('',#198,.T.);
#27=FACE_BOUND('',#206,.T.);
#28=FACE_BOUND('',#214,.T.);
#29=PLANE('',#1310);
#30=PLANE('',#1312);
#31=PLANE('',#1315);
#32=PLANE('',#1319);
#33=PLANE('',#1323);
#34=PLANE('',#1324);
#35=PLANE('',#1327);
#36=PLANE('',#1330);
#37=PLANE('',#1334);
#38=PLANE('',#1335);
#39=PLANE('',#1345);
#40=PLANE('',#1348);
#41=PLANE('',#1351);
#42=PLANE('',#1354);
#43=PLANE('',#1358);
#44=PLANE('',#1363);
#45=PLANE('',#1364);
#46=PLANE('',#1376);
#47=PLANE('',#1379);
#48=PLANE('',#1381);
#49=PLANE('',#1386);
#50=PLANE('',#1388);
#51=PLANE('',#1391);
#52=PLANE('',#1394);
#53=PLANE('',#1399);
#54=PLANE('',#1400);
#55=PLANE('',#1401);
#56=PLANE('',#1402);
#57=PLANE('',#1403);
#58=PLANE('',#1404);
#59=PLANE('',#1405);
#60=PLANE('',#1406);
#61=PLANE('',#1407);
#62=PLANE('',#1409);
#63=PLANE('',#1410);
#64=PLANE('',#1411);
#65=PLANE('',#1412);
#66=PLANE('',#1413);
#67=PLANE('',#1414);
#68=PLANE('',#1415);
#69=PLANE('',#1417);
#70=PLANE('',#1418);
#71=FACE_OUTER_BOUND('',#139,.T.);
#72=FACE_OUTER_BOUND('',#140,.T.);
#73=FACE_OUTER_BOUND('',#141,.T.);
#74=FACE_OUTER_BOUND('',#143,.T.);
#75=FACE_OUTER_BOUND('',#144,.T.);
#76=FACE_OUTER_BOUND('',#145,.T.);
#77=FACE_OUTER_BOUND('',#146,.T.);
#78=FACE_OUTER_BOUND('',#147,.T.);
#79=FACE_OUTER_BOUND('',#148,.T.);
#80=FACE_OUTER_BOUND('',#149,.T.);
#81=FACE_OUTER_BOUND('',#150,.T.);
#82=FACE_OUTER_BOUND('',#151,.T.);
#83=FACE_OUTER_BOUND('',#152,.T.);
#84=FACE_OUTER_BOUND('',#153,.T.);
#85=FACE_OUTER_BOUND('',#154,.T.);
#86=FACE_OUTER_BOUND('',#155,.T.);
#87=FACE_OUTER_BOUND('',#156,.T.);
#88=FACE_OUTER_BOUND('',#159,.T.);
#89=FACE_OUTER_BOUND('',#160,.T.);
#90=FACE_OUTER_BOUND('',#161,.T.);
#91=FACE_OUTER_BOUND('',#162,.T.);
#92=FACE_OUTER_BOUND('',#163,.T.);
#93=FACE_OUTER_BOUND('',#164,.T.);
#94=FACE_OUTER_BOUND('',#165,.T.);
#95=FACE_OUTER_BOUND('',#166,.T.);
#96=FACE_OUTER_BOUND('',#167,.T.);
#97=FACE_OUTER_BOUND('',#168,.T.);
#98=FACE_OUTER_BOUND('',#169,.T.);
#99=FACE_OUTER_BOUND('',#170,.T.);
#100=FACE_OUTER_BOUND('',#171,.T.);
#101=FACE_OUTER_BOUND('',#176,.T.);
#102=FACE_OUTER_BOUND('',#177,.T.);
#103=FACE_OUTER_BOUND('',#178,.T.);
#104=FACE_OUTER_BOUND('',#179,.T.);
#105=FACE_OUTER_BOUND('',#180,.T.);
#106=FACE_OUTER_BOUND('',#182,.T.);
#107=FACE_OUTER_BOUND('',#183,.T.);
#108=FACE_OUTER_BOUND('',#184,.T.);
#109=FACE_OUTER_BOUND('',#185,.T.);
#110=FACE_OUTER_BOUND('',#186,.T.);
#111=FACE_OUTER_BOUND('',#188,.T.);
#112=FACE_OUTER_BOUND('',#189,.T.);
#113=FACE_OUTER_BOUND('',#190,.T.);
#114=FACE_OUTER_BOUND('',#191,.T.);
#115=FACE_OUTER_BOUND('',#192,.T.);
#116=FACE_OUTER_BOUND('',#193,.T.);
#117=FACE_OUTER_BOUND('',#194,.T.);
#118=FACE_OUTER_BOUND('',#195,.T.);
#119=FACE_OUTER_BOUND('',#196,.T.);
#120=FACE_OUTER_BOUND('',#197,.T.);
#121=FACE_OUTER_BOUND('',#199,.T.);
#122=FACE_OUTER_BOUND('',#200,.T.);
#123=FACE_OUTER_BOUND('',#201,.T.);
#124=FACE_OUTER_BOUND('',#202,.T.);
#125=FACE_OUTER_BOUND('',#203,.T.);
#126=FACE_OUTER_BOUND('',#204,.T.);
#127=FACE_OUTER_BOUND('',#205,.T.);
#128=FACE_OUTER_BOUND('',#207,.T.);
#129=FACE_OUTER_BOUND('',#208,.T.);
#130=FACE_OUTER_BOUND('',#209,.T.);
#131=FACE_OUTER_BOUND('',#210,.T.);
#132=FACE_OUTER_BOUND('',#211,.T.);
#133=FACE_OUTER_BOUND('',#212,.T.);
#134=FACE_OUTER_BOUND('',#213,.T.);
#135=FACE_OUTER_BOUND('',#215,.T.);
#136=FACE_OUTER_BOUND('',#216,.T.);
#137=FACE_OUTER_BOUND('',#217,.T.);
#138=FACE_OUTER_BOUND('',#218,.T.);
#139=EDGE_LOOP('',(#835,#836,#837,#838,#839,#840));
#140=EDGE_LOOP('',(#841,#842,#843,#844));
#141=EDGE_LOOP('',(#845,#846,#847,#848,#849));
#142=EDGE_LOOP('',(#850));
#143=EDGE_LOOP('',(#851,#852,#853,#854,#855,#856));
#144=EDGE_LOOP('',(#857,#858,#859,#860));
#145=EDGE_LOOP('',(#861,#862,#863,#864));
#146=EDGE_LOOP('',(#865,#866,#867,#868));
#147=EDGE_LOOP('',(#869,#870,#871,#872));
#148=EDGE_LOOP('',(#873,#874,#875,#876));
#149=EDGE_LOOP('',(#877,#878,#879,#880));
#150=EDGE_LOOP('',(#881,#882,#883,#884));
#151=EDGE_LOOP('',(#885,#886,#887,#888,#889,#890,#891,#892));
#152=EDGE_LOOP('',(#893,#894,#895,#896));
#153=EDGE_LOOP('',(#897,#898,#899,#900));
#154=EDGE_LOOP('',(#901,#902,#903,#904));
#155=EDGE_LOOP('',(#905,#906,#907,#908,#909,#910));
#156=EDGE_LOOP('',(#911,#912,#913,#914,#915,#916,#917,#918,#919,#920,#921,
#922,#923,#924,#925,#926,#927,#928));
#157=EDGE_LOOP('',(#929));
#158=EDGE_LOOP('',(#930));
#159=EDGE_LOOP('',(#931,#932,#933,#934));
#160=EDGE_LOOP('',(#935,#936,#937,#938));
#161=EDGE_LOOP('',(#939,#940,#941,#942));
#162=EDGE_LOOP('',(#943,#944,#945,#946));
#163=EDGE_LOOP('',(#947,#948,#949,#950));
#164=EDGE_LOOP('',(#951,#952,#953,#954,#955));
#165=EDGE_LOOP('',(#956,#957,#958,#959));
#166=EDGE_LOOP('',(#960,#961,#962,#963));
#167=EDGE_LOOP('',(#964,#965,#966,#967));
#168=EDGE_LOOP('',(#968,#969,#970,#971,#972,#973,#974,#975,#976,#977,#978));
#169=EDGE_LOOP('',(#979,#980,#981,#982));
#170=EDGE_LOOP('',(#983,#984,#985,#986,#987,#988));
#171=EDGE_LOOP('',(#989,#990,#991,#992,#993,#994,#995,#996));
#172=EDGE_LOOP('',(#997,#998,#999,#1000,#1001,#1002));
#173=EDGE_LOOP('',(#1003,#1004,#1005,#1006,#1007,#1008));
#174=EDGE_LOOP('',(#1009,#1010,#1011,#1012,#1013,#1014,#1015,#1016));
#175=EDGE_LOOP('',(#1017,#1018,#1019,#1020,#1021,#1022,#1023,#1024));
#176=EDGE_LOOP('',(#1025,#1026,#1027,#1028));
#177=EDGE_LOOP('',(#1029,#1030,#1031,#1032));
#178=EDGE_LOOP('',(#1033,#1034,#1035,#1036));
#179=EDGE_LOOP('',(#1037,#1038,#1039,#1040));
#180=EDGE_LOOP('',(#1041,#1042,#1043,#1044));
#181=EDGE_LOOP('',(#1045));
#182=EDGE_LOOP('',(#1046,#1047,#1048,#1049,#1050,#1051,#1052,#1053));
#183=EDGE_LOOP('',(#1054,#1055,#1056,#1057));
#184=EDGE_LOOP('',(#1058,#1059,#1060,#1061));
#185=EDGE_LOOP('',(#1062,#1063,#1064,#1065));
#186=EDGE_LOOP('',(#1066,#1067,#1068,#1069));
#187=EDGE_LOOP('',(#1070));
#188=EDGE_LOOP('',(#1071,#1072,#1073,#1074));
#189=EDGE_LOOP('',(#1075,#1076,#1077,#1078));
#190=EDGE_LOOP('',(#1079,#1080,#1081,#1082));
#191=EDGE_LOOP('',(#1083,#1084,#1085,#1086));
#192=EDGE_LOOP('',(#1087,#1088,#1089,#1090));
#193=EDGE_LOOP('',(#1091,#1092,#1093,#1094));
#194=EDGE_LOOP('',(#1095,#1096,#1097,#1098));
#195=EDGE_LOOP('',(#1099,#1100,#1101,#1102));
#196=EDGE_LOOP('',(#1103,#1104,#1105,#1106));
#197=EDGE_LOOP('',(#1107,#1108,#1109,#1110,#1111));
#198=EDGE_LOOP('',(#1112));
#199=EDGE_LOOP('',(#1113,#1114,#1115,#1116));
#200=EDGE_LOOP('',(#1117,#1118,#1119,#1120));
#201=EDGE_LOOP('',(#1121,#1122,#1123,#1124));
#202=EDGE_LOOP('',(#1125,#1126,#1127,#1128));
#203=EDGE_LOOP('',(#1129,#1130,#1131,#1132));
#204=EDGE_LOOP('',(#1133,#1134,#1135,#1136));
#205=EDGE_LOOP('',(#1137,#1138,#1139,#1140,#1141,#1142));
#206=EDGE_LOOP('',(#1143));
#207=EDGE_LOOP('',(#1144,#1145,#1146,#1147));
#208=EDGE_LOOP('',(#1148,#1149,#1150,#1151));
#209=EDGE_LOOP('',(#1152,#1153,#1154,#1155));
#210=EDGE_LOOP('',(#1156,#1157,#1158,#1159));
#211=EDGE_LOOP('',(#1160,#1161,#1162,#1163));
#212=EDGE_LOOP('',(#1164,#1165,#1166,#1167));
#213=EDGE_LOOP('',(#1168,#1169,#1170,#1171,#1172,#1173));
#214=EDGE_LOOP('',(#1174));
#215=EDGE_LOOP('',(#1175,#1176,#1177,#1178,#1179,#1180,#1181,#1182,#1183,
#1184,#1185));
#216=EDGE_LOOP('',(#1186,#1187,#1188,#1189,#1190));
#217=EDGE_LOOP('',(#1191,#1192,#1193,#1194));
#218=EDGE_LOOP('',(#1195,#1196,#1197,#1198));
#219=B_SPLINE_CURVE_WITH_KNOTS('',3,(#1797,#1798,#1799,#1800,#1801,#1802),
 .UNSPECIFIED.,.F.,.F.,(4,2,4),(0.742968545298315,0.919311316445397,1.09565408759248),
 .UNSPECIFIED.);
#220=B_SPLINE_CURVE_WITH_KNOTS('',3,(#1805,#1806,#1807,#1808,#1809,#1810),
 .UNSPECIFIED.,.F.,.F.,(4,2,4),(0.,0.176342771147081,0.352685542294163),
 .UNSPECIFIED.);
#221=LINE('',#1793,#353);
#222=LINE('',#1804,#354);
#223=LINE('',#1813,#355);
#224=LINE('',#1816,#356);
#225=LINE('',#1819,#357);
#226=LINE('',#1821,#358);
#227=LINE('',#1822,#359);
#228=LINE('',#1827,#360);
#229=LINE('',#1831,#361);
#230=LINE('',#1836,#362);
#231=LINE('',#1838,#363);
#232=LINE('',#1840,#364);
#233=LINE('',#1841,#365);
#234=LINE('',#1846,#366);
#235=LINE('',#1850,#367);
#236=LINE('',#1852,#368);
#237=LINE('',#1853,#369);
#238=LINE('',#1858,#370);
#239=LINE('',#1863,#371);
#240=LINE('',#1864,#372);
#241=LINE('',#1865,#373);
#242=LINE('',#1868,#374);
#243=LINE('',#1870,#375);
#244=LINE('',#1871,#376);
#245=LINE('',#1874,#377);
#246=LINE('',#1878,#378);
#247=LINE('',#1880,#379);
#248=LINE('',#1882,#380);
#249=LINE('',#1884,#381);
#250=LINE('',#1886,#382);
#251=LINE('',#1887,#383);
#252=LINE('',#1890,#384);
#253=LINE('',#1894,#385);
#254=LINE('',#1895,#386);
#255=LINE('',#1901,#387);
#256=LINE('',#1904,#388);
#257=LINE('',#1907,#389);
#258=LINE('',#1909,#390);
#259=LINE('',#1911,#391);
#260=LINE('',#1913,#392);
#261=LINE('',#1914,#393);
#262=LINE('',#1917,#394);
#263=LINE('',#1921,#395);
#264=LINE('',#1925,#396);
#265=LINE('',#1929,#397);
#266=LINE('',#1932,#398);
#267=LINE('',#1935,#399);
#268=LINE('',#1942,#400);
#269=LINE('',#1945,#401);
#270=LINE('',#1948,#402);
#271=LINE('',#1949,#403);
#272=LINE('',#1953,#404);
#273=LINE('',#1956,#405);
#274=LINE('',#1957,#406);
#275=LINE('',#1960,#407);
#276=LINE('',#1963,#408);
#277=LINE('',#1966,#409);
#278=LINE('',#1969,#410);
#279=LINE('',#1971,#411);
#280=LINE('',#1977,#412);
#281=LINE('',#1979,#413);
#282=LINE('',#1982,#414);
#283=LINE('',#1987,#415);
#284=LINE('',#1990,#416);
#285=LINE('',#1992,#417);
#286=LINE('',#1993,#418);
#287=LINE('',#1996,#419);
#288=LINE('',#2001,#420);
#289=LINE('',#2003,#421);
#290=LINE('',#2005,#422);
#291=LINE('',#2007,#423);
#292=LINE('',#2009,#424);
#293=LINE('',#2010,#425);
#294=LINE('',#2013,#426);
#295=LINE('',#2015,#427);
#296=LINE('',#2017,#428);
#297=LINE('',#2019,#429);
#298=LINE('',#2021,#430);
#299=LINE('',#2022,#431);
#300=LINE('',#2025,#432);
#301=LINE('',#2029,#433);
#302=LINE('',#2032,#434);
#303=LINE('',#2036,#435);
#304=LINE('',#2040,#436);
#305=LINE('',#2044,#437);
#306=LINE('',#2048,#438);
#307=LINE('',#2052,#439);
#308=LINE('',#2058,#440);
#309=LINE('',#2059,#441);
#310=LINE('',#2062,#442);
#311=LINE('',#2063,#443);
#312=LINE('',#2068,#444);
#313=LINE('',#2072,#445);
#314=LINE('',#2076,#446);
#315=LINE('',#2079,#447);
#316=LINE('',#2081,#448);
#317=LINE('',#2083,#449);
#318=LINE('',#2085,#450);
#319=LINE('',#2089,#451);
#320=LINE('',#2091,#452);
#321=LINE('',#2093,#453);
#322=LINE('',#2095,#454);
#323=LINE('',#2096,#455);
#324=LINE('',#2098,#456);
#325=LINE('',#2103,#457);
#326=LINE('',#2105,#458);
#327=LINE('',#2110,#459);
#328=LINE('',#2112,#460);
#329=LINE('',#2113,#461);
#330=LINE('',#2116,#462);
#331=LINE('',#2117,#463);
#332=LINE('',#2120,#464);
#333=LINE('',#2121,#465);
#334=LINE('',#2124,#466);
#335=LINE('',#2125,#467);
#336=LINE('',#2128,#468);
#337=LINE('',#2129,#469);
#338=LINE('',#2131,#470);
#339=LINE('',#2137,#471);
#340=LINE('',#2139,#472);
#341=LINE('',#2140,#473);
#342=LINE('',#2143,#474);
#343=LINE('',#2144,#475);
#344=LINE('',#2147,#476);
#345=LINE('',#2148,#477);
#346=LINE('',#2151,#478);
#347=LINE('',#2152,#479);
#348=LINE('',#2155,#480);
#349=LINE('',#2156,#481);
#350=LINE('',#2158,#482);
#351=LINE('',#2165,#483);
#352=LINE('',#2167,#484);
#353=VECTOR('',#1427,10.);
#354=VECTOR('',#1430,10.);
#355=VECTOR('',#1433,10.);
#356=VECTOR('',#1436,10.);
#357=VECTOR('',#1439,10.);
#358=VECTOR('',#1440,10.);
#359=VECTOR('',#1441,10.);
#360=VECTOR('',#1446,10.);
#361=VECTOR('',#1449,10.);
#362=VECTOR('',#1454,10.);
#363=VECTOR('',#1455,10.);
#364=VECTOR('',#1456,10.);
#365=VECTOR('',#1457,10.);
#366=VECTOR('',#1462,10.);
#367=VECTOR('',#1467,10.);
#368=VECTOR('',#1468,10.);
#369=VECTOR('',#1469,10.);
#370=VECTOR('',#1474,10.);
#371=VECTOR('',#1479,10.);
#372=VECTOR('',#1480,10.);
#373=VECTOR('',#1481,10.);
#374=VECTOR('',#1484,10.);
#375=VECTOR('',#1485,10.);
#376=VECTOR('',#1486,10.);
#377=VECTOR('',#1489,10.);
#378=VECTOR('',#1494,10.);
#379=VECTOR('',#1495,10.);
#380=VECTOR('',#1496,10.);
#381=VECTOR('',#1497,10.);
#382=VECTOR('',#1498,10.);
#383=VECTOR('',#1499,10.);
#384=VECTOR('',#1502,10.);
#385=VECTOR('',#1507,10.);
#386=VECTOR('',#1508,10.);
#387=VECTOR('',#1513,10.);
#388=VECTOR('',#1516,10.);
#389=VECTOR('',#1519,10.);
#390=VECTOR('',#1520,10.);
#391=VECTOR('',#1521,10.);
#392=VECTOR('',#1522,10.);
#393=VECTOR('',#1523,10.);
#394=VECTOR('',#1526,10.);
#395=VECTOR('',#1529,10.);
#396=VECTOR('',#1532,10.);
#397=VECTOR('',#1535,10.);
#398=VECTOR('',#1538,10.);
#399=VECTOR('',#1541,10.);
#400=VECTOR('',#1548,10.);
#401=VECTOR('',#1551,10.);
#402=VECTOR('',#1554,10.);
#403=VECTOR('',#1555,10.);
#404=VECTOR('',#1560,10.);
#405=VECTOR('',#1563,10.);
#406=VECTOR('',#1564,10.);
#407=VECTOR('',#1567,10.);
#408=VECTOR('',#1572,10.);
#409=VECTOR('',#1575,10.);
#410=VECTOR('',#1578,10.);
#411=VECTOR('',#1581,10.);
#412=VECTOR('',#1588,10.);
#413=VECTOR('',#1591,10.);
#414=VECTOR('',#1594,10.);
#415=VECTOR('',#1599,10.);
#416=VECTOR('',#1604,10.);
#417=VECTOR('',#1605,10.);
#418=VECTOR('',#1606,10.);
#419=VECTOR('',#1609,10.);
#420=VECTOR('',#1614,10.);
#421=VECTOR('',#1615,10.);
#422=VECTOR('',#1616,10.);
#423=VECTOR('',#1617,10.);
#424=VECTOR('',#1618,10.);
#425=VECTOR('',#1619,10.);
#426=VECTOR('',#1620,10.);
#427=VECTOR('',#1621,10.);
#428=VECTOR('',#1622,10.);
#429=VECTOR('',#1623,10.);
#430=VECTOR('',#1624,10.);
#431=VECTOR('',#1625,10.);
#432=VECTOR('',#1626,10.);
#433=VECTOR('',#1629,10.);
#434=VECTOR('',#1632,10.);
#435=VECTOR('',#1635,10.);
#436=VECTOR('',#1638,10.);
#437=VECTOR('',#1641,10.);
#438=VECTOR('',#1644,10.);
#439=VECTOR('',#1651,10.);
#440=VECTOR('',#1658,10.);
#441=VECTOR('',#1659,10.);
#442=VECTOR('',#1662,10.);
#443=VECTOR('',#1663,10.);
#444=VECTOR('',#1668,10.);
#445=VECTOR('',#1671,10.);
#446=VECTOR('',#1674,10.);
#447=VECTOR('',#1679,10.);
#448=VECTOR('',#1682,10.);
#449=VECTOR('',#1685,10.);
#450=VECTOR('',#1688,10.);
#451=VECTOR('',#1693,10.);
#452=VECTOR('',#1696,10.);
#453=VECTOR('',#1699,10.);
#454=VECTOR('',#1702,10.);
#455=VECTOR('',#1703,10.);
#456=VECTOR('',#1706,10.);
#457=VECTOR('',#1713,1.95);
#458=VECTOR('',#1716,1.95);
#459=VECTOR('',#1723,10.);
#460=VECTOR('',#1724,10.);
#461=VECTOR('',#1725,10.);
#462=VECTOR('',#1728,10.);
#463=VECTOR('',#1729,10.);
#464=VECTOR('',#1732,10.);
#465=VECTOR('',#1733,10.);
#466=VECTOR('',#1736,10.);
#467=VECTOR('',#1737,10.);
#468=VECTOR('',#1740,10.);
#469=VECTOR('',#1741,10.);
#470=VECTOR('',#1744,10.);
#471=VECTOR('',#1751,10.);
#472=VECTOR('',#1752,10.);
#473=VECTOR('',#1753,10.);
#474=VECTOR('',#1756,10.);
#475=VECTOR('',#1757,10.);
#476=VECTOR('',#1760,10.);
#477=VECTOR('',#1761,10.);
#478=VECTOR('',#1764,10.);
#479=VECTOR('',#1765,10.);
#480=VECTOR('',#1768,10.);
#481=VECTOR('',#1769,10.);
#482=VECTOR('',#1772,10.);
#483=VECTOR('',#1783,2.);
#484=VECTOR('',#1786,2.);
#485=CIRCLE('',#1306,6.);
#486=CIRCLE('',#1307,6.);
#487=CIRCLE('',#1309,1.);
#488=CIRCLE('',#1311,1.95);
#489=CIRCLE('',#1313,1.);
#490=CIRCLE('',#1314,1.);
#491=CIRCLE('',#1317,1.);
#492=CIRCLE('',#1318,0.250000000000001);
#493=CIRCLE('',#1321,1.);
#494=CIRCLE('',#1322,0.250000000000002);
#495=CIRCLE('',#1326,1.);
#496=CIRCLE('',#1329,1.);
#497=CIRCLE('',#1332,1.);
#498=CIRCLE('',#1333,1.);
#499=CIRCLE('',#1336,1.);
#500=CIRCLE('',#1337,1.);
#501=CIRCLE('',#1338,1.);
#502=CIRCLE('',#1339,1.);
#503=CIRCLE('',#1340,1.);
#504=CIRCLE('',#1341,2.);
#505=CIRCLE('',#1342,2.);
#506=CIRCLE('',#1344,1.);
#507=CIRCLE('',#1347,1.);
#508=CIRCLE('',#1350,1.);
#509=CIRCLE('',#1353,1.);
#510=CIRCLE('',#1356,1.);
#511=CIRCLE('',#1357,1.);
#512=CIRCLE('',#1359,1.);
#513=CIRCLE('',#1361,1.);
#514=CIRCLE('',#1362,1.);
#515=CIRCLE('',#1365,1.);
#516=CIRCLE('',#1366,1.);
#517=CIRCLE('',#1367,1.);
#518=CIRCLE('',#1368,1.);
#519=CIRCLE('',#1369,1.);
#520=CIRCLE('',#1370,1.);
#521=CIRCLE('',#1371,1.);
#522=CIRCLE('',#1372,1.);
#523=CIRCLE('',#1373,1.);
#524=CIRCLE('',#1378,1.);
#525=CIRCLE('',#1380,1.95);
#526=CIRCLE('',#1382,1.);
#527=CIRCLE('',#1383,1.);
#528=CIRCLE('',#1384,1.);
#529=CIRCLE('',#1389,1.95);
#530=CIRCLE('',#1397,1.95);
#531=CIRCLE('',#1408,2.);
#532=CIRCLE('',#1416,2.);
#533=VERTEX_POINT('',#1789);
#534=VERTEX_POINT('',#1790);
#535=VERTEX_POINT('',#1792);
#536=VERTEX_POINT('',#1794);
#537=VERTEX_POINT('',#1796);
#538=VERTEX_POINT('',#1803);
#539=VERTEX_POINT('',#1812);
#540=VERTEX_POINT('',#1814);
#541=VERTEX_POINT('',#1818);
#542=VERTEX_POINT('',#1820);
#543=VERTEX_POINT('',#1823);
#544=VERTEX_POINT('',#1826);
#545=VERTEX_POINT('',#1828);
#546=VERTEX_POINT('',#1830);
#547=VERTEX_POINT('',#1834);
#548=VERTEX_POINT('',#1835);
#549=VERTEX_POINT('',#1837);
#550=VERTEX_POINT('',#1839);
#551=VERTEX_POINT('',#1843);
#552=VERTEX_POINT('',#1845);
#553=VERTEX_POINT('',#1849);
#554=VERTEX_POINT('',#1851);
#555=VERTEX_POINT('',#1855);
#556=VERTEX_POINT('',#1857);
#557=VERTEX_POINT('',#1861);
#558=VERTEX_POINT('',#1862);
#559=VERTEX_POINT('',#1867);
#560=VERTEX_POINT('',#1869);
#561=VERTEX_POINT('',#1873);
#562=VERTEX_POINT('',#1877);
#563=VERTEX_POINT('',#1879);
#564=VERTEX_POINT('',#1881);
#565=VERTEX_POINT('',#1883);
#566=VERTEX_POINT('',#1885);
#567=VERTEX_POINT('',#1889);
#568=VERTEX_POINT('',#1893);
#569=VERTEX_POINT('',#1897);
#570=VERTEX_POINT('',#1898);
#571=VERTEX_POINT('',#1900);
#572=VERTEX_POINT('',#1902);
#573=VERTEX_POINT('',#1906);
#574=VERTEX_POINT('',#1908);
#575=VERTEX_POINT('',#1910);
#576=VERTEX_POINT('',#1912);
#577=VERTEX_POINT('',#1916);
#578=VERTEX_POINT('',#1918);
#579=VERTEX_POINT('',#1920);
#580=VERTEX_POINT('',#1922);
#581=VERTEX_POINT('',#1924);
#582=VERTEX_POINT('',#1926);
#583=VERTEX_POINT('',#1928);
#584=VERTEX_POINT('',#1931);
#585=VERTEX_POINT('',#1933);
#586=VERTEX_POINT('',#1936);
#587=VERTEX_POINT('',#1938);
#588=VERTEX_POINT('',#1941);
#589=VERTEX_POINT('',#1943);
#590=VERTEX_POINT('',#1947);
#591=VERTEX_POINT('',#1951);
#592=VERTEX_POINT('',#1955);
#593=VERTEX_POINT('',#1959);
#594=VERTEX_POINT('',#1965);
#595=VERTEX_POINT('',#1967);
#596=VERTEX_POINT('',#1973);
#597=VERTEX_POINT('',#1975);
#598=VERTEX_POINT('',#1980);
#599=VERTEX_POINT('',#1984);
#600=VERTEX_POINT('',#1986);
#601=VERTEX_POINT('',#1991);
#602=VERTEX_POINT('',#1995);
#603=VERTEX_POINT('',#1999);
#604=VERTEX_POINT('',#2000);
#605=VERTEX_POINT('',#2002);
#606=VERTEX_POINT('',#2004);
#607=VERTEX_POINT('',#2006);
#608=VERTEX_POINT('',#2008);
#609=VERTEX_POINT('',#2011);
#610=VERTEX_POINT('',#2012);
#611=VERTEX_POINT('',#2014);
#612=VERTEX_POINT('',#2016);
#613=VERTEX_POINT('',#2018);
#614=VERTEX_POINT('',#2020);
#615=VERTEX_POINT('',#2023);
#616=VERTEX_POINT('',#2024);
#617=VERTEX_POINT('',#2026);
#618=VERTEX_POINT('',#2028);
#619=VERTEX_POINT('',#2030);
#620=VERTEX_POINT('',#2034);
#621=VERTEX_POINT('',#2035);
#622=VERTEX_POINT('',#2037);
#623=VERTEX_POINT('',#2039);
#624=VERTEX_POINT('',#2041);
#625=VERTEX_POINT('',#2043);
#626=VERTEX_POINT('',#2045);
#627=VERTEX_POINT('',#2047);
#628=VERTEX_POINT('',#2055);
#629=VERTEX_POINT('',#2056);
#630=VERTEX_POINT('',#2061);
#631=VERTEX_POINT('',#2064);
#632=VERTEX_POINT('',#2067);
#633=VERTEX_POINT('',#2069);
#634=VERTEX_POINT('',#2071);
#635=VERTEX_POINT('',#2073);
#636=VERTEX_POINT('',#2075);
#637=VERTEX_POINT('',#2086);
#638=VERTEX_POINT('',#2101);
#639=VERTEX_POINT('',#2109);
#640=VERTEX_POINT('',#2111);
#641=VERTEX_POINT('',#2115);
#642=VERTEX_POINT('',#2119);
#643=VERTEX_POINT('',#2123);
#644=VERTEX_POINT('',#2127);
#645=VERTEX_POINT('',#2133);
#646=VERTEX_POINT('',#2136);
#647=VERTEX_POINT('',#2138);
#648=VERTEX_POINT('',#2142);
#649=VERTEX_POINT('',#2146);
#650=VERTEX_POINT('',#2150);
#651=VERTEX_POINT('',#2154);
#652=VERTEX_POINT('',#2160);
#653=EDGE_CURVE('',#533,#534,#485,.T.);
#654=EDGE_CURVE('',#534,#535,#221,.T.);
#655=EDGE_CURVE('',#535,#536,#486,.T.);
#656=EDGE_CURVE('',#536,#537,#219,.T.);
#657=EDGE_CURVE('',#537,#538,#222,.T.);
#658=EDGE_CURVE('',#538,#533,#220,.T.);
#659=EDGE_CURVE('',#536,#539,#223,.T.);
#660=EDGE_CURVE('',#539,#540,#487,.F.);
#661=EDGE_CURVE('',#540,#537,#224,.T.);
#662=EDGE_CURVE('',#541,#535,#225,.T.);
#663=EDGE_CURVE('',#542,#541,#226,.T.);
#664=EDGE_CURVE('',#539,#542,#227,.T.);
#665=EDGE_CURVE('',#543,#543,#488,.T.);
#666=EDGE_CURVE('',#534,#544,#228,.T.);
#667=EDGE_CURVE('',#545,#544,#489,.T.);
#668=EDGE_CURVE('',#545,#546,#229,.T.);
#669=EDGE_CURVE('',#541,#546,#490,.T.);
#670=EDGE_CURVE('',#547,#548,#230,.F.);
#671=EDGE_CURVE('',#548,#549,#231,.T.);
#672=EDGE_CURVE('',#549,#550,#232,.T.);
#673=EDGE_CURVE('',#550,#547,#233,.T.);
#674=EDGE_CURVE('',#549,#551,#491,.T.);
#675=EDGE_CURVE('',#551,#552,#234,.T.);
#676=EDGE_CURVE('',#552,#550,#492,.T.);
#677=EDGE_CURVE('',#551,#553,#235,.T.);
#678=EDGE_CURVE('',#553,#554,#236,.T.);
#679=EDGE_CURVE('',#554,#552,#237,.T.);
#680=EDGE_CURVE('',#553,#555,#493,.T.);
#681=EDGE_CURVE('',#555,#556,#238,.T.);
#682=EDGE_CURVE('',#556,#554,#494,.T.);
#683=EDGE_CURVE('',#557,#558,#239,.F.);
#684=EDGE_CURVE('',#558,#556,#240,.T.);
#685=EDGE_CURVE('',#555,#557,#241,.T.);
#686=EDGE_CURVE('',#559,#555,#242,.T.);
#687=EDGE_CURVE('',#559,#560,#243,.T.);
#688=EDGE_CURVE('',#557,#560,#244,.T.);
#689=EDGE_CURVE('',#553,#561,#245,.T.);
#690=EDGE_CURVE('',#561,#559,#495,.F.);
#691=EDGE_CURVE('',#562,#551,#246,.T.);
#692=EDGE_CURVE('',#562,#563,#247,.T.);
#693=EDGE_CURVE('',#564,#563,#248,.T.);
#694=EDGE_CURVE('',#565,#564,#249,.T.);
#695=EDGE_CURVE('',#566,#565,#250,.T.);
#696=EDGE_CURVE('',#566,#561,#251,.T.);
#697=EDGE_CURVE('',#549,#567,#252,.T.);
#698=EDGE_CURVE('',#567,#562,#496,.F.);
#699=EDGE_CURVE('',#548,#568,#253,.T.);
#700=EDGE_CURVE('',#568,#567,#254,.T.);
#701=EDGE_CURVE('',#569,#570,#497,.T.);
#702=EDGE_CURVE('',#570,#571,#255,.T.);
#703=EDGE_CURVE('',#571,#572,#498,.F.);
#704=EDGE_CURVE('',#572,#569,#256,.T.);
#705=EDGE_CURVE('',#573,#571,#257,.T.);
#706=EDGE_CURVE('',#574,#570,#258,.T.);
#707=EDGE_CURVE('',#575,#574,#259,.T.);
#708=EDGE_CURVE('',#576,#575,#260,.T.);
#709=EDGE_CURVE('',#573,#576,#261,.T.);
#710=EDGE_CURVE('',#558,#577,#262,.T.);
#711=EDGE_CURVE('',#578,#577,#499,.T.);
#712=EDGE_CURVE('',#578,#579,#263,.T.);
#713=EDGE_CURVE('',#580,#579,#500,.T.);
#714=EDGE_CURVE('',#580,#581,#264,.T.);
#715=EDGE_CURVE('',#582,#581,#501,.T.);
#716=EDGE_CURVE('',#582,#583,#265,.T.);
#717=EDGE_CURVE('',#574,#583,#502,.T.);
#718=EDGE_CURVE('',#569,#584,#266,.T.);
#719=EDGE_CURVE('',#585,#584,#503,.T.);
#720=EDGE_CURVE('',#585,#547,#267,.T.);
#721=EDGE_CURVE('',#586,#586,#504,.T.);
#722=EDGE_CURVE('',#587,#587,#505,.T.);
#723=EDGE_CURVE('',#581,#588,#268,.T.);
#724=EDGE_CURVE('',#588,#589,#506,.F.);
#725=EDGE_CURVE('',#589,#582,#269,.T.);
#726=EDGE_CURVE('',#590,#580,#270,.T.);
#727=EDGE_CURVE('',#590,#588,#271,.T.);
#728=EDGE_CURVE('',#590,#591,#507,.T.);
#729=EDGE_CURVE('',#579,#591,#272,.T.);
#730=EDGE_CURVE('',#592,#578,#273,.T.);
#731=EDGE_CURVE('',#592,#591,#274,.T.);
#732=EDGE_CURVE('',#577,#593,#275,.T.);
#733=EDGE_CURVE('',#593,#592,#508,.F.);
#734=EDGE_CURVE('',#560,#593,#276,.T.);
#735=EDGE_CURVE('',#584,#594,#277,.T.);
#736=EDGE_CURVE('',#594,#595,#509,.F.);
#737=EDGE_CURVE('',#595,#585,#278,.T.);
#738=EDGE_CURVE('',#572,#594,#279,.T.);
#739=EDGE_CURVE('',#596,#564,#510,.T.);
#740=EDGE_CURVE('',#563,#597,#511,.T.);
#741=EDGE_CURVE('',#597,#596,#280,.T.);
#742=EDGE_CURVE('',#595,#568,#281,.T.);
#743=EDGE_CURVE('',#598,#573,#512,.T.);
#744=EDGE_CURVE('',#597,#598,#282,.T.);
#745=EDGE_CURVE('',#565,#599,#513,.T.);
#746=EDGE_CURVE('',#599,#600,#283,.T.);
#747=EDGE_CURVE('',#600,#566,#514,.T.);
#748=EDGE_CURVE('',#589,#600,#284,.T.);
#749=EDGE_CURVE('',#601,#599,#285,.T.);
#750=EDGE_CURVE('',#583,#601,#286,.T.);
#751=EDGE_CURVE('',#596,#602,#287,.T.);
#752=EDGE_CURVE('',#576,#602,#515,.T.);
#753=EDGE_CURVE('',#601,#575,#516,.T.);
#754=EDGE_CURVE('',#603,#604,#288,.T.);
#755=EDGE_CURVE('',#604,#605,#289,.T.);
#756=EDGE_CURVE('',#605,#606,#290,.T.);
#757=EDGE_CURVE('',#606,#607,#291,.T.);
#758=EDGE_CURVE('',#607,#608,#292,.T.);
#759=EDGE_CURVE('',#608,#603,#293,.T.);
#760=EDGE_CURVE('',#609,#610,#294,.T.);
#761=EDGE_CURVE('',#610,#611,#295,.T.);
#762=EDGE_CURVE('',#611,#612,#296,.T.);
#763=EDGE_CURVE('',#612,#613,#297,.T.);
#764=EDGE_CURVE('',#613,#614,#298,.T.);
#765=EDGE_CURVE('',#614,#609,#299,.T.);
#766=EDGE_CURVE('',#615,#616,#300,.T.);
#767=EDGE_CURVE('',#617,#616,#517,.F.);
#768=EDGE_CURVE('',#617,#618,#301,.T.);
#769=EDGE_CURVE('',#619,#618,#518,.F.);
#770=EDGE_CURVE('',#619,#540,#302,.T.);
#771=EDGE_CURVE('',#615,#542,#519,.F.);
#772=EDGE_CURVE('',#620,#621,#303,.T.);
#773=EDGE_CURVE('',#622,#621,#520,.F.);
#774=EDGE_CURVE('',#622,#623,#304,.T.);
#775=EDGE_CURVE('',#624,#623,#521,.F.);
#776=EDGE_CURVE('',#624,#625,#305,.T.);
#777=EDGE_CURVE('',#626,#625,#522,.F.);
#778=EDGE_CURVE('',#626,#627,#306,.T.);
#779=EDGE_CURVE('',#620,#627,#523,.F.);
#780=EDGE_CURVE('',#602,#598,#307,.T.);
#781=EDGE_CURVE('',#628,#629,#524,.T.);
#782=EDGE_CURVE('',#629,#626,#308,.T.);
#783=EDGE_CURVE('',#625,#628,#309,.T.);
#784=EDGE_CURVE('',#630,#629,#310,.T.);
#785=EDGE_CURVE('',#627,#630,#311,.T.);
#786=EDGE_CURVE('',#631,#631,#525,.T.);
#787=EDGE_CURVE('',#628,#632,#312,.T.);
#788=EDGE_CURVE('',#633,#632,#526,.T.);
#789=EDGE_CURVE('',#633,#634,#313,.T.);
#790=EDGE_CURVE('',#635,#634,#527,.T.);
#791=EDGE_CURVE('',#635,#636,#314,.T.);
#792=EDGE_CURVE('',#630,#636,#528,.T.);
#793=EDGE_CURVE('',#636,#620,#315,.T.);
#794=EDGE_CURVE('',#621,#635,#316,.T.);
#795=EDGE_CURVE('',#634,#622,#317,.T.);
#796=EDGE_CURVE('',#623,#633,#318,.T.);
#797=EDGE_CURVE('',#637,#637,#529,.T.);
#798=EDGE_CURVE('',#632,#624,#319,.T.);
#799=EDGE_CURVE('',#538,#619,#320,.T.);
#800=EDGE_CURVE('',#618,#533,#321,.T.);
#801=EDGE_CURVE('',#544,#617,#322,.T.);
#802=EDGE_CURVE('',#616,#545,#323,.T.);
#803=EDGE_CURVE('',#546,#615,#324,.T.);
#804=EDGE_CURVE('',#638,#638,#530,.T.);
#805=EDGE_CURVE('',#638,#543,#325,.T.);
#806=EDGE_CURVE('',#637,#631,#326,.T.);
#807=EDGE_CURVE('',#606,#639,#327,.T.);
#808=EDGE_CURVE('',#639,#640,#328,.T.);
#809=EDGE_CURVE('',#607,#640,#329,.T.);
#810=EDGE_CURVE('',#640,#641,#330,.T.);
#811=EDGE_CURVE('',#608,#641,#331,.T.);
#812=EDGE_CURVE('',#641,#642,#332,.T.);
#813=EDGE_CURVE('',#603,#642,#333,.T.);
#814=EDGE_CURVE('',#642,#643,#334,.T.);
#815=EDGE_CURVE('',#643,#604,#335,.T.);
#816=EDGE_CURVE('',#605,#644,#336,.T.);
#817=EDGE_CURVE('',#644,#639,#337,.T.);
#818=EDGE_CURVE('',#643,#644,#338,.T.);
#819=EDGE_CURVE('',#645,#645,#531,.T.);
#820=EDGE_CURVE('',#612,#646,#339,.T.);
#821=EDGE_CURVE('',#646,#647,#340,.T.);
#822=EDGE_CURVE('',#613,#647,#341,.T.);
#823=EDGE_CURVE('',#647,#648,#342,.T.);
#824=EDGE_CURVE('',#614,#648,#343,.T.);
#825=EDGE_CURVE('',#648,#649,#344,.T.);
#826=EDGE_CURVE('',#609,#649,#345,.T.);
#827=EDGE_CURVE('',#649,#650,#346,.T.);
#828=EDGE_CURVE('',#650,#610,#347,.T.);
#829=EDGE_CURVE('',#611,#651,#348,.T.);
#830=EDGE_CURVE('',#651,#646,#349,.T.);
#831=EDGE_CURVE('',#650,#651,#350,.T.);
#832=EDGE_CURVE('',#652,#652,#532,.T.);
#833=EDGE_CURVE('',#645,#586,#351,.T.);
#834=EDGE_CURVE('',#652,#587,#352,.T.);
#835=ORIENTED_EDGE('',*,*,#653,.T.);
#836=ORIENTED_EDGE('',*,*,#654,.T.);
#837=ORIENTED_EDGE('',*,*,#655,.T.);
#838=ORIENTED_EDGE('',*,*,#656,.T.);
#839=ORIENTED_EDGE('',*,*,#657,.T.);
#840=ORIENTED_EDGE('',*,*,#658,.T.);
#841=ORIENTED_EDGE('',*,*,#656,.F.);
#842=ORIENTED_EDGE('',*,*,#659,.T.);
#843=ORIENTED_EDGE('',*,*,#660,.T.);
#844=ORIENTED_EDGE('',*,*,#661,.T.);
#845=ORIENTED_EDGE('',*,*,#655,.F.);
#846=ORIENTED_EDGE('',*,*,#662,.F.);
#847=ORIENTED_EDGE('',*,*,#663,.F.);
#848=ORIENTED_EDGE('',*,*,#664,.F.);
#849=ORIENTED_EDGE('',*,*,#659,.F.);
#850=ORIENTED_EDGE('',*,*,#665,.T.);
#851=ORIENTED_EDGE('',*,*,#654,.F.);
#852=ORIENTED_EDGE('',*,*,#666,.T.);
#853=ORIENTED_EDGE('',*,*,#667,.F.);
#854=ORIENTED_EDGE('',*,*,#668,.T.);
#855=ORIENTED_EDGE('',*,*,#669,.F.);
#856=ORIENTED_EDGE('',*,*,#662,.T.);
#857=ORIENTED_EDGE('',*,*,#670,.T.);
#858=ORIENTED_EDGE('',*,*,#671,.T.);
#859=ORIENTED_EDGE('',*,*,#672,.T.);
#860=ORIENTED_EDGE('',*,*,#673,.T.);
#861=ORIENTED_EDGE('',*,*,#672,.F.);
#862=ORIENTED_EDGE('',*,*,#674,.T.);
#863=ORIENTED_EDGE('',*,*,#675,.T.);
#864=ORIENTED_EDGE('',*,*,#676,.T.);
#865=ORIENTED_EDGE('',*,*,#675,.F.);
#866=ORIENTED_EDGE('',*,*,#677,.T.);
#867=ORIENTED_EDGE('',*,*,#678,.T.);
#868=ORIENTED_EDGE('',*,*,#679,.T.);
#869=ORIENTED_EDGE('',*,*,#678,.F.);
#870=ORIENTED_EDGE('',*,*,#680,.T.);
#871=ORIENTED_EDGE('',*,*,#681,.T.);
#872=ORIENTED_EDGE('',*,*,#682,.T.);
#873=ORIENTED_EDGE('',*,*,#683,.T.);
#874=ORIENTED_EDGE('',*,*,#684,.T.);
#875=ORIENTED_EDGE('',*,*,#681,.F.);
#876=ORIENTED_EDGE('',*,*,#685,.T.);
#877=ORIENTED_EDGE('',*,*,#685,.F.);
#878=ORIENTED_EDGE('',*,*,#686,.F.);
#879=ORIENTED_EDGE('',*,*,#687,.T.);
#880=ORIENTED_EDGE('',*,*,#688,.F.);
#881=ORIENTED_EDGE('',*,*,#680,.F.);
#882=ORIENTED_EDGE('',*,*,#689,.T.);
#883=ORIENTED_EDGE('',*,*,#690,.T.);
#884=ORIENTED_EDGE('',*,*,#686,.T.);
#885=ORIENTED_EDGE('',*,*,#677,.F.);
#886=ORIENTED_EDGE('',*,*,#691,.F.);
#887=ORIENTED_EDGE('',*,*,#692,.T.);
#888=ORIENTED_EDGE('',*,*,#693,.F.);
#889=ORIENTED_EDGE('',*,*,#694,.F.);
#890=ORIENTED_EDGE('',*,*,#695,.F.);
#891=ORIENTED_EDGE('',*,*,#696,.T.);
#892=ORIENTED_EDGE('',*,*,#689,.F.);
#893=ORIENTED_EDGE('',*,*,#674,.F.);
#894=ORIENTED_EDGE('',*,*,#697,.T.);
#895=ORIENTED_EDGE('',*,*,#698,.T.);
#896=ORIENTED_EDGE('',*,*,#691,.T.);
#897=ORIENTED_EDGE('',*,*,#671,.F.);
#898=ORIENTED_EDGE('',*,*,#699,.T.);
#899=ORIENTED_EDGE('',*,*,#700,.T.);
#900=ORIENTED_EDGE('',*,*,#697,.F.);
#901=ORIENTED_EDGE('',*,*,#701,.T.);
#902=ORIENTED_EDGE('',*,*,#702,.T.);
#903=ORIENTED_EDGE('',*,*,#703,.T.);
#904=ORIENTED_EDGE('',*,*,#704,.T.);
#905=ORIENTED_EDGE('',*,*,#705,.T.);
#906=ORIENTED_EDGE('',*,*,#702,.F.);
#907=ORIENTED_EDGE('',*,*,#706,.F.);
#908=ORIENTED_EDGE('',*,*,#707,.F.);
#909=ORIENTED_EDGE('',*,*,#708,.F.);
#910=ORIENTED_EDGE('',*,*,#709,.F.);
#911=ORIENTED_EDGE('',*,*,#710,.T.);
#912=ORIENTED_EDGE('',*,*,#711,.F.);
#913=ORIENTED_EDGE('',*,*,#712,.T.);
#914=ORIENTED_EDGE('',*,*,#713,.F.);
#915=ORIENTED_EDGE('',*,*,#714,.T.);
#916=ORIENTED_EDGE('',*,*,#715,.F.);
#917=ORIENTED_EDGE('',*,*,#716,.T.);
#918=ORIENTED_EDGE('',*,*,#717,.F.);
#919=ORIENTED_EDGE('',*,*,#706,.T.);
#920=ORIENTED_EDGE('',*,*,#701,.F.);
#921=ORIENTED_EDGE('',*,*,#718,.T.);
#922=ORIENTED_EDGE('',*,*,#719,.F.);
#923=ORIENTED_EDGE('',*,*,#720,.T.);
#924=ORIENTED_EDGE('',*,*,#673,.F.);
#925=ORIENTED_EDGE('',*,*,#676,.F.);
#926=ORIENTED_EDGE('',*,*,#679,.F.);
#927=ORIENTED_EDGE('',*,*,#682,.F.);
#928=ORIENTED_EDGE('',*,*,#684,.F.);
#929=ORIENTED_EDGE('',*,*,#721,.T.);
#930=ORIENTED_EDGE('',*,*,#722,.T.);
#931=ORIENTED_EDGE('',*,*,#715,.T.);
#932=ORIENTED_EDGE('',*,*,#723,.T.);
#933=ORIENTED_EDGE('',*,*,#724,.T.);
#934=ORIENTED_EDGE('',*,*,#725,.T.);
#935=ORIENTED_EDGE('',*,*,#723,.F.);
#936=ORIENTED_EDGE('',*,*,#714,.F.);
#937=ORIENTED_EDGE('',*,*,#726,.F.);
#938=ORIENTED_EDGE('',*,*,#727,.T.);
#939=ORIENTED_EDGE('',*,*,#728,.F.);
#940=ORIENTED_EDGE('',*,*,#726,.T.);
#941=ORIENTED_EDGE('',*,*,#713,.T.);
#942=ORIENTED_EDGE('',*,*,#729,.T.);
#943=ORIENTED_EDGE('',*,*,#729,.F.);
#944=ORIENTED_EDGE('',*,*,#712,.F.);
#945=ORIENTED_EDGE('',*,*,#730,.F.);
#946=ORIENTED_EDGE('',*,*,#731,.T.);
#947=ORIENTED_EDGE('',*,*,#711,.T.);
#948=ORIENTED_EDGE('',*,*,#732,.T.);
#949=ORIENTED_EDGE('',*,*,#733,.T.);
#950=ORIENTED_EDGE('',*,*,#730,.T.);
#951=ORIENTED_EDGE('',*,*,#732,.F.);
#952=ORIENTED_EDGE('',*,*,#710,.F.);
#953=ORIENTED_EDGE('',*,*,#683,.F.);
#954=ORIENTED_EDGE('',*,*,#688,.T.);
#955=ORIENTED_EDGE('',*,*,#734,.T.);
#956=ORIENTED_EDGE('',*,*,#719,.T.);
#957=ORIENTED_EDGE('',*,*,#735,.T.);
#958=ORIENTED_EDGE('',*,*,#736,.T.);
#959=ORIENTED_EDGE('',*,*,#737,.T.);
#960=ORIENTED_EDGE('',*,*,#704,.F.);
#961=ORIENTED_EDGE('',*,*,#738,.T.);
#962=ORIENTED_EDGE('',*,*,#735,.F.);
#963=ORIENTED_EDGE('',*,*,#718,.F.);
#964=ORIENTED_EDGE('',*,*,#739,.T.);
#965=ORIENTED_EDGE('',*,*,#693,.T.);
#966=ORIENTED_EDGE('',*,*,#740,.T.);
#967=ORIENTED_EDGE('',*,*,#741,.T.);
#968=ORIENTED_EDGE('',*,*,#740,.F.);
#969=ORIENTED_EDGE('',*,*,#692,.F.);
#970=ORIENTED_EDGE('',*,*,#698,.F.);
#971=ORIENTED_EDGE('',*,*,#700,.F.);
#972=ORIENTED_EDGE('',*,*,#742,.F.);
#973=ORIENTED_EDGE('',*,*,#736,.F.);
#974=ORIENTED_EDGE('',*,*,#738,.F.);
#975=ORIENTED_EDGE('',*,*,#703,.F.);
#976=ORIENTED_EDGE('',*,*,#705,.F.);
#977=ORIENTED_EDGE('',*,*,#743,.F.);
#978=ORIENTED_EDGE('',*,*,#744,.F.);
#979=ORIENTED_EDGE('',*,*,#745,.T.);
#980=ORIENTED_EDGE('',*,*,#746,.T.);
#981=ORIENTED_EDGE('',*,*,#747,.T.);
#982=ORIENTED_EDGE('',*,*,#695,.T.);
#983=ORIENTED_EDGE('',*,*,#748,.T.);
#984=ORIENTED_EDGE('',*,*,#746,.F.);
#985=ORIENTED_EDGE('',*,*,#749,.F.);
#986=ORIENTED_EDGE('',*,*,#750,.F.);
#987=ORIENTED_EDGE('',*,*,#716,.F.);
#988=ORIENTED_EDGE('',*,*,#725,.F.);
#989=ORIENTED_EDGE('',*,*,#739,.F.);
#990=ORIENTED_EDGE('',*,*,#751,.T.);
#991=ORIENTED_EDGE('',*,*,#752,.F.);
#992=ORIENTED_EDGE('',*,*,#708,.T.);
#993=ORIENTED_EDGE('',*,*,#753,.F.);
#994=ORIENTED_EDGE('',*,*,#749,.T.);
#995=ORIENTED_EDGE('',*,*,#745,.F.);
#996=ORIENTED_EDGE('',*,*,#694,.T.);
#997=ORIENTED_EDGE('',*,*,#754,.T.);
#998=ORIENTED_EDGE('',*,*,#755,.T.);
#999=ORIENTED_EDGE('',*,*,#756,.T.);
#1000=ORIENTED_EDGE('',*,*,#757,.T.);
#1001=ORIENTED_EDGE('',*,*,#758,.T.);
#1002=ORIENTED_EDGE('',*,*,#759,.T.);
#1003=ORIENTED_EDGE('',*,*,#760,.T.);
#1004=ORIENTED_EDGE('',*,*,#761,.T.);
#1005=ORIENTED_EDGE('',*,*,#762,.T.);
#1006=ORIENTED_EDGE('',*,*,#763,.T.);
#1007=ORIENTED_EDGE('',*,*,#764,.T.);
#1008=ORIENTED_EDGE('',*,*,#765,.T.);
#1009=ORIENTED_EDGE('',*,*,#766,.T.);
#1010=ORIENTED_EDGE('',*,*,#767,.F.);
#1011=ORIENTED_EDGE('',*,*,#768,.T.);
#1012=ORIENTED_EDGE('',*,*,#769,.F.);
#1013=ORIENTED_EDGE('',*,*,#770,.T.);
#1014=ORIENTED_EDGE('',*,*,#660,.F.);
#1015=ORIENTED_EDGE('',*,*,#664,.T.);
#1016=ORIENTED_EDGE('',*,*,#771,.F.);
#1017=ORIENTED_EDGE('',*,*,#772,.T.);
#1018=ORIENTED_EDGE('',*,*,#773,.F.);
#1019=ORIENTED_EDGE('',*,*,#774,.T.);
#1020=ORIENTED_EDGE('',*,*,#775,.F.);
#1021=ORIENTED_EDGE('',*,*,#776,.T.);
#1022=ORIENTED_EDGE('',*,*,#777,.F.);
#1023=ORIENTED_EDGE('',*,*,#778,.T.);
#1024=ORIENTED_EDGE('',*,*,#779,.F.);
#1025=ORIENTED_EDGE('',*,*,#753,.T.);
#1026=ORIENTED_EDGE('',*,*,#707,.T.);
#1027=ORIENTED_EDGE('',*,*,#717,.T.);
#1028=ORIENTED_EDGE('',*,*,#750,.T.);
#1029=ORIENTED_EDGE('',*,*,#752,.T.);
#1030=ORIENTED_EDGE('',*,*,#780,.T.);
#1031=ORIENTED_EDGE('',*,*,#743,.T.);
#1032=ORIENTED_EDGE('',*,*,#709,.T.);
#1033=ORIENTED_EDGE('',*,*,#741,.F.);
#1034=ORIENTED_EDGE('',*,*,#744,.T.);
#1035=ORIENTED_EDGE('',*,*,#780,.F.);
#1036=ORIENTED_EDGE('',*,*,#751,.F.);
#1037=ORIENTED_EDGE('',*,*,#781,.T.);
#1038=ORIENTED_EDGE('',*,*,#782,.T.);
#1039=ORIENTED_EDGE('',*,*,#777,.T.);
#1040=ORIENTED_EDGE('',*,*,#783,.T.);
#1041=ORIENTED_EDGE('',*,*,#782,.F.);
#1042=ORIENTED_EDGE('',*,*,#784,.F.);
#1043=ORIENTED_EDGE('',*,*,#785,.F.);
#1044=ORIENTED_EDGE('',*,*,#778,.F.);
#1045=ORIENTED_EDGE('',*,*,#786,.T.);
#1046=ORIENTED_EDGE('',*,*,#781,.F.);
#1047=ORIENTED_EDGE('',*,*,#787,.T.);
#1048=ORIENTED_EDGE('',*,*,#788,.F.);
#1049=ORIENTED_EDGE('',*,*,#789,.T.);
#1050=ORIENTED_EDGE('',*,*,#790,.F.);
#1051=ORIENTED_EDGE('',*,*,#791,.T.);
#1052=ORIENTED_EDGE('',*,*,#792,.F.);
#1053=ORIENTED_EDGE('',*,*,#784,.T.);
#1054=ORIENTED_EDGE('',*,*,#792,.T.);
#1055=ORIENTED_EDGE('',*,*,#793,.T.);
#1056=ORIENTED_EDGE('',*,*,#779,.T.);
#1057=ORIENTED_EDGE('',*,*,#785,.T.);
#1058=ORIENTED_EDGE('',*,*,#793,.F.);
#1059=ORIENTED_EDGE('',*,*,#791,.F.);
#1060=ORIENTED_EDGE('',*,*,#794,.F.);
#1061=ORIENTED_EDGE('',*,*,#772,.F.);
#1062=ORIENTED_EDGE('',*,*,#790,.T.);
#1063=ORIENTED_EDGE('',*,*,#795,.T.);
#1064=ORIENTED_EDGE('',*,*,#773,.T.);
#1065=ORIENTED_EDGE('',*,*,#794,.T.);
#1066=ORIENTED_EDGE('',*,*,#795,.F.);
#1067=ORIENTED_EDGE('',*,*,#789,.F.);
#1068=ORIENTED_EDGE('',*,*,#796,.F.);
#1069=ORIENTED_EDGE('',*,*,#774,.F.);
#1070=ORIENTED_EDGE('',*,*,#797,.T.);
#1071=ORIENTED_EDGE('',*,*,#788,.T.);
#1072=ORIENTED_EDGE('',*,*,#798,.T.);
#1073=ORIENTED_EDGE('',*,*,#775,.T.);
#1074=ORIENTED_EDGE('',*,*,#796,.T.);
#1075=ORIENTED_EDGE('',*,*,#657,.F.);
#1076=ORIENTED_EDGE('',*,*,#661,.F.);
#1077=ORIENTED_EDGE('',*,*,#770,.F.);
#1078=ORIENTED_EDGE('',*,*,#799,.F.);
#1079=ORIENTED_EDGE('',*,*,#658,.F.);
#1080=ORIENTED_EDGE('',*,*,#799,.T.);
#1081=ORIENTED_EDGE('',*,*,#769,.T.);
#1082=ORIENTED_EDGE('',*,*,#800,.T.);
#1083=ORIENTED_EDGE('',*,*,#667,.T.);
#1084=ORIENTED_EDGE('',*,*,#801,.T.);
#1085=ORIENTED_EDGE('',*,*,#767,.T.);
#1086=ORIENTED_EDGE('',*,*,#802,.T.);
#1087=ORIENTED_EDGE('',*,*,#802,.F.);
#1088=ORIENTED_EDGE('',*,*,#766,.F.);
#1089=ORIENTED_EDGE('',*,*,#803,.F.);
#1090=ORIENTED_EDGE('',*,*,#668,.F.);
#1091=ORIENTED_EDGE('',*,*,#669,.T.);
#1092=ORIENTED_EDGE('',*,*,#803,.T.);
#1093=ORIENTED_EDGE('',*,*,#771,.T.);
#1094=ORIENTED_EDGE('',*,*,#663,.T.);
#1095=ORIENTED_EDGE('',*,*,#804,.F.);
#1096=ORIENTED_EDGE('',*,*,#805,.T.);
#1097=ORIENTED_EDGE('',*,*,#665,.F.);
#1098=ORIENTED_EDGE('',*,*,#805,.F.);
#1099=ORIENTED_EDGE('',*,*,#797,.F.);
#1100=ORIENTED_EDGE('',*,*,#806,.T.);
#1101=ORIENTED_EDGE('',*,*,#786,.F.);
#1102=ORIENTED_EDGE('',*,*,#806,.F.);
#1103=ORIENTED_EDGE('',*,*,#783,.F.);
#1104=ORIENTED_EDGE('',*,*,#776,.F.);
#1105=ORIENTED_EDGE('',*,*,#798,.F.);
#1106=ORIENTED_EDGE('',*,*,#787,.F.);
#1107=ORIENTED_EDGE('',*,*,#653,.F.);
#1108=ORIENTED_EDGE('',*,*,#800,.F.);
#1109=ORIENTED_EDGE('',*,*,#768,.F.);
#1110=ORIENTED_EDGE('',*,*,#801,.F.);
#1111=ORIENTED_EDGE('',*,*,#666,.F.);
#1112=ORIENTED_EDGE('',*,*,#804,.T.);
#1113=ORIENTED_EDGE('',*,*,#757,.F.);
#1114=ORIENTED_EDGE('',*,*,#807,.T.);
#1115=ORIENTED_EDGE('',*,*,#808,.T.);
#1116=ORIENTED_EDGE('',*,*,#809,.F.);
#1117=ORIENTED_EDGE('',*,*,#758,.F.);
#1118=ORIENTED_EDGE('',*,*,#809,.T.);
#1119=ORIENTED_EDGE('',*,*,#810,.T.);
#1120=ORIENTED_EDGE('',*,*,#811,.F.);
#1121=ORIENTED_EDGE('',*,*,#759,.F.);
#1122=ORIENTED_EDGE('',*,*,#811,.T.);
#1123=ORIENTED_EDGE('',*,*,#812,.T.);
#1124=ORIENTED_EDGE('',*,*,#813,.F.);
#1125=ORIENTED_EDGE('',*,*,#754,.F.);
#1126=ORIENTED_EDGE('',*,*,#813,.T.);
#1127=ORIENTED_EDGE('',*,*,#814,.T.);
#1128=ORIENTED_EDGE('',*,*,#815,.T.);
#1129=ORIENTED_EDGE('',*,*,#756,.F.);
#1130=ORIENTED_EDGE('',*,*,#816,.T.);
#1131=ORIENTED_EDGE('',*,*,#817,.T.);
#1132=ORIENTED_EDGE('',*,*,#807,.F.);
#1133=ORIENTED_EDGE('',*,*,#755,.F.);
#1134=ORIENTED_EDGE('',*,*,#815,.F.);
#1135=ORIENTED_EDGE('',*,*,#818,.T.);
#1136=ORIENTED_EDGE('',*,*,#816,.F.);
#1137=ORIENTED_EDGE('',*,*,#818,.F.);
#1138=ORIENTED_EDGE('',*,*,#814,.F.);
#1139=ORIENTED_EDGE('',*,*,#812,.F.);
#1140=ORIENTED_EDGE('',*,*,#810,.F.);
#1141=ORIENTED_EDGE('',*,*,#808,.F.);
#1142=ORIENTED_EDGE('',*,*,#817,.F.);
#1143=ORIENTED_EDGE('',*,*,#819,.F.);
#1144=ORIENTED_EDGE('',*,*,#763,.F.);
#1145=ORIENTED_EDGE('',*,*,#820,.T.);
#1146=ORIENTED_EDGE('',*,*,#821,.T.);
#1147=ORIENTED_EDGE('',*,*,#822,.F.);
#1148=ORIENTED_EDGE('',*,*,#764,.F.);
#1149=ORIENTED_EDGE('',*,*,#822,.T.);
#1150=ORIENTED_EDGE('',*,*,#823,.T.);
#1151=ORIENTED_EDGE('',*,*,#824,.F.);
#1152=ORIENTED_EDGE('',*,*,#765,.F.);
#1153=ORIENTED_EDGE('',*,*,#824,.T.);
#1154=ORIENTED_EDGE('',*,*,#825,.T.);
#1155=ORIENTED_EDGE('',*,*,#826,.F.);
#1156=ORIENTED_EDGE('',*,*,#760,.F.);
#1157=ORIENTED_EDGE('',*,*,#826,.T.);
#1158=ORIENTED_EDGE('',*,*,#827,.T.);
#1159=ORIENTED_EDGE('',*,*,#828,.T.);
#1160=ORIENTED_EDGE('',*,*,#762,.F.);
#1161=ORIENTED_EDGE('',*,*,#829,.T.);
#1162=ORIENTED_EDGE('',*,*,#830,.T.);
#1163=ORIENTED_EDGE('',*,*,#820,.F.);
#1164=ORIENTED_EDGE('',*,*,#761,.F.);
#1165=ORIENTED_EDGE('',*,*,#828,.F.);
#1166=ORIENTED_EDGE('',*,*,#831,.T.);
#1167=ORIENTED_EDGE('',*,*,#829,.F.);
#1168=ORIENTED_EDGE('',*,*,#831,.F.);
#1169=ORIENTED_EDGE('',*,*,#827,.F.);
#1170=ORIENTED_EDGE('',*,*,#825,.F.);
#1171=ORIENTED_EDGE('',*,*,#823,.F.);
#1172=ORIENTED_EDGE('',*,*,#821,.F.);
#1173=ORIENTED_EDGE('',*,*,#830,.F.);
#1174=ORIENTED_EDGE('',*,*,#832,.F.);
#1175=ORIENTED_EDGE('',*,*,#728,.T.);
#1176=ORIENTED_EDGE('',*,*,#731,.F.);
#1177=ORIENTED_EDGE('',*,*,#733,.F.);
#1178=ORIENTED_EDGE('',*,*,#734,.F.);
#1179=ORIENTED_EDGE('',*,*,#687,.F.);
#1180=ORIENTED_EDGE('',*,*,#690,.F.);
#1181=ORIENTED_EDGE('',*,*,#696,.F.);
#1182=ORIENTED_EDGE('',*,*,#747,.F.);
#1183=ORIENTED_EDGE('',*,*,#748,.F.);
#1184=ORIENTED_EDGE('',*,*,#724,.F.);
#1185=ORIENTED_EDGE('',*,*,#727,.F.);
#1186=ORIENTED_EDGE('',*,*,#737,.F.);
#1187=ORIENTED_EDGE('',*,*,#742,.T.);
#1188=ORIENTED_EDGE('',*,*,#699,.F.);
#1189=ORIENTED_EDGE('',*,*,#670,.F.);
#1190=ORIENTED_EDGE('',*,*,#720,.F.);
#1191=ORIENTED_EDGE('',*,*,#819,.T.);
#1192=ORIENTED_EDGE('',*,*,#833,.T.);
#1193=ORIENTED_EDGE('',*,*,#721,.F.);
#1194=ORIENTED_EDGE('',*,*,#833,.F.);
#1195=ORIENTED_EDGE('',*,*,#832,.T.);
#1196=ORIENTED_EDGE('',*,*,#834,.T.);
#1197=ORIENTED_EDGE('',*,*,#722,.F.);
#1198=ORIENTED_EDGE('',*,*,#834,.F.);
#1199=CYLINDRICAL_SURFACE('',#1305,6.);
#1200=CYLINDRICAL_SURFACE('',#1308,1.);
#1201=CYLINDRICAL_SURFACE('',#1325,1.);
#1202=CYLINDRICAL_SURFACE('',#1328,1.);
#1203=CYLINDRICAL_SURFACE('',#1331,1.);
#1204=CYLINDRICAL_SURFACE('',#1343,1.);
#1205=CYLINDRICAL_SURFACE('',#1346,1.);
#1206=CYLINDRICAL_SURFACE('',#1349,1.);
#1207=CYLINDRICAL_SURFACE('',#1352,1.);
#1208=CYLINDRICAL_SURFACE('',#1355,1.);
#1209=CYLINDRICAL_SURFACE('',#1360,1.);
#1210=CYLINDRICAL_SURFACE('',#1374,1.);
#1211=CYLINDRICAL_SURFACE('',#1375,1.);
#1212=CYLINDRICAL_SURFACE('',#1377,1.);
#1213=CYLINDRICAL_SURFACE('',#1385,1.);
#1214=CYLINDRICAL_SURFACE('',#1387,1.);
#1215=CYLINDRICAL_SURFACE('',#1390,1.);
#1216=CYLINDRICAL_SURFACE('',#1392,1.);
#1217=CYLINDRICAL_SURFACE('',#1393,1.);
#1218=CYLINDRICAL_SURFACE('',#1395,1.);
#1219=CYLINDRICAL_SURFACE('',#1396,1.95);
#1220=CYLINDRICAL_SURFACE('',#1398,1.95);
#1221=CYLINDRICAL_SURFACE('',#1419,2.);
#1222=CYLINDRICAL_SURFACE('',#1420,2.);
#1223=ADVANCED_FACE('',(#71),#1199,.T.);
#1224=ADVANCED_FACE('',(#72),#1200,.T.);
#1225=ADVANCED_FACE('',(#73,#17),#29,.T.);
#1226=ADVANCED_FACE('',(#74),#30,.T.);
#1227=ADVANCED_FACE('',(#75),#31,.T.);
#1228=ADVANCED_FACE('',(#76),#15,.T.);
#1229=ADVANCED_FACE('',(#77),#32,.T.);
#1230=ADVANCED_FACE('',(#78),#16,.T.);
#1231=ADVANCED_FACE('',(#79),#33,.T.);
#1232=ADVANCED_FACE('',(#80),#34,.F.);
#1233=ADVANCED_FACE('',(#81),#1201,.T.);
#1234=ADVANCED_FACE('',(#82),#35,.F.);
#1235=ADVANCED_FACE('',(#83),#1202,.T.);
#1236=ADVANCED_FACE('',(#84),#36,.F.);
#1237=ADVANCED_FACE('',(#85),#1203,.T.);
#1238=ADVANCED_FACE('',(#86),#37,.F.);
#1239=ADVANCED_FACE('',(#87,#18,#19),#38,.T.);
#1240=ADVANCED_FACE('',(#88),#1204,.T.);
#1241=ADVANCED_FACE('',(#89),#39,.F.);
#1242=ADVANCED_FACE('',(#90),#1205,.F.);
#1243=ADVANCED_FACE('',(#91),#40,.F.);
#1244=ADVANCED_FACE('',(#92),#1206,.T.);
#1245=ADVANCED_FACE('',(#93),#41,.F.);
#1246=ADVANCED_FACE('',(#94),#1207,.T.);
#1247=ADVANCED_FACE('',(#95),#42,.F.);
#1248=ADVANCED_FACE('',(#96),#1208,.T.);
#1249=ADVANCED_FACE('',(#97),#43,.F.);
#1250=ADVANCED_FACE('',(#98),#1209,.T.);
#1251=ADVANCED_FACE('',(#99),#44,.F.);
#1252=ADVANCED_FACE('',(#100,#20,#21,#22,#23),#45,.F.);
#1253=ADVANCED_FACE('',(#101),#1210,.T.);
#1254=ADVANCED_FACE('',(#102),#1211,.T.);
#1255=ADVANCED_FACE('',(#103),#46,.F.);
#1256=ADVANCED_FACE('',(#104),#1212,.T.);
#1257=ADVANCED_FACE('',(#105,#24),#47,.T.);
#1258=ADVANCED_FACE('',(#106),#48,.T.);
#1259=ADVANCED_FACE('',(#107),#1213,.T.);
#1260=ADVANCED_FACE('',(#108),#49,.T.);
#1261=ADVANCED_FACE('',(#109),#1214,.T.);
#1262=ADVANCED_FACE('',(#110,#25),#50,.T.);
#1263=ADVANCED_FACE('',(#111),#1215,.T.);
#1264=ADVANCED_FACE('',(#112),#51,.T.);
#1265=ADVANCED_FACE('',(#113),#1216,.T.);
#1266=ADVANCED_FACE('',(#114),#1217,.T.);
#1267=ADVANCED_FACE('',(#115),#52,.T.);
#1268=ADVANCED_FACE('',(#116),#1218,.T.);
#1269=ADVANCED_FACE('',(#117),#1219,.F.);
#1270=ADVANCED_FACE('',(#118),#1220,.F.);
#1271=ADVANCED_FACE('',(#119),#53,.T.);
#1272=ADVANCED_FACE('',(#120,#26),#54,.T.);
#1273=ADVANCED_FACE('',(#121),#55,.F.);
#1274=ADVANCED_FACE('',(#122),#56,.F.);
#1275=ADVANCED_FACE('',(#123),#57,.F.);
#1276=ADVANCED_FACE('',(#124),#58,.F.);
#1277=ADVANCED_FACE('',(#125),#59,.F.);
#1278=ADVANCED_FACE('',(#126),#60,.F.);
#1279=ADVANCED_FACE('',(#127,#27),#61,.F.);
#1280=ADVANCED_FACE('',(#128),#62,.F.);
#1281=ADVANCED_FACE('',(#129),#63,.F.);
#1282=ADVANCED_FACE('',(#130),#64,.F.);
#1283=ADVANCED_FACE('',(#131),#65,.F.);
#1284=ADVANCED_FACE('',(#132),#66,.F.);
#1285=ADVANCED_FACE('',(#133),#67,.F.);
#1286=ADVANCED_FACE('',(#134,#28),#68,.F.);
#1287=ADVANCED_FACE('',(#135),#69,.F.);
#1288=ADVANCED_FACE('',(#136),#70,.F.);
#1289=ADVANCED_FACE('',(#137),#1221,.F.);
#1290=ADVANCED_FACE('',(#138),#1222,.F.);
#1291=CLOSED_SHELL('',(#1223,#1224,#1225,#1226,#1227,#1228,#1229,#1230,
#1231,#1232,#1233,#1234,#1235,#1236,#1237,#1238,#1239,#1240,#1241,#1242,
#1243,#1244,#1245,#1246,#1247,#1248,#1249,#1250,#1251,#1252,#1253,#1254,
#1255,#1256,#1257,#1258,#1259,#1260,#1261,#1262,#1263,#1264,#1265,#1266,
#1267,#1268,#1269,#1270,#1271,#1272,#1273,#1274,#1275,#1276,#1277,#1278,
#1279,#1280,#1281,#1282,#1283,#1284,#1285,#1286,#1287,#1288,#1289,#1290));
#1292=DERIVED_UNIT_ELEMENT(#1294,1.);
#1293=DERIVED_UNIT_ELEMENT(#2173,-3.);
#1294=(
MASS_UNIT()
NAMED_UNIT(*)
SI_UNIT(.KILO.,.GRAM.)
);
#1295=DERIVED_UNIT((#1292,#1293));
#1296=MEASURE_REPRESENTATION_ITEM('density measure',
POSITIVE_RATIO_MEASURE(7850.),#1295);
#1297=PROPERTY_DEFINITION_REPRESENTATION(#1302,#1299);
#1298=PROPERTY_DEFINITION_REPRESENTATION(#1303,#1300);
#1299=REPRESENTATION('material name',(#1301),#2170);
#1300=REPRESENTATION('density',(#1296),#2170);
#1301=DESCRIPTIVE_REPRESENTATION_ITEM('Steel','Steel');
#1302=PROPERTY_DEFINITION('material property','material name',#2180);
#1303=PROPERTY_DEFINITION('material property','density of part',#2180);
#1304=AXIS2_PLACEMENT_3D('',#1787,#1421,#1422);
#1305=AXIS2_PLACEMENT_3D('',#1788,#1423,#1424);
#1306=AXIS2_PLACEMENT_3D('',#1791,#1425,#1426);
#1307=AXIS2_PLACEMENT_3D('',#1795,#1428,#1429);
#1308=AXIS2_PLACEMENT_3D('',#1811,#1431,#1432);
#1309=AXIS2_PLACEMENT_3D('',#1815,#1434,#1435);
#1310=AXIS2_PLACEMENT_3D('',#1817,#1437,#1438);
#1311=AXIS2_PLACEMENT_3D('',#1824,#1442,#1443);
#1312=AXIS2_PLACEMENT_3D('',#1825,#1444,#1445);
#1313=AXIS2_PLACEMENT_3D('',#1829,#1447,#1448);
#1314=AXIS2_PLACEMENT_3D('',#1832,#1450,#1451);
#1315=AXIS2_PLACEMENT_3D('',#1833,#1452,#1453);
#1316=AXIS2_PLACEMENT_3D('',#1842,#1458,#1459);
#1317=AXIS2_PLACEMENT_3D('',#1844,#1460,#1461);
#1318=AXIS2_PLACEMENT_3D('',#1847,#1463,#1464);
#1319=AXIS2_PLACEMENT_3D('',#1848,#1465,#1466);
#1320=AXIS2_PLACEMENT_3D('',#1854,#1470,#1471);
#1321=AXIS2_PLACEMENT_3D('',#1856,#1472,#1473);
#1322=AXIS2_PLACEMENT_3D('',#1859,#1475,#1476);
#1323=AXIS2_PLACEMENT_3D('',#1860,#1477,#1478);
#1324=AXIS2_PLACEMENT_3D('',#1866,#1482,#1483);
#1325=AXIS2_PLACEMENT_3D('',#1872,#1487,#1488);
#1326=AXIS2_PLACEMENT_3D('',#1875,#1490,#1491);
#1327=AXIS2_PLACEMENT_3D('',#1876,#1492,#1493);
#1328=AXIS2_PLACEMENT_3D('',#1888,#1500,#1501);
#1329=AXIS2_PLACEMENT_3D('',#1891,#1503,#1504);
#1330=AXIS2_PLACEMENT_3D('',#1892,#1505,#1506);
#1331=AXIS2_PLACEMENT_3D('',#1896,#1509,#1510);
#1332=AXIS2_PLACEMENT_3D('',#1899,#1511,#1512);
#1333=AXIS2_PLACEMENT_3D('',#1903,#1514,#1515);
#1334=AXIS2_PLACEMENT_3D('',#1905,#1517,#1518);
#1335=AXIS2_PLACEMENT_3D('',#1915,#1524,#1525);
#1336=AXIS2_PLACEMENT_3D('',#1919,#1527,#1528);
#1337=AXIS2_PLACEMENT_3D('',#1923,#1530,#1531);
#1338=AXIS2_PLACEMENT_3D('',#1927,#1533,#1534);
#1339=AXIS2_PLACEMENT_3D('',#1930,#1536,#1537);
#1340=AXIS2_PLACEMENT_3D('',#1934,#1539,#1540);
#1341=AXIS2_PLACEMENT_3D('',#1937,#1542,#1543);
#1342=AXIS2_PLACEMENT_3D('',#1939,#1544,#1545);
#1343=AXIS2_PLACEMENT_3D('',#1940,#1546,#1547);
#1344=AXIS2_PLACEMENT_3D('',#1944,#1549,#1550);
#1345=AXIS2_PLACEMENT_3D('',#1946,#1552,#1553);
#1346=AXIS2_PLACEMENT_3D('',#1950,#1556,#1557);
#1347=AXIS2_PLACEMENT_3D('',#1952,#1558,#1559);
#1348=AXIS2_PLACEMENT_3D('',#1954,#1561,#1562);
#1349=AXIS2_PLACEMENT_3D('',#1958,#1565,#1566);
#1350=AXIS2_PLACEMENT_3D('',#1961,#1568,#1569);
#1351=AXIS2_PLACEMENT_3D('',#1962,#1570,#1571);
#1352=AXIS2_PLACEMENT_3D('',#1964,#1573,#1574);
#1353=AXIS2_PLACEMENT_3D('',#1968,#1576,#1577);
#1354=AXIS2_PLACEMENT_3D('',#1970,#1579,#1580);
#1355=AXIS2_PLACEMENT_3D('',#1972,#1582,#1583);
#1356=AXIS2_PLACEMENT_3D('',#1974,#1584,#1585);
#1357=AXIS2_PLACEMENT_3D('',#1976,#1586,#1587);
#1358=AXIS2_PLACEMENT_3D('',#1978,#1589,#1590);
#1359=AXIS2_PLACEMENT_3D('',#1981,#1592,#1593);
#1360=AXIS2_PLACEMENT_3D('',#1983,#1595,#1596);
#1361=AXIS2_PLACEMENT_3D('',#1985,#1597,#1598);
#1362=AXIS2_PLACEMENT_3D('',#1988,#1600,#1601);
#1363=AXIS2_PLACEMENT_3D('',#1989,#1602,#1603);
#1364=AXIS2_PLACEMENT_3D('',#1994,#1607,#1608);
#1365=AXIS2_PLACEMENT_3D('',#1997,#1610,#1611);
#1366=AXIS2_PLACEMENT_3D('',#1998,#1612,#1613);
#1367=AXIS2_PLACEMENT_3D('',#2027,#1627,#1628);
#1368=AXIS2_PLACEMENT_3D('',#2031,#1630,#1631);
#1369=AXIS2_PLACEMENT_3D('',#2033,#1633,#1634);
#1370=AXIS2_PLACEMENT_3D('',#2038,#1636,#1637);
#1371=AXIS2_PLACEMENT_3D('',#2042,#1639,#1640);
#1372=AXIS2_PLACEMENT_3D('',#2046,#1642,#1643);
#1373=AXIS2_PLACEMENT_3D('',#2049,#1645,#1646);
#1374=AXIS2_PLACEMENT_3D('',#2050,#1647,#1648);
#1375=AXIS2_PLACEMENT_3D('',#2051,#1649,#1650);
#1376=AXIS2_PLACEMENT_3D('',#2053,#1652,#1653);
#1377=AXIS2_PLACEMENT_3D('',#2054,#1654,#1655);
#1378=AXIS2_PLACEMENT_3D('',#2057,#1656,#1657);
#1379=AXIS2_PLACEMENT_3D('',#2060,#1660,#1661);
#1380=AXIS2_PLACEMENT_3D('',#2065,#1664,#1665);
#1381=AXIS2_PLACEMENT_3D('',#2066,#1666,#1667);
#1382=AXIS2_PLACEMENT_3D('',#2070,#1669,#1670);
#1383=AXIS2_PLACEMENT_3D('',#2074,#1672,#1673);
#1384=AXIS2_PLACEMENT_3D('',#2077,#1675,#1676);
#1385=AXIS2_PLACEMENT_3D('',#2078,#1677,#1678);
#1386=AXIS2_PLACEMENT_3D('',#2080,#1680,#1681);
#1387=AXIS2_PLACEMENT_3D('',#2082,#1683,#1684);
#1388=AXIS2_PLACEMENT_3D('',#2084,#1686,#1687);
#1389=AXIS2_PLACEMENT_3D('',#2087,#1689,#1690);
#1390=AXIS2_PLACEMENT_3D('',#2088,#1691,#1692);
#1391=AXIS2_PLACEMENT_3D('',#2090,#1694,#1695);
#1392=AXIS2_PLACEMENT_3D('',#2092,#1697,#1698);
#1393=AXIS2_PLACEMENT_3D('',#2094,#1700,#1701);
#1394=AXIS2_PLACEMENT_3D('',#2097,#1704,#1705);
#1395=AXIS2_PLACEMENT_3D('',#2099,#1707,#1708);
#1396=AXIS2_PLACEMENT_3D('',#2100,#1709,#1710);
#1397=AXIS2_PLACEMENT_3D('',#2102,#1711,#1712);
#1398=AXIS2_PLACEMENT_3D('',#2104,#1714,#1715);
#1399=AXIS2_PLACEMENT_3D('',#2106,#1717,#1718);
#1400=AXIS2_PLACEMENT_3D('',#2107,#1719,#1720);
#1401=AXIS2_PLACEMENT_3D('',#2108,#1721,#1722);
#1402=AXIS2_PLACEMENT_3D('',#2114,#1726,#1727);
#1403=AXIS2_PLACEMENT_3D('',#2118,#1730,#1731);
#1404=AXIS2_PLACEMENT_3D('',#2122,#1734,#1735);
#1405=AXIS2_PLACEMENT_3D('',#2126,#1738,#1739);
#1406=AXIS2_PLACEMENT_3D('',#2130,#1742,#1743);
#1407=AXIS2_PLACEMENT_3D('',#2132,#1745,#1746);
#1408=AXIS2_PLACEMENT_3D('',#2134,#1747,#1748);
#1409=AXIS2_PLACEMENT_3D('',#2135,#1749,#1750);
#1410=AXIS2_PLACEMENT_3D('',#2141,#1754,#1755);
#1411=AXIS2_PLACEMENT_3D('',#2145,#1758,#1759);
#1412=AXIS2_PLACEMENT_3D('',#2149,#1762,#1763);
#1413=AXIS2_PLACEMENT_3D('',#2153,#1766,#1767);
#1414=AXIS2_PLACEMENT_3D('',#2157,#1770,#1771);
#1415=AXIS2_PLACEMENT_3D('',#2159,#1773,#1774);
#1416=AXIS2_PLACEMENT_3D('',#2161,#1775,#1776);
#1417=AXIS2_PLACEMENT_3D('',#2162,#1777,#1778);
#1418=AXIS2_PLACEMENT_3D('',#2163,#1779,#1780);
#1419=AXIS2_PLACEMENT_3D('',#2164,#1781,#1782);
#1420=AXIS2_PLACEMENT_3D('',#2166,#1784,#1785);
#1421=DIRECTION('axis',(0.,0.,1.));
#1422=DIRECTION('refdir',(1.,0.,0.));
#1423=DIRECTION('center_axis',(0.,-1.,0.));
#1424=DIRECTION('ref_axis',(0.707106781186548,0.,-0.707106781186547));
#1425=DIRECTION('center_axis',(0.,1.,0.));
#1426=DIRECTION('ref_axis',(0.707106781186548,0.,-0.707106781186547));
#1427=DIRECTION('',(0.,1.,0.));
#1428=DIRECTION('center_axis',(0.,-1.,0.));
#1429=DIRECTION('ref_axis',(0.707106781186548,0.,-0.707106781186547));
#1430=DIRECTION('',(0.,-1.,0.));
#1431=DIRECTION('center_axis',(0.,0.,-1.));
#1432=DIRECTION('ref_axis',(0.707106781186551,0.707106781186544,0.));
#1433=DIRECTION('',(0.,0.,1.));
#1434=DIRECTION('center_axis',(0.,0.,1.));
#1435=DIRECTION('ref_axis',(0.707106781186551,0.707106781186544,0.));
#1436=DIRECTION('',(0.,0.,-1.));
#1437=DIRECTION('center_axis',(0.,1.,0.));
#1438=DIRECTION('ref_axis',(1.,0.,0.));
#1439=DIRECTION('',(1.,0.,0.));
#1440=DIRECTION('',(0.,0.,-1.));
#1441=DIRECTION('',(-1.,0.,0.));
#1442=DIRECTION('center_axis',(0.,-1.,0.));
#1443=DIRECTION('ref_axis',(1.,0.,0.));
#1444=DIRECTION('center_axis',(0.,0.,-1.));
#1445=DIRECTION('ref_axis',(-1.,0.,0.));
#1446=DIRECTION('',(-1.,0.,0.));
#1447=DIRECTION('center_axis',(0.,0.,1.));
#1448=DIRECTION('ref_axis',(-0.707106781186549,-0.707106781186546,0.));
#1449=DIRECTION('',(0.,1.,0.));
#1450=DIRECTION('center_axis',(0.,0.,1.));
#1451=DIRECTION('ref_axis',(-0.707106781186549,0.707106781186546,0.));
#1452=DIRECTION('center_axis',(-0.707106781186547,0.,0.707106781186548));
#1453=DIRECTION('ref_axis',(0.707106781186548,0.,0.707106781186547));
#1454=DIRECTION('',(0.707106781186548,0.,0.707106781186547));
#1455=DIRECTION('',(0.,-1.,0.));
#1456=DIRECTION('',(0.707106781186548,5.23364152894591E-16,0.707106781186547));
#1457=DIRECTION('',(0.,1.,0.));
#1458=DIRECTION('center_axis',(0.,0.,-1.));
#1459=DIRECTION('ref_axis',(-0.707106781186547,-0.707106781186548,0.));
#1460=DIRECTION('center_axis',(0.,0.,1.));
#1461=DIRECTION('ref_axis',(-0.707106781186547,-0.707106781186548,0.));
#1462=DIRECTION('',(0.,0.707106781186547,0.707106781186548));
#1463=DIRECTION('center_axis',(0.,0.,-1.));
#1464=DIRECTION('ref_axis',(-0.707106781186547,-0.707106781186549,0.));
#1465=DIRECTION('center_axis',(0.,-0.707106781186547,0.707106781186548));
#1466=DIRECTION('ref_axis',(1.,0.,0.));
#1467=DIRECTION('',(1.,0.,0.));
#1468=DIRECTION('',(0.,0.707106781186548,0.707106781186547));
#1469=DIRECTION('',(-1.,0.,0.));
#1470=DIRECTION('center_axis',(0.,0.,-1.));
#1471=DIRECTION('ref_axis',(0.707106781186549,-0.707106781186546,0.));
#1472=DIRECTION('center_axis',(0.,0.,1.));
#1473=DIRECTION('ref_axis',(0.707106781186549,-0.707106781186546,0.));
#1474=DIRECTION('',(-0.707106781186546,0.,0.707106781186549));
#1475=DIRECTION('center_axis',(0.,0.,-1.));
#1476=DIRECTION('ref_axis',(0.707106781186549,-0.707106781186546,0.));
#1477=DIRECTION('center_axis',(0.707106781186547,0.,0.707106781186548));
#1478=DIRECTION('ref_axis',(0.707106781186548,0.,-0.707106781186547));
#1479=DIRECTION('',(0.707106781186548,0.,-0.707106781186547));
#1480=DIRECTION('',(0.,-1.,0.));
#1481=DIRECTION('',(0.,1.,0.));
#1482=DIRECTION('center_axis',(-1.,0.,0.));
#1483=DIRECTION('ref_axis',(0.,1.,0.));
#1484=DIRECTION('',(0.,0.,1.));
#1485=DIRECTION('',(0.,1.,0.));
#1486=DIRECTION('',(0.,0.,-1.));
#1487=DIRECTION('center_axis',(0.,0.,-1.));
#1488=DIRECTION('ref_axis',(0.707106781186549,-0.707106781186546,0.));
#1489=DIRECTION('',(0.,0.,-1.));
#1490=DIRECTION('center_axis',(0.,0.,-1.));
#1491=DIRECTION('ref_axis',(0.707106781186549,-0.707106781186546,0.));
#1492=DIRECTION('center_axis',(0.,1.,0.));
#1493=DIRECTION('ref_axis',(1.,0.,0.));
#1494=DIRECTION('',(0.,0.,1.));
#1495=DIRECTION('',(-1.,0.,0.));
#1496=DIRECTION('',(0.,0.,1.));
#1497=DIRECTION('',(-1.,0.,0.));
#1498=DIRECTION('',(0.,0.,-1.));
#1499=DIRECTION('',(-1.,0.,0.));
#1500=DIRECTION('center_axis',(0.,0.,-1.));
#1501=DIRECTION('ref_axis',(-0.707106781186547,-0.707106781186548,0.));
#1502=DIRECTION('',(0.,0.,-1.));
#1503=DIRECTION('center_axis',(0.,0.,-1.));
#1504=DIRECTION('ref_axis',(-0.707106781186547,-0.707106781186548,0.));
#1505=DIRECTION('center_axis',(1.,0.,0.));
#1506=DIRECTION('ref_axis',(0.,-1.,0.));
#1507=DIRECTION('',(0.,0.,-1.));
#1508=DIRECTION('',(0.,-1.,0.));
#1509=DIRECTION('center_axis',(0.,0.,-1.));
#1510=DIRECTION('ref_axis',(-0.707106781186549,0.707106781186546,0.));
#1511=DIRECTION('center_axis',(0.,0.,-1.));
#1512=DIRECTION('ref_axis',(-0.707106781186549,0.707106781186546,0.));
#1513=DIRECTION('',(0.,0.,-1.));
#1514=DIRECTION('center_axis',(0.,0.,-1.));
#1515=DIRECTION('ref_axis',(-0.707106781186549,0.707106781186546,0.));
#1516=DIRECTION('',(0.,0.,1.));
#1517=DIRECTION('center_axis',(0.,-1.,0.));
#1518=DIRECTION('ref_axis',(-1.,0.,0.));
#1519=DIRECTION('',(1.,0.,0.));
#1520=DIRECTION('',(-1.,0.,0.));
#1521=DIRECTION('',(0.,0.,1.));
#1522=DIRECTION('',(1.,0.,0.));
#1523=DIRECTION('',(0.,0.,-1.));
#1524=DIRECTION('center_axis',(0.,0.,1.));
#1525=DIRECTION('ref_axis',(1.,0.,0.));
#1526=DIRECTION('',(1.,0.,0.));
#1527=DIRECTION('center_axis',(0.,0.,-1.));
#1528=DIRECTION('ref_axis',(0.707106781186549,-0.707106781186546,0.));
#1529=DIRECTION('',(0.,1.,0.));
#1530=DIRECTION('center_axis',(0.,0.,1.));
#1531=DIRECTION('ref_axis',(-0.707106781186551,0.707106781186544,0.));
#1532=DIRECTION('',(1.,0.,0.));
#1533=DIRECTION('center_axis',(0.,0.,-1.));
#1534=DIRECTION('ref_axis',(0.707106781186548,-0.707106781186548,0.));
#1535=DIRECTION('',(0.,1.,0.));
#1536=DIRECTION('center_axis',(0.,0.,-1.));
#1537=DIRECTION('ref_axis',(0.707106781186551,0.707106781186544,0.));
#1538=DIRECTION('',(0.,-1.,0.));
#1539=DIRECTION('center_axis',(0.,0.,-1.));
#1540=DIRECTION('ref_axis',(-0.707106781186548,-0.707106781186547,0.));
#1541=DIRECTION('',(1.,0.,0.));
#1542=DIRECTION('center_axis',(0.,0.,-1.));
#1543=DIRECTION('ref_axis',(1.,0.,0.));
#1544=DIRECTION('center_axis',(0.,0.,-1.));
#1545=DIRECTION('ref_axis',(1.,0.,0.));
#1546=DIRECTION('center_axis',(0.,0.,-1.));
#1547=DIRECTION('ref_axis',(0.707106781186548,-0.707106781186548,0.));
#1548=DIRECTION('',(0.,0.,-1.));
#1549=DIRECTION('center_axis',(0.,0.,-1.));
#1550=DIRECTION('ref_axis',(0.707106781186548,-0.707106781186548,0.));
#1551=DIRECTION('',(0.,0.,1.));
#1552=DIRECTION('center_axis',(0.,1.,0.));
#1553=DIRECTION('ref_axis',(1.,0.,0.));
#1554=DIRECTION('',(0.,0.,1.));
#1555=DIRECTION('',(1.,0.,0.));
#1556=DIRECTION('center_axis',(0.,0.,-1.));
#1557=DIRECTION('ref_axis',(-0.707106781186551,0.707106781186544,0.));
#1558=DIRECTION('center_axis',(0.,0.,1.));
#1559=DIRECTION('ref_axis',(-0.707106781186551,0.707106781186544,0.));
#1560=DIRECTION('',(0.,0.,-1.));
#1561=DIRECTION('center_axis',(-1.,0.,0.));
#1562=DIRECTION('ref_axis',(0.,1.,0.));
#1563=DIRECTION('',(0.,0.,1.));
#1564=DIRECTION('',(0.,1.,0.));
#1565=DIRECTION('center_axis',(0.,0.,-1.));
#1566=DIRECTION('ref_axis',(0.707106781186549,-0.707106781186546,0.));
#1567=DIRECTION('',(0.,0.,-1.));
#1568=DIRECTION('center_axis',(0.,0.,-1.));
#1569=DIRECTION('ref_axis',(0.707106781186549,-0.707106781186546,0.));
#1570=DIRECTION('center_axis',(0.,1.,0.));
#1571=DIRECTION('ref_axis',(1.,0.,0.));
#1572=DIRECTION('',(1.,0.,0.));
#1573=DIRECTION('center_axis',(0.,0.,-1.));
#1574=DIRECTION('ref_axis',(-0.707106781186548,-0.707106781186547,0.));
#1575=DIRECTION('',(0.,0.,-1.));
#1576=DIRECTION('center_axis',(0.,0.,-1.));
#1577=DIRECTION('ref_axis',(-0.707106781186548,-0.707106781186547,0.));
#1578=DIRECTION('',(0.,0.,1.));
#1579=DIRECTION('center_axis',(1.,0.,0.));
#1580=DIRECTION('ref_axis',(0.,-1.,0.));
#1581=DIRECTION('',(0.,-1.,0.));
#1582=DIRECTION('center_axis',(0.,0.,-1.));
#1583=DIRECTION('ref_axis',(-0.707106781186548,-0.707106781186548,0.));
#1584=DIRECTION('center_axis',(0.,0.,1.));
#1585=DIRECTION('ref_axis',(-0.707106781186548,-0.707106781186548,0.));
#1586=DIRECTION('center_axis',(0.,0.,-1.));
#1587=DIRECTION('ref_axis',(-0.707106781186548,-0.707106781186548,0.));
#1588=DIRECTION('',(0.,0.,-1.));
#1589=DIRECTION('center_axis',(0.,0.,-1.));
#1590=DIRECTION('ref_axis',(-1.,0.,0.));
#1591=DIRECTION('',(1.,0.,0.));
#1592=DIRECTION('center_axis',(0.,0.,-1.));
#1593=DIRECTION('ref_axis',(-0.707106781186549,0.707106781186546,0.));
#1594=DIRECTION('',(0.,1.,0.));
#1595=DIRECTION('center_axis',(0.,0.,-1.));
#1596=DIRECTION('ref_axis',(0.707106781186549,-0.707106781186546,0.));
#1597=DIRECTION('center_axis',(0.,0.,1.));
#1598=DIRECTION('ref_axis',(0.707106781186549,-0.707106781186546,0.));
#1599=DIRECTION('',(0.,0.,1.));
#1600=DIRECTION('center_axis',(0.,0.,-1.));
#1601=DIRECTION('ref_axis',(0.707106781186549,-0.707106781186546,0.));
#1602=DIRECTION('center_axis',(-1.,0.,0.));
#1603=DIRECTION('ref_axis',(0.,1.,0.));
#1604=DIRECTION('',(0.,-1.,0.));
#1605=DIRECTION('',(0.,-1.,0.));
#1606=DIRECTION('',(0.,0.,-1.));
#1607=DIRECTION('center_axis',(0.,0.,1.));
#1608=DIRECTION('ref_axis',(1.,0.,0.));
#1609=DIRECTION('',(0.,1.,0.));
#1610=DIRECTION('center_axis',(0.,0.,1.));
#1611=DIRECTION('ref_axis',(-0.707106781186549,0.707106781186546,0.));
#1612=DIRECTION('center_axis',(0.,0.,1.));
#1613=DIRECTION('ref_axis',(0.707106781186551,0.707106781186544,0.));
#1614=DIRECTION('',(-0.866025403784439,-0.499999999999999,0.));
#1615=DIRECTION('',(-2.79703663473978E-15,-1.,0.));
#1616=DIRECTION('',(0.866025403784438,-0.500000000000002,0.));
#1617=DIRECTION('',(0.866025403784436,0.500000000000004,0.));
#1618=DIRECTION('',(2.79703663473978E-15,1.,0.));
#1619=DIRECTION('',(-0.866025403784439,0.499999999999999,0.));
#1620=DIRECTION('',(-0.499999999999996,0.866025403784441,0.));
#1621=DIRECTION('',(-1.,-2.09777747605479E-15,0.));
#1622=DIRECTION('',(-0.500000000000001,-0.866025403784438,0.));
#1623=DIRECTION('',(0.499999999999999,-0.866025403784439,0.));
#1624=DIRECTION('',(1.,-2.0977774760548E-15,0.));
#1625=DIRECTION('',(0.500000000000001,0.866025403784438,0.));
#1626=DIRECTION('',(0.,-1.,0.));
#1627=DIRECTION('center_axis',(0.,0.,1.));
#1628=DIRECTION('ref_axis',(-0.707106781186549,-0.707106781186546,0.));
#1629=DIRECTION('',(1.,0.,0.));
#1630=DIRECTION('center_axis',(0.,0.,1.));
#1631=DIRECTION('ref_axis',(0.707106781186548,-0.707106781186548,0.));
#1632=DIRECTION('',(0.,1.,0.));
#1633=DIRECTION('center_axis',(0.,0.,1.));
#1634=DIRECTION('ref_axis',(-0.707106781186549,0.707106781186546,0.));
#1635=DIRECTION('',(0.,-1.,0.));
#1636=DIRECTION('center_axis',(0.,0.,1.));
#1637=DIRECTION('ref_axis',(-0.707106781186548,-0.707106781186548,0.));
#1638=DIRECTION('',(1.,0.,0.));
#1639=DIRECTION('center_axis',(0.,0.,1.));
#1640=DIRECTION('ref_axis',(0.707106781186546,-0.707106781186549,0.));
#1641=DIRECTION('',(0.,1.,0.));
#1642=DIRECTION('center_axis',(0.,0.,1.));
#1643=DIRECTION('ref_axis',(0.707106781186549,0.707106781186546,0.));
#1644=DIRECTION('',(-1.,0.,0.));
#1645=DIRECTION('center_axis',(0.,0.,1.));
#1646=DIRECTION('ref_axis',(-0.707106781186548,0.707106781186548,0.));
#1647=DIRECTION('center_axis',(0.,0.,-1.));
#1648=DIRECTION('ref_axis',(0.707106781186551,0.707106781186544,0.));
#1649=DIRECTION('center_axis',(0.,0.,-1.));
#1650=DIRECTION('ref_axis',(-0.707106781186549,0.707106781186546,0.));
#1651=DIRECTION('',(0.,0.,1.));
#1652=DIRECTION('center_axis',(1.,0.,0.));
#1653=DIRECTION('ref_axis',(0.,-1.,0.));
#1654=DIRECTION('center_axis',(0.,0.,-1.));
#1655=DIRECTION('ref_axis',(0.707106781186549,0.707106781186546,0.));
#1656=DIRECTION('center_axis',(0.,0.,1.));
#1657=DIRECTION('ref_axis',(0.707106781186549,0.707106781186546,0.));
#1658=DIRECTION('',(0.,0.,1.));
#1659=DIRECTION('',(0.,0.,-1.));
#1660=DIRECTION('center_axis',(0.,1.,0.));
#1661=DIRECTION('ref_axis',(1.,0.,0.));
#1662=DIRECTION('',(1.,0.,0.));
#1663=DIRECTION('',(0.,0.,-1.));
#1664=DIRECTION('center_axis',(0.,-1.,0.));
#1665=DIRECTION('ref_axis',(1.,0.,0.));
#1666=DIRECTION('center_axis',(0.,0.,-1.));
#1667=DIRECTION('ref_axis',(-1.,0.,0.));
#1668=DIRECTION('',(0.,-1.,0.));
#1669=DIRECTION('center_axis',(0.,0.,1.));
#1670=DIRECTION('ref_axis',(0.707106781186546,-0.707106781186549,0.));
#1671=DIRECTION('',(-1.,0.,0.));
#1672=DIRECTION('center_axis',(0.,0.,1.));
#1673=DIRECTION('ref_axis',(-0.707106781186548,-0.707106781186548,0.));
#1674=DIRECTION('',(0.,1.,0.));
#1675=DIRECTION('center_axis',(0.,0.,1.));
#1676=DIRECTION('ref_axis',(-0.707106781186548,0.707106781186548,0.));
#1677=DIRECTION('center_axis',(0.,0.,-1.));
#1678=DIRECTION('ref_axis',(-0.707106781186548,0.707106781186548,0.));
#1679=DIRECTION('',(0.,0.,1.));
#1680=DIRECTION('center_axis',(-1.,0.,0.));
#1681=DIRECTION('ref_axis',(0.,1.,0.));
#1682=DIRECTION('',(0.,0.,-1.));
#1683=DIRECTION('center_axis',(0.,0.,-1.));
#1684=DIRECTION('ref_axis',(-0.707106781186548,-0.707106781186548,0.));
#1685=DIRECTION('',(0.,0.,1.));
#1686=DIRECTION('center_axis',(0.,-1.,0.));
#1687=DIRECTION('ref_axis',(-1.,0.,0.));
#1688=DIRECTION('',(0.,0.,-1.));
#1689=DIRECTION('center_axis',(0.,1.,0.));
#1690=DIRECTION('ref_axis',(1.,0.,0.));
#1691=DIRECTION('center_axis',(0.,0.,-1.));
#1692=DIRECTION('ref_axis',(0.707106781186546,-0.707106781186549,0.));
#1693=DIRECTION('',(0.,0.,1.));
#1694=DIRECTION('center_axis',(1.,0.,0.));
#1695=DIRECTION('ref_axis',(0.,-1.,0.));
#1696=DIRECTION('',(0.,0.,1.));
#1697=DIRECTION('center_axis',(0.,0.,-1.));
#1698=DIRECTION('ref_axis',(0.707106781186548,-0.707106781186548,0.));
#1699=DIRECTION('',(0.,0.,-1.));
#1700=DIRECTION('center_axis',(0.,0.,-1.));
#1701=DIRECTION('ref_axis',(-0.707106781186549,-0.707106781186546,0.));
#1702=DIRECTION('',(0.,0.,1.));
#1703=DIRECTION('',(0.,0.,-1.));
#1704=DIRECTION('center_axis',(-1.,0.,0.));
#1705=DIRECTION('ref_axis',(0.,1.,0.));
#1706=DIRECTION('',(0.,0.,1.));
#1707=DIRECTION('center_axis',(0.,0.,-1.));
#1708=DIRECTION('ref_axis',(-0.707106781186549,0.707106781186546,0.));
#1709=DIRECTION('center_axis',(0.,1.,0.));
#1710=DIRECTION('ref_axis',(1.,0.,0.));
#1711=DIRECTION('center_axis',(0.,1.,0.));
#1712=DIRECTION('ref_axis',(1.,0.,0.));
#1713=DIRECTION('',(0.,1.,0.));
#1714=DIRECTION('center_axis',(0.,1.,0.));
#1715=DIRECTION('ref_axis',(1.,0.,0.));
#1716=DIRECTION('',(0.,1.,0.));
#1717=DIRECTION('center_axis',(1.,0.,0.));
#1718=DIRECTION('ref_axis',(0.,-1.,0.));
#1719=DIRECTION('center_axis',(0.,-1.,0.));
#1720=DIRECTION('ref_axis',(-1.,0.,0.));
#1721=DIRECTION('center_axis',(0.500000000000004,-0.866025403784436,0.));
#1722=DIRECTION('ref_axis',(0.866025403784436,0.500000000000004,0.));
#1723=DIRECTION('',(0.,0.,1.));
#1724=DIRECTION('',(0.866025403784436,0.500000000000004,0.));
#1725=DIRECTION('',(0.,0.,1.));
#1726=DIRECTION('center_axis',(1.,-2.79703663473978E-15,0.));
#1727=DIRECTION('ref_axis',(2.79703663473978E-15,1.,0.));
#1728=DIRECTION('',(2.79703663473978E-15,1.,0.));
#1729=DIRECTION('',(0.,0.,1.));
#1730=DIRECTION('center_axis',(0.499999999999999,0.866025403784439,0.));
#1731=DIRECTION('ref_axis',(-0.866025403784439,0.499999999999999,0.));
#1732=DIRECTION('',(-0.866025403784439,0.499999999999999,0.));
#1733=DIRECTION('',(0.,0.,1.));
#1734=DIRECTION('center_axis',(-0.499999999999999,0.866025403784439,0.));
#1735=DIRECTION('ref_axis',(-0.866025403784439,-0.499999999999999,0.));
#1736=DIRECTION('',(-0.866025403784439,-0.499999999999999,0.));
#1737=DIRECTION('',(0.,0.,-1.));
#1738=DIRECTION('center_axis',(-0.500000000000002,-0.866025403784438,0.));
#1739=DIRECTION('ref_axis',(0.866025403784438,-0.500000000000002,0.));
#1740=DIRECTION('',(0.,0.,1.));
#1741=DIRECTION('',(0.866025403784438,-0.500000000000002,0.));
#1742=DIRECTION('center_axis',(-1.,2.79703663473978E-15,0.));
#1743=DIRECTION('ref_axis',(-2.79703663473978E-15,-1.,0.));
#1744=DIRECTION('',(-2.79703663473978E-15,-1.,0.));
#1745=DIRECTION('center_axis',(0.,0.,1.));
#1746=DIRECTION('ref_axis',(1.,0.,0.));
#1747=DIRECTION('center_axis',(0.,0.,-1.));
#1748=DIRECTION('ref_axis',(1.,0.,0.));
#1749=DIRECTION('center_axis',(-0.866025403784439,-0.499999999999999,0.));
#1750=DIRECTION('ref_axis',(0.499999999999999,-0.866025403784439,0.));
#1751=DIRECTION('',(0.,0.,1.));
#1752=DIRECTION('',(0.499999999999999,-0.866025403784439,0.));
#1753=DIRECTION('',(0.,0.,1.));
#1754=DIRECTION('center_axis',(-2.0977774760548E-15,-1.,0.));
#1755=DIRECTION('ref_axis',(1.,-2.0977774760548E-15,0.));
#1756=DIRECTION('',(1.,-2.0977774760548E-15,0.));
#1757=DIRECTION('',(0.,0.,1.));
#1758=DIRECTION('center_axis',(0.866025403784438,-0.500000000000001,0.));
#1759=DIRECTION('ref_axis',(0.500000000000001,0.866025403784438,0.));
#1760=DIRECTION('',(0.500000000000001,0.866025403784438,0.));
#1761=DIRECTION('',(0.,0.,1.));
#1762=DIRECTION('center_axis',(0.866025403784441,0.499999999999996,0.));
#1763=DIRECTION('ref_axis',(-0.499999999999996,0.866025403784441,0.));
#1764=DIRECTION('',(-0.499999999999996,0.866025403784441,0.));
#1765=DIRECTION('',(0.,0.,-1.));
#1766=DIRECTION('center_axis',(-0.866025403784438,0.500000000000001,0.));
#1767=DIRECTION('ref_axis',(-0.500000000000001,-0.866025403784438,0.));
#1768=DIRECTION('',(0.,0.,1.));
#1769=DIRECTION('',(-0.500000000000001,-0.866025403784438,0.));
#1770=DIRECTION('center_axis',(-2.09777747605479E-15,1.,0.));
#1771=DIRECTION('ref_axis',(-1.,-2.09777747605479E-15,0.));
#1772=DIRECTION('',(-1.,-2.09777747605479E-15,0.));
#1773=DIRECTION('center_axis',(0.,0.,1.));
#1774=DIRECTION('ref_axis',(1.,0.,0.));
#1775=DIRECTION('center_axis',(0.,0.,-1.));
#1776=DIRECTION('ref_axis',(1.,0.,0.));
#1777=DIRECTION('center_axis',(0.,0.,-1.));
#1778=DIRECTION('ref_axis',(-1.,0.,0.));
#1779=DIRECTION('center_axis',(0.,1.,0.));
#1780=DIRECTION('ref_axis',(1.,0.,0.));
#1781=DIRECTION('center_axis',(0.,0.,-1.));
#1782=DIRECTION('ref_axis',(1.,0.,0.));
#1783=DIRECTION('',(0.,0.,1.));
#1784=DIRECTION('center_axis',(0.,0.,-1.));
#1785=DIRECTION('ref_axis',(1.,0.,0.));
#1786=DIRECTION('',(0.,0.,1.));
#1787=CARTESIAN_POINT('',(0.,0.,0.));
#1788=CARTESIAN_POINT('Origin',(21.0000004023314,47.7500001639128,-5.));
#1789=CARTESIAN_POINT('',(26.0000004023314,44.0000006556511,-8.31662479035539));
#1790=CARTESIAN_POINT('',(21.0000004023314,44.0000006556511,-11.));
#1791=CARTESIAN_POINT('Origin',(21.0000004023314,44.0000006556511,-5.));
#1792=CARTESIAN_POINT('',(21.0000004023314,49.,-11.));
#1793=CARTESIAN_POINT('',(21.0000004023314,47.7500001639128,-11.));
#1794=CARTESIAN_POINT('',(26.0000004023314,49.,-8.3166247903554));
#1795=CARTESIAN_POINT('Origin',(21.0000004023314,49.,-5.));
#1796=CARTESIAN_POINT('',(27.0000004023314,48.,-5.));
#1797=CARTESIAN_POINT('Ctrl Pts',(26.0000004023313,49.,-8.3166247903554));
#1798=CARTESIAN_POINT('Ctrl Pts',(26.3249241836571,49.,-7.82678375939129));
#1799=CARTESIAN_POINT('Ctrl Pts',(26.5836377852209,48.8516749955329,-7.27542464822191));
#1800=CARTESIAN_POINT('Ctrl Pts',(26.9219362447728,48.4648542608662,-6.13364923788711));
#1801=CARTESIAN_POINT('Ctrl Pts',(27.0000004023314,48.222171008552,-5.54420560659187));
#1802=CARTESIAN_POINT('Ctrl Pts',(27.0000004023314,48.,-5.));
#1803=CARTESIAN_POINT('',(27.0000004023314,45.0000006556511,-5.));
#1804=CARTESIAN_POINT('',(27.0000004023314,47.7500001639128,-5.));
#1805=CARTESIAN_POINT('Ctrl Pts',(27.0000004023314,45.0000006556511,-5.));
#1806=CARTESIAN_POINT('Ctrl Pts',(27.0000004023314,44.7778296470991,-5.54420560659186));
#1807=CARTESIAN_POINT('Ctrl Pts',(26.9219362447728,44.5351463947849,-6.1336492378871));
#1808=CARTESIAN_POINT('Ctrl Pts',(26.5836377852209,44.1483256601182,-7.27542464822191));
#1809=CARTESIAN_POINT('Ctrl Pts',(26.3249241836571,44.0000006556511,-7.82678375939128));
#1810=CARTESIAN_POINT('Ctrl Pts',(26.0000004023314,44.0000006556511,-8.31662479035539));
#1811=CARTESIAN_POINT('Origin',(26.0000004023314,48.,-3.5));
#1812=CARTESIAN_POINT('',(26.0000004023314,49.,-3.5));
#1813=CARTESIAN_POINT('',(26.0000004023314,49.,-3.5));
#1814=CARTESIAN_POINT('',(27.0000004023314,48.,-3.5));
#1815=CARTESIAN_POINT('Origin',(26.0000004023314,48.,-3.5));
#1816=CARTESIAN_POINT('',(27.0000004023314,48.,-3.5));
#1817=CARTESIAN_POINT('Origin',(9.00000013411045,49.,-3.5));
#1818=CARTESIAN_POINT('',(10.0000001341105,49.,-11.));
#1819=CARTESIAN_POINT('',(9.00000013411045,49.,-11.));
#1820=CARTESIAN_POINT('',(10.0000001341105,49.,-3.5));
#1821=CARTESIAN_POINT('',(10.0000001341105,49.,-3.5));
#1822=CARTESIAN_POINT('',(15.0000000670552,49.,-3.5));
#1823=CARTESIAN_POINT('',(19.0500003129244,49.,-7.5));
#1824=CARTESIAN_POINT('Origin',(21.0000003129244,49.,-7.5));
#1825=CARTESIAN_POINT('Origin',(18.0000002682209,46.5000003278255,-11.));
#1826=CARTESIAN_POINT('',(10.0000001341105,44.0000006556511,-11.));
#1827=CARTESIAN_POINT('',(9.00000013411045,44.0000006556511,-11.));
#1828=CARTESIAN_POINT('',(9.00000013411045,45.0000006556511,-11.));
#1829=CARTESIAN_POINT('Origin',(10.0000001341105,45.0000006556511,-11.));
#1830=CARTESIAN_POINT('',(9.00000013411045,48.,-11.));
#1831=CARTESIAN_POINT('',(9.00000013411045,49.,-11.));
#1832=CARTESIAN_POINT('Origin',(10.0000001341105,48.,-11.));
#1833=CARTESIAN_POINT('Origin',(21.875,18.25,-0.375));
#1834=CARTESIAN_POINT('',(22.25,7.5,0.));
#1835=CARTESIAN_POINT('',(21.5,7.5,-0.75));
#1836=CARTESIAN_POINT('',(18.125,7.5,-4.125));
#1837=CARTESIAN_POINT('',(21.5,2.5,-0.75));
#1838=CARTESIAN_POINT('',(21.5,18.25,-0.75));
#1839=CARTESIAN_POINT('',(22.25,2.5,0.));
#1840=CARTESIAN_POINT('',(21.5,2.5,-0.75));
#1841=CARTESIAN_POINT('',(22.25,18.25,0.));
#1842=CARTESIAN_POINT('Origin',(22.5,2.5,-0.375));
#1843=CARTESIAN_POINT('',(22.5,1.5,-0.75));
#1844=CARTESIAN_POINT('Origin',(22.5,2.5,-0.75));
#1845=CARTESIAN_POINT('',(22.5,2.25,0.));
#1846=CARTESIAN_POINT('',(22.5,1.5,-0.75));
#1847=CARTESIAN_POINT('Origin',(22.5,2.5,0.));
#1848=CARTESIAN_POINT('Origin',(11.25,1.875,-0.375));
#1849=CARTESIAN_POINT('',(27.5,1.5,-0.75));
#1850=CARTESIAN_POINT('',(11.25,1.5,-0.75));
#1851=CARTESIAN_POINT('',(27.5,2.25,0.));
#1852=CARTESIAN_POINT('',(27.5,1.5,-0.75));
#1853=CARTESIAN_POINT('',(11.25,2.25,0.));
#1854=CARTESIAN_POINT('Origin',(27.5,2.5,-0.375));
#1855=CARTESIAN_POINT('',(28.5,2.5,-0.75));
#1856=CARTESIAN_POINT('Origin',(27.5,2.5,-0.75));
#1857=CARTESIAN_POINT('',(27.75,2.5,0.));
#1858=CARTESIAN_POINT('',(28.5,2.5,-0.75));
#1859=CARTESIAN_POINT('Origin',(27.5,2.5,0.));
#1860=CARTESIAN_POINT('Origin',(28.125,15.25,-0.375));
#1861=CARTESIAN_POINT('',(28.5,7.5,-0.75));
#1862=CARTESIAN_POINT('',(27.75,7.5,0.));
#1863=CARTESIAN_POINT('',(28.125,7.5,-0.375));
#1864=CARTESIAN_POINT('',(27.75,15.25,0.));
#1865=CARTESIAN_POINT('',(28.5,15.25,-0.75));
#1866=CARTESIAN_POINT('Origin',(28.5,1.5,0.));
#1867=CARTESIAN_POINT('',(28.5,2.5,-1.5));
#1868=CARTESIAN_POINT('',(28.5,2.5,2.5));
#1869=CARTESIAN_POINT('',(28.5,7.5,-1.5));
#1870=CARTESIAN_POINT('',(28.5,1.5,-1.5));
#1871=CARTESIAN_POINT('',(28.5,7.5,0.));
#1872=CARTESIAN_POINT('Origin',(27.5,2.5,2.5));
#1873=CARTESIAN_POINT('',(27.5,1.5,-1.5));
#1874=CARTESIAN_POINT('',(27.5,1.5,2.5));
#1875=CARTESIAN_POINT('Origin',(27.5,2.5,-1.5));
#1876=CARTESIAN_POINT('Origin',(1.5,1.5,5.));
#1877=CARTESIAN_POINT('',(22.5,1.5,-1.5));
#1878=CARTESIAN_POINT('',(22.5,1.5,2.5));
#1879=CARTESIAN_POINT('',(2.5,1.5,-1.5));
#1880=CARTESIAN_POINT('',(1.5,1.5,-1.5));
#1881=CARTESIAN_POINT('',(2.5,1.5,-3.5));
#1882=CARTESIAN_POINT('',(2.5,1.5,5.));
#1883=CARTESIAN_POINT('',(39.5,1.5,-3.5));
#1884=CARTESIAN_POINT('',(11.25,1.5,-3.5));
#1885=CARTESIAN_POINT('',(39.5,1.5,-1.5));
#1886=CARTESIAN_POINT('',(39.5,1.5,5.));
#1887=CARTESIAN_POINT('',(35.5,1.5,-1.5));
#1888=CARTESIAN_POINT('Origin',(22.5,2.5,2.5));
#1889=CARTESIAN_POINT('',(21.5,2.5,-1.5));
#1890=CARTESIAN_POINT('',(21.5,2.5,2.5));
#1891=CARTESIAN_POINT('Origin',(22.5,2.5,-1.5));
#1892=CARTESIAN_POINT('Origin',(21.5,7.5,0.));
#1893=CARTESIAN_POINT('',(21.5,7.5,-1.5));
#1894=CARTESIAN_POINT('',(21.5,7.5,0.));
#1895=CARTESIAN_POINT('',(21.5,1.5,-1.5));
#1896=CARTESIAN_POINT('Origin',(7.5,55.5,2.5));
#1897=CARTESIAN_POINT('',(6.5,55.5,0.));
#1898=CARTESIAN_POINT('',(7.5,56.5,0.));
#1899=CARTESIAN_POINT('Origin',(7.5,55.5,0.));
#1900=CARTESIAN_POINT('',(7.5,56.5,-1.5));
#1901=CARTESIAN_POINT('',(7.5,56.5,2.5));
#1902=CARTESIAN_POINT('',(6.5,55.5,-1.5));
#1903=CARTESIAN_POINT('Origin',(7.5,55.5,-1.5));
#1904=CARTESIAN_POINT('',(6.5,55.5,2.5));
#1905=CARTESIAN_POINT('Origin',(21.5,56.5,5.));
#1906=CARTESIAN_POINT('',(2.5,56.5,-1.5));
#1907=CARTESIAN_POINT('',(6.5,56.5,-1.5));
#1908=CARTESIAN_POINT('',(39.5,56.5,0.));
#1909=CARTESIAN_POINT('',(6.5,56.5,0.));
#1910=CARTESIAN_POINT('',(39.5,56.5,-3.5));
#1911=CARTESIAN_POINT('',(39.5,56.5,5.));
#1912=CARTESIAN_POINT('',(2.5,56.5,-3.5));
#1913=CARTESIAN_POINT('',(21.25,56.5,-3.5));
#1914=CARTESIAN_POINT('',(2.5,56.5,5.));
#1915=CARTESIAN_POINT('Origin',(21.,29.,0.));
#1916=CARTESIAN_POINT('',(34.5,7.5,0.));
#1917=CARTESIAN_POINT('',(24.75,7.5,0.));
#1918=CARTESIAN_POINT('',(35.5,8.5,0.));
#1919=CARTESIAN_POINT('Origin',(34.5,8.5,0.));
#1920=CARTESIAN_POINT('',(35.5,41.5,0.));
#1921=CARTESIAN_POINT('',(35.5,18.25,0.));
#1922=CARTESIAN_POINT('',(36.5,42.5,0.));
#1923=CARTESIAN_POINT('Origin',(36.5,41.5,0.));
#1924=CARTESIAN_POINT('',(39.5,42.5,0.));
#1925=CARTESIAN_POINT('',(28.25,42.5,0.));
#1926=CARTESIAN_POINT('',(40.5,43.5,0.));
#1927=CARTESIAN_POINT('Origin',(39.5,43.5,0.));
#1928=CARTESIAN_POINT('',(40.5,55.5,0.));
#1929=CARTESIAN_POINT('',(40.5,1.5,0.));
#1930=CARTESIAN_POINT('Origin',(39.5,55.5,0.));
#1931=CARTESIAN_POINT('',(6.5,8.5,0.));
#1932=CARTESIAN_POINT('',(6.5,42.75,0.));
#1933=CARTESIAN_POINT('',(7.5,7.5,0.));
#1934=CARTESIAN_POINT('Origin',(7.5,8.5,0.));
#1935=CARTESIAN_POINT('',(13.75,7.5,0.));
#1936=CARTESIAN_POINT('',(30.3,42.5,0.));
#1937=CARTESIAN_POINT('Origin',(32.3,42.5,0.));
#1938=CARTESIAN_POINT('',(23.000000372529,5.,0.));
#1939=CARTESIAN_POINT('Origin',(25.000000372529,5.,0.));
#1940=CARTESIAN_POINT('Origin',(39.5,43.5,2.5));
#1941=CARTESIAN_POINT('',(39.5,42.5,-1.5));
#1942=CARTESIAN_POINT('',(39.5,42.5,2.5));
#1943=CARTESIAN_POINT('',(40.5,43.5,-1.5));
#1944=CARTESIAN_POINT('Origin',(39.5,43.5,-1.5));
#1945=CARTESIAN_POINT('',(40.5,43.5,2.5));
#1946=CARTESIAN_POINT('Origin',(35.5,42.5,0.));
#1947=CARTESIAN_POINT('',(36.5,42.5,-1.5));
#1948=CARTESIAN_POINT('',(36.5,42.5,0.));
#1949=CARTESIAN_POINT('',(35.5,42.5,-1.5));
#1950=CARTESIAN_POINT('Origin',(36.5,41.5,0.));
#1951=CARTESIAN_POINT('',(35.5,41.5,-1.5));
#1952=CARTESIAN_POINT('Origin',(36.5,41.5,-1.5));
#1953=CARTESIAN_POINT('',(35.5,41.5,0.));
#1954=CARTESIAN_POINT('Origin',(35.5,7.5,0.));
#1955=CARTESIAN_POINT('',(35.5,8.5,-1.5));
#1956=CARTESIAN_POINT('',(35.5,8.5,0.));
#1957=CARTESIAN_POINT('',(35.5,7.5,-1.5));
#1958=CARTESIAN_POINT('Origin',(34.5,8.5,0.));
#1959=CARTESIAN_POINT('',(34.5,7.5,-1.5));
#1960=CARTESIAN_POINT('',(34.5,7.5,0.));
#1961=CARTESIAN_POINT('Origin',(34.5,8.5,-1.5));
#1962=CARTESIAN_POINT('Origin',(28.5,7.5,0.));
#1963=CARTESIAN_POINT('',(28.5,7.5,-1.5));
#1964=CARTESIAN_POINT('Origin',(7.5,8.5,0.));
#1965=CARTESIAN_POINT('',(6.5,8.5,-1.5));
#1966=CARTESIAN_POINT('',(6.5,8.5,0.));
#1967=CARTESIAN_POINT('',(7.5,7.5,-1.5));
#1968=CARTESIAN_POINT('Origin',(7.5,8.5,-1.5));
#1969=CARTESIAN_POINT('',(7.5,7.5,0.));
#1970=CARTESIAN_POINT('Origin',(6.5,56.5,0.));
#1971=CARTESIAN_POINT('',(6.5,7.5,-1.5));
#1972=CARTESIAN_POINT('Origin',(2.5,2.5,5.));
#1973=CARTESIAN_POINT('',(1.5,2.5,-3.5));
#1974=CARTESIAN_POINT('Origin',(2.5,2.5,-3.5));
#1975=CARTESIAN_POINT('',(1.5,2.5,-1.5));
#1976=CARTESIAN_POINT('Origin',(2.5,2.5,-1.5));
#1977=CARTESIAN_POINT('',(1.5,2.5,5.));
#1978=CARTESIAN_POINT('Origin',(11.5,29.,-1.5));
#1979=CARTESIAN_POINT('',(21.5,7.5,-1.5));
#1980=CARTESIAN_POINT('',(1.5,55.5,-1.5));
#1981=CARTESIAN_POINT('Origin',(2.5,55.5,-1.5));
#1982=CARTESIAN_POINT('',(1.5,56.5,-1.5));
#1983=CARTESIAN_POINT('Origin',(39.5,2.5,5.));
#1984=CARTESIAN_POINT('',(40.5,2.5,-3.5));
#1985=CARTESIAN_POINT('Origin',(39.5,2.5,-3.5));
#1986=CARTESIAN_POINT('',(40.5,2.5,-1.5));
#1987=CARTESIAN_POINT('',(40.5,2.5,5.));
#1988=CARTESIAN_POINT('Origin',(39.5,2.5,-1.5));
#1989=CARTESIAN_POINT('Origin',(40.5,1.5,5.));
#1990=CARTESIAN_POINT('',(40.5,42.5,-1.5));
#1991=CARTESIAN_POINT('',(40.5,55.5,-3.5));
#1992=CARTESIAN_POINT('',(40.5,15.25,-3.5));
#1993=CARTESIAN_POINT('',(40.5,55.5,5.));
#1994=CARTESIAN_POINT('Origin',(21.,29.,-3.5));
#1995=CARTESIAN_POINT('',(1.5,55.5,-3.5));
#1996=CARTESIAN_POINT('',(1.5,42.75,-3.5));
#1997=CARTESIAN_POINT('Origin',(2.5,55.5,-3.5));
#1998=CARTESIAN_POINT('Origin',(39.5,55.5,-3.5));
#1999=CARTESIAN_POINT('',(32.2999992735684,45.6754255082421,-3.5));
#2000=CARTESIAN_POINT('',(29.5499992735684,44.0877122679707,-3.5));
#2001=CARTESIAN_POINT('',(24.4521640187171,41.1444757112979,-3.5));
#2002=CARTESIAN_POINT('',(29.5499992735684,40.9122857874278,-3.5));
#2003=CARTESIAN_POINT('',(29.5499992735684,36.5438561339853,-3.5));
#2004=CARTESIAN_POINT('',(32.2999992735684,39.3245725471564,-3.5));
#2005=CARTESIAN_POINT('',(28.9228350732435,41.2743792073115,-3.5));
#2006=CARTESIAN_POINT('',(35.0499992735683,40.9122857874278,-3.5));
#2007=CARTESIAN_POINT('',(25.8271640187171,35.5874793703478,-3.5));
#2008=CARTESIAN_POINT('',(35.0499992735684,44.0877122679707,-3.5));
#2009=CARTESIAN_POINT('',(35.0499992735683,34.9561428937139,-3.5));
#2010=CARTESIAN_POINT('',(33.0478350732434,45.2436623079901,-3.5));
#2011=CARTESIAN_POINT('',(28.1754268232697,5.00000005161914,-3.5));
#2012=CARTESIAN_POINT('',(26.5877135829982,7.75000005161914,-3.5));
#2013=CARTESIAN_POINT('',(22.0823460588302,15.553525510249,-3.5));
#2014=CARTESIAN_POINT('',(23.4122871024552,7.75000005161913,-3.5));
#2015=CARTESIAN_POINT('',(23.7938567914991,7.75000005161913,-3.5));
#2016=CARTESIAN_POINT('',(21.8245738621838,5.00000005161914,-3.5));
#2017=CARTESIAN_POINT('',(27.7115111610773,15.196474554275,-3.5));
#2018=CARTESIAN_POINT('',(23.4122871024552,2.25000005161915,-3.5));
#2019=CARTESIAN_POINT('',(16.52534971788,14.1785255102489,-3.5));
#2020=CARTESIAN_POINT('',(26.5877135829982,2.25000005161914,-3.5));
#2021=CARTESIAN_POINT('',(22.2061435512276,2.25000005161915,-3.5));
#2022=CARTESIAN_POINT('',(31.680794261756,11.071474554275,-3.5));
#2023=CARTESIAN_POINT('',(9.00000013411045,48.,-3.5));
#2024=CARTESIAN_POINT('',(9.00000013411045,45.0000006556511,-3.5));
#2025=CARTESIAN_POINT('',(9.00000013411045,36.5000003278255,-3.5));
#2026=CARTESIAN_POINT('',(10.0000001341105,44.0000006556511,-3.5));
#2027=CARTESIAN_POINT('Origin',(10.0000001341105,45.0000006556511,-3.5));
#2028=CARTESIAN_POINT('',(26.0000004023314,44.0000006556511,-3.5));
#2029=CARTESIAN_POINT('',(24.0000002011657,44.0000006556511,-3.5));
#2030=CARTESIAN_POINT('',(27.0000004023314,45.0000006556511,-3.5));
#2031=CARTESIAN_POINT('Origin',(26.0000004023314,45.0000006556511,-3.5));
#2032=CARTESIAN_POINT('',(27.0000004023314,39.,-3.5));
#2033=CARTESIAN_POINT('Origin',(10.0000001341105,48.,-3.5));
#2034=CARTESIAN_POINT('',(9.00000013411045,13.0000002086163,-3.5));
#2035=CARTESIAN_POINT('',(9.00000013411045,10.,-3.5));
#2036=CARTESIAN_POINT('',(9.00000013411045,19.,-3.5));
#2037=CARTESIAN_POINT('',(10.0000001341105,9.,-3.5));
#2038=CARTESIAN_POINT('Origin',(10.0000001341105,10.,-3.5));
#2039=CARTESIAN_POINT('',(32.0000004917383,9.,-3.5));
#2040=CARTESIAN_POINT('',(27.0000002458692,9.,-3.5));
#2041=CARTESIAN_POINT('',(33.0000004917383,10.,-3.5));
#2042=CARTESIAN_POINT('Origin',(32.0000004917383,10.,-3.5));
#2043=CARTESIAN_POINT('',(33.0000004917383,13.0000002086163,-3.5));
#2044=CARTESIAN_POINT('',(33.0000004917383,21.5000001043081,-3.5));
#2045=CARTESIAN_POINT('',(32.0000004917383,14.0000002086163,-3.5));
#2046=CARTESIAN_POINT('Origin',(32.0000004917383,13.0000002086163,-3.5));
#2047=CARTESIAN_POINT('',(10.0000001341105,14.0000002086163,-3.5));
#2048=CARTESIAN_POINT('',(15.0000000670552,14.0000002086163,-3.5));
#2049=CARTESIAN_POINT('Origin',(10.0000001341105,13.0000002086163,-3.5));
#2050=CARTESIAN_POINT('Origin',(39.5,55.5,5.));
#2051=CARTESIAN_POINT('Origin',(2.5,55.5,5.));
#2052=CARTESIAN_POINT('',(1.5,55.5,5.));
#2053=CARTESIAN_POINT('Origin',(1.5,56.5,5.));
#2054=CARTESIAN_POINT('Origin',(32.0000004917383,13.0000002086163,-3.5));
#2055=CARTESIAN_POINT('',(33.0000004917383,13.0000002086163,-11.));
#2056=CARTESIAN_POINT('',(32.0000004917383,14.0000002086163,-11.));
#2057=CARTESIAN_POINT('Origin',(32.0000004917383,13.0000002086163,-11.));
#2058=CARTESIAN_POINT('',(32.0000004917383,14.0000002086163,-3.5));
#2059=CARTESIAN_POINT('',(33.0000004917383,13.0000002086163,-3.5));
#2060=CARTESIAN_POINT('Origin',(9.00000013411045,14.0000002086163,-3.5));
#2061=CARTESIAN_POINT('',(10.0000001341105,14.0000002086163,-11.));
#2062=CARTESIAN_POINT('',(33.0000004917383,14.0000002086163,-11.));
#2063=CARTESIAN_POINT('',(10.0000001341105,14.0000002086163,-3.5));
#2064=CARTESIAN_POINT('',(19.0500003129244,14.0000002086163,-7.5));
#2065=CARTESIAN_POINT('Origin',(21.0000003129244,14.0000002086163,-7.5));
#2066=CARTESIAN_POINT('Origin',(21.0000003129244,11.5000001043081,-11.));
#2067=CARTESIAN_POINT('',(33.0000004917383,10.,-11.));
#2068=CARTESIAN_POINT('',(33.0000004917383,9.,-11.));
#2069=CARTESIAN_POINT('',(32.0000004917383,9.,-11.));
#2070=CARTESIAN_POINT('Origin',(32.0000004917383,10.,-11.));
#2071=CARTESIAN_POINT('',(10.0000001341105,9.,-11.));
#2072=CARTESIAN_POINT('',(9.00000013411045,9.,-11.));
#2073=CARTESIAN_POINT('',(9.00000013411045,10.,-11.));
#2074=CARTESIAN_POINT('Origin',(10.0000001341105,10.,-11.));
#2075=CARTESIAN_POINT('',(9.00000013411045,13.0000002086163,-11.));
#2076=CARTESIAN_POINT('',(9.00000013411045,14.0000002086163,-11.));
#2077=CARTESIAN_POINT('Origin',(10.0000001341105,13.0000002086163,-11.));
#2078=CARTESIAN_POINT('Origin',(10.0000001341105,13.0000002086163,-3.5));
#2079=CARTESIAN_POINT('',(9.00000013411045,13.0000002086163,-3.5));
#2080=CARTESIAN_POINT('Origin',(9.00000013411045,9.,-3.5));
#2081=CARTESIAN_POINT('',(9.00000013411045,10.,-3.5));
#2082=CARTESIAN_POINT('Origin',(10.0000001341105,10.,-3.5));
#2083=CARTESIAN_POINT('',(10.0000001341105,9.,-3.5));
#2084=CARTESIAN_POINT('Origin',(33.0000004917383,9.,-3.5));
#2085=CARTESIAN_POINT('',(32.0000004917383,9.,-3.5));
#2086=CARTESIAN_POINT('',(19.0500003129244,9.,-7.5));
#2087=CARTESIAN_POINT('Origin',(21.0000003129244,9.,-7.5));
#2088=CARTESIAN_POINT('Origin',(32.0000004917383,10.,-3.5));
#2089=CARTESIAN_POINT('',(33.0000004917383,10.,-3.5));
#2090=CARTESIAN_POINT('Origin',(27.0000004023314,49.,-3.5));
#2091=CARTESIAN_POINT('',(27.0000004023314,45.0000006556511,-3.5));
#2092=CARTESIAN_POINT('Origin',(26.0000004023314,45.0000006556511,-3.5));
#2093=CARTESIAN_POINT('',(26.0000004023314,44.0000006556511,-3.5));
#2094=CARTESIAN_POINT('Origin',(10.0000001341105,45.0000006556511,-3.5));
#2095=CARTESIAN_POINT('',(10.0000001341105,44.0000006556511,-3.5));
#2096=CARTESIAN_POINT('',(9.00000013411045,45.0000006556511,-3.5));
#2097=CARTESIAN_POINT('Origin',(9.00000013411045,44.0000006556511,-3.5));
#2098=CARTESIAN_POINT('',(9.00000013411045,48.,-3.5));
#2099=CARTESIAN_POINT('Origin',(10.0000001341105,48.,-3.5));
#2100=CARTESIAN_POINT('Origin',(21.0000003129244,9.,-7.5));
#2101=CARTESIAN_POINT('',(19.0500003129244,44.0000006556511,-7.5));
#2102=CARTESIAN_POINT('Origin',(21.0000003129244,44.0000006556511,-7.5));
#2103=CARTESIAN_POINT('',(19.0500003129244,9.,-7.5));
#2104=CARTESIAN_POINT('Origin',(21.0000003129244,9.,-7.5));
#2105=CARTESIAN_POINT('',(19.0500003129244,9.,-7.5));
#2106=CARTESIAN_POINT('Origin',(33.0000004917383,14.0000002086163,-3.5));
#2107=CARTESIAN_POINT('Origin',(27.0000004023314,44.0000006556511,-3.5));
#2108=CARTESIAN_POINT('Origin',(32.2999992735684,39.3245725471564,-3.));
#2109=CARTESIAN_POINT('',(32.2999992735684,39.3245725471564,-1.));
#2110=CARTESIAN_POINT('',(32.2999992735684,39.3245725471564,-3.));
#2111=CARTESIAN_POINT('',(35.0499992735683,40.9122857874278,-1.));
#2112=CARTESIAN_POINT('',(32.2999992735684,39.3245725471564,-1.));
#2113=CARTESIAN_POINT('',(35.0499992735683,40.9122857874278,-3.));
#2114=CARTESIAN_POINT('Origin',(35.0499992735683,40.9122857874278,-3.));
#2115=CARTESIAN_POINT('',(35.0499992735684,44.0877122679707,-1.));
#2116=CARTESIAN_POINT('',(35.0499992735683,40.9122857874278,-1.));
#2117=CARTESIAN_POINT('',(35.0499992735684,44.0877122679707,-3.));
#2118=CARTESIAN_POINT('Origin',(35.0499992735684,44.0877122679707,-3.));
#2119=CARTESIAN_POINT('',(32.2999992735684,45.6754255082421,-1.));
#2120=CARTESIAN_POINT('',(35.0499992735684,44.0877122679707,-1.));
#2121=CARTESIAN_POINT('',(32.2999992735684,45.6754255082421,-3.));
#2122=CARTESIAN_POINT('Origin',(32.2999992735684,45.6754255082421,-3.));
#2123=CARTESIAN_POINT('',(29.5499992735684,44.0877122679707,-1.));
#2124=CARTESIAN_POINT('',(32.2999992735684,45.6754255082421,-1.));
#2125=CARTESIAN_POINT('',(29.5499992735684,44.0877122679707,-3.));
#2126=CARTESIAN_POINT('Origin',(29.5499992735684,40.9122857874278,-3.));
#2127=CARTESIAN_POINT('',(29.5499992735684,40.9122857874278,-1.));
#2128=CARTESIAN_POINT('',(29.5499992735684,40.9122857874278,-3.));
#2129=CARTESIAN_POINT('',(29.5499992735684,40.9122857874278,-1.));
#2130=CARTESIAN_POINT('Origin',(29.5499992735684,44.0877122679707,-3.));
#2131=CARTESIAN_POINT('',(29.5499992735684,44.0877122679707,-1.));
#2132=CARTESIAN_POINT('Origin',(32.2999992735684,42.4999990276992,-1.));
#2133=CARTESIAN_POINT('',(30.3,42.5,-1.));
#2134=CARTESIAN_POINT('Origin',(32.3,42.5,-1.));
#2135=CARTESIAN_POINT('Origin',(21.8245738621838,5.00000005161914,-3.));
#2136=CARTESIAN_POINT('',(21.8245738621838,5.00000005161914,-1.));
#2137=CARTESIAN_POINT('',(21.8245738621838,5.00000005161914,-3.));
#2138=CARTESIAN_POINT('',(23.4122871024552,2.25000005161915,-1.));
#2139=CARTESIAN_POINT('',(21.8245738621838,5.00000005161914,-1.));
#2140=CARTESIAN_POINT('',(23.4122871024552,2.25000005161915,-3.));
#2141=CARTESIAN_POINT('Origin',(23.4122871024552,2.25000005161915,-3.));
#2142=CARTESIAN_POINT('',(26.5877135829982,2.25000005161914,-1.));
#2143=CARTESIAN_POINT('',(23.4122871024552,2.25000005161915,-1.));
#2144=CARTESIAN_POINT('',(26.5877135829982,2.25000005161914,-3.));
#2145=CARTESIAN_POINT('Origin',(26.5877135829982,2.25000005161914,-3.));
#2146=CARTESIAN_POINT('',(28.1754268232697,5.00000005161914,-1.));
#2147=CARTESIAN_POINT('',(26.5877135829982,2.25000005161914,-1.));
#2148=CARTESIAN_POINT('',(28.1754268232697,5.00000005161914,-3.));
#2149=CARTESIAN_POINT('Origin',(28.1754268232697,5.00000005161914,-3.));
#2150=CARTESIAN_POINT('',(26.5877135829982,7.75000005161914,-1.));
#2151=CARTESIAN_POINT('',(28.1754268232697,5.00000005161914,-1.));
#2152=CARTESIAN_POINT('',(26.5877135829982,7.75000005161914,-3.));
#2153=CARTESIAN_POINT('Origin',(23.4122871024552,7.75000005161913,-3.));
#2154=CARTESIAN_POINT('',(23.4122871024552,7.75000005161913,-1.));
#2155=CARTESIAN_POINT('',(23.4122871024552,7.75000005161913,-3.));
#2156=CARTESIAN_POINT('',(23.4122871024552,7.75000005161913,-1.));
#2157=CARTESIAN_POINT('Origin',(26.5877135829982,7.75000005161914,-3.));
#2158=CARTESIAN_POINT('',(26.5877135829982,7.75000005161914,-1.));
#2159=CARTESIAN_POINT('Origin',(25.0000003427267,5.00000005161914,-1.));
#2160=CARTESIAN_POINT('',(23.000000372529,5.,-1.));
#2161=CARTESIAN_POINT('Origin',(25.000000372529,5.,-1.));
#2162=CARTESIAN_POINT('Origin',(34.5,22.,-1.5));
#2163=CARTESIAN_POINT('Origin',(6.5,7.5,0.));
#2164=CARTESIAN_POINT('Origin',(32.3,42.5,0.));
#2165=CARTESIAN_POINT('',(30.3,42.5,0.));
#2166=CARTESIAN_POINT('Origin',(25.000000372529,5.,0.));
#2167=CARTESIAN_POINT('',(23.000000372529,5.,0.));
#2168=UNCERTAINTY_MEASURE_WITH_UNIT(LENGTH_MEASURE(0.01),#2172,
'DISTANCE_ACCURACY_VALUE',
'Maximum model space distance between geometric entities at asserted c
onnectivities');
#2169=UNCERTAINTY_MEASURE_WITH_UNIT(LENGTH_MEASURE(0.01),#2172,
'DISTANCE_ACCURACY_VALUE',
'Maximum model space distance between geometric entities at asserted c
onnectivities');
#2170=(
GEOMETRIC_REPRESENTATION_CONTEXT(3)
GLOBAL_UNCERTAINTY_ASSIGNED_CONTEXT((#2168))
GLOBAL_UNIT_ASSIGNED_CONTEXT((#2172,#2174,#2175))
REPRESENTATION_CONTEXT('','3D')
);
#2171=(
GEOMETRIC_REPRESENTATION_CONTEXT(3)
GLOBAL_UNCERTAINTY_ASSIGNED_CONTEXT((#2169))
GLOBAL_UNIT_ASSIGNED_CONTEXT((#2172,#2174,#2175))
REPRESENTATION_CONTEXT('','3D')
);
#2172=(
LENGTH_UNIT()
NAMED_UNIT(*)
SI_UNIT(.MILLI.,.METRE.)
);
#2173=(
LENGTH_UNIT()
NAMED_UNIT(*)
SI_UNIT($,.METRE.)
);
#2174=(
NAMED_UNIT(*)
PLANE_ANGLE_UNIT()
SI_UNIT($,.RADIAN.)
);
#2175=(
NAMED_UNIT(*)
SI_UNIT($,.STERADIAN.)
SOLID_ANGLE_UNIT()
);
#2176=SHAPE_DEFINITION_REPRESENTATION(#2177,#2178);
#2177=PRODUCT_DEFINITION_SHAPE('',$,#2180);
#2178=SHAPE_REPRESENTATION('',(#1304),#2170);
#2179=PRODUCT_DEFINITION_CONTEXT('part definition',#2184,'design');
#2180=PRODUCT_DEFINITION('main_board','main_board v5',#2181,#2179);
#2181=PRODUCT_DEFINITION_FORMATION('',$,#2186);
#2182=PRODUCT_RELATED_PRODUCT_CATEGORY('main_board v5','main_board v5',
(#2186));
#2183=APPLICATION_PROTOCOL_DEFINITION('international standard',
'automotive_design',2009,#2184);
#2184=APPLICATION_CONTEXT(
'Core Data for Automotive Mechanical Design Process');
#2185=PRODUCT_CONTEXT('part definition',#2184,'mechanical');
#2186=PRODUCT('main_board','main_board v5',$,(#2185));
#2187=PRESENTATION_STYLE_ASSIGNMENT((#2188));
#2188=SURFACE_STYLE_USAGE(.BOTH.,#2189);
#2189=SURFACE_SIDE_STYLE('',(#2190));
#2190=SURFACE_STYLE_FILL_AREA(#2191);
#2191=FILL_AREA_STYLE('Steel - Satin',(#2192));
#2192=FILL_AREA_STYLE_COLOUR('Steel - Satin',#2193);
#2193=COLOUR_RGB('Steel - Satin',0.627450980392157,0.627450980392157,0.627450980392157);
ENDSEC;
END-ISO-10303-21;
