ISO-10303-21;
HEADER;
/* Generated by software containing ST-Developer
 * from STEP Tools, Inc. (www.steptools.com) 
 */

FILE_DESCRIPTION(
/* description */ (''),
/* implementation_level */ '2;1');

FILE_NAME(
/* name */ 'mic.step',
/* time_stamp */ '2024-11-18T08:31:32+01:00',
/* author */ (''),
/* organization */ (''),
/* preprocessor_version */ 'ST-DEVELOPER v20',
/* originating_system */ 'Autodesk Translation Framework v13.20.0.188',

/* authorisation */ '');

FILE_SCHEMA (('AUTOMOTIVE_DESIGN { 1 0 10303 214 3 1 1 }'));
ENDSEC;

DATA;
#10=MECHANICAL_DESIGN_GEOMETRIC_PRESENTATION_REPRESENTATION('',(#13),#1349);
#11=SHAPE_REPRESENTATION_RELATIONSHIP('SRR','None',#1356,#12);
#12=ADVANCED_BREP_SHAPE_REPRESENTATION('',(#14),#1348);
#13=STYLED_ITEM('',(#1365),#14);
#14=MANIFOLD_SOLID_BREP('Body1',#650);
#15=FACE_BOUND('',#105,.T.);
#16=FACE_BOUND('',#106,.T.);
#17=FACE_BOUND('',#111,.T.);
#18=FACE_BOUND('',#112,.T.);
#19=FACE_BOUND('',#120,.T.);
#20=FACE_BOUND('',#122,.T.);
#21=FACE_BOUND('',#134,.T.);
#22=FACE_BOUND('',#135,.T.);
#23=FACE_BOUND('',#138,.T.);
#24=FACE_BOUND('',#140,.T.);
#25=PLANE('',#686);
#26=PLANE('',#693);
#27=PLANE('',#706);
#28=PLANE('',#720);
#29=PLANE('',#724);
#30=PLANE('',#725);
#31=PLANE('',#734);
#32=PLANE('',#741);
#33=PLANE('',#745);
#34=PLANE('',#746);
#35=(
BOUNDED_CURVE()
B_SPLINE_CURVE(5,(#1097,#1098,#1099,#1100,#1101,#1102,#1103,#1104,#1105,
#1106),.UNSPECIFIED.,.F.,.F.)
B_SPLINE_CURVE_WITH_KNOTS((6,1,1,1,1,6),(0.,0.2,0.4,0.6,0.8,1.),
 .UNSPECIFIED.)
CURVE()
GEOMETRIC_REPRESENTATION_ITEM()
RATIONAL_B_SPLINE_CURVE((1.,1.,1.,1.,1.,1.,1.,1.,1.,1.))
REPRESENTATION_ITEM('')
);
#36=(
BOUNDED_CURVE()
B_SPLINE_CURVE(5,(#1155,#1156,#1157,#1158,#1159,#1160,#1161,#1162,#1163,
#1164),.UNSPECIFIED.,.F.,.F.)
B_SPLINE_CURVE_WITH_KNOTS((6,1,1,1,1,6),(0.,0.2,0.4,0.6,0.8,1.),
 .UNSPECIFIED.)
CURVE()
GEOMETRIC_REPRESENTATION_ITEM()
RATIONAL_B_SPLINE_CURVE((1.,1.,1.,1.,1.,1.,1.,1.,1.,1.))
REPRESENTATION_ITEM('')
);
#37=(
BOUNDED_CURVE()
B_SPLINE_CURVE(5,(#1168,#1169,#1170,#1171,#1172,#1173,#1174,#1175,#1176,
#1177),.UNSPECIFIED.,.F.,.F.)
B_SPLINE_CURVE_WITH_KNOTS((6,1,1,1,1,6),(0.,0.2,0.4,0.6,0.8,1.),
 .UNSPECIFIED.)
CURVE()
GEOMETRIC_REPRESENTATION_ITEM()
RATIONAL_B_SPLINE_CURVE((1.,1.,1.,1.,1.,1.,1.,1.,1.,1.))
REPRESENTATION_ITEM('')
);
#38=(
BOUNDED_CURVE()
B_SPLINE_CURVE(5,(#1185,#1186,#1187,#1188,#1189,#1190,#1191,#1192,#1193,
#1194),.UNSPECIFIED.,.F.,.F.)
B_SPLINE_CURVE_WITH_KNOTS((6,1,1,1,1,6),(0.,0.2,0.4,0.6,0.8,1.),
 .UNSPECIFIED.)
CURVE()
GEOMETRIC_REPRESENTATION_ITEM()
RATIONAL_B_SPLINE_CURVE((1.,1.,1.,1.,1.,1.,1.,1.,1.,1.))
REPRESENTATION_ITEM('')
);
#39=(
BOUNDED_CURVE()
B_SPLINE_CURVE(5,(#1280,#1281,#1282,#1283,#1284,#1285,#1286,#1287,#1288,
#1289),.UNSPECIFIED.,.F.,.F.)
B_SPLINE_CURVE_WITH_KNOTS((6,1,1,1,1,6),(0.,0.2,0.4,0.6,0.8,1.),
 .UNSPECIFIED.)
CURVE()
GEOMETRIC_REPRESENTATION_ITEM()
RATIONAL_B_SPLINE_CURVE((1.,1.,1.,1.,1.,1.,1.,1.,1.,1.))
REPRESENTATION_ITEM('')
);
#40=(
BOUNDED_CURVE()
B_SPLINE_CURVE(5,(#1316,#1317,#1318,#1319,#1320,#1321,#1322,#1323,#1324,
#1325),.UNSPECIFIED.,.F.,.F.)
B_SPLINE_CURVE_WITH_KNOTS((6,1,1,1,1,6),(0.,0.2,0.4,0.6,0.8,1.),
 .UNSPECIFIED.)
CURVE()
GEOMETRIC_REPRESENTATION_ITEM()
RATIONAL_B_SPLINE_CURVE((1.,1.,1.,1.,1.,1.,1.,1.,1.,1.))
REPRESENTATION_ITEM('')
);
#41=(
BOUNDED_SURFACE()
B_SPLINE_SURFACE(5,1,((#1075,#1076),(#1077,#1078),(#1079,#1080),(#1081,
#1082),(#1083,#1084),(#1085,#1086),(#1087,#1088),(#1089,#1090),(#1091,#1092),
(#1093,#1094)),.UNSPECIFIED.,.F.,.F.,.F.)
B_SPLINE_SURFACE_WITH_KNOTS((6,1,1,1,1,6),(2,2),(0.,0.2,0.4,0.6,0.8,1.),
(0.,0.8),.UNSPECIFIED.)
GEOMETRIC_REPRESENTATION_ITEM()
RATIONAL_B_SPLINE_SURFACE(((1.,1.),(1.,1.),(1.,1.),(1.,1.),(1.,1.),(1.,
1.),(1.,1.),(1.,1.),(1.,1.),(1.,1.)))
REPRESENTATION_ITEM('')
SURFACE()
);
#42=(
BOUNDED_SURFACE()
B_SPLINE_SURFACE(5,1,((#1210,#1211),(#1212,#1213),(#1214,#1215),(#1216,
#1217),(#1218,#1219),(#1220,#1221),(#1222,#1223),(#1224,#1225),(#1226,#1227),
(#1228,#1229)),.UNSPECIFIED.,.F.,.F.,.F.)
B_SPLINE_SURFACE_WITH_KNOTS((6,1,1,1,1,6),(2,2),(0.,0.2,0.4,0.6,0.8,1.),
(0.,0.8),.UNSPECIFIED.)
GEOMETRIC_REPRESENTATION_ITEM()
RATIONAL_B_SPLINE_SURFACE(((1.,1.),(1.,1.),(1.,1.),(1.,1.),(1.,1.),(1.,
1.),(1.,1.),(1.,1.),(1.,1.),(1.,1.)))
REPRESENTATION_ITEM('')
SURFACE()
);
#43=(
BOUNDED_SURFACE()
B_SPLINE_SURFACE(5,1,((#1259,#1260),(#1261,#1262),(#1263,#1264),(#1265,
#1266),(#1267,#1268),(#1269,#1270),(#1271,#1272),(#1273,#1274),(#1275,#1276),
(#1277,#1278)),.UNSPECIFIED.,.F.,.F.,.F.)
B_SPLINE_SURFACE_WITH_KNOTS((6,1,1,1,1,6),(2,2),(0.,0.2,0.4,0.6,0.8,1.),
(0.,0.2),.UNSPECIFIED.)
GEOMETRIC_REPRESENTATION_ITEM()
RATIONAL_B_SPLINE_SURFACE(((1.,1.),(1.,1.),(1.,1.),(1.,1.),(1.,1.),(1.,
1.),(1.,1.),(1.,1.),(1.,1.),(1.,1.)))
REPRESENTATION_ITEM('')
SURFACE()
);
#44=(
BOUNDED_SURFACE()
B_SPLINE_SURFACE(5,1,((#1295,#1296),(#1297,#1298),(#1299,#1300),(#1301,
#1302),(#1303,#1304),(#1305,#1306),(#1307,#1308),(#1309,#1310),(#1311,#1312),
(#1313,#1314)),.UNSPECIFIED.,.F.,.F.,.F.)
B_SPLINE_SURFACE_WITH_KNOTS((6,1,1,1,1,6),(2,2),(0.,0.2,0.4,0.6,0.8,1.),
(0.,0.2),.UNSPECIFIED.)
GEOMETRIC_REPRESENTATION_ITEM()
RATIONAL_B_SPLINE_SURFACE(((1.,1.),(1.,1.),(1.,1.),(1.,1.),(1.,1.),(1.,
1.),(1.,1.),(1.,1.),(1.,1.),(1.,1.)))
REPRESENTATION_ITEM('')
SURFACE()
);
#45=B_SPLINE_CURVE_WITH_KNOTS('',3,(#996,#997,#998,#999,#1000,#1001),
 .UNSPECIFIED.,.F.,.F.,(4,1,1,4),(-0.610157247061974,-0.435826613559216,
-0.26149596813553,-8.10070699329604E-34),.UNSPECIFIED.);
#46=B_SPLINE_CURVE_WITH_KNOTS('',3,(#1002,#1003,#1004,#1005,#1006,#1007),
 .UNSPECIFIED.,.F.,.F.,(4,1,1,4),(8.10070699329604E-34,0.26149596813553,
0.435826613559216,0.610157258982902),.UNSPECIFIED.);
#47=B_SPLINE_CURVE_WITH_KNOTS('',3,(#1051,#1052,#1053,#1054,#1055,#1056),
 .UNSPECIFIED.,.F.,.F.,(4,1,1,4),(-0.610140943607614,-0.261488975831835,
-0.17432598388789,0.),.UNSPECIFIED.);
#48=B_SPLINE_CURVE_WITH_KNOTS('',3,(#1059,#1060,#1061,#1062,#1063,#1064),
 .UNSPECIFIED.,.F.,.F.,(4,1,1,4),(0.,0.17432598388789,0.261488975831835,
0.610140943607614),.UNSPECIFIED.);
#49=B_SPLINE_SURFACE_WITH_KNOTS('',3,3,((#963,#964,#965,#966,#967,#968),
(#969,#970,#971,#972,#973,#974),(#975,#976,#977,#978,#979,#980),(#981,#982,
#983,#984,#985,#986),(#987,#988,#989,#990,#991,#992)),.UNSPECIFIED.,.F.,
 .F.,.F.,(4,1,4),(4,1,1,4),(0.,0.5,1.),(8.10070699329604E-34,0.26149596813553,
0.435826613559216,0.610157258982902),.UNSPECIFIED.);
#50=B_SPLINE_SURFACE_WITH_KNOTS('',3,3,((#1017,#1018,#1019,#1020,#1021,
#1022),(#1023,#1024,#1025,#1026,#1027,#1028),(#1029,#1030,#1031,#1032,#1033,
#1034),(#1035,#1036,#1037,#1038,#1039,#1040),(#1041,#1042,#1043,#1044,#1045,
#1046)),.UNSPECIFIED.,.F.,.F.,.F.,(4,1,4),(4,1,1,4),(0.,0.5,1.),(0.,0.17432598388789,
0.261488975831835,0.610140943607614),.UNSPECIFIED.);
#51=TOROIDAL_SURFACE('',#667,2.5,0.5);
#52=TOROIDAL_SURFACE('',#677,2.5,0.5);
#53=TOROIDAL_SURFACE('',#687,3.5,0.5);
#54=TOROIDAL_SURFACE('',#700,3.5,0.5);
#55=FACE_OUTER_BOUND('',#93,.T.);
#56=FACE_OUTER_BOUND('',#94,.T.);
#57=FACE_OUTER_BOUND('',#95,.T.);
#58=FACE_OUTER_BOUND('',#96,.T.);
#59=FACE_OUTER_BOUND('',#97,.T.);
#60=FACE_OUTER_BOUND('',#98,.T.);
#61=FACE_OUTER_BOUND('',#99,.T.);
#62=FACE_OUTER_BOUND('',#100,.T.);
#63=FACE_OUTER_BOUND('',#101,.T.);
#64=FACE_OUTER_BOUND('',#102,.T.);
#65=FACE_OUTER_BOUND('',#103,.T.);
#66=FACE_OUTER_BOUND('',#104,.T.);
#67=FACE_OUTER_BOUND('',#107,.T.);
#68=FACE_OUTER_BOUND('',#108,.T.);
#69=FACE_OUTER_BOUND('',#109,.T.);
#70=FACE_OUTER_BOUND('',#110,.T.);
#71=FACE_OUTER_BOUND('',#113,.T.);
#72=FACE_OUTER_BOUND('',#114,.T.);
#73=FACE_OUTER_BOUND('',#115,.T.);
#74=FACE_OUTER_BOUND('',#116,.T.);
#75=FACE_OUTER_BOUND('',#117,.T.);
#76=FACE_OUTER_BOUND('',#118,.T.);
#77=FACE_OUTER_BOUND('',#119,.T.);
#78=FACE_OUTER_BOUND('',#121,.T.);
#79=FACE_OUTER_BOUND('',#123,.T.);
#80=FACE_OUTER_BOUND('',#124,.T.);
#81=FACE_OUTER_BOUND('',#125,.T.);
#82=FACE_OUTER_BOUND('',#126,.T.);
#83=FACE_OUTER_BOUND('',#127,.T.);
#84=FACE_OUTER_BOUND('',#128,.T.);
#85=FACE_OUTER_BOUND('',#129,.T.);
#86=FACE_OUTER_BOUND('',#130,.T.);
#87=FACE_OUTER_BOUND('',#131,.T.);
#88=FACE_OUTER_BOUND('',#132,.T.);
#89=FACE_OUTER_BOUND('',#133,.T.);
#90=FACE_OUTER_BOUND('',#136,.T.);
#91=FACE_OUTER_BOUND('',#137,.T.);
#92=FACE_OUTER_BOUND('',#139,.T.);
#93=EDGE_LOOP('',(#408,#409,#410,#411));
#94=EDGE_LOOP('',(#412,#413,#414,#415));
#95=EDGE_LOOP('',(#416,#417,#418,#419));
#96=EDGE_LOOP('',(#420,#421,#422,#423));
#97=EDGE_LOOP('',(#424,#425,#426,#427));
#98=EDGE_LOOP('',(#428,#429,#430,#431));
#99=EDGE_LOOP('',(#432,#433,#434,#435));
#100=EDGE_LOOP('',(#436,#437,#438,#439));
#101=EDGE_LOOP('',(#440,#441,#442,#443,#444,#445));
#102=EDGE_LOOP('',(#446,#447,#448,#449));
#103=EDGE_LOOP('',(#450,#451,#452,#453,#454,#455,#456,#457));
#104=EDGE_LOOP('',(#458,#459,#460,#461,#462,#463,#464,#465,#466));
#105=EDGE_LOOP('',(#467));
#106=EDGE_LOOP('',(#468));
#107=EDGE_LOOP('',(#469,#470,#471,#472,#473));
#108=EDGE_LOOP('',(#474,#475,#476,#477,#478,#479,#480,#481,#482));
#109=EDGE_LOOP('',(#483,#484,#485,#486,#487));
#110=EDGE_LOOP('',(#488,#489,#490,#491,#492,#493,#494,#495,#496,#497,#498,
#499,#500,#501));
#111=EDGE_LOOP('',(#502));
#112=EDGE_LOOP('',(#503));
#113=EDGE_LOOP('',(#504,#505,#506,#507));
#114=EDGE_LOOP('',(#508,#509,#510,#511));
#115=EDGE_LOOP('',(#512,#513,#514,#515));
#116=EDGE_LOOP('',(#516,#517,#518,#519));
#117=EDGE_LOOP('',(#520,#521,#522,#523));
#118=EDGE_LOOP('',(#524,#525,#526,#527));
#119=EDGE_LOOP('',(#528));
#120=EDGE_LOOP('',(#529));
#121=EDGE_LOOP('',(#530));
#122=EDGE_LOOP('',(#531));
#123=EDGE_LOOP('',(#532,#533,#534,#535));
#124=EDGE_LOOP('',(#536,#537,#538,#539));
#125=EDGE_LOOP('',(#540,#541,#542,#543));
#126=EDGE_LOOP('',(#544,#545,#546,#547));
#127=EDGE_LOOP('',(#548,#549,#550,#551));
#128=EDGE_LOOP('',(#552,#553,#554,#555));
#129=EDGE_LOOP('',(#556,#557,#558,#559));
#130=EDGE_LOOP('',(#560,#561,#562,#563));
#131=EDGE_LOOP('',(#564,#565,#566,#567));
#132=EDGE_LOOP('',(#568,#569,#570,#571,#572,#573));
#133=EDGE_LOOP('',(#574,#575,#576,#577,#578,#579,#580,#581,#582,#583));
#134=EDGE_LOOP('',(#584));
#135=EDGE_LOOP('',(#585));
#136=EDGE_LOOP('',(#586,#587,#588,#589));
#137=EDGE_LOOP('',(#590));
#138=EDGE_LOOP('',(#591));
#139=EDGE_LOOP('',(#592));
#140=EDGE_LOOP('',(#593));
#141=LINE('',#953,#173);
#142=LINE('',#956,#174);
#143=LINE('',#1013,#175);
#144=LINE('',#1016,#176);
#145=LINE('',#1071,#177);
#146=LINE('',#1074,#178);
#147=LINE('',#1096,#179);
#148=LINE('',#1109,#180);
#149=LINE('',#1113,#181);
#150=LINE('',#1117,#182);
#151=LINE('',#1118,#183);
#152=LINE('',#1137,#184);
#153=LINE('',#1147,#185);
#154=LINE('',#1166,#186);
#155=LINE('',#1197,#187);
#156=LINE('',#1205,#188);
#157=LINE('',#1209,#189);
#158=LINE('',#1230,#190);
#159=LINE('',#1231,#191);
#160=LINE('',#1233,#192);
#161=LINE('',#1239,#193);
#162=LINE('',#1246,#194);
#163=LINE('',#1250,#195);
#164=LINE('',#1254,#196);
#165=LINE('',#1258,#197);
#166=LINE('',#1290,#198);
#167=LINE('',#1293,#199);
#168=LINE('',#1294,#200);
#169=LINE('',#1326,#201);
#170=LINE('',#1330,#202);
#171=LINE('',#1334,#203);
#172=LINE('',#1342,#204);
#173=VECTOR('',#753,10.);
#174=VECTOR('',#756,10.);
#175=VECTOR('',#771,10.);
#176=VECTOR('',#774,10.);
#177=VECTOR('',#789,10.);
#178=VECTOR('',#792,10.);
#179=VECTOR('',#793,10.);
#180=VECTOR('',#796,10.);
#181=VECTOR('',#799,10.);
#182=VECTOR('',#804,10.);
#183=VECTOR('',#805,10.);
#184=VECTOR('',#830,3.);
#185=VECTOR('',#843,3.);
#186=VECTOR('',#852,10.);
#187=VECTOR('',#861,10.);
#188=VECTOR('',#870,3.);
#189=VECTOR('',#875,3.);
#190=VECTOR('',#876,10.);
#191=VECTOR('',#877,10.);
#192=VECTOR('',#880,10.);
#193=VECTOR('',#887,2.5);
#194=VECTOR('',#898,1.);
#195=VECTOR('',#903,1.);
#196=VECTOR('',#908,10.);
#197=VECTOR('',#913,10.);
#198=VECTOR('',#914,10.);
#199=VECTOR('',#917,10.);
#200=VECTOR('',#918,10.);
#201=VECTOR('',#919,10.);
#202=VECTOR('',#924,10.);
#203=VECTOR('',#929,10.);
#204=VECTOR('',#940,2.5);
#205=CIRCLE('',#665,0.5);
#206=CIRCLE('',#666,0.499999999999998);
#207=CIRCLE('',#668,0.5);
#208=CIRCLE('',#669,2.5);
#209=CIRCLE('',#670,3.);
#210=CIRCLE('',#671,0.5);
#211=CIRCLE('',#673,0.5);
#212=CIRCLE('',#674,0.499999999999999);
#213=CIRCLE('',#675,0.500000000000001);
#214=CIRCLE('',#676,0.499999999999998);
#215=CIRCLE('',#678,2.5);
#216=CIRCLE('',#679,3.);
#217=CIRCLE('',#681,4.);
#218=CIRCLE('',#682,4.);
#219=CIRCLE('',#684,3.);
#220=CIRCLE('',#685,3.);
#221=CIRCLE('',#688,3.5);
#222=CIRCLE('',#689,4.);
#223=CIRCLE('',#690,0.5);
#224=CIRCLE('',#691,3.);
#225=CIRCLE('',#692,3.);
#226=CIRCLE('',#694,3.5);
#227=CIRCLE('',#695,3.5);
#228=CIRCLE('',#696,1.);
#229=CIRCLE('',#697,1.);
#230=CIRCLE('',#699,3.);
#231=CIRCLE('',#701,0.5);
#232=CIRCLE('',#702,3.);
#233=CIRCLE('',#703,3.);
#234=CIRCLE('',#705,3.);
#235=CIRCLE('',#707,2.);
#236=CIRCLE('',#708,3.);
#237=CIRCLE('',#709,3.);
#238=CIRCLE('',#710,2.00000000000001);
#239=CIRCLE('',#711,3.);
#240=CIRCLE('',#712,4.);
#241=CIRCLE('',#713,3.);
#242=CIRCLE('',#714,3.);
#243=CIRCLE('',#716,3.);
#244=CIRCLE('',#718,3.);
#245=CIRCLE('',#722,2.5);
#246=CIRCLE('',#723,2.5);
#247=CIRCLE('',#727,1.);
#248=CIRCLE('',#729,1.);
#249=CIRCLE('',#731,2.);
#250=CIRCLE('',#733,3.);
#251=CIRCLE('',#736,3.);
#252=CIRCLE('',#738,2.00000000000001);
#253=CIRCLE('',#740,3.);
#254=CIRCLE('',#743,2.5);
#255=CIRCLE('',#744,2.5);
#256=VERTEX_POINT('',#949);
#257=VERTEX_POINT('',#950);
#258=VERTEX_POINT('',#952);
#259=VERTEX_POINT('',#954);
#260=VERTEX_POINT('',#958);
#261=VERTEX_POINT('',#959);
#262=VERTEX_POINT('',#993);
#263=VERTEX_POINT('',#994);
#264=VERTEX_POINT('',#1009);
#265=VERTEX_POINT('',#1010);
#266=VERTEX_POINT('',#1012);
#267=VERTEX_POINT('',#1014);
#268=VERTEX_POINT('',#1047);
#269=VERTEX_POINT('',#1048);
#270=VERTEX_POINT('',#1050);
#271=VERTEX_POINT('',#1057);
#272=VERTEX_POINT('',#1070);
#273=VERTEX_POINT('',#1072);
#274=VERTEX_POINT('',#1095);
#275=VERTEX_POINT('',#1108);
#276=VERTEX_POINT('',#1110);
#277=VERTEX_POINT('',#1112);
#278=VERTEX_POINT('',#1116);
#279=VERTEX_POINT('',#1122);
#280=VERTEX_POINT('',#1124);
#281=VERTEX_POINT('',#1128);
#282=VERTEX_POINT('',#1131);
#283=VERTEX_POINT('',#1133);
#284=VERTEX_POINT('',#1136);
#285=VERTEX_POINT('',#1140);
#286=VERTEX_POINT('',#1142);
#287=VERTEX_POINT('',#1146);
#288=VERTEX_POINT('',#1150);
#289=VERTEX_POINT('',#1152);
#290=VERTEX_POINT('',#1154);
#291=VERTEX_POINT('',#1165);
#292=VERTEX_POINT('',#1167);
#293=VERTEX_POINT('',#1178);
#294=VERTEX_POINT('',#1180);
#295=VERTEX_POINT('',#1182);
#296=VERTEX_POINT('',#1184);
#297=VERTEX_POINT('',#1195);
#298=VERTEX_POINT('',#1198);
#299=VERTEX_POINT('',#1200);
#300=VERTEX_POINT('',#1203);
#301=VERTEX_POINT('',#1207);
#302=VERTEX_POINT('',#1236);
#303=VERTEX_POINT('',#1238);
#304=VERTEX_POINT('',#1244);
#305=VERTEX_POINT('',#1248);
#306=VERTEX_POINT('',#1252);
#307=VERTEX_POINT('',#1256);
#308=VERTEX_POINT('',#1279);
#309=VERTEX_POINT('',#1292);
#310=VERTEX_POINT('',#1315);
#311=VERTEX_POINT('',#1328);
#312=VERTEX_POINT('',#1332);
#313=VERTEX_POINT('',#1339);
#314=VERTEX_POINT('',#1341);
#315=EDGE_CURVE('',#256,#257,#205,.T.);
#316=EDGE_CURVE('',#257,#258,#141,.T.);
#317=EDGE_CURVE('',#258,#259,#206,.T.);
#318=EDGE_CURVE('',#259,#256,#142,.T.);
#319=EDGE_CURVE('',#260,#261,#207,.T.);
#320=EDGE_CURVE('',#261,#259,#208,.T.);
#321=EDGE_CURVE('',#258,#260,#209,.T.);
#322=EDGE_CURVE('',#262,#263,#210,.T.);
#323=EDGE_CURVE('',#263,#261,#45,.T.);
#324=EDGE_CURVE('',#260,#262,#46,.T.);
#325=EDGE_CURVE('',#264,#265,#211,.T.);
#326=EDGE_CURVE('',#265,#266,#143,.T.);
#327=EDGE_CURVE('',#267,#266,#212,.T.);
#328=EDGE_CURVE('',#267,#264,#144,.T.);
#329=EDGE_CURVE('',#268,#269,#213,.T.);
#330=EDGE_CURVE('',#269,#270,#47,.T.);
#331=EDGE_CURVE('',#271,#270,#214,.T.);
#332=EDGE_CURVE('',#271,#268,#48,.T.);
#333=EDGE_CURVE('',#256,#269,#215,.T.);
#334=EDGE_CURVE('',#268,#257,#216,.T.);
#335=EDGE_CURVE('',#262,#267,#217,.T.);
#336=EDGE_CURVE('',#272,#262,#145,.T.);
#337=EDGE_CURVE('',#272,#273,#218,.T.);
#338=EDGE_CURVE('',#273,#267,#146,.T.);
#339=EDGE_CURVE('',#274,#260,#147,.T.);
#340=EDGE_CURVE('',#274,#272,#35,.T.);
#341=EDGE_CURVE('',#275,#258,#148,.T.);
#342=EDGE_CURVE('',#276,#275,#219,.T.);
#343=EDGE_CURVE('',#277,#276,#149,.T.);
#344=EDGE_CURVE('',#277,#274,#220,.T.);
#345=EDGE_CURVE('',#257,#278,#150,.T.);
#346=EDGE_CURVE('',#275,#278,#151,.T.);
#347=EDGE_CURVE('',#270,#265,#221,.T.);
#348=EDGE_CURVE('',#264,#271,#222,.T.);
#349=EDGE_CURVE('',#270,#279,#223,.T.);
#350=EDGE_CURVE('',#279,#280,#224,.T.);
#351=EDGE_CURVE('',#280,#279,#225,.T.);
#352=EDGE_CURVE('',#281,#263,#226,.T.);
#353=EDGE_CURVE('',#266,#281,#227,.T.);
#354=EDGE_CURVE('',#282,#282,#228,.T.);
#355=EDGE_CURVE('',#283,#283,#229,.T.);
#356=EDGE_CURVE('',#280,#284,#152,.T.);
#357=EDGE_CURVE('',#284,#284,#230,.T.);
#358=EDGE_CURVE('',#281,#285,#231,.T.);
#359=EDGE_CURVE('',#285,#286,#232,.T.);
#360=EDGE_CURVE('',#286,#285,#233,.T.);
#361=EDGE_CURVE('',#286,#287,#153,.T.);
#362=EDGE_CURVE('',#287,#287,#234,.T.);
#363=EDGE_CURVE('',#277,#288,#235,.T.);
#364=EDGE_CURVE('',#288,#289,#236,.T.);
#365=EDGE_CURVE('',#290,#289,#36,.T.);
#366=EDGE_CURVE('',#291,#290,#154,.T.);
#367=EDGE_CURVE('',#292,#291,#37,.T.);
#368=EDGE_CURVE('',#292,#293,#237,.T.);
#369=EDGE_CURVE('',#293,#294,#238,.T.);
#370=EDGE_CURVE('',#295,#294,#239,.T.);
#371=EDGE_CURVE('',#296,#295,#38,.T.);
#372=EDGE_CURVE('',#297,#296,#240,.T.);
#373=EDGE_CURVE('',#273,#297,#155,.T.);
#374=EDGE_CURVE('',#298,#298,#241,.T.);
#375=EDGE_CURVE('',#299,#299,#242,.T.);
#376=EDGE_CURVE('',#300,#300,#243,.T.);
#377=EDGE_CURVE('',#300,#298,#156,.T.);
#378=EDGE_CURVE('',#301,#301,#244,.T.);
#379=EDGE_CURVE('',#301,#299,#157,.T.);
#380=EDGE_CURVE('',#296,#271,#158,.T.);
#381=EDGE_CURVE('',#295,#268,#159,.T.);
#382=EDGE_CURVE('',#297,#264,#160,.T.);
#383=EDGE_CURVE('',#302,#302,#245,.T.);
#384=EDGE_CURVE('',#302,#303,#161,.T.);
#385=EDGE_CURVE('',#303,#303,#246,.T.);
#386=EDGE_CURVE('',#304,#304,#247,.T.);
#387=EDGE_CURVE('',#304,#283,#162,.T.);
#388=EDGE_CURVE('',#305,#305,#248,.T.);
#389=EDGE_CURVE('',#305,#282,#163,.T.);
#390=EDGE_CURVE('',#306,#276,#249,.T.);
#391=EDGE_CURVE('',#288,#306,#164,.T.);
#392=EDGE_CURVE('',#307,#306,#250,.T.);
#393=EDGE_CURVE('',#289,#307,#165,.T.);
#394=EDGE_CURVE('',#308,#307,#39,.T.);
#395=EDGE_CURVE('',#290,#308,#166,.T.);
#396=EDGE_CURVE('',#309,#308,#167,.T.);
#397=EDGE_CURVE('',#291,#309,#168,.T.);
#398=EDGE_CURVE('',#310,#309,#40,.T.);
#399=EDGE_CURVE('',#292,#310,#169,.T.);
#400=EDGE_CURVE('',#311,#310,#251,.T.);
#401=EDGE_CURVE('',#293,#311,#170,.T.);
#402=EDGE_CURVE('',#312,#311,#252,.T.);
#403=EDGE_CURVE('',#294,#312,#171,.T.);
#404=EDGE_CURVE('',#278,#312,#253,.T.);
#405=EDGE_CURVE('',#313,#313,#254,.T.);
#406=EDGE_CURVE('',#313,#314,#172,.T.);
#407=EDGE_CURVE('',#314,#314,#255,.T.);
#408=ORIENTED_EDGE('',*,*,#315,.T.);
#409=ORIENTED_EDGE('',*,*,#316,.T.);
#410=ORIENTED_EDGE('',*,*,#317,.T.);
#411=ORIENTED_EDGE('',*,*,#318,.T.);
#412=ORIENTED_EDGE('',*,*,#319,.T.);
#413=ORIENTED_EDGE('',*,*,#320,.T.);
#414=ORIENTED_EDGE('',*,*,#317,.F.);
#415=ORIENTED_EDGE('',*,*,#321,.T.);
#416=ORIENTED_EDGE('',*,*,#322,.T.);
#417=ORIENTED_EDGE('',*,*,#323,.T.);
#418=ORIENTED_EDGE('',*,*,#319,.F.);
#419=ORIENTED_EDGE('',*,*,#324,.T.);
#420=ORIENTED_EDGE('',*,*,#325,.T.);
#421=ORIENTED_EDGE('',*,*,#326,.T.);
#422=ORIENTED_EDGE('',*,*,#327,.F.);
#423=ORIENTED_EDGE('',*,*,#328,.T.);
#424=ORIENTED_EDGE('',*,*,#329,.T.);
#425=ORIENTED_EDGE('',*,*,#330,.T.);
#426=ORIENTED_EDGE('',*,*,#331,.F.);
#427=ORIENTED_EDGE('',*,*,#332,.T.);
#428=ORIENTED_EDGE('',*,*,#315,.F.);
#429=ORIENTED_EDGE('',*,*,#333,.T.);
#430=ORIENTED_EDGE('',*,*,#329,.F.);
#431=ORIENTED_EDGE('',*,*,#334,.T.);
#432=ORIENTED_EDGE('',*,*,#335,.F.);
#433=ORIENTED_EDGE('',*,*,#336,.F.);
#434=ORIENTED_EDGE('',*,*,#337,.T.);
#435=ORIENTED_EDGE('',*,*,#338,.T.);
#436=ORIENTED_EDGE('',*,*,#324,.F.);
#437=ORIENTED_EDGE('',*,*,#339,.F.);
#438=ORIENTED_EDGE('',*,*,#340,.T.);
#439=ORIENTED_EDGE('',*,*,#336,.T.);
#440=ORIENTED_EDGE('',*,*,#321,.F.);
#441=ORIENTED_EDGE('',*,*,#341,.F.);
#442=ORIENTED_EDGE('',*,*,#342,.F.);
#443=ORIENTED_EDGE('',*,*,#343,.F.);
#444=ORIENTED_EDGE('',*,*,#344,.T.);
#445=ORIENTED_EDGE('',*,*,#339,.T.);
#446=ORIENTED_EDGE('',*,*,#316,.F.);
#447=ORIENTED_EDGE('',*,*,#345,.T.);
#448=ORIENTED_EDGE('',*,*,#346,.F.);
#449=ORIENTED_EDGE('',*,*,#341,.T.);
#450=ORIENTED_EDGE('',*,*,#347,.T.);
#451=ORIENTED_EDGE('',*,*,#325,.F.);
#452=ORIENTED_EDGE('',*,*,#348,.T.);
#453=ORIENTED_EDGE('',*,*,#331,.T.);
#454=ORIENTED_EDGE('',*,*,#349,.T.);
#455=ORIENTED_EDGE('',*,*,#350,.T.);
#456=ORIENTED_EDGE('',*,*,#351,.T.);
#457=ORIENTED_EDGE('',*,*,#349,.F.);
#458=ORIENTED_EDGE('',*,*,#326,.F.);
#459=ORIENTED_EDGE('',*,*,#347,.F.);
#460=ORIENTED_EDGE('',*,*,#330,.F.);
#461=ORIENTED_EDGE('',*,*,#333,.F.);
#462=ORIENTED_EDGE('',*,*,#318,.F.);
#463=ORIENTED_EDGE('',*,*,#320,.F.);
#464=ORIENTED_EDGE('',*,*,#323,.F.);
#465=ORIENTED_EDGE('',*,*,#352,.F.);
#466=ORIENTED_EDGE('',*,*,#353,.F.);
#467=ORIENTED_EDGE('',*,*,#354,.T.);
#468=ORIENTED_EDGE('',*,*,#355,.T.);
#469=ORIENTED_EDGE('',*,*,#351,.F.);
#470=ORIENTED_EDGE('',*,*,#356,.T.);
#471=ORIENTED_EDGE('',*,*,#357,.F.);
#472=ORIENTED_EDGE('',*,*,#356,.F.);
#473=ORIENTED_EDGE('',*,*,#350,.F.);
#474=ORIENTED_EDGE('',*,*,#353,.T.);
#475=ORIENTED_EDGE('',*,*,#358,.T.);
#476=ORIENTED_EDGE('',*,*,#359,.T.);
#477=ORIENTED_EDGE('',*,*,#360,.T.);
#478=ORIENTED_EDGE('',*,*,#358,.F.);
#479=ORIENTED_EDGE('',*,*,#352,.T.);
#480=ORIENTED_EDGE('',*,*,#322,.F.);
#481=ORIENTED_EDGE('',*,*,#335,.T.);
#482=ORIENTED_EDGE('',*,*,#327,.T.);
#483=ORIENTED_EDGE('',*,*,#360,.F.);
#484=ORIENTED_EDGE('',*,*,#361,.T.);
#485=ORIENTED_EDGE('',*,*,#362,.F.);
#486=ORIENTED_EDGE('',*,*,#361,.F.);
#487=ORIENTED_EDGE('',*,*,#359,.F.);
#488=ORIENTED_EDGE('',*,*,#363,.T.);
#489=ORIENTED_EDGE('',*,*,#364,.T.);
#490=ORIENTED_EDGE('',*,*,#365,.F.);
#491=ORIENTED_EDGE('',*,*,#366,.F.);
#492=ORIENTED_EDGE('',*,*,#367,.F.);
#493=ORIENTED_EDGE('',*,*,#368,.T.);
#494=ORIENTED_EDGE('',*,*,#369,.T.);
#495=ORIENTED_EDGE('',*,*,#370,.F.);
#496=ORIENTED_EDGE('',*,*,#371,.F.);
#497=ORIENTED_EDGE('',*,*,#372,.F.);
#498=ORIENTED_EDGE('',*,*,#373,.F.);
#499=ORIENTED_EDGE('',*,*,#337,.F.);
#500=ORIENTED_EDGE('',*,*,#340,.F.);
#501=ORIENTED_EDGE('',*,*,#344,.F.);
#502=ORIENTED_EDGE('',*,*,#374,.F.);
#503=ORIENTED_EDGE('',*,*,#375,.F.);
#504=ORIENTED_EDGE('',*,*,#376,.T.);
#505=ORIENTED_EDGE('',*,*,#377,.T.);
#506=ORIENTED_EDGE('',*,*,#374,.T.);
#507=ORIENTED_EDGE('',*,*,#377,.F.);
#508=ORIENTED_EDGE('',*,*,#378,.T.);
#509=ORIENTED_EDGE('',*,*,#379,.T.);
#510=ORIENTED_EDGE('',*,*,#375,.T.);
#511=ORIENTED_EDGE('',*,*,#379,.F.);
#512=ORIENTED_EDGE('',*,*,#332,.F.);
#513=ORIENTED_EDGE('',*,*,#380,.F.);
#514=ORIENTED_EDGE('',*,*,#371,.T.);
#515=ORIENTED_EDGE('',*,*,#381,.T.);
#516=ORIENTED_EDGE('',*,*,#348,.F.);
#517=ORIENTED_EDGE('',*,*,#382,.F.);
#518=ORIENTED_EDGE('',*,*,#372,.T.);
#519=ORIENTED_EDGE('',*,*,#380,.T.);
#520=ORIENTED_EDGE('',*,*,#328,.F.);
#521=ORIENTED_EDGE('',*,*,#338,.F.);
#522=ORIENTED_EDGE('',*,*,#373,.T.);
#523=ORIENTED_EDGE('',*,*,#382,.T.);
#524=ORIENTED_EDGE('',*,*,#383,.F.);
#525=ORIENTED_EDGE('',*,*,#384,.T.);
#526=ORIENTED_EDGE('',*,*,#385,.T.);
#527=ORIENTED_EDGE('',*,*,#384,.F.);
#528=ORIENTED_EDGE('',*,*,#357,.T.);
#529=ORIENTED_EDGE('',*,*,#383,.T.);
#530=ORIENTED_EDGE('',*,*,#378,.F.);
#531=ORIENTED_EDGE('',*,*,#385,.F.);
#532=ORIENTED_EDGE('',*,*,#386,.F.);
#533=ORIENTED_EDGE('',*,*,#387,.T.);
#534=ORIENTED_EDGE('',*,*,#355,.F.);
#535=ORIENTED_EDGE('',*,*,#387,.F.);
#536=ORIENTED_EDGE('',*,*,#388,.F.);
#537=ORIENTED_EDGE('',*,*,#389,.T.);
#538=ORIENTED_EDGE('',*,*,#354,.F.);
#539=ORIENTED_EDGE('',*,*,#389,.F.);
#540=ORIENTED_EDGE('',*,*,#363,.F.);
#541=ORIENTED_EDGE('',*,*,#343,.T.);
#542=ORIENTED_EDGE('',*,*,#390,.F.);
#543=ORIENTED_EDGE('',*,*,#391,.F.);
#544=ORIENTED_EDGE('',*,*,#364,.F.);
#545=ORIENTED_EDGE('',*,*,#391,.T.);
#546=ORIENTED_EDGE('',*,*,#392,.F.);
#547=ORIENTED_EDGE('',*,*,#393,.F.);
#548=ORIENTED_EDGE('',*,*,#365,.T.);
#549=ORIENTED_EDGE('',*,*,#393,.T.);
#550=ORIENTED_EDGE('',*,*,#394,.F.);
#551=ORIENTED_EDGE('',*,*,#395,.F.);
#552=ORIENTED_EDGE('',*,*,#366,.T.);
#553=ORIENTED_EDGE('',*,*,#395,.T.);
#554=ORIENTED_EDGE('',*,*,#396,.F.);
#555=ORIENTED_EDGE('',*,*,#397,.F.);
#556=ORIENTED_EDGE('',*,*,#367,.T.);
#557=ORIENTED_EDGE('',*,*,#397,.T.);
#558=ORIENTED_EDGE('',*,*,#398,.F.);
#559=ORIENTED_EDGE('',*,*,#399,.F.);
#560=ORIENTED_EDGE('',*,*,#368,.F.);
#561=ORIENTED_EDGE('',*,*,#399,.T.);
#562=ORIENTED_EDGE('',*,*,#400,.F.);
#563=ORIENTED_EDGE('',*,*,#401,.F.);
#564=ORIENTED_EDGE('',*,*,#369,.F.);
#565=ORIENTED_EDGE('',*,*,#401,.T.);
#566=ORIENTED_EDGE('',*,*,#402,.F.);
#567=ORIENTED_EDGE('',*,*,#403,.F.);
#568=ORIENTED_EDGE('',*,*,#334,.F.);
#569=ORIENTED_EDGE('',*,*,#381,.F.);
#570=ORIENTED_EDGE('',*,*,#370,.T.);
#571=ORIENTED_EDGE('',*,*,#403,.T.);
#572=ORIENTED_EDGE('',*,*,#404,.F.);
#573=ORIENTED_EDGE('',*,*,#345,.F.);
#574=ORIENTED_EDGE('',*,*,#346,.T.);
#575=ORIENTED_EDGE('',*,*,#404,.T.);
#576=ORIENTED_EDGE('',*,*,#402,.T.);
#577=ORIENTED_EDGE('',*,*,#400,.T.);
#578=ORIENTED_EDGE('',*,*,#398,.T.);
#579=ORIENTED_EDGE('',*,*,#396,.T.);
#580=ORIENTED_EDGE('',*,*,#394,.T.);
#581=ORIENTED_EDGE('',*,*,#392,.T.);
#582=ORIENTED_EDGE('',*,*,#390,.T.);
#583=ORIENTED_EDGE('',*,*,#342,.T.);
#584=ORIENTED_EDGE('',*,*,#388,.T.);
#585=ORIENTED_EDGE('',*,*,#386,.T.);
#586=ORIENTED_EDGE('',*,*,#405,.F.);
#587=ORIENTED_EDGE('',*,*,#406,.T.);
#588=ORIENTED_EDGE('',*,*,#407,.T.);
#589=ORIENTED_EDGE('',*,*,#406,.F.);
#590=ORIENTED_EDGE('',*,*,#362,.T.);
#591=ORIENTED_EDGE('',*,*,#405,.T.);
#592=ORIENTED_EDGE('',*,*,#376,.F.);
#593=ORIENTED_EDGE('',*,*,#407,.F.);
#594=CYLINDRICAL_SURFACE('',#664,0.5);
#595=CYLINDRICAL_SURFACE('',#672,0.5);
#596=CYLINDRICAL_SURFACE('',#680,4.);
#597=CYLINDRICAL_SURFACE('',#683,3.);
#598=CYLINDRICAL_SURFACE('',#698,3.);
#599=CYLINDRICAL_SURFACE('',#704,3.);
#600=CYLINDRICAL_SURFACE('',#715,3.);
#601=CYLINDRICAL_SURFACE('',#717,3.);
#602=CYLINDRICAL_SURFACE('',#719,4.);
#603=CYLINDRICAL_SURFACE('',#721,2.5);
#604=CYLINDRICAL_SURFACE('',#726,1.);
#605=CYLINDRICAL_SURFACE('',#728,1.);
#606=CYLINDRICAL_SURFACE('',#730,2.);
#607=CYLINDRICAL_SURFACE('',#732,3.);
#608=CYLINDRICAL_SURFACE('',#735,3.);
#609=CYLINDRICAL_SURFACE('',#737,2.00000000000001);
#610=CYLINDRICAL_SURFACE('',#739,3.);
#611=CYLINDRICAL_SURFACE('',#742,2.5);
#612=ADVANCED_FACE('',(#55),#594,.T.);
#613=ADVANCED_FACE('',(#56),#51,.T.);
#614=ADVANCED_FACE('',(#57),#49,.F.);
#615=ADVANCED_FACE('',(#58),#595,.T.);
#616=ADVANCED_FACE('',(#59),#50,.F.);
#617=ADVANCED_FACE('',(#60),#52,.T.);
#618=ADVANCED_FACE('',(#61),#596,.T.);
#619=ADVANCED_FACE('',(#62),#41,.T.);
#620=ADVANCED_FACE('',(#63),#597,.T.);
#621=ADVANCED_FACE('',(#64),#25,.T.);
#622=ADVANCED_FACE('',(#65),#53,.T.);
#623=ADVANCED_FACE('',(#66,#15,#16),#26,.T.);
#624=ADVANCED_FACE('',(#67),#598,.F.);
#625=ADVANCED_FACE('',(#68),#54,.T.);
#626=ADVANCED_FACE('',(#69),#599,.F.);
#627=ADVANCED_FACE('',(#70,#17,#18),#27,.F.);
#628=ADVANCED_FACE('',(#71),#600,.F.);
#629=ADVANCED_FACE('',(#72),#601,.F.);
#630=ADVANCED_FACE('',(#73),#42,.T.);
#631=ADVANCED_FACE('',(#74),#602,.T.);
#632=ADVANCED_FACE('',(#75),#28,.T.);
#633=ADVANCED_FACE('',(#76),#603,.F.);
#634=ADVANCED_FACE('',(#77,#19),#29,.T.);
#635=ADVANCED_FACE('',(#78,#20),#30,.F.);
#636=ADVANCED_FACE('',(#79),#604,.F.);
#637=ADVANCED_FACE('',(#80),#605,.F.);
#638=ADVANCED_FACE('',(#81),#606,.T.);
#639=ADVANCED_FACE('',(#82),#607,.T.);
#640=ADVANCED_FACE('',(#83),#43,.T.);
#641=ADVANCED_FACE('',(#84),#31,.T.);
#642=ADVANCED_FACE('',(#85),#44,.T.);
#643=ADVANCED_FACE('',(#86),#608,.T.);
#644=ADVANCED_FACE('',(#87),#609,.T.);
#645=ADVANCED_FACE('',(#88),#610,.T.);
#646=ADVANCED_FACE('',(#89,#21,#22),#32,.F.);
#647=ADVANCED_FACE('',(#90),#611,.F.);
#648=ADVANCED_FACE('',(#91,#23),#33,.T.);
#649=ADVANCED_FACE('',(#92,#24),#34,.F.);
#650=CLOSED_SHELL('',(#612,#613,#614,#615,#616,#617,#618,#619,#620,#621,
#622,#623,#624,#625,#626,#627,#628,#629,#630,#631,#632,#633,#634,#635,#636,
#637,#638,#639,#640,#641,#642,#643,#644,#645,#646,#647,#648,#649));
#651=DERIVED_UNIT_ELEMENT(#653,1.);
#652=DERIVED_UNIT_ELEMENT(#1351,-3.);
#653=(
MASS_UNIT()
NAMED_UNIT(*)
SI_UNIT(.KILO.,.GRAM.)
);
#654=DERIVED_UNIT((#651,#652));
#655=MEASURE_REPRESENTATION_ITEM('density measure',
POSITIVE_RATIO_MEASURE(7850.),#654);
#656=PROPERTY_DEFINITION_REPRESENTATION(#661,#658);
#657=PROPERTY_DEFINITION_REPRESENTATION(#662,#659);
#658=REPRESENTATION('material name',(#660),#1348);
#659=REPRESENTATION('density',(#655),#1348);
#660=DESCRIPTIVE_REPRESENTATION_ITEM('Steel','Steel');
#661=PROPERTY_DEFINITION('material property','material name',#1358);
#662=PROPERTY_DEFINITION('material property','density of part',#1358);
#663=AXIS2_PLACEMENT_3D('',#947,#747,#748);
#664=AXIS2_PLACEMENT_3D('',#948,#749,#750);
#665=AXIS2_PLACEMENT_3D('',#951,#751,#752);
#666=AXIS2_PLACEMENT_3D('',#955,#754,#755);
#667=AXIS2_PLACEMENT_3D('',#957,#757,#758);
#668=AXIS2_PLACEMENT_3D('',#960,#759,#760);
#669=AXIS2_PLACEMENT_3D('',#961,#761,#762);
#670=AXIS2_PLACEMENT_3D('',#962,#763,#764);
#671=AXIS2_PLACEMENT_3D('',#995,#765,#766);
#672=AXIS2_PLACEMENT_3D('',#1008,#767,#768);
#673=AXIS2_PLACEMENT_3D('',#1011,#769,#770);
#674=AXIS2_PLACEMENT_3D('',#1015,#772,#773);
#675=AXIS2_PLACEMENT_3D('',#1049,#775,#776);
#676=AXIS2_PLACEMENT_3D('',#1058,#777,#778);
#677=AXIS2_PLACEMENT_3D('',#1065,#779,#780);
#678=AXIS2_PLACEMENT_3D('',#1066,#781,#782);
#679=AXIS2_PLACEMENT_3D('',#1067,#783,#784);
#680=AXIS2_PLACEMENT_3D('',#1068,#785,#786);
#681=AXIS2_PLACEMENT_3D('',#1069,#787,#788);
#682=AXIS2_PLACEMENT_3D('',#1073,#790,#791);
#683=AXIS2_PLACEMENT_3D('',#1107,#794,#795);
#684=AXIS2_PLACEMENT_3D('',#1111,#797,#798);
#685=AXIS2_PLACEMENT_3D('',#1114,#800,#801);
#686=AXIS2_PLACEMENT_3D('',#1115,#802,#803);
#687=AXIS2_PLACEMENT_3D('',#1119,#806,#807);
#688=AXIS2_PLACEMENT_3D('',#1120,#808,#809);
#689=AXIS2_PLACEMENT_3D('',#1121,#810,#811);
#690=AXIS2_PLACEMENT_3D('',#1123,#812,#813);
#691=AXIS2_PLACEMENT_3D('',#1125,#814,#815);
#692=AXIS2_PLACEMENT_3D('',#1126,#816,#817);
#693=AXIS2_PLACEMENT_3D('',#1127,#818,#819);
#694=AXIS2_PLACEMENT_3D('',#1129,#820,#821);
#695=AXIS2_PLACEMENT_3D('',#1130,#822,#823);
#696=AXIS2_PLACEMENT_3D('',#1132,#824,#825);
#697=AXIS2_PLACEMENT_3D('',#1134,#826,#827);
#698=AXIS2_PLACEMENT_3D('',#1135,#828,#829);
#699=AXIS2_PLACEMENT_3D('',#1138,#831,#832);
#700=AXIS2_PLACEMENT_3D('',#1139,#833,#834);
#701=AXIS2_PLACEMENT_3D('',#1141,#835,#836);
#702=AXIS2_PLACEMENT_3D('',#1143,#837,#838);
#703=AXIS2_PLACEMENT_3D('',#1144,#839,#840);
#704=AXIS2_PLACEMENT_3D('',#1145,#841,#842);
#705=AXIS2_PLACEMENT_3D('',#1148,#844,#845);
#706=AXIS2_PLACEMENT_3D('',#1149,#846,#847);
#707=AXIS2_PLACEMENT_3D('',#1151,#848,#849);
#708=AXIS2_PLACEMENT_3D('',#1153,#850,#851);
#709=AXIS2_PLACEMENT_3D('',#1179,#853,#854);
#710=AXIS2_PLACEMENT_3D('',#1181,#855,#856);
#711=AXIS2_PLACEMENT_3D('',#1183,#857,#858);
#712=AXIS2_PLACEMENT_3D('',#1196,#859,#860);
#713=AXIS2_PLACEMENT_3D('',#1199,#862,#863);
#714=AXIS2_PLACEMENT_3D('',#1201,#864,#865);
#715=AXIS2_PLACEMENT_3D('',#1202,#866,#867);
#716=AXIS2_PLACEMENT_3D('',#1204,#868,#869);
#717=AXIS2_PLACEMENT_3D('',#1206,#871,#872);
#718=AXIS2_PLACEMENT_3D('',#1208,#873,#874);
#719=AXIS2_PLACEMENT_3D('',#1232,#878,#879);
#720=AXIS2_PLACEMENT_3D('',#1234,#881,#882);
#721=AXIS2_PLACEMENT_3D('',#1235,#883,#884);
#722=AXIS2_PLACEMENT_3D('',#1237,#885,#886);
#723=AXIS2_PLACEMENT_3D('',#1240,#888,#889);
#724=AXIS2_PLACEMENT_3D('',#1241,#890,#891);
#725=AXIS2_PLACEMENT_3D('',#1242,#892,#893);
#726=AXIS2_PLACEMENT_3D('',#1243,#894,#895);
#727=AXIS2_PLACEMENT_3D('',#1245,#896,#897);
#728=AXIS2_PLACEMENT_3D('',#1247,#899,#900);
#729=AXIS2_PLACEMENT_3D('',#1249,#901,#902);
#730=AXIS2_PLACEMENT_3D('',#1251,#904,#905);
#731=AXIS2_PLACEMENT_3D('',#1253,#906,#907);
#732=AXIS2_PLACEMENT_3D('',#1255,#909,#910);
#733=AXIS2_PLACEMENT_3D('',#1257,#911,#912);
#734=AXIS2_PLACEMENT_3D('',#1291,#915,#916);
#735=AXIS2_PLACEMENT_3D('',#1327,#920,#921);
#736=AXIS2_PLACEMENT_3D('',#1329,#922,#923);
#737=AXIS2_PLACEMENT_3D('',#1331,#925,#926);
#738=AXIS2_PLACEMENT_3D('',#1333,#927,#928);
#739=AXIS2_PLACEMENT_3D('',#1335,#930,#931);
#740=AXIS2_PLACEMENT_3D('',#1336,#932,#933);
#741=AXIS2_PLACEMENT_3D('',#1337,#934,#935);
#742=AXIS2_PLACEMENT_3D('',#1338,#936,#937);
#743=AXIS2_PLACEMENT_3D('',#1340,#938,#939);
#744=AXIS2_PLACEMENT_3D('',#1343,#941,#942);
#745=AXIS2_PLACEMENT_3D('',#1344,#943,#944);
#746=AXIS2_PLACEMENT_3D('',#1345,#945,#946);
#747=DIRECTION('axis',(0.,0.,1.));
#748=DIRECTION('refdir',(1.,0.,0.));
#749=DIRECTION('center_axis',(-1.,0.,0.));
#750=DIRECTION('ref_axis',(0.,0.707106781186546,0.707106781186549));
#751=DIRECTION('center_axis',(-1.,0.,0.));
#752=DIRECTION('ref_axis',(0.,0.,1.));
#753=DIRECTION('',(-1.,0.,0.));
#754=DIRECTION('center_axis',(1.,0.,0.));
#755=DIRECTION('ref_axis',(0.,1.,0.));
#756=DIRECTION('',(1.,0.,0.));
#757=DIRECTION('center_axis',(0.,0.,1.));
#758=DIRECTION('ref_axis',(1.,0.,0.));
#759=DIRECTION('center_axis',(0.,1.,0.));
#760=DIRECTION('ref_axis',(-1.,0.,0.));
#761=DIRECTION('center_axis',(0.,0.,-1.));
#762=DIRECTION('ref_axis',(-0.707106781186547,0.707106781186548,0.));
#763=DIRECTION('center_axis',(0.,0.,1.));
#764=DIRECTION('ref_axis',(-0.707106781186547,0.707106781186548,0.));
#765=DIRECTION('center_axis',(0.,0.999999999999972,-2.38418582654269E-7));
#766=DIRECTION('ref_axis',(-1.,0.,0.));
#767=DIRECTION('center_axis',(1.,0.,0.));
#768=DIRECTION('ref_axis',(0.,-0.707106781186548,0.707106781186548));
#769=DIRECTION('center_axis',(-1.,0.,4.44089209850062E-15));
#770=DIRECTION('ref_axis',(0.,-1.,0.));
#771=DIRECTION('',(-1.,0.,0.));
#772=DIRECTION('center_axis',(-1.,0.,0.));
#773=DIRECTION('ref_axis',(0.,-1.,0.));
#774=DIRECTION('',(1.,0.,0.));
#775=DIRECTION('center_axis',(4.1723251520409E-8,-0.999999999999999,0.));
#776=DIRECTION('ref_axis',(0.999999999999999,4.1723251520409E-8,0.));
#777=DIRECTION('center_axis',(0.,-1.,0.));
#778=DIRECTION('ref_axis',(1.,0.,0.));
#779=DIRECTION('center_axis',(0.,0.,1.));
#780=DIRECTION('ref_axis',(1.,0.,0.));
#781=DIRECTION('center_axis',(0.,0.,-1.));
#782=DIRECTION('ref_axis',(0.707106766435149,0.707106795937945,0.));
#783=DIRECTION('center_axis',(0.,0.,1.));
#784=DIRECTION('ref_axis',(0.707106766435149,0.707106795937945,0.));
#785=DIRECTION('center_axis',(0.,0.,1.));
#786=DIRECTION('ref_axis',(-1.,0.,0.));
#787=DIRECTION('center_axis',(0.,0.,1.));
#788=DIRECTION('ref_axis',(-0.707106781186547,-0.707106781186548,0.));
#789=DIRECTION('',(0.,0.,1.));
#790=DIRECTION('center_axis',(0.,0.,1.));
#791=DIRECTION('ref_axis',(-1.,0.,0.));
#792=DIRECTION('',(0.,0.,1.));
#793=DIRECTION('',(0.,0.,1.));
#794=DIRECTION('center_axis',(0.,0.,-1.));
#795=DIRECTION('ref_axis',(0.,1.,0.));
#796=DIRECTION('',(0.,0.,1.));
#797=DIRECTION('center_axis',(0.,0.,-1.));
#798=DIRECTION('ref_axis',(0.,1.,0.));
#799=DIRECTION('',(0.,0.,-1.));
#800=DIRECTION('center_axis',(0.,0.,1.));
#801=DIRECTION('ref_axis',(0.,1.,0.));
#802=DIRECTION('center_axis',(0.,1.,0.));
#803=DIRECTION('ref_axis',(1.,0.,0.));
#804=DIRECTION('',(0.,0.,-1.));
#805=DIRECTION('',(1.,0.,0.));
#806=DIRECTION('center_axis',(0.,0.,-1.));
#807=DIRECTION('ref_axis',(-1.,0.,0.));
#808=DIRECTION('center_axis',(0.,0.,1.));
#809=DIRECTION('ref_axis',(1.,0.,0.));
#810=DIRECTION('center_axis',(0.,0.,1.));
#811=DIRECTION('ref_axis',(0.707106781186548,-0.707106781186548,0.));
#812=DIRECTION('center_axis',(0.,-1.,0.));
#813=DIRECTION('ref_axis',(1.,0.,0.));
#814=DIRECTION('center_axis',(0.,0.,-1.));
#815=DIRECTION('ref_axis',(1.,0.,0.));
#816=DIRECTION('center_axis',(0.,0.,-1.));
#817=DIRECTION('ref_axis',(1.,0.,0.));
#818=DIRECTION('center_axis',(0.,0.,1.));
#819=DIRECTION('ref_axis',(1.,0.,0.));
#820=DIRECTION('center_axis',(0.,0.,1.));
#821=DIRECTION('ref_axis',(1.,0.,0.));
#822=DIRECTION('center_axis',(0.,0.,1.));
#823=DIRECTION('ref_axis',(1.,0.,0.));
#824=DIRECTION('center_axis',(0.,0.,-1.));
#825=DIRECTION('ref_axis',(1.,0.,0.));
#826=DIRECTION('center_axis',(0.,0.,-1.));
#827=DIRECTION('ref_axis',(1.,0.,0.));
#828=DIRECTION('center_axis',(0.,0.,1.));
#829=DIRECTION('ref_axis',(1.,0.,0.));
#830=DIRECTION('',(0.,0.,-1.));
#831=DIRECTION('center_axis',(0.,0.,1.));
#832=DIRECTION('ref_axis',(1.,0.,0.));
#833=DIRECTION('center_axis',(0.,0.,-1.));
#834=DIRECTION('ref_axis',(-1.,0.,0.));
#835=DIRECTION('center_axis',(0.,-1.,0.));
#836=DIRECTION('ref_axis',(1.,0.,0.));
#837=DIRECTION('center_axis',(0.,0.,-1.));
#838=DIRECTION('ref_axis',(1.,0.,0.));
#839=DIRECTION('center_axis',(0.,0.,-1.));
#840=DIRECTION('ref_axis',(1.,0.,0.));
#841=DIRECTION('center_axis',(0.,0.,1.));
#842=DIRECTION('ref_axis',(1.,0.,0.));
#843=DIRECTION('',(0.,0.,-1.));
#844=DIRECTION('center_axis',(0.,0.,1.));
#845=DIRECTION('ref_axis',(1.,0.,0.));
#846=DIRECTION('center_axis',(0.,0.,1.));
#847=DIRECTION('ref_axis',(1.,0.,0.));
#848=DIRECTION('center_axis',(0.,0.,1.));
#849=DIRECTION('ref_axis',(-0.866025403784438,0.500000000000001,0.));
#850=DIRECTION('center_axis',(0.,0.,1.));
#851=DIRECTION('ref_axis',(-0.866025403784438,-0.500000000000001,0.));
#852=DIRECTION('',(-1.,0.,0.));
#853=DIRECTION('center_axis',(0.,0.,1.));
#854=DIRECTION('ref_axis',(0.,-1.,0.));
#855=DIRECTION('center_axis',(0.,0.,1.));
#856=DIRECTION('ref_axis',(0.866025403784436,-0.500000000000004,0.));
#857=DIRECTION('center_axis',(0.,0.,1.));
#858=DIRECTION('ref_axis',(0.999999999999999,4.17232537408551E-8,0.));
#859=DIRECTION('center_axis',(0.,0.,1.));
#860=DIRECTION('ref_axis',(0.,-1.,0.));
#861=DIRECTION('',(1.,0.,0.));
#862=DIRECTION('center_axis',(0.,0.,-1.));
#863=DIRECTION('ref_axis',(1.,0.,0.));
#864=DIRECTION('center_axis',(0.,0.,-1.));
#865=DIRECTION('ref_axis',(1.,0.,0.));
#866=DIRECTION('center_axis',(0.,0.,1.));
#867=DIRECTION('ref_axis',(1.,0.,0.));
#868=DIRECTION('center_axis',(0.,0.,1.));
#869=DIRECTION('ref_axis',(1.,0.,0.));
#870=DIRECTION('',(0.,0.,-1.));
#871=DIRECTION('center_axis',(0.,0.,1.));
#872=DIRECTION('ref_axis',(1.,0.,0.));
#873=DIRECTION('center_axis',(0.,0.,1.));
#874=DIRECTION('ref_axis',(1.,0.,0.));
#875=DIRECTION('',(0.,0.,-1.));
#876=DIRECTION('',(0.,0.,1.));
#877=DIRECTION('',(0.,0.,1.));
#878=DIRECTION('center_axis',(0.,0.,1.));
#879=DIRECTION('ref_axis',(0.,-1.,0.));
#880=DIRECTION('',(0.,0.,1.));
#881=DIRECTION('center_axis',(0.,-1.,0.));
#882=DIRECTION('ref_axis',(1.,0.,0.));
#883=DIRECTION('center_axis',(0.,0.,1.));
#884=DIRECTION('ref_axis',(1.,0.,0.));
#885=DIRECTION('center_axis',(0.,0.,-1.));
#886=DIRECTION('ref_axis',(1.,0.,0.));
#887=DIRECTION('',(0.,0.,-1.));
#888=DIRECTION('center_axis',(0.,0.,-1.));
#889=DIRECTION('ref_axis',(1.,0.,0.));
#890=DIRECTION('center_axis',(0.,0.,1.));
#891=DIRECTION('ref_axis',(1.,0.,0.));
#892=DIRECTION('center_axis',(0.,0.,1.));
#893=DIRECTION('ref_axis',(1.,0.,0.));
#894=DIRECTION('center_axis',(0.,0.,-1.));
#895=DIRECTION('ref_axis',(1.,0.,0.));
#896=DIRECTION('center_axis',(0.,0.,1.));
#897=DIRECTION('ref_axis',(1.,0.,0.));
#898=DIRECTION('',(0.,0.,1.));
#899=DIRECTION('center_axis',(0.,0.,-1.));
#900=DIRECTION('ref_axis',(1.,0.,0.));
#901=DIRECTION('center_axis',(0.,0.,1.));
#902=DIRECTION('ref_axis',(1.,0.,0.));
#903=DIRECTION('',(0.,0.,1.));
#904=DIRECTION('center_axis',(0.,0.,-1.));
#905=DIRECTION('ref_axis',(-0.866025403784438,0.500000000000001,0.));
#906=DIRECTION('center_axis',(0.,0.,-1.));
#907=DIRECTION('ref_axis',(-0.866025403784438,0.500000000000001,0.));
#908=DIRECTION('',(0.,0.,-1.));
#909=DIRECTION('center_axis',(0.,0.,-1.));
#910=DIRECTION('ref_axis',(-0.866025403784438,-0.500000000000001,0.));
#911=DIRECTION('center_axis',(0.,0.,-1.));
#912=DIRECTION('ref_axis',(-0.866025403784438,-0.500000000000001,0.));
#913=DIRECTION('',(0.,0.,-1.));
#914=DIRECTION('',(0.,0.,-1.));
#915=DIRECTION('center_axis',(0.,-1.,0.));
#916=DIRECTION('ref_axis',(-1.,0.,0.));
#917=DIRECTION('',(-1.,0.,0.));
#918=DIRECTION('',(0.,0.,-1.));
#919=DIRECTION('',(0.,0.,-1.));
#920=DIRECTION('center_axis',(0.,0.,-1.));
#921=DIRECTION('ref_axis',(0.,-1.,0.));
#922=DIRECTION('center_axis',(0.,0.,-1.));
#923=DIRECTION('ref_axis',(0.,-1.,0.));
#924=DIRECTION('',(0.,0.,-1.));
#925=DIRECTION('center_axis',(0.,0.,-1.));
#926=DIRECTION('ref_axis',(0.866025403784436,-0.500000000000004,0.));
#927=DIRECTION('center_axis',(0.,0.,-1.));
#928=DIRECTION('ref_axis',(0.866025403784436,-0.500000000000004,0.));
#929=DIRECTION('',(0.,0.,-1.));
#930=DIRECTION('center_axis',(0.,0.,-1.));
#931=DIRECTION('ref_axis',(0.999999999999999,4.17232537408551E-8,0.));
#932=DIRECTION('center_axis',(0.,0.,-1.));
#933=DIRECTION('ref_axis',(0.999999999999999,4.17232537408551E-8,0.));
#934=DIRECTION('center_axis',(0.,0.,1.));
#935=DIRECTION('ref_axis',(1.,0.,0.));
#936=DIRECTION('center_axis',(0.,0.,1.));
#937=DIRECTION('ref_axis',(1.,0.,0.));
#938=DIRECTION('center_axis',(0.,0.,-1.));
#939=DIRECTION('ref_axis',(1.,0.,0.));
#940=DIRECTION('',(0.,0.,-1.));
#941=DIRECTION('center_axis',(0.,0.,-1.));
#942=DIRECTION('ref_axis',(1.,0.,0.));
#943=DIRECTION('center_axis',(0.,0.,1.));
#944=DIRECTION('ref_axis',(1.,0.,0.));
#945=DIRECTION('center_axis',(0.,0.,1.));
#946=DIRECTION('ref_axis',(1.,0.,0.));
#947=CARTESIAN_POINT('',(0.,0.,0.));
#948=CARTESIAN_POINT('Origin',(5.00000005215406,20.5,7.5));
#949=CARTESIAN_POINT('',(11.0000001251698,20.5,8.));
#950=CARTESIAN_POINT('',(11.0000001251698,21.,7.5));
#951=CARTESIAN_POINT('Origin',(11.0000001251698,20.5,7.5));
#952=CARTESIAN_POINT('',(3.,21.,7.5));
#953=CARTESIAN_POINT('',(5.00000005215406,21.,7.5));
#954=CARTESIAN_POINT('',(3.,20.5,8.));
#955=CARTESIAN_POINT('Origin',(3.,20.5,7.5));
#956=CARTESIAN_POINT('',(5.00000005215406,20.5,8.));
#957=CARTESIAN_POINT('Origin',(3.,18.,7.5));
#958=CARTESIAN_POINT('',(0.,18.,7.5));
#959=CARTESIAN_POINT('',(0.5,18.,8.));
#960=CARTESIAN_POINT('Origin',(0.5,18.,7.5));
#961=CARTESIAN_POINT('Origin',(3.,18.,8.));
#962=CARTESIAN_POINT('Origin',(3.,18.,7.5));
#963=CARTESIAN_POINT('Ctrl Pts',(0.,18.,7.5));
#964=CARTESIAN_POINT('Ctrl Pts',(-4.99911180332881E-17,17.1835830858645,
7.5));
#965=CARTESIAN_POINT('Ctrl Pts',(-0.254406360097725,15.8303439342243,7.5));
#966=CARTESIAN_POINT('Ctrl Pts',(-0.82383430096495,13.8595413007331,7.5));
#967=CARTESIAN_POINT('Ctrl Pts',(-0.99999989569187,12.6232708969133,7.5));
#968=CARTESIAN_POINT('Ctrl Pts',(-0.99999989569187,12.0000001192093,7.5));
#969=CARTESIAN_POINT('Ctrl Pts',(0.,18.,7.63089969389957));
#970=CARTESIAN_POINT('Ctrl Pts',(-4.99840036829729E-17,17.1836992720224,
7.63089969389957));
#971=CARTESIAN_POINT('Ctrl Pts',(-0.254371116840832,15.830574280484,7.63089969389958));
#972=CARTESIAN_POINT('Ctrl Pts',(-0.823809131395663,13.8597509858562,7.63089969389957));
#973=CARTESIAN_POINT('Ctrl Pts',(-0.99999989569187,12.6233595960028,7.63089969389957));
#974=CARTESIAN_POINT('Ctrl Pts',(-0.99999989569187,12.0000001192093,7.63089969389957));
#975=CARTESIAN_POINT('Ctrl Pts',(0.108338839841087,18.,7.89166116015891));
#976=CARTESIAN_POINT('Ctrl Pts',(0.108338839841087,17.1715551943476,7.89166116015891));
#977=CARTESIAN_POINT('Ctrl Pts',(-0.150460127156479,15.8001444882156,7.89166116015891));
#978=CARTESIAN_POINT('Ctrl Pts',(-0.718607341909068,13.8333432914613,7.89166116015892));
#979=CARTESIAN_POINT('Ctrl Pts',(-0.891661055850783,12.61408853779,7.89166116015891));
#980=CARTESIAN_POINT('Ctrl Pts',(-0.891661055850783,12.0000001192093,7.89166116015891));
#981=CARTESIAN_POINT('Ctrl Pts',(0.369100306100426,18.,8.));
#982=CARTESIAN_POINT('Ctrl Pts',(0.369100306100426,17.142834270289,8.));
#983=CARTESIAN_POINT('Ctrl Pts',(0.0997982346720519,15.7279114224464,8.));
#984=CARTESIAN_POINT('Ctrl Pts',(-0.465286254512381,13.7707005720157,8.));
#985=CARTESIAN_POINT('Ctrl Pts',(-0.630899589591444,12.5921623474277,8.));
#986=CARTESIAN_POINT('Ctrl Pts',(-0.630899589591444,12.0000001192093,8.));
#987=CARTESIAN_POINT('Ctrl Pts',(0.5,18.,8.));
#988=CARTESIAN_POINT('Ctrl Pts',(0.5,17.1283467728816,8.));
#989=CARTESIAN_POINT('Ctrl Pts',(0.225404277635049,15.6915126001982,8.));
#990=CARTESIAN_POINT('Ctrl Pts',(-0.338136694972397,13.7391284352427,8.));
#991=CARTESIAN_POINT('Ctrl Pts',(-0.499999895691869,12.5811022706216,8.));
#992=CARTESIAN_POINT('Ctrl Pts',(-0.499999895691869,12.0000001192093,8.));
#993=CARTESIAN_POINT('',(-0.99999989569187,12.0000001192093,7.5));
#994=CARTESIAN_POINT('',(-0.49999989569187,12.0000002384186,8.));
#995=CARTESIAN_POINT('Origin',(-0.49999989569187,12.0000001192093,7.5));
#996=CARTESIAN_POINT('Ctrl Pts',(-0.499999895691868,12.0000002384186,8.));
#997=CARTESIAN_POINT('Ctrl Pts',(-0.499999884623479,12.5811023498087,8.));
#998=CARTESIAN_POINT('Ctrl Pts',(-0.338136683962232,13.7391284733873,8.));
#999=CARTESIAN_POINT('Ctrl Pts',(0.225404277635049,15.6915126001982,8.));
#1000=CARTESIAN_POINT('Ctrl Pts',(0.5,17.1283467728816,8.));
#1001=CARTESIAN_POINT('Ctrl Pts',(0.5,18.,8.));
#1002=CARTESIAN_POINT('Ctrl Pts',(0.,18.,7.5));
#1003=CARTESIAN_POINT('Ctrl Pts',(-4.99911180332881E-17,17.1835830858645,
7.5));
#1004=CARTESIAN_POINT('Ctrl Pts',(-0.254406360097725,15.8303439342243,7.5));
#1005=CARTESIAN_POINT('Ctrl Pts',(-0.82383430096495,13.8595413007331,7.5));
#1006=CARTESIAN_POINT('Ctrl Pts',(-0.99999989569187,12.6232708969133,7.5));
#1007=CARTESIAN_POINT('Ctrl Pts',(-0.99999989569187,12.0000001192093,7.5));
#1008=CARTESIAN_POINT('Origin',(5.00000010430813,8.50000011920929,7.5));
#1009=CARTESIAN_POINT('',(11.0000001043081,8.00000011920929,7.5));
#1010=CARTESIAN_POINT('',(11.0000001043081,8.50000011920929,8.));
#1011=CARTESIAN_POINT('Origin',(11.0000001043081,8.50000011920929,7.5));
#1012=CARTESIAN_POINT('',(3.00000010430813,8.50000011920929,8.));
#1013=CARTESIAN_POINT('',(5.00000010430813,8.50000011920929,8.));
#1014=CARTESIAN_POINT('',(3.00000010430813,8.00000011920929,7.5));
#1015=CARTESIAN_POINT('Origin',(3.00000010430813,8.50000011920929,7.5));
#1016=CARTESIAN_POINT('',(5.00000010430813,8.00000011920929,7.5));
#1017=CARTESIAN_POINT('Ctrl Pts',(15.0000001043081,12.0000001192093,7.5));
#1018=CARTESIAN_POINT('Ctrl Pts',(15.0000001043081,12.6232542293203,7.5));
#1019=CARTESIAN_POINT('Ctrl Pts',(14.8717219891399,13.5520576423228,7.5));
#1020=CARTESIAN_POINT('Ctrl Pts',(14.3561982786587,15.5668924998699,7.5));
#1021=CARTESIAN_POINT('Ctrl Pts',(14.0000001705866,16.9114733377825,7.5));
#1022=CARTESIAN_POINT('Ctrl Pts',(14.0000001251698,18.0000001251698,7.5));
#1023=CARTESIAN_POINT('Ctrl Pts',(15.0000001043081,12.0000001192093,7.63089969389957));
#1024=CARTESIAN_POINT('Ctrl Pts',(15.0000001043081,12.6233429260348,7.63089969389957));
#1025=CARTESIAN_POINT('Ctrl Pts',(14.8717057153964,13.5522368547512,7.63089969389957));
#1026=CARTESIAN_POINT('Ctrl Pts',(14.3561541435628,15.5671663176625,7.63089969389957));
#1027=CARTESIAN_POINT('Ctrl Pts',(14.0000001705802,16.9116282484973,7.63089969389958));
#1028=CARTESIAN_POINT('Ctrl Pts',(14.0000001251698,18.0000001251698,7.63089969389958));
#1029=CARTESIAN_POINT('Ctrl Pts',(14.8916106553009,12.0000001192093,7.89161055099276));
#1030=CARTESIAN_POINT('Ctrl Pts',(14.8916106553009,12.6140721160712,7.89161055099276));
#1031=CARTESIAN_POINT('Ctrl Pts',(14.7653920595225,13.5301456952681,7.89161055099276));
#1032=CARTESIAN_POINT('Ctrl Pts',(14.2528689466392,15.5343673570774,7.89161055099276));
#1033=CARTESIAN_POINT('Ctrl Pts',(13.8916107222485,16.8954365754566,7.89161055099276));
#1034=CARTESIAN_POINT('Ctrl Pts',(13.8916106761625,18.0000001206474,7.89161055099276));
#1035=CARTESIAN_POINT('Ctrl Pts',(14.6308997982077,12.0000001192093,8.));
#1036=CARTESIAN_POINT('Ctrl Pts',(14.6308997982077,12.5921465128217,8.));
#1037=CARTESIAN_POINT('Ctrl Pts',(14.5096055896045,13.4777643873841,8.));
#1038=CARTESIAN_POINT('Ctrl Pts',(14.0042495148587,15.4566289177891,8.));
#1039=CARTESIAN_POINT('Ctrl Pts',(13.630899866753,16.8571430280621,8.));
#1040=CARTESIAN_POINT('Ctrl Pts',(13.6308998190693,18.0000001097697,8.));
#1041=CARTESIAN_POINT('Ctrl Pts',(14.5000001043081,12.0000001192093,8.));
#1042=CARTESIAN_POINT('Ctrl Pts',(14.5000001043081,12.5810867321689,8.));
#1043=CARTESIAN_POINT('Ctrl Pts',(14.3811877647573,13.4513609176197,8.));
#1044=CARTESIAN_POINT('Ctrl Pts',(13.8794462561468,15.4174393283641,8.));
#1045=CARTESIAN_POINT('Ctrl Pts',(13.5000001736594,16.8378268783889,8.));
#1046=CARTESIAN_POINT('Ctrl Pts',(13.5000001251698,18.0000001043081,8.));
#1047=CARTESIAN_POINT('',(14.0000001251698,18.0000001251698,7.5));
#1048=CARTESIAN_POINT('',(13.5000001251698,18.0000001043081,8.));
#1049=CARTESIAN_POINT('Origin',(13.5000001251698,18.0000001043081,7.5));
#1050=CARTESIAN_POINT('',(14.5000001043081,12.0000001192093,8.));
#1051=CARTESIAN_POINT('Ctrl Pts',(13.5000001251698,18.0000001043081,8.));
#1052=CARTESIAN_POINT('Ctrl Pts',(13.5000001736594,16.8378268783889,8.));
#1053=CARTESIAN_POINT('Ctrl Pts',(13.8794462561468,15.4174393283641,8.));
#1054=CARTESIAN_POINT('Ctrl Pts',(14.3811877647573,13.4513609176197,8.));
#1055=CARTESIAN_POINT('Ctrl Pts',(14.5000001043081,12.5810867321689,8.));
#1056=CARTESIAN_POINT('Ctrl Pts',(14.5000001043081,12.0000001192093,8.));
#1057=CARTESIAN_POINT('',(15.0000001043081,12.0000001192093,7.5));
#1058=CARTESIAN_POINT('Origin',(14.5000001043081,12.0000001192093,7.5));
#1059=CARTESIAN_POINT('Ctrl Pts',(15.0000001043081,12.0000001192093,7.5));
#1060=CARTESIAN_POINT('Ctrl Pts',(15.0000001043081,12.6232542293203,7.5));
#1061=CARTESIAN_POINT('Ctrl Pts',(14.8717219891399,13.5520576423228,7.5));
#1062=CARTESIAN_POINT('Ctrl Pts',(14.3561982786587,15.5668924998699,7.5));
#1063=CARTESIAN_POINT('Ctrl Pts',(14.0000001705866,16.9114733377825,7.5));
#1064=CARTESIAN_POINT('Ctrl Pts',(14.0000001251698,18.0000001251698,7.5));
#1065=CARTESIAN_POINT('Origin',(11.0000001251698,18.,7.5));
#1066=CARTESIAN_POINT('Origin',(11.0000001251698,18.,8.));
#1067=CARTESIAN_POINT('Origin',(11.0000001251698,18.,7.5));
#1068=CARTESIAN_POINT('Origin',(3.00000010430813,12.0000001192093,0.));
#1069=CARTESIAN_POINT('Origin',(3.00000010430813,12.0000001192093,7.5));
#1070=CARTESIAN_POINT('',(-0.99999989569187,12.0000001192093,0.));
#1071=CARTESIAN_POINT('',(-0.99999989569187,12.0000001192093,0.));
#1072=CARTESIAN_POINT('',(3.00000010430813,8.00000011920929,0.));
#1073=CARTESIAN_POINT('Origin',(3.00000010430813,12.0000001192093,0.));
#1074=CARTESIAN_POINT('',(3.00000010430813,8.00000011920929,0.));
#1075=CARTESIAN_POINT('Ctrl Pts',(0.,18.,0.));
#1076=CARTESIAN_POINT('Ctrl Pts',(0.,18.,8.));
#1077=CARTESIAN_POINT('Ctrl Pts',(-1.5044246041828E-17,17.7543088170025,
0.));
#1078=CARTESIAN_POINT('Ctrl Pts',(-1.5044246041828E-17,17.7543088170025,
8.));
#1079=CARTESIAN_POINT('Ctrl Pts',(-0.0204202867035068,17.2658318434573,
0.));
#1080=CARTESIAN_POINT('Ctrl Pts',(-0.0204202867035068,17.2658318434573,
8.));
#1081=CARTESIAN_POINT('Ctrl Pts',(-0.112248144353187,16.5418235353284,0.));
#1082=CARTESIAN_POINT('Ctrl Pts',(-0.112248144353187,16.5418235353284,8.));
#1083=CARTESIAN_POINT('Ctrl Pts',(-0.332992374255672,15.5904662281297,0.));
#1084=CARTESIAN_POINT('Ctrl Pts',(-0.332992374255672,15.5904662281297,8.));
#1085=CARTESIAN_POINT('Ctrl Pts',(-0.667007521436185,14.4095338910803,0.));
#1086=CARTESIAN_POINT('Ctrl Pts',(-0.667007521436185,14.4095338910803,8.));
#1087=CARTESIAN_POINT('Ctrl Pts',(-0.887751751338676,13.4581765838813,0.));
#1088=CARTESIAN_POINT('Ctrl Pts',(-0.887751751338676,13.4581765838813,8.));
#1089=CARTESIAN_POINT('Ctrl Pts',(-0.979579608988362,12.7341682757521,0.));
#1090=CARTESIAN_POINT('Ctrl Pts',(-0.979579608988362,12.7341682757521,8.));
#1091=CARTESIAN_POINT('Ctrl Pts',(-0.99999989569187,12.2456913022067,0.));
#1092=CARTESIAN_POINT('Ctrl Pts',(-0.99999989569187,12.2456913022067,8.));
#1093=CARTESIAN_POINT('Ctrl Pts',(-0.99999989569187,12.0000001192093,0.));
#1094=CARTESIAN_POINT('Ctrl Pts',(-0.99999989569187,12.0000001192093,8.));
#1095=CARTESIAN_POINT('',(0.,18.,0.));
#1096=CARTESIAN_POINT('',(0.,18.,0.));
#1097=CARTESIAN_POINT('Ctrl Pts',(0.,18.,0.));
#1098=CARTESIAN_POINT('Ctrl Pts',(-1.5044246041828E-17,17.7543088170025,
0.));
#1099=CARTESIAN_POINT('Ctrl Pts',(-0.0204202867035068,17.2658318434573,
0.));
#1100=CARTESIAN_POINT('Ctrl Pts',(-0.112248144353187,16.5418235353284,0.));
#1101=CARTESIAN_POINT('Ctrl Pts',(-0.332992374255672,15.5904662281297,0.));
#1102=CARTESIAN_POINT('Ctrl Pts',(-0.667007521436185,14.4095338910803,0.));
#1103=CARTESIAN_POINT('Ctrl Pts',(-0.887751751338676,13.4581765838813,0.));
#1104=CARTESIAN_POINT('Ctrl Pts',(-0.979579608988362,12.7341682757521,0.));
#1105=CARTESIAN_POINT('Ctrl Pts',(-0.99999989569187,12.2456913022067,0.));
#1106=CARTESIAN_POINT('Ctrl Pts',(-0.99999989569187,12.0000001192093,0.));
#1107=CARTESIAN_POINT('Origin',(3.,18.,0.));
#1108=CARTESIAN_POINT('',(3.,21.,-2.));
#1109=CARTESIAN_POINT('',(3.,21.,0.));
#1110=CARTESIAN_POINT('',(0.401923788646685,19.5,-2.));
#1111=CARTESIAN_POINT('Origin',(3.,18.,-2.));
#1112=CARTESIAN_POINT('',(0.401923788646685,19.5,0.));
#1113=CARTESIAN_POINT('',(0.401923788646685,19.5,0.));
#1114=CARTESIAN_POINT('Origin',(3.,18.,0.));
#1115=CARTESIAN_POINT('Origin',(3.,21.,0.));
#1116=CARTESIAN_POINT('',(11.0000001251698,21.,-2.));
#1117=CARTESIAN_POINT('',(11.0000001251698,21.,0.));
#1118=CARTESIAN_POINT('',(11.0000001251698,21.,-2.));
#1119=CARTESIAN_POINT('Origin',(11.0000001043081,12.0000002384186,7.5));
#1120=CARTESIAN_POINT('Origin',(11.0000001043081,12.0000002384186,8.));
#1121=CARTESIAN_POINT('Origin',(11.0000001043081,12.0000001192093,7.5));
#1122=CARTESIAN_POINT('',(14.0000001043081,12.0000002384186,7.5));
#1123=CARTESIAN_POINT('Origin',(14.5000001043081,12.0000002384186,7.5));
#1124=CARTESIAN_POINT('',(8.00000010430813,12.0000002384186,7.5));
#1125=CARTESIAN_POINT('Origin',(11.0000001043081,12.0000002384186,7.5));
#1126=CARTESIAN_POINT('Origin',(11.0000001043081,12.0000002384186,7.5));
#1127=CARTESIAN_POINT('Origin',(7.00000010430813,14.5000000596046,8.));
#1128=CARTESIAN_POINT('',(6.50000010430813,12.0000002384186,8.));
#1129=CARTESIAN_POINT('Origin',(3.00000010430813,12.0000002384186,8.));
#1130=CARTESIAN_POINT('Origin',(3.00000010430813,12.0000002384186,8.));
#1131=CARTESIAN_POINT('',(1.5,18.5,8.));
#1132=CARTESIAN_POINT('Origin',(2.5,18.5,8.));
#1133=CARTESIAN_POINT('',(10.5,18.5,8.));
#1134=CARTESIAN_POINT('Origin',(11.5,18.5,8.));
#1135=CARTESIAN_POINT('Origin',(11.0000001043081,12.0000002384186,0.));
#1136=CARTESIAN_POINT('',(8.00000010430813,12.0000002384186,6.5));
#1137=CARTESIAN_POINT('',(8.00000010430813,12.0000002384186,0.));
#1138=CARTESIAN_POINT('Origin',(11.0000001043081,12.0000002384186,6.5));
#1139=CARTESIAN_POINT('Origin',(3.00000010430813,12.0000002384186,7.5));
#1140=CARTESIAN_POINT('',(6.00000010430813,12.0000002384186,7.5));
#1141=CARTESIAN_POINT('Origin',(6.50000010430813,12.0000002384186,7.5));
#1142=CARTESIAN_POINT('',(1.04308129911246E-7,12.0000002384186,7.5));
#1143=CARTESIAN_POINT('Origin',(3.00000010430813,12.0000002384186,7.5));
#1144=CARTESIAN_POINT('Origin',(3.00000010430813,12.0000002384186,7.5));
#1145=CARTESIAN_POINT('Origin',(3.00000010430813,12.0000002384186,0.));
#1146=CARTESIAN_POINT('',(1.04308129911246E-7,12.0000002384186,6.5));
#1147=CARTESIAN_POINT('',(1.04308129911246E-7,12.0000002384186,0.));
#1148=CARTESIAN_POINT('Origin',(3.00000010430813,12.0000002384186,6.5));
#1149=CARTESIAN_POINT('Origin',(7.00000010430813,14.5000000596046,0.));
#1150=CARTESIAN_POINT('',(0.401923788646684,17.5,0.));
#1151=CARTESIAN_POINT('Origin',(2.13397459621556,18.5,0.));
#1152=CARTESIAN_POINT('',(3.,16.,0.));
#1153=CARTESIAN_POINT('Origin',(3.,19.,0.));
#1154=CARTESIAN_POINT('',(6.49999985471368,18.5,0.));
#1155=CARTESIAN_POINT('Ctrl Pts',(6.49999985471368,18.5,0.));
#1156=CARTESIAN_POINT('Ctrl Pts',(6.30342330931951,18.5,0.));
#1157=CARTESIAN_POINT('Ctrl Pts',(5.93915295645174,18.4489492779163,0.));
#1158=CARTESIAN_POINT('Ctrl Pts',(5.4793059210776,18.2193796098464,0.));
#1159=CARTESIAN_POINT('Ctrl Pts',(5.005223452729,17.6675189775267,0.));
#1160=CARTESIAN_POINT('Ctrl Pts',(4.49477640198481,16.8324810224741,0.));
#1161=CARTESIAN_POINT('Ctrl Pts',(4.02069393363616,16.2806203901541,0.));
#1162=CARTESIAN_POINT('Ctrl Pts',(3.56084689826194,16.0510507220838,0.));
#1163=CARTESIAN_POINT('Ctrl Pts',(3.19657654539417,16.,0.));
#1164=CARTESIAN_POINT('Ctrl Pts',(3.,16.,0.));
#1165=CARTESIAN_POINT('',(7.5,18.5,0.));
#1166=CARTESIAN_POINT('',(7.5,18.5,0.));
#1167=CARTESIAN_POINT('',(11.0000001251698,16.,0.));
#1168=CARTESIAN_POINT('Ctrl Pts',(11.0000001251698,16.,0.));
#1169=CARTESIAN_POINT('Ctrl Pts',(10.8034235727009,16.,0.));
#1170=CARTESIAN_POINT('Ctrl Pts',(10.4391532037727,16.0510507220838,0.));
#1171=CARTESIAN_POINT('Ctrl Pts',(9.97930613858047,16.2806203901542,0.));
#1172=CARTESIAN_POINT('Ctrl Pts',(9.50522362127385,16.832481022474,0.));
#1173=CARTESIAN_POINT('Ctrl Pts',(8.994776503896,17.6675189775265,0.));
#1174=CARTESIAN_POINT('Ctrl Pts',(8.52069398658935,18.2193796098461,0.));
#1175=CARTESIAN_POINT('Ctrl Pts',(8.06084692139704,18.4489492779162,0.));
#1176=CARTESIAN_POINT('Ctrl Pts',(7.69657655246883,18.5,0.));
#1177=CARTESIAN_POINT('Ctrl Pts',(7.5,18.5,0.));
#1178=CARTESIAN_POINT('',(13.5980763365231,17.5,0.));
#1179=CARTESIAN_POINT('Origin',(11.0000001251698,19.,0.));
#1180=CARTESIAN_POINT('',(13.5980763365231,19.5,0.));
#1181=CARTESIAN_POINT('Origin',(11.8660255289542,18.5,0.));
#1182=CARTESIAN_POINT('',(14.0000001251698,18.0000001251698,0.));
#1183=CARTESIAN_POINT('Origin',(11.0000001251698,18.,0.));
#1184=CARTESIAN_POINT('',(15.0000001043081,12.0000001192093,0.));
#1185=CARTESIAN_POINT('Ctrl Pts',(15.0000001043081,12.0000001192093,0.));
#1186=CARTESIAN_POINT('Ctrl Pts',(15.0000001043081,12.2456913080407,0.));
#1187=CARTESIAN_POINT('Ctrl Pts',(14.9795798173424,12.7341682929493,0.));
#1188=CARTESIAN_POINT('Ctrl Pts',(14.8877519585129,13.4581766172107,0.));
#1189=CARTESIAN_POINT('Ctrl Pts',(14.6670077250946,14.4095339443975,0.));
#1190=CARTESIAN_POINT('Ctrl Pts',(14.332992567214,15.5904663051116,0.));
#1191=CARTESIAN_POINT('Ctrl Pts',(14.112248319554,16.5418236311356,0.));
#1192=CARTESIAN_POINT('Ctrl Pts',(14.0204204405389,17.2658319537488,0.));
#1193=CARTESIAN_POINT('Ctrl Pts',(14.0000001354208,17.7543089371753,0.));
#1194=CARTESIAN_POINT('Ctrl Pts',(14.0000001251698,18.0000001251698,0.));
#1195=CARTESIAN_POINT('',(11.0000001043081,8.00000011920929,0.));
#1196=CARTESIAN_POINT('Origin',(11.0000001043081,12.0000001192093,0.));
#1197=CARTESIAN_POINT('',(3.00000010430813,8.00000011920929,0.));
#1198=CARTESIAN_POINT('',(1.04308129911246E-7,12.0000002384186,0.));
#1199=CARTESIAN_POINT('Origin',(3.00000010430813,12.0000002384186,0.));
#1200=CARTESIAN_POINT('',(8.00000010430813,12.0000002384186,0.));
#1201=CARTESIAN_POINT('Origin',(11.0000001043081,12.0000002384186,0.));
#1202=CARTESIAN_POINT('Origin',(3.00000010430813,12.0000002384186,0.));
#1203=CARTESIAN_POINT('',(1.04308129911246E-7,12.0000002384186,1.5));
#1204=CARTESIAN_POINT('Origin',(3.00000010430813,12.0000002384186,1.5));
#1205=CARTESIAN_POINT('',(1.04308129911246E-7,12.0000002384186,0.));
#1206=CARTESIAN_POINT('Origin',(11.0000001043081,12.0000002384186,0.));
#1207=CARTESIAN_POINT('',(8.00000010430813,12.0000002384186,1.5));
#1208=CARTESIAN_POINT('Origin',(11.0000001043081,12.0000002384186,1.5));
#1209=CARTESIAN_POINT('',(8.00000010430813,12.0000002384186,0.));
#1210=CARTESIAN_POINT('Ctrl Pts',(15.0000001043081,12.0000001192093,0.));
#1211=CARTESIAN_POINT('Ctrl Pts',(15.0000001043081,12.0000001192093,8.));
#1212=CARTESIAN_POINT('Ctrl Pts',(15.0000001043081,12.2456913080407,0.));
#1213=CARTESIAN_POINT('Ctrl Pts',(15.0000001043081,12.2456913080407,8.));
#1214=CARTESIAN_POINT('Ctrl Pts',(14.9795798173424,12.7341682929493,0.));
#1215=CARTESIAN_POINT('Ctrl Pts',(14.9795798173424,12.7341682929493,8.));
#1216=CARTESIAN_POINT('Ctrl Pts',(14.8877519585129,13.4581766172107,0.));
#1217=CARTESIAN_POINT('Ctrl Pts',(14.8877519585129,13.4581766172107,8.));
#1218=CARTESIAN_POINT('Ctrl Pts',(14.6670077250946,14.4095339443975,0.));
#1219=CARTESIAN_POINT('Ctrl Pts',(14.6670077250946,14.4095339443975,8.));
#1220=CARTESIAN_POINT('Ctrl Pts',(14.332992567214,15.5904663051116,0.));
#1221=CARTESIAN_POINT('Ctrl Pts',(14.332992567214,15.5904663051116,8.));
#1222=CARTESIAN_POINT('Ctrl Pts',(14.112248319554,16.5418236311356,0.));
#1223=CARTESIAN_POINT('Ctrl Pts',(14.112248319554,16.5418236311356,8.));
#1224=CARTESIAN_POINT('Ctrl Pts',(14.0204204405389,17.2658319537488,0.));
#1225=CARTESIAN_POINT('Ctrl Pts',(14.0204204405389,17.2658319537488,8.));
#1226=CARTESIAN_POINT('Ctrl Pts',(14.0000001354208,17.7543089371753,0.));
#1227=CARTESIAN_POINT('Ctrl Pts',(14.0000001354208,17.7543089371753,8.));
#1228=CARTESIAN_POINT('Ctrl Pts',(14.0000001251698,18.0000001251698,0.));
#1229=CARTESIAN_POINT('Ctrl Pts',(14.0000001251698,18.0000001251698,8.));
#1230=CARTESIAN_POINT('',(15.0000001043081,12.0000001192093,0.));
#1231=CARTESIAN_POINT('',(14.0000001251698,18.0000001251698,0.));
#1232=CARTESIAN_POINT('Origin',(11.0000001043081,12.0000001192093,0.));
#1233=CARTESIAN_POINT('',(11.0000001043081,8.00000011920929,0.));
#1234=CARTESIAN_POINT('Origin',(3.00000010430813,8.00000011920929,0.));
#1235=CARTESIAN_POINT('Origin',(11.0000001043081,12.0000002384186,1.5));
#1236=CARTESIAN_POINT('',(8.50000010430813,12.0000002384186,6.5));
#1237=CARTESIAN_POINT('Origin',(11.0000001043081,12.0000002384186,6.5));
#1238=CARTESIAN_POINT('',(8.50000010430813,12.0000002384186,1.5));
#1239=CARTESIAN_POINT('',(8.50000010430813,12.0000002384186,1.5));
#1240=CARTESIAN_POINT('Origin',(11.0000001043081,12.0000002384186,1.5));
#1241=CARTESIAN_POINT('Origin',(11.0000001043081,12.0000002384186,6.5));
#1242=CARTESIAN_POINT('Origin',(11.0000001043081,12.0000002384186,1.5));
#1243=CARTESIAN_POINT('Origin',(11.5,18.5,0.));
#1244=CARTESIAN_POINT('',(10.5,18.5,-2.));
#1245=CARTESIAN_POINT('Origin',(11.5,18.5,-2.));
#1246=CARTESIAN_POINT('',(10.5,18.5,0.));
#1247=CARTESIAN_POINT('Origin',(2.5,18.5,0.));
#1248=CARTESIAN_POINT('',(1.5,18.5,-2.));
#1249=CARTESIAN_POINT('Origin',(2.5,18.5,-2.));
#1250=CARTESIAN_POINT('',(1.5,18.5,0.));
#1251=CARTESIAN_POINT('Origin',(2.13397459621556,18.5,0.));
#1252=CARTESIAN_POINT('',(0.401923788646684,17.5,-2.));
#1253=CARTESIAN_POINT('Origin',(2.13397459621556,18.5,-2.));
#1254=CARTESIAN_POINT('',(0.401923788646684,17.5,0.));
#1255=CARTESIAN_POINT('Origin',(3.,19.,0.));
#1256=CARTESIAN_POINT('',(3.,16.,-2.));
#1257=CARTESIAN_POINT('Origin',(3.,19.,-2.));
#1258=CARTESIAN_POINT('',(3.,16.,0.));
#1259=CARTESIAN_POINT('Ctrl Pts',(6.49999985471368,18.5,0.));
#1260=CARTESIAN_POINT('Ctrl Pts',(6.49999985471368,18.5,-2.));
#1261=CARTESIAN_POINT('Ctrl Pts',(6.30342330931951,18.5,0.));
#1262=CARTESIAN_POINT('Ctrl Pts',(6.30342330931951,18.5,-2.));
#1263=CARTESIAN_POINT('Ctrl Pts',(5.93915295645174,18.4489492779163,0.));
#1264=CARTESIAN_POINT('Ctrl Pts',(5.93915295645174,18.4489492779163,-2.));
#1265=CARTESIAN_POINT('Ctrl Pts',(5.4793059210776,18.2193796098464,0.));
#1266=CARTESIAN_POINT('Ctrl Pts',(5.4793059210776,18.2193796098464,-2.));
#1267=CARTESIAN_POINT('Ctrl Pts',(5.005223452729,17.6675189775267,0.));
#1268=CARTESIAN_POINT('Ctrl Pts',(5.005223452729,17.6675189775267,-2.));
#1269=CARTESIAN_POINT('Ctrl Pts',(4.49477640198481,16.8324810224741,0.));
#1270=CARTESIAN_POINT('Ctrl Pts',(4.49477640198481,16.8324810224741,-2.));
#1271=CARTESIAN_POINT('Ctrl Pts',(4.02069393363616,16.2806203901541,0.));
#1272=CARTESIAN_POINT('Ctrl Pts',(4.02069393363616,16.2806203901541,-2.));
#1273=CARTESIAN_POINT('Ctrl Pts',(3.56084689826194,16.0510507220838,0.));
#1274=CARTESIAN_POINT('Ctrl Pts',(3.56084689826194,16.0510507220838,-2.));
#1275=CARTESIAN_POINT('Ctrl Pts',(3.19657654539417,16.,0.));
#1276=CARTESIAN_POINT('Ctrl Pts',(3.19657654539417,16.,-2.));
#1277=CARTESIAN_POINT('Ctrl Pts',(3.,16.,0.));
#1278=CARTESIAN_POINT('Ctrl Pts',(3.,16.,-2.));
#1279=CARTESIAN_POINT('',(6.49999985471368,18.5,-2.));
#1280=CARTESIAN_POINT('Ctrl Pts',(6.49999985471368,18.5,-2.));
#1281=CARTESIAN_POINT('Ctrl Pts',(6.30342330931951,18.5,-2.));
#1282=CARTESIAN_POINT('Ctrl Pts',(5.93915295645174,18.4489492779163,-2.));
#1283=CARTESIAN_POINT('Ctrl Pts',(5.4793059210776,18.2193796098464,-2.));
#1284=CARTESIAN_POINT('Ctrl Pts',(5.005223452729,17.6675189775267,-2.));
#1285=CARTESIAN_POINT('Ctrl Pts',(4.49477640198481,16.8324810224741,-2.));
#1286=CARTESIAN_POINT('Ctrl Pts',(4.02069393363616,16.2806203901541,-2.));
#1287=CARTESIAN_POINT('Ctrl Pts',(3.56084689826194,16.0510507220838,-2.));
#1288=CARTESIAN_POINT('Ctrl Pts',(3.19657654539417,16.,-2.));
#1289=CARTESIAN_POINT('Ctrl Pts',(3.,16.,-2.));
#1290=CARTESIAN_POINT('',(6.49999985471368,18.5,0.));
#1291=CARTESIAN_POINT('Origin',(7.5,18.5,0.));
#1292=CARTESIAN_POINT('',(7.5,18.5,-2.));
#1293=CARTESIAN_POINT('',(7.5,18.5,-2.));
#1294=CARTESIAN_POINT('',(7.5,18.5,0.));
#1295=CARTESIAN_POINT('Ctrl Pts',(11.0000001251698,16.,0.));
#1296=CARTESIAN_POINT('Ctrl Pts',(11.0000001251698,16.,-2.));
#1297=CARTESIAN_POINT('Ctrl Pts',(10.8034235727009,16.,0.));
#1298=CARTESIAN_POINT('Ctrl Pts',(10.8034235727009,16.,-2.));
#1299=CARTESIAN_POINT('Ctrl Pts',(10.4391532037727,16.0510507220838,0.));
#1300=CARTESIAN_POINT('Ctrl Pts',(10.4391532037727,16.0510507220838,-2.));
#1301=CARTESIAN_POINT('Ctrl Pts',(9.97930613858047,16.2806203901542,0.));
#1302=CARTESIAN_POINT('Ctrl Pts',(9.97930613858047,16.2806203901542,-2.));
#1303=CARTESIAN_POINT('Ctrl Pts',(9.50522362127385,16.832481022474,0.));
#1304=CARTESIAN_POINT('Ctrl Pts',(9.50522362127385,16.832481022474,-2.));
#1305=CARTESIAN_POINT('Ctrl Pts',(8.994776503896,17.6675189775265,0.));
#1306=CARTESIAN_POINT('Ctrl Pts',(8.994776503896,17.6675189775265,-2.));
#1307=CARTESIAN_POINT('Ctrl Pts',(8.52069398658935,18.2193796098461,0.));
#1308=CARTESIAN_POINT('Ctrl Pts',(8.52069398658935,18.2193796098461,-2.));
#1309=CARTESIAN_POINT('Ctrl Pts',(8.06084692139704,18.4489492779162,0.));
#1310=CARTESIAN_POINT('Ctrl Pts',(8.06084692139704,18.4489492779162,-2.));
#1311=CARTESIAN_POINT('Ctrl Pts',(7.69657655246883,18.5,0.));
#1312=CARTESIAN_POINT('Ctrl Pts',(7.69657655246883,18.5,-2.));
#1313=CARTESIAN_POINT('Ctrl Pts',(7.5,18.5,0.));
#1314=CARTESIAN_POINT('Ctrl Pts',(7.5,18.5,-2.));
#1315=CARTESIAN_POINT('',(11.0000001251698,16.,-2.));
#1316=CARTESIAN_POINT('Ctrl Pts',(11.0000001251698,16.,-2.));
#1317=CARTESIAN_POINT('Ctrl Pts',(10.8034235727009,16.,-2.));
#1318=CARTESIAN_POINT('Ctrl Pts',(10.4391532037727,16.0510507220838,-2.));
#1319=CARTESIAN_POINT('Ctrl Pts',(9.97930613858047,16.2806203901542,-2.));
#1320=CARTESIAN_POINT('Ctrl Pts',(9.50522362127385,16.832481022474,-2.));
#1321=CARTESIAN_POINT('Ctrl Pts',(8.994776503896,17.6675189775265,-2.));
#1322=CARTESIAN_POINT('Ctrl Pts',(8.52069398658935,18.2193796098461,-2.));
#1323=CARTESIAN_POINT('Ctrl Pts',(8.06084692139704,18.4489492779162,-2.));
#1324=CARTESIAN_POINT('Ctrl Pts',(7.69657655246883,18.5,-2.));
#1325=CARTESIAN_POINT('Ctrl Pts',(7.5,18.5,-2.));
#1326=CARTESIAN_POINT('',(11.0000001251698,16.,0.));
#1327=CARTESIAN_POINT('Origin',(11.0000001251698,19.,0.));
#1328=CARTESIAN_POINT('',(13.5980763365231,17.5,-2.));
#1329=CARTESIAN_POINT('Origin',(11.0000001251698,19.,-2.));
#1330=CARTESIAN_POINT('',(13.5980763365231,17.5,0.));
#1331=CARTESIAN_POINT('Origin',(11.8660255289542,18.5,0.));
#1332=CARTESIAN_POINT('',(13.5980763365231,19.5,-2.));
#1333=CARTESIAN_POINT('Origin',(11.8660255289542,18.5,-2.));
#1334=CARTESIAN_POINT('',(13.5980763365231,19.5,0.));
#1335=CARTESIAN_POINT('Origin',(11.0000001251698,18.,0.));
#1336=CARTESIAN_POINT('Origin',(11.0000001251698,18.,-2.));
#1337=CARTESIAN_POINT('Origin',(7.00000010430813,14.5000000596046,-2.));
#1338=CARTESIAN_POINT('Origin',(3.00000010430813,12.0000002384186,1.5));
#1339=CARTESIAN_POINT('',(0.500000104308129,12.0000002384186,6.5));
#1340=CARTESIAN_POINT('Origin',(3.00000010430813,12.0000002384186,6.5));
#1341=CARTESIAN_POINT('',(0.500000104308129,12.0000002384186,1.5));
#1342=CARTESIAN_POINT('',(0.500000104308129,12.0000002384186,1.5));
#1343=CARTESIAN_POINT('Origin',(3.00000010430813,12.0000002384186,1.5));
#1344=CARTESIAN_POINT('Origin',(3.00000010430813,12.0000002384186,6.5));
#1345=CARTESIAN_POINT('Origin',(3.00000010430813,12.0000002384186,1.5));
#1346=UNCERTAINTY_MEASURE_WITH_UNIT(LENGTH_MEASURE(0.01),#1350,
'DISTANCE_ACCURACY_VALUE',
'Maximum model space distance between geometric entities at asserted c
onnectivities');
#1347=UNCERTAINTY_MEASURE_WITH_UNIT(LENGTH_MEASURE(0.01),#1350,
'DISTANCE_ACCURACY_VALUE',
'Maximum model space distance between geometric entities at asserted c
onnectivities');
#1348=(
GEOMETRIC_REPRESENTATION_CONTEXT(3)
GLOBAL_UNCERTAINTY_ASSIGNED_CONTEXT((#1346))
GLOBAL_UNIT_ASSIGNED_CONTEXT((#1350,#1352,#1353))
REPRESENTATION_CONTEXT('','3D')
);
#1349=(
GEOMETRIC_REPRESENTATION_CONTEXT(3)
GLOBAL_UNCERTAINTY_ASSIGNED_CONTEXT((#1347))
GLOBAL_UNIT_ASSIGNED_CONTEXT((#1350,#1352,#1353))
REPRESENTATION_CONTEXT('','3D')
);
#1350=(
LENGTH_UNIT()
NAMED_UNIT(*)
SI_UNIT(.MILLI.,.METRE.)
);
#1351=(
LENGTH_UNIT()
NAMED_UNIT(*)
SI_UNIT($,.METRE.)
);
#1352=(
NAMED_UNIT(*)
PLANE_ANGLE_UNIT()
SI_UNIT($,.RADIAN.)
);
#1353=(
NAMED_UNIT(*)
SI_UNIT($,.STERADIAN.)
SOLID_ANGLE_UNIT()
);
#1354=SHAPE_DEFINITION_REPRESENTATION(#1355,#1356);
#1355=PRODUCT_DEFINITION_SHAPE('',$,#1358);
#1356=SHAPE_REPRESENTATION('',(#663),#1348);
#1357=PRODUCT_DEFINITION_CONTEXT('part definition',#1362,'design');
#1358=PRODUCT_DEFINITION('mic','mic v4',#1359,#1357);
#1359=PRODUCT_DEFINITION_FORMATION('',$,#1364);
#1360=PRODUCT_RELATED_PRODUCT_CATEGORY('mic v4','mic v4',(#1364));
#1361=APPLICATION_PROTOCOL_DEFINITION('international standard',
'automotive_design',2009,#1362);
#1362=APPLICATION_CONTEXT(
'Core Data for Automotive Mechanical Design Process');
#1363=PRODUCT_CONTEXT('part definition',#1362,'mechanical');
#1364=PRODUCT('mic','mic v4',$,(#1363));
#1365=PRESENTATION_STYLE_ASSIGNMENT((#1366));
#1366=SURFACE_STYLE_USAGE(.BOTH.,#1367);
#1367=SURFACE_SIDE_STYLE('',(#1368));
#1368=SURFACE_STYLE_FILL_AREA(#1369);
#1369=FILL_AREA_STYLE('Steel - Satin',(#1370));
#1370=FILL_AREA_STYLE_COLOUR('Steel - Satin',#1371);
#1371=COLOUR_RGB('Steel - Satin',0.627450980392157,0.627450980392157,0.627450980392157);
ENDSEC;
END-ISO-10303-21;
